<svg width="65" height="65" viewBox="0 0 65 65" fill="none" xmlns="http://www.w3.org/2000/svg">
<g filter="url(#filter0_d_129_13)">
<path d="M32.5 8C18.9699 8 8 18.9699 8 32.5C8 46.0301 18.9699 57 32.5 57C46.0301 57 57 46.0301 57 32.5C57 18.9699 46.0301 8 32.5 8ZM44.75 46.2812C30.3961 46.2812 18.7188 34.6039 18.7188 20.25C18.7188 19.4047 19.4047 18.7188 20.25 18.7188H25.9034C26.7486 18.7188 27.4346 19.4047 27.4346 20.25C27.4346 22.896 28.0104 25.4164 29.1466 27.7378C29.3272 28.1053 29.3517 28.5249 29.217 28.9107C29.0853 29.2966 28.8036 29.6121 28.4361 29.7897L26.1514 30.8922C28.0533 34.2028 30.7973 36.9498 34.1047 38.8455L35.2072 36.5639C35.3849 36.1964 35.7003 35.9177 36.0862 35.783C36.4721 35.6513 36.8947 35.6758 37.2591 35.8534C39.5866 36.9896 42.104 37.5654 44.7469 37.5654C45.5922 37.5654 46.2782 38.2514 46.2782 39.0966V44.75H46.2812C46.2812 45.5952 45.5952 46.2812 44.75 46.2812Z" fill="#E4EBF2"/>
</g>
<defs>
<filter id="filter0_d_129_13" x="0" y="0" width="65" height="65" filterUnits="userSpaceOnUse" color-interpolation-filters="sRGB">
<feFlood flood-opacity="0" result="BackgroundImageFix"/>
<feColorMatrix in="SourceAlpha" type="matrix" values="0 0 0 0 0 0 0 0 0 0 0 0 0 0 0 0 0 0 127 0" result="hardAlpha"/>
<feOffset/>
<feGaussianBlur stdDeviation="4"/>
<feColorMatrix type="matrix" values="0 0 0 0 0.479167 0 0 0 0 0.449219 0 0 0 0 0.451699 0 0 0 1 0"/>
<feBlend mode="normal" in2="BackgroundImageFix" result="effect1_dropShadow_129_13"/>
<feBlend mode="normal" in="SourceGraphic" in2="effect1_dropShadow_129_13" result="shape"/>
</filter>
</defs>
</svg>
