<svg width="539" height="377" viewBox="0 0 539 377" fill="none" xmlns="http://www.w3.org/2000/svg">
<g clip-path="url(#clip0_78_51)">
<path d="M432.85 350.641C429.352 363.918 417.093 372.215 417.093 372.215C417.093 372.215 410.506 358.986 414.004 345.709C417.503 332.431 429.762 324.134 429.762 324.134C429.762 324.134 436.349 337.363 432.85 350.641Z" fill="#3F3D56"/>
<path d="M427.544 347.832C417.745 357.48 416.649 372.208 416.649 372.208C416.649 372.208 431.439 371.294 441.238 361.646C451.037 351.998 452.134 337.27 452.134 337.27C452.134 337.27 437.343 338.184 427.544 347.832Z" fill="url(#paint0_linear_78_51)"/>
<path d="M72.4972 300.415H90.9511L136.427 282.681C136.427 282.681 168.721 269.545 166.085 294.504C163.448 319.463 158.835 352.96 158.835 352.96C158.835 352.96 144.335 346.392 136.427 348.362C128.518 350.333 133.79 308.297 133.79 308.297C133.79 308.297 69.2019 339.167 63.2703 335.226C57.3387 331.285 56.0206 303.699 56.0206 303.699L72.4972 300.415Z" fill="#2F2E41"/>
<path opacity="0.1" d="M72.4972 300.415H90.9511L136.427 282.681C136.427 282.681 168.721 269.545 166.085 294.504C163.448 319.463 158.835 352.96 158.835 352.96C158.835 352.96 144.335 346.392 136.427 348.362C128.518 350.333 133.79 308.297 133.79 308.297C133.79 308.297 69.2019 339.167 63.2703 335.226C57.3387 331.285 56.0206 303.699 56.0206 303.699L72.4972 300.415Z" fill="black"/>
<path d="M101.571 242.822L123.904 274.799L175.971 318.149C175.971 318.149 224.082 329.315 217.492 337.196C210.901 345.078 170.698 329.315 170.698 329.315C170.698 329.315 110.723 285.965 108.746 282.681C106.769 279.397 85.0195 248.527 85.0195 248.527L101.571 242.822Z" fill="#E1A3A3"/>
<path opacity="0.1" d="M101.571 242.822L123.904 274.799L175.971 318.149C175.971 318.149 224.082 329.315 217.492 337.196C210.901 345.078 170.698 329.315 170.698 329.315C170.698 329.315 110.723 285.965 108.746 282.681C106.769 279.397 85.0195 248.527 85.0195 248.527L101.571 242.822Z" fill="black"/>
<path d="M88.3148 217L102.814 245.243C102.814 245.243 99.519 259.036 94.2464 260.349C88.9739 261.663 66.5657 243.272 66.5657 243.272L88.3148 217Z" fill="#D0CDE1"/>
<path opacity="0.1" d="M88.3148 217L102.814 245.243C102.814 245.243 99.519 259.036 94.2464 260.349C88.9739 261.663 66.5657 243.272 66.5657 243.272L88.3148 217Z" fill="black"/>
<path d="M265.202 285.792L269.485 303.399C269.533 303.595 269.525 303.801 269.464 303.993L250.035 364.5C249.958 364.74 249.801 364.946 249.59 365.084C249.379 365.222 249.127 365.284 248.876 365.26C248.624 365.235 248.389 365.125 248.209 364.948C248.029 364.772 247.916 364.539 247.887 364.289L245.2 340.718C245.182 340.562 245.198 340.403 245.247 340.253L263.08 285.71C263.155 285.483 263.302 285.285 263.499 285.149C263.696 285.012 263.932 284.943 264.172 284.952C264.412 284.961 264.642 285.048 264.828 285.2C265.014 285.351 265.145 285.559 265.202 285.792Z" fill="#2F2E41"/>
<g filter="url(#filter0_dd_78_51)">
<path d="M263.627 287.279L267.581 302.386L250.445 357.558L246.491 340.481L263.627 287.279Z" fill="#E4EBF2"/>
</g>
<path d="M177.289 369.38C177.948 371.351 245.832 368.723 246.491 368.067C247.065 367.244 247.551 366.363 247.941 365.439C248.56 364.126 249.127 362.812 249.127 362.812L246.491 341.545L179.266 339.167C179.266 339.167 177.585 357.19 177.243 365.439C177.157 367.521 177.157 368.986 177.289 369.38Z" fill="#2F2E41"/>
<path opacity="0.1" d="M237.923 344.422L239.241 362.812H209.583V344.422H237.923Z" fill="black"/>
<path opacity="0.1" d="M199.697 350.332L199.874 350.297L199.038 358.215H182.561V350.332H199.697Z" fill="black"/>
<path opacity="0.1" d="M177.289 369.38C177.948 371.351 245.832 368.723 246.491 368.067C247.065 367.244 247.551 366.363 247.941 365.439H177.243C177.157 367.521 177.157 368.986 177.289 369.38Z" fill="black"/>
<path d="M98.2008 207.804C114.58 207.804 127.859 194.571 127.859 178.248C127.859 161.924 114.58 148.691 98.2008 148.691C81.8212 148.691 68.5429 161.924 68.5429 178.248C68.5429 194.571 81.8212 207.804 98.2008 207.804Z" fill="#E1A3A3"/>
<path d="M96.2236 204.52C96.2236 204.52 86.3376 221.597 84.3604 230.793C82.3832 239.988 54.7025 212.402 54.7025 212.402L51.0776 202.878C51.0776 202.878 77.1107 190.727 75.1335 180.875C73.1563 171.023 96.2236 204.52 96.2236 204.52Z" fill="#E1A3A3"/>
<path d="M101.496 255.752L128.518 291.22L193.106 339.167C193.106 339.167 239.9 349.019 229.355 356.244C218.81 363.469 188.493 349.676 188.493 349.676C188.493 349.676 123.245 314.865 109.405 300.415C95.5646 285.965 69.861 261.663 69.861 261.663L101.496 255.752Z" fill="#E1A3A3"/>
<path d="M65.2475 310.924L73.1563 323.403L120.357 308.604C130.713 305.357 142.07 306.552 151.256 312.32C159.494 317.492 164.766 325.702 152.903 337.853C129.177 362.155 113.359 349.019 113.359 349.019C113.359 349.019 33.6124 386.457 20.431 368.067C7.24973 349.676 6.59069 340.48 6.59069 340.48C6.59069 340.48 57.3387 308.953 65.2475 310.924Z" fill="#2F2E41"/>
<path d="M164.107 354.274C164.107 354.274 185.198 368.067 160.153 374.635C135.109 381.203 116.655 372.008 116.655 372.008C116.655 372.008 94.9055 372.008 94.9055 360.842C94.9055 349.676 102.155 348.362 102.155 348.362L124.563 351.646C124.563 351.646 151.585 344.421 164.107 354.274Z" fill="#D0CDE1"/>
<path d="M122.531 170.813C124.549 171.709 126.551 172.771 128.746 173.031C130.94 173.292 133.439 172.528 134.478 170.584C135.039 169.534 135.103 168.298 135.129 167.109C135.208 163.502 134.947 159.603 132.653 156.812C131.194 155.036 129.063 153.916 127.552 152.183C126.47 150.941 125.749 149.436 124.974 147.984C122.035 142.484 117.685 137.198 111.639 135.613C109.114 134.951 106.465 134.983 103.855 135.02L88.629 135.234C86.165 135.269 83.663 135.309 81.3043 136.02C76.4035 137.496 72.8352 141.603 69.5671 145.531C67.1222 148.47 64.6707 151.439 62.8357 154.79C60.2049 159.68 58.8746 165.159 58.9717 170.707C58.9513 172.13 59.1356 173.548 59.5191 174.919C59.9676 176.176 60.5233 177.392 61.1802 178.555C64.0355 184.144 65.731 191.126 62.5153 196.517C68.1013 194.243 73.6282 191.262 77.313 186.5C78.9614 184.369 80.2542 181.876 82.451 180.312C84.6479 178.749 88.2274 178.613 89.6369 180.908C90.1214 181.836 90.3709 182.868 90.3636 183.914C90.4666 185.636 90.4637 187.425 91.1964 188.988C91.9291 190.551 93.6743 191.812 95.3405 191.344C98.21 190.539 97.9352 186.15 100.145 184.156C101.824 182.642 104.413 182.931 106.57 182.244C109.082 181.443 110.967 179.274 112.042 176.873C112.858 175.048 112.846 170.272 114.391 169.284C116.329 168.044 120.735 170.015 122.531 170.813Z" fill="#543A3A"/>
<path d="M48.7233 199.763C50.0575 199.408 51.4622 199.411 52.7946 199.773C57.0253 200.905 66.5093 203.901 68.5428 208.461C71.1791 214.372 80.406 223.568 80.406 223.568C80.406 223.568 92.9283 236.047 90.292 244.586C87.6557 253.124 77.7698 262.977 77.7698 262.977C77.7698 262.977 80.406 303.699 67.2247 314.208C54.0434 324.717 48.7709 317.492 48.7709 327.344C48.7709 337.196 7.90879 368.067 0 349.019C0 349.019 3.9544 313.551 2.63627 301.072C1.33714 288.772 3.23899 212.034 48.7233 199.763Z" fill="#D0CDE1"/>
<path d="M69.861 216.343C69.861 216.343 110.064 245.899 102.814 258.379C102.814 258.379 78.4288 270.201 73.1563 269.545C67.8838 268.888 47.4528 245.899 42.1802 243.929C36.9077 241.959 34.2714 206.491 69.861 216.343Z" fill="#D0CDE1"/>
<path d="M249.48 150.983C267.462 150.983 282.038 136.456 282.038 118.536C282.038 100.616 267.462 86.0887 249.48 86.0887C231.498 86.0887 216.921 100.616 216.921 118.536C216.921 136.456 231.498 150.983 249.48 150.983Z" fill="#E4EBF2"/>
<path d="M505.134 45.9577H323.486V83.2045H505.134V45.9577Z" fill="url(#paint1_linear_78_51)"/>
<path d="M518.396 76.3959H335.944V38.3481H518.396V76.3959ZM336.748 75.5949H517.592V39.1491H336.748V75.5949Z" fill="#646876"/>
<path d="M208.657 10.4131C210.211 10.4131 211.47 9.15789 211.47 7.60952C211.47 6.06116 210.211 4.80597 208.657 4.80597C207.104 4.80597 205.844 6.06116 205.844 7.60952C205.844 9.15789 207.104 10.4131 208.657 10.4131Z" fill="url(#paint2_linear_78_51)"/>
<path d="M218.302 10.4131C219.856 10.4131 221.115 9.15789 221.115 7.60952C221.115 6.06116 219.856 4.80597 218.302 4.80597C216.749 4.80597 215.489 6.06116 215.489 7.60952C215.489 9.15789 216.749 10.4131 218.302 10.4131Z" fill="url(#paint3_linear_78_51)"/>
<path d="M227.947 10.4131C229.501 10.4131 230.76 9.15789 230.76 7.60952C230.76 6.06116 229.501 4.80597 227.947 4.80597C226.394 4.80597 225.134 6.06116 225.134 7.60952C225.134 9.15789 226.394 10.4131 227.947 10.4131Z" fill="url(#paint4_linear_78_51)"/>
<path d="M539 219.476H200.62V0H539V219.476ZM201.423 218.675H538.196V0.801007H201.423V218.675Z" fill="#646876"/>
<path d="M538.598 12.1492H201.022V12.9502H538.598V12.1492Z" fill="#646876"/>
<path d="M209.461 9.61209C208.825 9.61209 208.204 9.42418 207.675 9.07211C207.146 8.72005 206.734 8.21965 206.491 7.63419C206.247 7.04873 206.184 6.40451 206.308 5.78299C206.432 5.16147 206.738 4.59057 207.188 4.14248C207.637 3.69439 208.21 3.38923 208.834 3.26561C209.457 3.14198 210.104 3.20543 210.691 3.44793C211.279 3.69044 211.781 4.10111 212.134 4.62801C212.487 5.15491 212.676 5.77437 212.676 6.40806C212.675 7.25752 212.336 8.07191 211.733 8.67256C211.131 9.27322 210.313 9.6111 209.461 9.61209ZM209.461 4.00505C208.984 4.00505 208.518 4.14598 208.121 4.41003C207.725 4.67408 207.416 5.04938 207.233 5.48847C207.051 5.92757 207.003 6.41073 207.096 6.87687C207.189 7.34301 207.419 7.77119 207.756 8.10725C208.093 8.44332 208.523 8.67219 208.991 8.76491C209.458 8.85763 209.943 8.81004 210.384 8.62816C210.824 8.44628 211.201 8.13828 211.466 7.74311C211.731 7.34793 211.872 6.88334 211.872 6.40806C211.872 5.77097 211.617 5.16018 211.165 4.70969C210.713 4.2592 210.1 4.00579 209.461 4.00505Z" fill="#3F3D56"/>
<path d="M219.106 9.61209C218.47 9.61209 217.849 9.42418 217.32 9.07211C216.791 8.72005 216.379 8.21965 216.136 7.63419C215.892 7.04873 215.829 6.40451 215.953 5.78299C216.077 5.16147 216.383 4.59057 216.833 4.14248C217.282 3.69439 217.855 3.38923 218.479 3.26561C219.103 3.14198 219.749 3.20543 220.336 3.44793C220.924 3.69044 221.426 4.10111 221.779 4.62801C222.133 5.15491 222.321 5.77437 222.321 6.40806C222.32 7.25752 221.981 8.07191 221.378 8.67256C220.776 9.27322 219.958 9.6111 219.106 9.61209ZM219.106 4.00505C218.629 4.00505 218.163 4.14598 217.766 4.41003C217.37 4.67408 217.061 5.04938 216.878 5.48847C216.696 5.92757 216.648 6.41073 216.741 6.87687C216.834 7.34301 217.064 7.77119 217.401 8.10725C217.738 8.44332 218.168 8.67219 218.636 8.76491C219.103 8.85763 219.588 8.81004 220.029 8.62816C220.469 8.44628 220.846 8.13828 221.111 7.74311C221.376 7.34793 221.517 6.88334 221.517 6.40806C221.517 5.77097 221.262 5.16018 220.81 4.70969C220.358 4.2592 219.745 4.00579 219.106 4.00505Z" fill="#3F3D56"/>
<path d="M228.751 9.61208C228.115 9.61208 227.494 9.42417 226.965 9.07211C226.436 8.72005 226.024 8.21965 225.781 7.63419C225.538 7.04874 225.474 6.40451 225.598 5.78299C225.722 5.16147 226.028 4.59057 226.478 4.14248C226.927 3.69439 227.5 3.38924 228.124 3.26561C228.748 3.14198 229.394 3.20543 229.981 3.44793C230.569 3.69044 231.071 4.1011 231.424 4.628C231.778 5.1549 231.966 5.77436 231.966 6.40806C231.965 7.25751 231.626 8.0719 231.023 8.67256C230.421 9.27322 229.604 9.6111 228.751 9.61208ZM228.751 4.00505C228.274 4.00504 227.808 4.14598 227.412 4.41003C227.015 4.67407 226.706 5.04937 226.523 5.48847C226.341 5.92756 226.293 6.41072 226.386 6.87686C226.479 7.343 226.709 7.77118 227.046 8.10725C227.383 8.44332 227.813 8.67218 228.281 8.76491C228.748 8.85763 229.233 8.81004 229.674 8.62816C230.114 8.44628 230.491 8.13828 230.756 7.74311C231.021 7.34793 231.162 6.88333 231.162 6.40806C231.162 5.77097 230.907 5.16019 230.455 4.70969C230.003 4.2592 229.39 4.00579 228.751 4.00505Z" fill="#3F3D56"/>
<path d="M307.409 12.5497H306.605V219.386H307.409V12.5497Z" fill="#646876"/>
<path d="M404.062 114.243H344.986V122.253H404.062V114.243Z" fill="#E4EBF2"/>
<path d="M496.896 114.243H437.82V122.253H496.896V114.243Z" fill="#E4EBF2"/>
<path d="M407.679 118.649H347.799V109.838H407.679V118.649ZM348.603 117.848H406.875V110.639H348.603V117.848Z" fill="#646876"/>
<path d="M404.062 176.321H344.986V184.331H404.062V176.321Z" fill="#E4EBF2"/>
<path d="M407.679 180.727H347.799V171.916H407.679V180.727ZM348.603 179.926H406.875V172.717H348.603V179.926Z" fill="#646876"/>
<path d="M497.097 144.481H345.187V152.491H497.097V144.481Z" fill="#E4EBF2"/>
<path d="M500.713 149.688H348V140.877H500.713V149.688ZM348.804 148.887H499.91V141.678H348.804V148.887Z" fill="#646876"/>
<path d="M500.512 118.649H440.633V109.838H500.512V118.649ZM441.437 117.848H499.709V110.639H441.437V117.848Z" fill="#646876"/>
<path d="M254.99 142.497C248.451 142.497 242.06 140.565 236.623 136.945C231.186 133.324 226.949 128.179 224.447 122.159C221.945 116.138 221.29 109.514 222.566 103.123C223.841 96.7321 226.99 90.8617 231.613 86.254C236.237 81.6464 242.127 78.5086 248.54 77.2373C254.953 75.9661 261.6 76.6185 267.641 79.1122C273.682 81.6058 278.845 85.8286 282.478 91.2466C286.11 96.6646 288.049 103.034 288.049 109.551C288.039 118.285 284.553 126.66 278.355 132.836C272.158 139.013 263.755 142.487 254.99 142.497ZM254.99 77.6026C248.649 77.6026 242.451 79.4764 237.18 82.9868C231.908 86.4973 227.799 91.4869 225.373 97.3247C222.946 103.162 222.311 109.586 223.548 115.783C224.785 121.981 227.838 127.673 232.322 132.141C236.805 136.609 242.517 139.652 248.736 140.885C254.954 142.117 261.4 141.485 267.258 139.067C273.116 136.649 278.122 132.554 281.645 127.3C285.167 122.046 287.047 115.869 287.047 109.551C287.038 101.08 283.657 92.9599 277.647 86.9706C271.637 80.9813 263.489 77.6122 254.99 77.6026Z" fill="#646876"/>
<path d="M516.459 371.624H374.705V372.622H516.459V371.624Z" fill="#3F3D56"/>
</g>
<defs>
<filter id="filter0_dd_78_51" x="233.491" y="272.279" width="41.0899" height="91.2791" filterUnits="userSpaceOnUse" color-interpolation-filters="sRGB">
<feFlood flood-opacity="0" result="BackgroundImageFix"/>
<feColorMatrix in="SourceAlpha" type="matrix" values="0 0 0 0 0 0 0 0 0 0 0 0 0 0 0 0 0 0 127 0" result="hardAlpha"/>
<feOffset dx="-3" dy="-5"/>
<feGaussianBlur stdDeviation="5"/>
<feColorMatrix type="matrix" values="0 0 0 0 0.698403 0 0 0 0 0.868687 0 0 0 0 0.941667 0 0 0 1 0"/>
<feBlend mode="normal" in2="BackgroundImageFix" result="effect1_dropShadow_78_51"/>
<feColorMatrix in="SourceAlpha" type="matrix" values="0 0 0 0 0 0 0 0 0 0 0 0 0 0 0 0 0 0 127 0" result="hardAlpha"/>
<feOffset dx="-3" dy="1"/>
<feGaussianBlur stdDeviation="2.5"/>
<feColorMatrix type="matrix" values="0 0 0 0 1 0 0 0 0 1 0 0 0 0 1 0 0 0 0.5 0"/>
<feBlend mode="normal" in2="effect1_dropShadow_78_51" result="effect2_dropShadow_78_51"/>
<feBlend mode="normal" in="SourceGraphic" in2="effect2_dropShadow_78_51" result="shape"/>
</filter>
<linearGradient id="paint0_linear_78_51" x1="434.391" y1="337.27" x2="434.391" y2="372.208" gradientUnits="userSpaceOnUse">
<stop stop-color="#FF6161"/>
<stop offset="1" stop-color="#FF66DD"/>
</linearGradient>
<linearGradient id="paint1_linear_78_51" x1="323.486" y1="67.9067" x2="505.132" y2="64.4532" gradientUnits="userSpaceOnUse">
<stop stop-color="#FF6161"/>
<stop offset="1" stop-color="#FF66DD"/>
</linearGradient>
<linearGradient id="paint2_linear_78_51" x1="208.657" y1="4.80597" x2="208.657" y2="10.4131" gradientUnits="userSpaceOnUse">
<stop stop-color="#FF6161"/>
<stop offset="1" stop-color="#FF66DD"/>
</linearGradient>
<linearGradient id="paint3_linear_78_51" x1="218.302" y1="4.80597" x2="218.302" y2="10.4131" gradientUnits="userSpaceOnUse">
<stop stop-color="#FF6161"/>
<stop offset="1" stop-color="#FF66DD"/>
</linearGradient>
<linearGradient id="paint4_linear_78_51" x1="227.947" y1="4.80597" x2="227.947" y2="10.4131" gradientUnits="userSpaceOnUse">
<stop stop-color="#FF6161"/>
<stop offset="1" stop-color="#FF66DD"/>
</linearGradient>
<clipPath id="clip0_78_51">
<rect width="539" height="377" fill="white"/>
</clipPath>
</defs>
</svg>
