<svg width="370" height="303" viewBox="0 0 370 303" fill="none" xmlns="http://www.w3.org/2000/svg">
<g clip-path="url(#clip0_54_154)">
<path d="M296.444 303C333.509 303 363.556 296.196 363.556 287.802C363.556 279.408 333.509 272.604 296.444 272.604C259.38 272.604 229.333 279.408 229.333 287.802C229.333 296.196 259.38 303 296.444 303Z" fill="url(#paint0_linear_54_154)"/>
<path d="M302.667 298.53C339.731 298.53 369.778 291.726 369.778 283.332C369.778 274.938 339.731 268.134 302.667 268.134C265.602 268.134 235.556 274.938 235.556 283.332C235.556 291.726 265.602 298.53 302.667 298.53Z" stroke="#646876" stroke-miterlimit="10"/>
<path d="M194 149.454C201.364 149.454 207.333 143.45 207.333 136.044C207.333 128.637 201.364 122.633 194 122.633C186.636 122.633 180.667 128.637 180.667 136.044C180.667 143.45 186.636 149.454 194 149.454Z" fill="url(#paint1_linear_54_154)"/>
<path d="M247.778 149.454C255.142 149.454 261.111 143.45 261.111 136.044C261.111 128.637 255.142 122.633 247.778 122.633C240.414 122.633 234.444 128.637 234.444 136.044C234.444 143.45 240.414 149.454 247.778 149.454Z" fill="url(#paint2_linear_54_154)"/>
<path d="M301.556 149.454C308.919 149.454 314.889 143.45 314.889 136.044C314.889 128.637 308.919 122.633 301.556 122.633C294.192 122.633 288.222 128.637 288.222 136.044C288.222 143.45 294.192 149.454 301.556 149.454Z" fill="#FFA363"/>
<path d="M5.55555 10.4352C6.29193 10.4352 6.88889 9.83477 6.88889 9.09414C6.88889 8.35352 6.29193 7.75313 5.55555 7.75313C4.81918 7.75313 4.22222 8.35352 4.22222 9.09414C4.22222 9.83477 4.81918 10.4352 5.55555 10.4352Z" fill="#F86B75"/>
<path d="M9.55556 10.4352C10.2919 10.4352 10.8889 9.83477 10.8889 9.09414C10.8889 8.35352 10.2919 7.75313 9.55556 7.75313C8.81918 7.75313 8.22222 8.35352 8.22222 9.09414C8.22222 9.83477 8.81918 10.4352 9.55556 10.4352Z" fill="#FAD375"/>
<path d="M13.5556 10.4352C14.2919 10.4352 14.8889 9.83477 14.8889 9.09414C14.8889 8.35352 14.2919 7.75313 13.5556 7.75313C12.8192 7.75313 12.2222 8.35352 12.2222 9.09414C12.2222 9.83477 12.8192 10.4352 13.5556 10.4352Z" fill="#8BCC55"/>
<path d="M121.333 29.8799H29.7778V58.4882H121.333V29.8799Z" fill="url(#paint3_linear_54_154)"/>
<path d="M162 4.62409H0.222222V101.177H162V4.62409Z" stroke="#646876" stroke-miterlimit="10"/>
<path d="M0.222222 11.9363H162" stroke="#646876" stroke-miterlimit="10"/>
<path d="M6 9.54115C6.73638 9.54115 7.33333 8.94075 7.33333 8.20013C7.33333 7.45951 6.73638 6.85912 6 6.85912C5.26362 6.85912 4.66667 7.45951 4.66667 8.20013C4.66667 8.94075 5.26362 9.54115 6 9.54115Z" stroke="#646876" stroke-miterlimit="10"/>
<path d="M10 9.54115C10.7364 9.54115 11.3333 8.94075 11.3333 8.20013C11.3333 7.45951 10.7364 6.85912 10 6.85912C9.26362 6.85912 8.66667 7.45951 8.66667 8.20013C8.66667 8.94075 9.26362 9.54115 10 9.54115Z" stroke="#646876" stroke-miterlimit="10"/>
<path d="M14 9.54115C14.7364 9.54115 15.3333 8.94075 15.3333 8.20013C15.3333 7.45951 14.7364 6.85912 14 6.85912C13.2636 6.85912 12.6667 7.45951 12.6667 8.20013C12.6667 8.94075 13.2636 9.54115 14 9.54115Z" stroke="#646876" stroke-miterlimit="10"/>
<path d="M126.889 24.2923H35.3333V52.9006H126.889V24.2923Z" stroke="#646876" stroke-miterlimit="10"/>
<path d="M140.889 71.0043H18.2222V74.7037H140.889V71.0043Z" fill="#E4EBF2"/>
<path d="M140.889 79.8828H18.2222V83.5822H140.889V79.8828Z" fill="#E4EBF2"/>
<path d="M140.889 88.7613H18.2222V92.4606H140.889V88.7613Z" fill="#E4EBF2"/>
<path d="M142.222 69.2163H19.5556V72.9157H142.222V69.2163Z" stroke="#646876" stroke-miterlimit="10"/>
<path d="M142.222 78.0948H19.5556V81.7941H142.222V78.0948Z" stroke="#646876" stroke-miterlimit="10"/>
<path d="M142.222 86.9732H19.5556V90.6726H142.222V86.9732Z" stroke="#646876" stroke-miterlimit="10"/>
<path d="M42.8889 177.615C43.6253 177.615 44.2222 177.015 44.2222 176.274C44.2222 175.533 43.6253 174.933 42.8889 174.933C42.1525 174.933 41.5556 175.533 41.5556 176.274C41.5556 177.015 42.1525 177.615 42.8889 177.615Z" fill="#F86B75"/>
<path d="M46.8889 177.615C47.6253 177.615 48.2222 177.015 48.2222 176.274C48.2222 175.533 47.6253 174.933 46.8889 174.933C46.1525 174.933 45.5556 175.533 45.5556 176.274C45.5556 177.015 46.1525 177.615 46.8889 177.615Z" fill="#FAD375"/>
<path d="M50.8889 177.615C51.6253 177.615 52.2222 177.015 52.2222 176.274C52.2222 175.533 51.6253 174.933 50.8889 174.933C50.1525 174.933 49.5556 175.533 49.5556 176.274C49.5556 177.015 50.1525 177.615 50.8889 177.615Z" fill="#8BCC55"/>
<path d="M158.667 197.06H67.1111V225.668H158.667V197.06Z" fill="url(#paint4_linear_54_154)"/>
<path d="M199.333 191.472V268.357H37.5556V171.804H169.111" stroke="#646876" stroke-miterlimit="10"/>
<path d="M37.5556 179.116H169.333" stroke="#646876" stroke-miterlimit="10"/>
<path d="M43.3333 176.721C44.0697 176.721 44.6667 176.121 44.6667 175.38C44.6667 174.639 44.0697 174.039 43.3333 174.039C42.597 174.039 42 174.639 42 175.38C42 176.121 42.597 176.721 43.3333 176.721Z" stroke="#3F3D56" stroke-miterlimit="10"/>
<path d="M47.3333 176.721C48.0697 176.721 48.6667 176.121 48.6667 175.38C48.6667 174.639 48.0697 174.039 47.3333 174.039C46.597 174.039 46 174.639 46 175.38C46 176.121 46.597 176.721 47.3333 176.721Z" stroke="#3F3D56" stroke-miterlimit="10"/>
<path d="M51.3333 176.721C52.0697 176.721 52.6667 176.121 52.6667 175.38C52.6667 174.639 52.0697 174.039 51.3333 174.039C50.597 174.039 50 174.639 50 175.38C50 176.121 50.597 176.721 51.3333 176.721Z" stroke="#3F3D56" stroke-miterlimit="10"/>
<path d="M164.222 191.472H72.6667V220.081H164.222V191.472Z" stroke="#646876" stroke-miterlimit="10"/>
<path d="M174.444 100.283C175.181 100.283 175.778 99.6828 175.778 98.9422C175.778 98.2016 175.181 97.6012 174.444 97.6012C173.708 97.6012 173.111 98.2016 173.111 98.9422C173.111 99.6828 173.708 100.283 174.444 100.283Z" fill="#F86B75"/>
<path d="M178.444 100.283C179.181 100.283 179.778 99.6828 179.778 98.9422C179.778 98.2016 179.181 97.6012 178.444 97.6012C177.708 97.6012 177.111 98.2016 177.111 98.9422C177.111 99.6828 177.708 100.283 178.444 100.283Z" fill="#FAD375"/>
<path d="M182.444 100.283C183.181 100.283 183.778 99.6828 183.778 98.9422C183.778 98.2016 183.181 97.6012 182.444 97.6012C181.708 97.6012 181.111 98.2016 181.111 98.9422C181.111 99.6828 181.708 100.283 182.444 100.283Z" fill="#8BCC55"/>
<path d="M330.889 94.4721H169.111V191.025H330.889V94.4721Z" stroke="#646876" stroke-miterlimit="10"/>
<path d="M169.111 101.784H330.889" stroke="#646876" stroke-miterlimit="10"/>
<path d="M174.889 99.3892C175.625 99.3892 176.222 98.7888 176.222 98.0482C176.222 97.3075 175.625 96.7072 174.889 96.7072C174.153 96.7072 173.556 97.3075 173.556 98.0482C173.556 98.7888 174.153 99.3892 174.889 99.3892Z" stroke="#646876" stroke-miterlimit="10"/>
<path d="M178.889 99.3892C179.625 99.3892 180.222 98.7888 180.222 98.0482C180.222 97.3075 179.625 96.7072 178.889 96.7072C178.153 96.7072 177.556 97.3075 177.556 98.0482C177.556 98.7888 178.153 99.3892 178.889 99.3892Z" stroke="#646876" stroke-miterlimit="10"/>
<path d="M182.889 99.3892C183.625 99.3892 184.222 98.7888 184.222 98.0482C184.222 97.3075 183.625 96.7072 182.889 96.7072C182.153 96.7072 181.556 97.3075 181.556 98.0482C181.556 98.7888 182.153 99.3892 182.889 99.3892Z" stroke="#646876" stroke-miterlimit="10"/>
<path d="M196.222 147.219C203.586 147.219 209.556 141.215 209.556 133.809C209.556 126.402 203.586 120.398 196.222 120.398C188.858 120.398 182.889 126.402 182.889 133.809C182.889 141.215 188.858 147.219 196.222 147.219Z" stroke="#646876" stroke-miterlimit="10"/>
<path d="M250 147.219C257.364 147.219 263.333 141.215 263.333 133.809C263.333 126.402 257.364 120.398 250 120.398C242.636 120.398 236.667 126.402 236.667 133.809C236.667 141.215 242.636 147.219 250 147.219Z" stroke="#646876" stroke-miterlimit="10"/>
<path d="M303.778 147.219C311.142 147.219 317.111 141.215 317.111 133.809C317.111 126.402 311.142 120.398 303.778 120.398C296.414 120.398 290.444 126.402 290.444 133.809C290.444 141.215 296.414 147.219 303.778 147.219Z" stroke="#3F3D56" stroke-miterlimit="10"/>
<path d="M212.444 158.617H176V162.193H212.444V158.617Z" fill="#E4EBF2"/>
<path d="M266.667 158.617H230.222V162.193H266.667V158.617Z" fill="#E4EBF2"/>
<path d="M320.889 158.617H284.444V162.193H320.889V158.617Z" fill="#F2F2F2"/>
<path d="M214.222 157.276H177.778V160.852H214.222V157.276Z" stroke="#646876" stroke-miterlimit="10"/>
<path d="M268.444 157.276H232V160.852H268.444V157.276Z" stroke="#646876" stroke-miterlimit="10"/>
<path d="M322.667 157.276H286.222V160.852H322.667V157.276Z" stroke="#3F3D56" stroke-miterlimit="10"/>
<path d="M71.5556 236.843H43.5556V260.982H71.5556V236.843Z" fill="#E4EBF2"/>
<path d="M123.333 237.067H95.3333V261.205H123.333V237.067Z" fill="#E4EBF2"/>
<path d="M175.111 237.29H147.111V261.428H175.111V237.29Z" fill="#E4EBF2"/>
<path d="M75.5556 232.373H47.5555V256.511H75.5556V232.373Z" stroke="#646876" stroke-miterlimit="10"/>
<path d="M127.333 232.597H99.3333V256.735H127.333V232.597Z" stroke="#646876" stroke-miterlimit="10"/>
<path d="M179.111 232.82H151.111V256.958H179.111V232.82Z" stroke="#646876" stroke-miterlimit="10"/>
<path d="M267.016 91.409L254.545 98.3586L267.844 93.64L267.016 91.409Z" fill="#79758C"/>
<path d="M272.637 98.2468C274.464 97.6497 274.976 94.1636 273.78 90.4602C272.584 86.7569 270.133 84.2388 268.306 84.8359C266.478 85.4329 265.966 88.9191 267.162 92.6224C268.358 96.3257 270.809 98.8438 272.637 98.2468Z" fill="#D2DAE4"/>
<path d="M282.847 90.9001C284.225 90.4496 284.659 87.9647 283.814 85.3499C282.97 82.735 281.167 80.9804 279.789 81.4308C278.41 81.8813 277.977 84.3662 278.821 86.981C279.665 89.5959 281.468 91.3505 282.847 90.9001Z" fill="#D2DAE4"/>
<path d="M271.273 87.4704L279.545 84.4665L281.304 89.3648L273.297 94.804L271.273 87.4704Z" fill="#D2DAE4"/>
<path d="M270.482 105.479L272.704 100.562C272.704 100.562 278.038 86.2579 273.149 88.94C268.26 91.622 266.482 98.7741 266.482 98.7741L265.149 103.244L270.482 105.479Z" fill="#E1A3A3"/>
<path d="M331.371 179.682C331.371 179.682 323.816 194.433 321.593 194.88C319.371 195.327 319.371 181.47 319.371 181.47C319.371 181.47 323.816 177.447 325.593 177.894C327.371 178.341 331.371 179.682 331.371 179.682Z" fill="#E1A3A3"/>
<path d="M320.26 272.659C320.26 272.659 324.26 274.894 322.482 279.811C320.704 284.728 319.816 283.387 318.927 287.41C318.038 291.433 310.038 290.986 309.593 289.198C309.149 287.41 308.26 280.258 310.482 277.576C312.704 274.894 320.26 272.659 320.26 272.659Z" fill="#55536E"/>
<path d="M280.704 272.659C280.704 272.659 276.704 274.894 278.482 279.811C280.26 284.728 281.149 283.387 282.038 287.41C282.927 291.433 290.927 290.986 291.371 289.198C291.816 287.41 292.704 280.258 290.482 277.576C288.26 274.894 280.704 272.659 280.704 272.659Z" fill="#55536E"/>
<path d="M318.038 183.258C318.038 183.258 321.593 185.493 322.482 199.35C323.371 213.207 322.038 228.853 321.593 232.429C321.149 236.005 322.038 241.369 322.927 244.051C323.815 246.733 320.704 267.295 320.704 267.295C321.36 268.693 321.7 270.219 321.7 271.765C321.7 273.311 321.36 274.837 320.704 276.235C318.482 281.152 311.815 286.069 310.038 281.152C309.945 279.437 309.49 277.761 308.704 276.235C307.371 273.553 309.593 262.825 309.593 262.825C309.593 262.825 307.815 245.839 308.26 241.369C308.704 236.899 302.927 210.525 302.038 206.055C301.149 201.585 301.593 198.009 301.149 199.35C300.704 200.691 292.704 237.793 292.704 237.793C292.704 237.793 293.593 261.484 293.149 264.613C292.704 267.742 294.927 274 293.593 276.235C292.26 278.47 289.593 286.516 284.704 281.599C279.816 276.682 280.704 274.894 280.26 272.659C279.816 270.424 280.26 267.742 280.26 264.166C280.26 260.59 276.704 240.475 278.482 237.346C280.26 234.217 279.371 230.194 278.927 223.041C278.482 215.889 278.038 181.47 282.482 175.212C286.927 168.954 318.038 183.258 318.038 183.258Z" fill="#3F3D56"/>
<path d="M307.149 99.4446C313.04 99.4446 317.815 94.6414 317.815 88.7165C317.815 82.7915 313.04 77.9883 307.149 77.9883C301.258 77.9883 296.482 82.7915 296.482 88.7165C296.482 94.6414 301.258 99.4446 307.149 99.4446Z" fill="#E1A3A3"/>
<path d="M314.038 92.963C314.038 92.963 313.593 109.055 315.816 111.737C318.038 114.419 296.704 109.502 296.704 109.502C296.704 109.502 301.593 99.2211 298.482 92.516C295.371 85.8109 314.038 92.963 314.038 92.963Z" fill="#E1A3A3"/>
<path d="M318.038 109.949C318.038 109.949 317.149 106.373 311.816 105.479C306.482 104.585 300.175 103.691 298.218 105.479C296.26 107.267 295.371 109.502 294.038 109.502H287.816L278.038 126.935C278.038 126.935 282.927 132.746 281.593 143.475C280.26 154.203 278.038 173.871 278.038 173.871C281.601 178.642 284.725 183.729 287.371 189.069C291.816 198.009 322.482 197.115 320.704 181.47C320.704 181.47 318.482 177.447 319.371 173.871C320.26 170.295 322.927 146.157 322.927 146.157L333.149 118.889C333.149 118.889 318.927 111.737 318.038 109.949Z" fill="#55536E"/>
<path d="M330.038 118.442H333.149C333.149 118.442 334.927 128.723 334.482 134.981C334.038 141.24 334.038 155.991 334.038 155.991C334.038 155.991 335.815 159.567 335.371 162.696C334.927 165.825 334.038 174.318 334.038 174.318C334.038 174.318 333.593 186.387 325.149 180.129C325.149 180.129 322.482 178.788 323.815 172.977C325.149 167.166 322.927 160.908 322.927 160.908C322.927 160.908 324.26 156.885 323.815 154.203C323.371 151.521 321.593 143.028 321.593 143.028L330.038 118.442Z" fill="#55536E"/>
<path d="M290.038 110.843L287.815 109.502C287.815 109.502 284.704 108.161 280.26 109.502C275.815 110.843 273.593 110.396 271.815 109.949C270.038 109.502 271.371 105.032 271.371 105.032C271.371 105.032 267.815 98.7741 264.26 102.35C260.704 105.926 260.704 113.078 260.704 113.078C260.704 113.078 258.482 117.548 266.482 120.23C274.482 122.912 278.038 126.935 278.038 126.935H286.927L290.038 110.843Z" fill="#55536E"/>
<path d="M306.426 101.522C306.412 101.123 306.284 100.737 306.058 100.409C305.831 100.082 305.515 99.8273 305.148 99.676C304.658 99.5079 304.147 99.4064 303.629 99.3743C302.116 99.178 300.559 98.6198 299.677 97.457C298.504 95.9086 298.824 93.7426 297.884 92.0618C297.446 91.4 296.967 90.7669 296.449 90.1664C294.808 87.9565 294.518 85.1352 294.369 82.4511C294.295 81.907 294.357 81.353 294.55 80.8391C294.831 80.3767 295.172 79.9536 295.564 79.5805C296.227 78.8055 296.585 77.813 296.569 76.7907C296.521 74.7119 299.479 73.315 301.573 72.5971C303.668 71.8792 305.939 71.7649 308.17 71.7345C309.453 71.717 310.777 71.7323 311.956 72.2035C312.635 72.4999 313.272 72.8819 313.855 73.3402C316.326 75.1595 318.647 77.3961 319.476 80.2269C319.801 81.5191 319.953 82.8493 319.926 84.1821C319.966 84.5961 319.905 85.0137 319.75 85.3993C319.454 85.999 318.755 86.3238 318.303 86.8324C317.459 87.7824 317.609 89.1568 317.502 90.386C317.365 91.6537 316.934 92.8712 316.244 93.9406C315.553 95.0099 314.623 95.9012 313.527 96.5425C313.072 96.7666 312.653 97.058 312.284 97.407C312.005 97.7774 311.775 98.1819 311.598 98.6107C310.709 100.326 308.469 101.461 306.426 101.522Z" fill="#543A3A"/>
<path d="M85.5991 4.76999L79.6791 8.06844L85.9924 5.82894L85.5991 4.76999Z" fill="#79758C"/>
<path d="M88.2672 8.0157C89.1348 7.7323 89.3778 6.07749 88.8101 4.31959C88.2424 2.56169 87.0789 1.36638 86.2113 1.64979C85.3438 1.9332 85.1007 3.58801 85.6684 5.34591C86.2362 7.10381 87.3997 8.29911 88.2672 8.0157Z" fill="#D2DAE4"/>
<path d="M93.1137 4.52835C93.7682 4.31454 93.9738 3.135 93.573 1.89378C93.1721 0.652554 92.3166 -0.180323 91.6621 0.033493C91.0076 0.247309 90.8019 1.42685 91.2028 2.66807C91.6036 3.90929 92.4592 4.74217 93.1137 4.52835Z" fill="#D2DAE4"/>
<path d="M87.62 2.90017L91.5467 1.47467L92.3813 3.79954L88.5809 6.38145L87.62 2.90017Z" fill="#D2DAE4"/>
<path d="M125.599 171.056L119.679 174.354L125.992 172.115L125.599 171.056Z" fill="#79758C"/>
<path d="M128.267 174.302C129.135 174.018 129.378 172.363 128.81 170.606C128.242 168.848 127.079 167.652 126.211 167.936C125.344 168.219 125.101 169.874 125.668 171.632C126.236 173.39 127.4 174.585 128.267 174.302Z" fill="#C4C4C4"/>
<path d="M133.114 170.814C133.768 170.6 133.974 169.421 133.573 168.18C133.172 166.938 132.317 166.106 131.662 166.319C131.008 166.533 130.802 167.713 131.203 168.954C131.604 170.195 132.459 171.028 133.114 170.814Z" fill="#C4C4C4"/>
<path d="M127.62 169.186L131.547 167.761L132.381 170.085L128.581 172.667L127.62 169.186Z" fill="#C4C4C4"/>
</g>
<defs>
<linearGradient id="paint0_linear_54_154" x1="229.333" y1="290.516" x2="363.562" y2="288.205" gradientUnits="userSpaceOnUse">
<stop stop-color="#FF6161"/>
<stop offset="1" stop-color="#FF66DD"/>
</linearGradient>
<linearGradient id="paint1_linear_54_154" x1="180.667" y1="138.438" x2="207.342" y2="138.335" gradientUnits="userSpaceOnUse">
<stop stop-color="#FF6161"/>
<stop offset="1" stop-color="#FF66DD"/>
</linearGradient>
<linearGradient id="paint2_linear_54_154" x1="234.444" y1="138.438" x2="261.12" y2="138.335" gradientUnits="userSpaceOnUse">
<stop stop-color="#FF6161"/>
<stop offset="1" stop-color="#FF66DD"/>
</linearGradient>
<linearGradient id="paint3_linear_54_154" x1="29.7778" y1="46.7384" x2="121.351" y2="45.5959" gradientUnits="userSpaceOnUse">
<stop stop-color="#FF6161"/>
<stop offset="1" stop-color="#FF66DD"/>
</linearGradient>
<linearGradient id="paint4_linear_54_154" x1="67.1111" y1="213.918" x2="158.684" y2="212.776" gradientUnits="userSpaceOnUse">
<stop stop-color="#FF6161"/>
<stop offset="1" stop-color="#FF66DD"/>
</linearGradient>
<clipPath id="clip0_54_154">
<rect width="370" height="303" fill="white"/>
</clipPath>
</defs>
</svg>
