<svg width="429" height="123" viewBox="0 0 429 123" fill="none" xmlns="http://www.w3.org/2000/svg">
<g filter="url(#filter0_d_106_35)">
<path d="M323.28 43.4842L324.16 44.7042L334.857 58.5844C335.125 58.9085 335.374 59.248 335.602 59.601C335.788 59.8993 335.851 60.2583 335.778 60.6023C335.705 60.9463 335.501 61.2483 335.209 61.4445C334.949 61.6567 334.619 61.7645 334.284 61.7469C333.948 61.7294 333.632 61.5878 333.395 61.3496C333.062 60.9979 332.75 60.6267 332.46 60.2381C328.561 55.155 324.661 50.099 320.802 44.9888C320.555 44.6226 320.216 44.3282 319.818 44.1354C319.421 43.9426 318.98 43.8582 318.54 43.8909C314.776 43.9586 311.025 43.8909 307.274 43.8909H306.435C306.356 43.8848 306.278 43.8956 306.205 43.9228C306.131 43.9499 306.065 43.9926 306.009 44.048C305.954 44.1034 305.911 44.1702 305.884 44.2436C305.857 44.3171 305.846 44.3956 305.852 44.4737C305.852 44.7855 305.852 45.0973 305.852 45.409V59.5061C305.872 59.8538 305.872 60.2022 305.852 60.5499C305.8 60.8706 305.635 61.162 305.387 61.371C305.138 61.58 304.823 61.6927 304.498 61.6885C304.168 61.6913 303.847 61.5729 303.598 61.3557C303.348 61.1384 303.187 60.8374 303.144 60.5092C303.124 60.1978 303.124 59.8853 303.144 59.5739V21.4032C303.13 21.164 303.13 20.9241 303.144 20.6848C303.138 20.3658 303.245 20.055 303.446 19.807C303.646 19.5591 303.928 19.3899 304.241 19.3293C304.614 19.2456 304.996 19.2092 305.378 19.2209C310.28 19.2209 315.182 19.2209 320.084 19.2209C323.173 19.144 326.241 19.76 329.062 21.0237C330.786 21.7595 332.29 22.9307 333.427 24.4228C334.564 25.9149 335.295 27.6768 335.548 29.5362C335.957 31.6186 335.746 33.7753 334.942 35.739C334.138 37.7027 332.776 39.3871 331.025 40.5835C328.946 41.9958 326.577 42.9223 324.092 43.2944L323.28 43.4842ZM305.893 22.0268C305.893 22.5554 305.893 22.9621 305.893 23.3823V39.9735C305.845 40.2425 305.845 40.5178 305.893 40.7868C305.99 41.0193 306.175 41.2043 306.407 41.3019C306.717 41.3497 307.032 41.3497 307.342 41.3019C311.133 41.3019 314.925 41.3019 318.703 41.3019C320.057 41.3019 321.546 41.3019 322.968 41.0986C325.123 40.9031 327.19 40.1511 328.967 38.9162C330.323 38.0127 331.4 36.7493 332.08 35.2675C332.759 33.7856 333.013 32.1438 332.813 30.5257C332.714 28.9102 332.15 27.358 331.189 26.0566C330.227 24.7552 328.91 23.7604 327.396 23.1925C325.548 22.3799 323.551 21.9599 321.533 21.959C316.658 21.959 311.797 21.959 306.936 21.959C306.651 21.9726 306.34 21.9997 305.893 22.0268Z" fill="#494C51"/>
<path d="M206.42 39.6888C206.647 45.53 204.598 51.231 200.706 55.5888C197.298 59.3842 192.581 61.7475 187.503 62.2036C183.76 62.6396 179.969 62.0833 176.508 60.5905C174.066 59.5525 171.857 58.0354 170.01 56.1287C168.163 54.222 166.717 51.9644 165.756 49.489C164.431 46.4232 163.804 43.1002 163.921 39.7615C164.038 36.4228 164.896 33.1521 166.433 30.1868C167.9 27.0635 170.151 24.374 172.965 22.3808C175.78 20.3876 179.063 19.1588 182.493 18.8143C185.197 18.421 187.952 18.5649 190.6 19.2378C193.248 19.9106 195.738 21.0992 197.928 22.7356C200.117 24.372 201.963 26.4242 203.36 28.7749C204.756 31.1256 205.677 33.7288 206.068 36.4357C206.312 37.6285 206.352 38.9975 206.42 39.6888ZM166.975 40.5292C166.975 41.0986 166.975 41.8847 167.097 42.698C167.19 43.4909 167.326 44.2782 167.503 45.0566C169.737 54.7755 178.268 60.9294 188.072 59.4655C190.611 59.1341 193.042 58.2299 195.181 56.8211C197.321 55.4123 199.112 53.5356 200.421 51.3325C201.875 49.0105 202.84 46.4158 203.257 43.7075C203.674 40.9991 203.534 38.234 202.845 35.5817C201.908 31.1038 199.308 27.1486 195.571 24.5146C191.834 21.8806 187.237 20.7638 182.71 21.3897C178.347 21.9188 174.351 24.0958 171.538 27.4759C168.497 31.1355 166.877 35.7702 166.975 40.5292Z" fill="#494C51"/>
<path d="M349.955 41.6001C349.624 47.3561 349.624 53.1266 349.955 58.8826H375.101C375.449 58.8621 375.797 58.8621 376.144 58.8826C376.474 58.9226 376.778 59.0828 376.998 59.3328C377.218 59.5828 377.338 59.9051 377.336 60.2381C377.303 60.549 377.163 60.839 376.941 61.0589C376.719 61.2787 376.428 61.415 376.117 61.4445C375.805 61.4445 375.494 61.4445 375.169 61.4445H348.804C347.261 61.58 346.8 60.6448 346.841 59.4248C346.909 57.3102 346.841 55.1821 346.841 53.0675V21.5795C346.841 19.6818 347.274 19.2345 349.157 19.2345H374.885C375.231 19.2288 375.576 19.2652 375.914 19.3429C376.212 19.3832 376.484 19.5334 376.676 19.7641C376.869 19.9948 376.969 20.2894 376.956 20.59C376.963 20.9071 376.858 21.2164 376.66 21.4641C376.462 21.7117 376.184 21.8821 375.873 21.9454C375.526 21.9795 375.177 21.9795 374.83 21.9454H349.861C349.789 22.3308 349.739 22.7201 349.712 23.1112V37.6556C349.73 38.0552 349.771 38.4534 349.834 38.8484H372.122C372.537 38.8323 372.953 38.878 373.354 38.984C373.62 39.0635 373.852 39.2265 374.017 39.4487C374.182 39.6709 374.272 39.9405 374.272 40.2175C374.272 40.4945 374.182 40.7641 374.017 40.9863C373.852 41.2085 373.62 41.3715 373.354 41.451C372.953 41.557 372.537 41.6026 372.122 41.5865H349.955V41.6001Z" fill="#494C51"/>
<path d="M403.213 37.9674C403.632 38.496 403.944 38.9162 404.269 39.3229L420.031 58.6522C420.284 58.9396 420.519 59.243 420.735 59.5604C420.845 59.7102 420.924 59.8813 420.966 60.063C421.007 60.2446 421.011 60.4329 420.977 60.6161C420.943 60.7993 420.871 60.9734 420.766 61.1276C420.662 61.2818 420.526 61.4127 420.369 61.5123C420.089 61.7195 419.744 61.8196 419.396 61.7948C419.049 61.7699 418.721 61.6217 418.473 61.3767C418.175 61.0785 417.932 60.7396 417.661 60.4279C412.461 54.03 407.261 47.632 402.062 41.2341C401.791 40.8817 401.479 40.5564 401.114 40.1362C400.789 40.4344 400.491 40.6648 400.233 40.9359C397.173 44.0129 394.126 47.1169 391.053 50.1939C390.816 50.4192 390.631 50.6938 390.512 50.9982C390.393 51.3027 390.341 51.6297 390.362 51.9561C390.362 54.5315 390.362 57.1069 390.362 59.6824C390.382 59.9938 390.382 60.3062 390.362 60.6176C390.319 60.9458 390.158 61.2469 389.908 61.4641C389.659 61.6814 389.339 61.7997 389.008 61.7969C388.683 61.8011 388.368 61.6884 388.12 61.4795C387.871 61.2705 387.706 60.9791 387.654 60.6583C387.627 60.3788 387.627 60.0974 387.654 59.8179C387.654 46.9407 387.654 34.0635 387.654 21.1864C387.634 20.9111 387.634 20.6348 387.654 20.3595C387.713 20.013 387.889 19.6972 388.153 19.4652C388.416 19.2332 388.752 19.0991 389.103 19.0854C389.438 19.1096 389.755 19.2478 390.001 19.4771C390.248 19.7063 390.408 20.0129 390.457 20.346C390.484 20.7657 390.484 21.1868 390.457 21.6066V45.653C390.457 46.0868 390.457 46.5205 390.525 47.0085L390.755 47.1034C390.998 46.8865 391.242 46.6832 391.472 46.4528L413.138 24.1142L417.052 20.0478C417.262 19.8104 417.493 19.5926 417.742 19.3971C417.861 19.2812 418.003 19.1915 418.159 19.1337C418.314 19.0759 418.48 19.0513 418.646 19.0615C418.812 19.0717 418.974 19.1165 419.121 19.193C419.269 19.2694 419.399 19.3759 419.502 19.5056C419.753 19.7278 419.912 20.035 419.95 20.3679C419.987 20.7008 419.9 21.0359 419.706 21.3084C419.474 21.6108 419.215 21.892 418.934 22.1488L404.309 36.8965L403.213 37.9674Z" fill="#494C51"/>
<path d="M292.88 60.089C292.88 60.9294 292.609 61.4445 292.149 61.6207C291.895 61.7413 291.61 61.78 291.334 61.7314C291.057 61.6829 290.802 61.5494 290.605 61.3496C290.312 61.0042 290.075 60.6155 289.901 60.1974C288.438 57.0391 286.976 53.8944 285.581 50.709C285.47 50.3505 285.238 50.0419 284.924 49.8366C284.61 49.6312 284.234 49.5419 283.862 49.5839C276.251 49.5839 268.641 49.5839 261.031 49.5839C260.657 49.5426 260.28 49.6339 259.966 49.8419C259.652 50.0499 259.42 50.3615 259.312 50.7225C257.957 53.8808 256.495 57.012 255.087 60.211C254.933 60.5636 254.752 60.9035 254.545 61.2276C254.348 61.4939 254.065 61.6839 253.745 61.7654C253.424 61.8469 253.085 61.815 252.785 61.6749C252.505 61.527 252.292 61.2779 252.189 60.9783C252.085 60.6787 252.1 60.351 252.23 60.0619C252.367 59.6675 252.529 59.2826 252.717 58.9097C258.422 46.4934 264.128 34.0907 269.833 21.7015C270.09 21.1457 270.334 20.5628 270.645 20.0206C270.811 19.6504 271.08 19.3359 271.42 19.1153C271.76 18.8946 272.156 18.7772 272.561 18.7772C272.967 18.7772 273.363 18.8946 273.703 19.1153C274.043 19.3359 274.312 19.6504 274.478 20.0206C275.019 21.0237 275.466 22.081 275.94 23.1247L292.392 58.8284C292.609 59.357 292.785 59.845 292.88 60.089ZM283.726 46.9272C283.564 46.4799 283.442 46.1274 283.293 45.7886L279.068 36.4899C277.073 32.1071 275.087 27.7379 273.11 23.3823C272.947 23.0298 272.907 22.569 272.446 22.4063C271.756 23.3416 261.451 46.0461 261.316 46.9272H283.726Z" fill="#494C51"/>
<path d="M139.961 18.7194C144.323 18.6104 148.601 19.9286 152.148 22.4741C152.457 22.6433 152.751 22.8383 153.028 23.0569C153.295 23.286 153.472 23.604 153.524 23.9527C153.576 24.3013 153.501 24.6571 153.312 24.9546C153.087 25.2453 152.765 25.446 152.405 25.5205C152.045 25.595 151.671 25.5386 151.349 25.3613C151.08 25.1976 150.822 25.0164 150.577 24.8191C148.07 22.9158 145.093 21.7304 141.965 21.3897C139.377 20.9798 136.728 21.2459 134.273 22.1623C132.977 22.595 131.815 23.3571 130.901 24.374C129.988 25.3909 129.353 26.6279 129.06 27.9638C128.659 29.4232 128.746 30.9741 129.308 32.3792C129.871 33.7843 130.877 34.9663 132.174 35.7444C134.023 36.854 136.033 37.668 138.133 38.1571C140.462 38.74 142.791 39.2415 145.106 39.8515C146.85 40.3299 148.532 41.0124 150.116 41.8847C156.887 45.5039 156.183 54.0842 152.324 57.988C150.242 60.072 147.536 61.4149 144.619 61.8105C141.265 62.3475 137.835 62.1531 134.563 61.2408C131.291 60.3284 128.255 58.7195 125.661 56.5241C125.413 56.332 125.186 56.1138 124.984 55.8734C124.769 55.6385 124.65 55.3314 124.65 55.0127C124.65 54.694 124.769 54.3869 124.984 54.1519C125.179 53.9026 125.455 53.7296 125.764 53.6627C126.074 53.5959 126.396 53.6395 126.677 53.786C127.002 53.9795 127.306 54.2067 127.584 54.4637C130.003 56.6359 132.926 58.1689 136.088 58.9233C139.298 59.7523 142.669 59.7243 145.864 58.8419C147.269 58.4234 148.567 57.7068 149.669 56.7409C150.894 55.6396 151.751 54.1881 152.124 52.583C152.497 50.9779 152.368 49.2969 151.755 47.7676C151.264 46.5664 150.412 45.5478 149.317 44.8533C147.547 43.7295 145.595 42.9223 143.549 42.4676C140.99 41.8034 138.417 41.2477 135.871 40.5835C134.053 40.102 132.315 39.3577 130.712 38.374C129.548 37.7362 128.542 36.8447 127.769 35.7655C126.995 34.6862 126.474 33.4468 126.243 32.1388C125.796 30.1865 125.933 28.1457 126.636 26.2705C127.339 24.3953 128.577 22.7686 130.197 21.593C132.783 19.6641 135.938 18.6529 139.162 18.7194C139.392 18.7058 139.676 18.7194 139.961 18.7194Z" fill="#494C51"/>
<path d="M217.47 40.2446V21.4575C217.47 21.1186 217.47 20.7662 217.47 20.4137C217.508 20.0557 217.671 19.7229 217.932 19.4746C218.192 19.2263 218.532 19.0787 218.891 19.0582C219.24 19.0888 219.567 19.2414 219.815 19.4893C220.063 19.7372 220.215 20.0645 220.246 20.4137C220.266 20.793 220.266 21.1731 220.246 21.5524V57.2018C220.246 59.1537 220.246 58.8826 221.965 58.8826H243.347C243.658 58.8623 243.97 58.8623 244.281 58.8826C244.606 58.9286 244.904 59.0915 245.118 59.3409C245.332 59.5903 245.449 59.9092 245.446 60.2381C245.432 60.5538 245.301 60.853 245.078 61.0764C244.855 61.2998 244.556 61.4312 244.24 61.4445C243.888 61.4445 243.536 61.4445 243.198 61.4445C235.371 61.4445 227.558 61.4445 219.731 61.4445C217.862 61.4445 217.388 61.0514 217.402 59.0588C217.497 52.8778 217.47 46.5476 217.47 40.2446Z" fill="#494C51"/>
<path d="M276.549 13.9209C275.493 13.9209 275.29 13.5685 275.602 12.9179C275.602 12.7823 275.75 12.6739 275.818 12.5519C276.956 10.8575 278.12 9.17671 279.217 7.44168C280.192 5.92353 281.384 5.97775 282.859 6.94015C283.388 7.29257 283.401 7.645 283.022 8.17364C282.938 8.2871 282.843 8.39157 282.738 8.48541C281.099 10.0713 279.474 11.6708 277.795 13.2296C277.412 13.514 276.993 13.7464 276.549 13.9209Z" fill="#494C51"/>
<path d="M146.257 91.428V78.6321H154.219V80.2181H147.841V84.0541H152.621V85.6807H147.841V89.8285H154.219V91.428H146.257Z" fill="#494C51"/>
<path d="M167.273 91.428V85.8434C167.266 85.1697 166.995 84.5256 166.519 84.0492C166.044 83.5728 165.4 83.3021 164.727 83.295C164.052 83.295 163.404 83.5635 162.927 84.0414C162.45 84.5193 162.181 85.1675 162.181 85.8434V91.428H160.584V85.8434C160.644 84.786 161.106 83.7919 161.875 83.0648C162.645 82.3377 163.662 81.9326 164.72 81.9326C165.778 81.9326 166.796 82.3377 167.565 83.0648C168.335 83.7919 168.797 84.786 168.857 85.8434V91.428H167.273Z" fill="#494C51"/>
<path d="M182.913 90.1403C181.981 91.0534 180.73 91.5649 179.426 91.5649C178.122 91.5649 176.871 91.0534 175.939 90.1403C175.469 89.6927 175.097 89.1516 174.847 88.5517C174.597 87.9518 174.476 87.3063 174.49 86.6566C174.477 86.0043 174.598 85.3562 174.844 84.7524C175.091 84.1485 175.459 83.6018 175.926 83.1459C176.376 82.6757 176.919 82.3041 177.521 82.0545C178.122 81.8049 178.768 81.6826 179.419 81.6955C180.381 81.6864 181.324 81.9649 182.127 82.4953C182.942 83.0104 183.58 83.7624 183.956 84.6505L177.185 89.0694C177.49 89.3658 177.85 89.5986 178.245 89.7545C178.64 89.9104 179.062 89.9863 179.487 89.9776C179.923 89.9887 180.356 89.9088 180.759 89.7431C181.163 89.5775 181.527 89.3296 181.83 89.0152C182.139 88.7084 182.385 88.3431 182.552 87.9406C182.719 87.538 182.805 87.1062 182.805 86.6702H184.402C184.401 87.3193 184.268 87.9613 184.012 88.5576C183.756 89.154 183.382 89.6923 182.913 90.1403ZM179.419 83.3628C178.977 83.3539 178.538 83.4373 178.13 83.6077C177.722 83.7781 177.354 84.0317 177.05 84.3523C176.739 84.663 176.493 85.0331 176.328 85.4406C176.163 85.8481 176.081 86.2847 176.088 86.7244C176.091 87.0928 176.151 87.4584 176.264 87.8088L181.681 84.2574C181.082 83.6527 180.27 83.3072 179.419 83.295V83.3628Z" fill="#494C51"/>
<path d="M192.297 84.0541C192.058 84.2891 191.869 84.5698 191.741 84.8796C191.613 85.1893 191.549 85.5217 191.552 85.8569V91.4415H189.995V85.8434C189.996 85.2994 190.108 84.7614 190.325 84.2626C190.541 83.7637 190.858 83.3145 191.254 82.9426C191.623 82.5472 192.07 82.2323 192.566 82.0177C193.063 81.8032 193.598 81.6935 194.138 81.6955V83.295C193.795 83.2846 193.454 83.3469 193.137 83.4777C192.819 83.6085 192.533 83.8049 192.297 84.0541Z" fill="#494C51"/>
<path d="M207.382 93.9356C206.642 94.6985 205.672 95.1957 204.622 95.3501C203.571 95.5045 202.5 95.3075 201.572 94.7896C200.85 94.401 200.232 93.8429 199.771 93.163L201.126 92.2819C201.41 92.7454 201.808 93.1282 202.282 93.394C202.756 93.6597 203.29 93.7995 203.834 93.8001C204.312 93.8176 204.788 93.7225 205.223 93.5224C205.658 93.3223 206.04 93.0228 206.339 92.6479C206.94 91.8764 207.243 90.9139 207.192 89.9369C206.763 90.4257 206.236 90.8194 205.646 91.0928C205.056 91.3662 204.416 91.5134 203.766 91.5249C203.116 91.5363 202.471 91.4119 201.871 91.1595C201.272 90.907 200.732 90.5322 200.286 90.0589C199.395 89.1262 198.909 87.879 198.932 86.5889C198.943 85.2812 199.467 84.0304 200.392 83.107C201.317 82.1836 202.568 81.662 203.874 81.6549C204.523 81.643 205.167 81.7658 205.766 82.0154C206.365 82.265 206.906 82.6361 207.354 83.1053C207.822 83.5556 208.193 84.0969 208.445 84.696C208.696 85.295 208.823 85.9391 208.817 86.5889V90.4249C208.833 91.0776 208.713 91.7264 208.466 92.3306C208.219 92.9348 207.85 93.4813 207.382 93.9356ZM207.26 86.6295C207.26 85.7308 206.903 84.8689 206.268 84.2333C205.633 83.5978 204.772 83.2408 203.874 83.2408C202.977 83.2408 202.116 83.5978 201.481 84.2333C200.846 84.8689 200.489 85.7308 200.489 86.6295C200.489 87.5283 200.846 88.3902 201.481 89.0257C202.116 89.6612 202.977 90.0183 203.874 90.0183C204.772 90.0183 205.633 89.6612 206.268 89.0257C206.903 88.3902 207.26 87.5283 207.26 86.6295Z" fill="#494C51"/>
<path d="M216.061 80.2316H215.317L216.86 78.6321H218.458L216.061 80.2316ZM215.317 91.428V81.8447H216.901V91.428H215.317Z" fill="#494C51"/>
<path d="M231.173 91.428V89.9776C230.744 90.4664 230.218 90.86 229.628 91.1334C229.038 91.4069 228.397 91.554 227.747 91.5655C227.097 91.577 226.452 91.4526 225.853 91.2001C225.253 90.9477 224.714 90.5729 224.267 90.0996C223.375 89.1677 222.888 87.92 222.913 86.6295C222.979 85.3639 223.528 84.172 224.447 83.2996C225.365 82.4272 226.583 81.9409 227.849 81.9409C229.115 81.9409 230.333 82.4272 231.251 83.2996C232.169 84.172 232.718 85.3639 232.785 86.6295V91.428H231.173ZM231.173 86.6295C231.179 86.1915 231.094 85.757 230.924 85.3534C230.754 84.9498 230.502 84.5859 230.185 84.2845C229.879 83.9659 229.51 83.7136 229.103 83.5434C228.695 83.3731 228.257 83.2886 227.815 83.295C226.935 83.3056 226.094 83.6603 225.471 84.2833C224.849 84.9064 224.494 85.7485 224.484 86.6295C224.487 87.5141 224.839 88.3616 225.463 88.9883C226.086 89.615 226.931 89.9705 227.815 89.9776C228.255 89.9834 228.692 89.8999 229.1 89.7322C229.507 89.5645 229.876 89.316 230.185 89.0017C230.503 88.6952 230.755 88.3265 230.925 87.9184C231.095 87.5103 231.18 87.0716 231.173 86.6295Z" fill="#494C51"/>
<path d="M281.952 92.4853L281.072 90.086H274.748L273.868 92.4853H272.189L276.834 79.7165H278.96L283.604 92.4853H281.952ZM277.89 81.3702L275.29 88.4866H280.476L277.89 81.3702Z" fill="#494C51"/>
<path d="M288.885 92.4853V79.7165H290.47V92.4853H288.885Z" fill="#494C51"/>
<path d="M299.271 84.5014V92.4853H297.673V84.5014H296.089V82.9019H297.673V79.7165H299.271V82.9019H300.869V84.5014H299.271Z" fill="#494C51"/>
<path d="M314.166 91.1975C313.709 91.6453 313.167 91.9961 312.571 92.2291C311.976 92.462 311.339 92.5722 310.7 92.553C310.055 92.5715 309.412 92.4611 308.81 92.2284C308.208 91.9957 307.658 91.6452 307.193 91.1975C306.725 90.748 306.355 90.2065 306.105 89.6071C305.856 89.0077 305.733 88.3631 305.744 87.7139C305.733 87.0619 305.855 86.4145 306.101 85.811C306.348 85.2075 306.715 84.6605 307.179 84.2032C307.621 83.7282 308.155 83.3495 308.749 83.0906C309.343 82.8317 309.984 82.6983 310.632 82.6986C311.595 82.6878 312.538 82.9664 313.34 83.4984C314.162 84.0086 314.806 84.7617 315.182 85.6536L308.411 90.0725C309.028 90.6685 309.856 90.9951 310.713 90.9807C311.151 90.9928 311.587 90.9135 311.993 90.7478C312.398 90.5821 312.765 90.3337 313.07 90.0183C313.381 89.7136 313.627 89.3484 313.792 88.9452C313.958 88.5419 314.039 88.1091 314.031 87.6733H315.642C315.652 88.3308 315.526 88.9833 315.272 89.5898C315.018 90.1963 314.642 90.7436 314.166 91.1975ZM310.673 84.4201C310.233 84.4097 309.795 84.4925 309.389 84.663C308.983 84.8335 308.618 85.088 308.317 85.4096C308.001 85.7177 307.752 86.0871 307.585 86.4949C307.417 86.9028 307.334 87.3407 307.342 87.7817C307.35 88.1507 307.414 88.5163 307.531 88.8661L312.948 85.3147C312.333 84.7006 311.501 84.3547 310.632 84.3523L310.673 84.4201Z" fill="#494C51"/>
<path d="M323.564 85.0978C323.323 85.3309 323.132 85.6113 323.004 85.9215C322.876 86.2317 322.813 86.565 322.819 86.9006V92.4853H321.221V86.9006C321.225 86.3584 321.338 85.8224 321.552 85.3243C321.765 84.8261 322.077 84.3758 322.467 83.9999C322.839 83.6047 323.288 83.2902 323.787 83.0757C324.285 82.8612 324.822 82.7513 325.365 82.7528V84.3523C325.03 84.3459 324.697 84.4088 324.387 84.537C324.077 84.6653 323.797 84.8562 323.564 85.0978Z" fill="#494C51"/>
<path d="M337.281 92.4853V86.9006C337.287 86.5638 337.223 86.2294 337.093 85.9189C336.962 85.6084 336.768 85.3287 336.523 85.0978C336.166 84.7457 335.713 84.5068 335.222 84.411C334.73 84.3151 334.221 84.3667 333.758 84.5592C333.296 84.7516 332.9 85.0765 332.621 85.493C332.342 85.9095 332.192 86.3991 332.19 86.9006V92.4853H330.592V86.9006C330.652 85.8433 331.114 84.8492 331.884 84.1221C332.653 83.3949 333.671 82.9898 334.729 82.9898C335.787 82.9898 336.804 83.3949 337.574 84.1221C338.343 84.8492 338.805 85.8433 338.865 86.9006V92.4853H337.281Z" fill="#494C51"/>
<path d="M352.786 92.4853V91.0349C352.356 91.5236 351.83 91.9173 351.24 92.1907C350.65 92.4642 350.01 92.6113 349.359 92.6228C348.71 92.6343 348.064 92.5098 347.465 92.2574C346.866 92.005 346.326 91.6302 345.88 91.1569C344.988 90.225 344.501 88.9773 344.526 87.6868C344.592 86.4212 345.141 85.2293 346.059 84.3569C346.977 83.4845 348.195 82.9982 349.461 82.9982C350.727 82.9982 351.945 83.4845 352.863 84.3569C353.782 85.2293 354.331 86.4212 354.397 87.6868V92.4853H352.786ZM352.786 87.6868C352.792 87.2488 352.707 86.8143 352.537 86.4107C352.366 86.0071 352.115 85.6432 351.797 85.3418C351.491 85.0231 351.123 84.7709 350.715 84.6006C350.307 84.4304 349.869 84.3459 349.427 84.3523C348.547 84.3629 347.706 84.7176 347.084 85.3406C346.461 85.9637 346.107 86.8057 346.096 87.6868C346.1 88.5621 346.444 89.4016 347.056 90.0268C347.668 90.6521 348.499 91.0137 349.373 91.0349C349.814 91.0407 350.25 90.9572 350.658 90.7895C351.065 90.6217 351.434 90.3732 351.743 90.0589C352.071 89.7572 352.333 89.3906 352.513 88.9823C352.692 88.574 352.785 88.1329 352.786 87.6868Z" fill="#494C51"/>
<path d="M362.792 84.5014V92.4853H361.195V84.5014H359.61V82.9019H361.195V79.7165H362.792V82.9019H364.39V84.5014H362.792Z" fill="#494C51"/>
<path d="M370.01 81.3431V79.7165H371.594V81.3431H370.01ZM370.01 92.5259V82.9019H371.594V92.4853L370.01 92.5259Z" fill="#494C51"/>
<path d="M382.603 92.4853H380.301L376.821 82.9019H378.514L381.452 90.94L384.377 82.9019H386.07L382.603 92.4853Z" fill="#494C51"/>
<path d="M398.785 92.4853V91.0349C398.357 91.5233 397.831 91.9167 397.242 92.19C396.654 92.4633 396.014 92.6105 395.365 92.6219C394.716 92.6334 394.072 92.509 393.474 92.2568C392.876 92.0045 392.337 91.6298 391.892 91.1569C391.448 90.6972 391.1 90.1537 390.867 89.5579C390.635 88.9622 390.523 88.3262 390.538 87.6868C390.538 86.3747 391.059 85.1162 391.986 84.1884C392.913 83.2605 394.17 82.7393 395.481 82.7393C396.791 82.7393 398.049 83.2605 398.975 84.1884C399.902 85.1162 400.423 86.3747 400.423 87.6868V92.4853H398.785ZM398.785 87.6868C398.774 86.7987 398.414 85.9507 397.783 85.3265C397.152 84.7023 396.3 84.3522 395.413 84.3523C394.973 84.3469 394.538 84.432 394.132 84.6022C393.727 84.7724 393.361 85.0242 393.057 85.3418C392.739 85.6432 392.487 86.0071 392.317 86.4107C392.147 86.8143 392.062 87.2488 392.068 87.6868C392.068 88.5748 392.421 89.4264 393.048 90.0543C393.675 90.6821 394.526 91.0349 395.413 91.0349C396.3 91.0349 397.151 90.6821 397.778 90.0543C398.405 89.4264 398.758 88.5748 398.758 87.6868H398.785Z" fill="#494C51"/>
<path d="M244.62 84.2439C246.664 82.4411 248.276 81.0178 252.744 83.4712C254.345 84.4549 256.175 85.0017 258.052 85.0572C260.165 84.8954 262.134 83.9244 263.55 82.3462C263.784 82.1309 263.927 81.834 263.95 81.5165C263.973 81.1989 263.873 80.8847 263.672 80.6383C263.57 80.5185 263.446 80.4201 263.307 80.349C263.167 80.2778 263.014 80.2353 262.858 80.224C262.701 80.2126 262.544 80.2326 262.396 80.2828C262.247 80.333 262.11 80.4124 261.993 80.5163C259.948 82.3191 258.337 83.7423 253.868 81.2889C247.964 78.0493 245.256 80.4485 243.035 82.3733C242.795 82.5849 242.647 82.8827 242.625 83.2023C242.602 83.5218 242.706 83.8375 242.913 84.0812C243.013 84.2006 243.136 84.2987 243.275 84.3697C243.414 84.4406 243.565 84.4831 243.72 84.4944C243.876 84.5058 244.032 84.4859 244.179 84.4359C244.327 84.3859 244.463 84.3067 244.579 84.2032L244.62 84.2439Z" fill="#494C51"/>
<path d="M262.074 86.616C260.029 88.4188 258.404 89.8421 253.949 87.3886C248.059 84.149 245.337 86.5347 243.116 88.4595C242.882 88.6748 242.739 88.9716 242.716 89.2892C242.694 89.6067 242.793 89.9209 242.995 90.1674C243.094 90.2877 243.216 90.3869 243.354 90.4591C243.492 90.5313 243.643 90.5751 243.799 90.5877C243.954 90.6003 244.11 90.5816 244.258 90.5327C244.406 90.4838 244.543 90.4057 244.66 90.3029C246.718 88.5001 248.33 87.0633 252.785 89.5167C254.382 90.4995 256.206 91.0506 258.079 91.1162C260.192 90.9544 262.161 89.9834 263.577 88.4052C263.817 88.1936 263.965 87.8958 263.988 87.5763C264.01 87.2567 263.907 86.941 263.699 86.6973C263.6 86.5763 263.477 86.4767 263.339 86.4046C263.2 86.3326 263.048 86.2895 262.892 86.2781C262.736 86.2667 262.58 86.2872 262.432 86.3382C262.285 86.3894 262.149 86.47 262.033 86.5753L262.074 86.616Z" fill="#494C51"/>
<path d="M57.4548 115C46.0928 115.003 34.9853 111.632 25.5371 105.315C16.0888 98.998 8.72434 90.0179 4.37507 79.5106C0.0258011 69.0033 -1.11287 57.4408 1.10308 46.2856C3.31903 35.1305 8.79006 24.8837 16.8242 16.8414C24.8583 8.79905 35.0946 3.32243 46.2383 1.10421C57.3821 -1.11401 68.9328 0.0258275 79.4293 4.37955C89.9259 8.73326 98.8968 16.1053 105.208 25.5632C111.518 35.0211 114.885 46.14 114.882 57.5136C114.865 72.7544 108.808 87.3659 98.0425 98.1428C87.2766 108.92 72.6801 114.982 57.4548 115ZM57.4548 4.81202C47.0415 4.80934 36.8613 7.89795 28.2016 13.6872C19.542 19.4765 12.7919 27.7065 8.80502 37.3362C4.81816 46.9659 3.77363 57.5628 5.80352 67.7868C7.83342 78.0108 12.8466 87.4026 20.2089 94.7744C27.5713 102.146 36.9522 107.167 47.1652 109.201C57.3782 111.236 67.9646 110.193 77.5855 106.205C87.2064 102.216 95.4297 95.4614 101.215 86.7944C107.001 78.1274 110.089 67.9375 110.089 57.5136C110.075 43.543 104.525 30.1485 94.6578 20.2686C84.7904 10.3886 71.4111 4.82996 57.4548 4.81202Z" fill="#494C51"/>
<path d="M88.9467 91.1085L92.7235 86.9797L24.8737 24.7869L21.0969 28.9156L88.9467 91.1085Z" fill="#494C51"/>
<path d="M83.2506 66.79L87.0274 62.6613L50.4859 29.1665L46.7092 33.2952L83.2506 66.79Z" fill="#494C51"/>
<path d="M35.8616 63.0641L39.9861 66.8447L51.5817 54.1686L47.4571 50.388L35.8616 63.0641Z" fill="#494C51"/>
</g>
<defs>
<filter id="filter0_d_106_35" x="0" y="0" width="429" height="123" filterUnits="userSpaceOnUse" color-interpolation-filters="sRGB">
<feFlood flood-opacity="0" result="BackgroundImageFix"/>
<feColorMatrix in="SourceAlpha" type="matrix" values="0 0 0 0 0 0 0 0 0 0 0 0 0 0 0 0 0 0 127 0" result="hardAlpha"/>
<feOffset dx="4" dy="4"/>
<feGaussianBlur stdDeviation="2"/>
<feColorMatrix type="matrix" values="0 0 0 0 0.782031 0 0 0 0 0.801531 0 0 0 0 0.8125 0 0 0 1 0"/>
<feBlend mode="normal" in2="BackgroundImageFix" result="effect1_dropShadow_106_35"/>
<feBlend mode="normal" in="SourceGraphic" in2="effect1_dropShadow_106_35" result="shape"/>
</filter>
</defs>
</svg>
