<svg width="306" height="100" viewBox="0 0 306 100" fill="none" xmlns="http://www.w3.org/2000/svg">
<path d="M25.847 40.9445L0.430783 49.237L22.3145 58.7677C23.2048 56.2626 24.0377 53.3545 24.7269 50.0144C25.3875 46.9335 25.7034 43.8814 25.847 40.9445Z" fill="#E4EBF2"/>
<path d="M0.631807 54.3622L16.542 70.3138C17.1739 69.45 18.8396 67.089 20.6488 63.0291L0.631807 54.3622Z" fill="#E4EBF2"/>
<path d="M24.21 21.9983L0 46.2713L25.9044 37.8348C25.9044 29.4559 24.411 22.8909 24.21 21.9983Z" fill="#E4EBF2"/>
<path d="M29.4655 52.7498C29.0634 55.7156 28.4891 58.5373 27.8285 61.1864L67.6041 78.4913L96.0071 50.0145L71.9407 25.8855L30.0686 39.5624C30.2409 43.5647 30.0973 47.9989 29.4655 52.7498Z" fill="#E4EBF2"/>
<path d="M69.6432 23.5531L46.1512 0L26.7372 19.4644C27.0532 20.3858 29.2645 26.8644 29.9538 36.5102L69.6432 23.5531Z" fill="#E4EBF2"/>
<path d="M22.573 76.3605L46.1512 100L64.2153 81.8888L26.5937 65.5917C24.8131 71.552 22.8889 75.6982 22.573 76.3605Z" fill="#E4EBF2"/>
<path d="M110.223 60.2073V59.5451C110.223 59.5451 110.252 59.1708 109.936 58.9116C109.62 58.6813 109.132 58.7101 109.132 58.7101H103.187C103.187 58.7101 102.67 58.6813 102.411 58.9116C102.095 59.1996 102.095 59.6027 102.095 59.6027V63.5762C102.095 63.5762 102.038 64.152 102.325 64.4976C102.641 64.8719 103.216 64.8143 103.216 64.8143H108.844C108.844 64.8143 109.333 64.8719 109.763 64.6127C110.165 64.3536 110.223 63.8641 110.223 63.8641V61.2151H106.001V62.3093H108.615V63.6913H103.618V59.8618H108.643V60.4377L110.223 60.2073Z" fill="#E4EBF2"/>
<path d="M246.494 61.4166V60.4376C246.494 60.4376 246.522 60.1209 246.264 59.9194C246.006 59.7178 245.603 59.7466 245.603 59.7466H240.807C240.807 59.7466 240.405 59.7178 240.176 59.9194C239.917 60.1497 239.917 60.4664 239.917 60.4664V63.7489C239.917 63.7489 239.86 64.2384 240.118 64.4975C240.377 64.8143 240.836 64.7567 240.836 64.7567H245.402C245.402 64.7567 245.776 64.8143 246.149 64.5839C246.494 64.3824 246.522 63.9792 246.522 63.9792V62.9715L245.087 62.6835V63.8065H241.353V60.6392H245.087V61.5606L246.494 61.4166Z" fill="#E4EBF2"/>
<path d="M294.138 61.4166V60.4376C294.138 60.4376 294.167 60.1209 293.909 59.9194C293.65 59.7178 293.248 59.7466 293.248 59.7466H288.452C288.452 59.7466 288.05 59.7178 287.82 59.9194C287.562 60.1497 287.562 60.4664 287.562 60.4664V63.7489C287.562 63.7489 287.504 64.2384 287.763 64.4975C288.021 64.8143 288.481 64.7567 288.481 64.7567H293.047C293.047 64.7567 293.42 64.8143 293.794 64.5839C294.138 64.3824 294.167 63.9792 294.167 63.9792V62.9715L292.731 62.6835V63.8065H288.998V60.6392H292.731V61.5606L294.138 61.4166Z" fill="#E4EBF2"/>
<path d="M201.319 37.6044V36.4814C201.319 36.4814 201.348 35.0417 200.228 34.2355C199.28 33.5733 197.385 33.4869 197.385 33.4869H178.832C178.832 33.4869 177.138 33.5445 176.334 34.2355C175.3 35.0993 175.328 36.4238 175.328 36.4238V46.3576C175.328 46.3576 175.156 47.9124 176.075 48.7763C177.109 49.7552 178.918 49.6401 178.918 49.6401H196.839C196.839 49.6401 198.562 49.784 199.998 49.0642C201.376 48.3444 201.376 46.8471 201.376 46.8471V40.2822H188.022V43.0463H196.437V46.6743H180.469V36.5102H196.408V38.209L201.319 37.6044Z" fill="#E4EBF2"/>
<path d="M119.183 62.8563H120.533C120.533 62.8563 120.763 62.8275 120.964 62.6259C121.136 62.4532 121.136 62.1652 121.136 62.1652V60.38C121.136 60.38 121.165 60.0921 120.878 59.8906C120.619 59.689 120.188 59.7466 120.188 59.7466H114.703V64.8143H116.082V62.8563H117.345L119.671 64.843H121.768L119.183 62.8563ZM116.082 62.0213V60.5816H119.355C119.355 60.5816 119.556 60.5816 119.729 60.668C119.93 60.8119 119.872 61.0135 119.872 61.3014C119.872 61.5894 119.872 61.7333 119.7 61.9061C119.528 62.0789 119.154 62.0213 119.154 62.0213H116.082Z" fill="#E4EBF2"/>
<path d="M187.39 62.8563H188.74C188.74 62.8563 188.97 62.8275 189.171 62.6259C189.343 62.4532 189.343 62.1652 189.343 62.1652V60.38C189.343 60.38 189.372 60.0921 189.085 59.8906C188.826 59.689 188.396 59.7466 188.396 59.7466H182.91V64.8143H184.289V62.8563H185.552L187.879 64.843H189.975L187.39 62.8563ZM184.289 62.0213V60.5816H187.563C187.563 60.5816 187.764 60.5816 187.936 60.668C188.137 60.8119 188.08 61.0135 188.08 61.3014C188.08 61.5894 188.08 61.7333 187.907 61.9061C187.735 62.0789 187.362 62.0213 187.362 62.0213H184.289Z" fill="#E4EBF2"/>
<path d="M128.948 59.7466H127.454L124.094 64.8431H125.645L126.363 63.8065H129.953L130.671 64.8431H132.394L128.948 59.7466ZM126.937 62.8563L128.172 60.8408L129.407 62.8563H126.937Z" fill="#E4EBF2"/>
<path d="M175.702 58.6525H174.151L170.217 64.8143H171.882L172.686 63.461H176.994L177.827 64.8143H179.722L175.702 58.6525ZM173.376 62.3669L174.84 60.0058L176.362 62.3669H173.376Z" fill="#E4EBF2"/>
<path d="M119.585 33.5158H114.215L102.095 49.6977H107.667L110.252 46.3577H123.204L125.788 49.6977H131.963L119.585 33.5158ZM112.377 43.2768L116.713 36.9998L121.079 43.2768H112.377Z" fill="#E4EBF2"/>
<path d="M141.555 60.3225C140.837 59.7466 139.717 59.7466 139.717 59.7466H135.266V64.8143H139.717C139.717 64.8143 140.808 64.6991 141.383 64.296C142.187 63.7201 142.388 62.9427 142.388 62.2805C142.388 61.647 142.187 60.8696 141.555 60.3225ZM140.521 63.5186C140.033 63.8641 138.798 63.8929 138.798 63.8929H136.702V60.6968H139.057C139.057 60.6968 140.033 60.6968 140.464 60.9847C140.981 61.3303 141.096 61.791 141.096 62.2517C141.096 62.7124 141.009 63.173 140.521 63.5186Z" fill="#E4EBF2"/>
<path d="M153.158 59.977C152.899 59.7179 152.296 59.7467 152.296 59.7467H147.069C147.069 59.7467 146.552 59.7755 146.351 60.0346C146.121 60.3226 146.121 60.6105 146.121 60.6105V63.8929C146.121 63.8929 146.093 64.3824 146.294 64.6128C146.523 64.8719 147.098 64.8431 147.098 64.8431H152.382C152.382 64.8431 153.043 64.8431 153.272 64.5552C153.502 64.2961 153.502 63.8066 153.502 63.8066V60.7257C153.473 60.6969 153.416 60.2362 153.158 59.977ZM152.066 63.9217H147.443V60.6969H152.066V63.9217Z" fill="#E4EBF2"/>
<path d="M266.741 59.977C266.482 59.7179 265.879 59.7467 265.879 59.7467H260.652C260.652 59.7467 260.135 59.7755 259.934 60.0346C259.704 60.3226 259.704 60.6105 259.704 60.6105V63.8929C259.704 63.8929 259.676 64.3824 259.877 64.6128C260.107 64.8719 260.681 64.8431 260.681 64.8431H265.965C265.965 64.8431 266.626 64.8431 266.855 64.5552C267.085 64.2961 267.085 63.8066 267.085 63.8066V60.7257C267.056 60.6969 266.999 60.2362 266.741 59.977ZM265.649 63.9217H261.026V60.6969H265.649V63.9217Z" fill="#E4EBF2"/>
<path d="M304.879 59.977C304.621 59.7179 304.018 59.7467 304.018 59.7467H298.791C298.791 59.7467 298.274 59.7755 298.073 60.0346C297.843 60.3226 297.843 60.6105 297.843 60.6105V63.8929C297.843 63.8929 297.814 64.3824 298.015 64.6128C298.245 64.8719 298.82 64.8431 298.82 64.8431H304.104C304.104 64.8431 304.764 64.8431 304.994 64.5552C305.224 64.2961 305.224 63.8066 305.224 63.8066V60.7257C305.195 60.6969 305.138 60.2362 304.879 59.977ZM303.788 63.9217H299.164V60.6969H303.788V63.9217Z" fill="#E4EBF2"/>
<path d="M237.533 34.2643C236.528 33.458 234.403 33.5156 234.403 33.5156H215.075C215.075 33.5156 213.525 33.5732 212.663 34.2643C211.687 35.0417 211.687 36.539 211.687 36.539V46.847C211.687 46.847 211.83 48.1428 212.577 48.8626C213.438 49.7264 215.104 49.6976 215.104 49.6976H234.604C234.604 49.6976 236.988 49.6976 237.878 48.7762C238.682 47.9124 238.682 46.3863 238.682 46.3863V36.5677C238.654 36.539 238.51 35.0705 237.533 34.2643ZM233.599 46.7895H216.712V36.4814H233.599V46.7895Z" fill="#E4EBF2"/>
<path d="M303.903 34.2643C302.898 33.458 300.772 33.5156 300.772 33.5156H281.445C281.445 33.5156 279.894 33.5732 279.032 34.2643C278.056 35.0417 278.056 36.539 278.056 36.539V46.847C278.056 46.847 278.199 48.1428 278.946 48.8626C279.808 49.7264 281.473 49.6976 281.473 49.6976H300.973C300.973 49.6976 303.357 49.6976 304.247 48.7762C305.051 47.9124 305.051 46.3863 305.051 46.3863V36.5677C305.051 36.539 304.908 35.0705 303.903 34.2643ZM299.968 46.7895H283.082V36.4814H299.968V46.7895Z" fill="#E4EBF2"/>
<path d="M249.394 33.5158H254.535V46.7032H270.962V49.6977H249.394V33.5158Z" fill="#E4EBF2"/>
<path d="M138.683 33.5158V49.6977H143.393V38.641L160.912 49.6977H164.53V33.5158H159.935V44.5437L142.302 33.5158H138.683Z" fill="#E4EBF2"/>
<path d="M200.199 59.977C199.941 59.7179 199.337 59.7467 199.337 59.7467H194.111C194.111 59.7467 193.594 59.7755 193.393 60.0346C193.163 60.3226 193.163 60.6105 193.163 60.6105V63.893C193.163 63.893 193.134 64.3825 193.335 64.6128C193.565 64.8719 194.139 64.8432 194.139 64.8432H197.097L197.758 66.0813H199.136L198.39 64.8719H199.395C199.395 64.8719 200.055 64.8719 200.285 64.584C200.515 64.3249 200.515 63.8354 200.515 63.8354V60.7545C200.486 60.6969 200.458 60.2362 200.199 59.977ZM199.079 63.9218H197.815L196.896 62.4245L196.006 62.8276L196.58 63.9218H194.455V60.6969H199.079V63.9218Z" fill="#E4EBF2"/>
<path d="M204.421 59.7466H205.857V63.8929H209.676V59.7466H211.17V63.8929C211.17 63.8929 211.141 64.2672 210.854 64.5551C210.566 64.8143 210.05 64.8143 210.05 64.8143H205.512C205.512 64.8143 204.995 64.8431 204.708 64.5839C204.392 64.296 204.392 63.7489 204.392 63.7489L204.421 59.7466Z" fill="#E4EBF2"/>
<path d="M216.712 59.7466H215.276V64.8431H216.712V59.7466Z" fill="#E4EBF2"/>
<path d="M220.044 59.7466H226.936V60.6968H224.179V64.8431H222.772V60.6968H220.044V59.7466Z" fill="#E4EBF2"/>
<path d="M249.682 59.7466H256.574V60.6968H253.817V64.8431H252.439V60.6968H249.682V59.7466Z" fill="#E4EBF2"/>
<path d="M230.383 59.7466H236.5V60.6968H231.818V61.8198H234.489V62.6548H231.818V63.8929H236.5V64.8431H230.383V59.7466Z" fill="#E4EBF2"/>
<path d="M262.404 59.0268H263.38L265.247 57.0689H263.639L262.404 59.0268Z" fill="#E4EBF2"/>
<path d="M270.991 59.7466V64.8431H272.369V61.4742L276.964 64.8431H278.056V59.7466H276.62V62.9427L272.054 59.7466H270.991Z" fill="#E4EBF2"/>
<path d="M283.656 59.7466H282.22V64.8431H283.656V59.7466Z" fill="#E4EBF2"/>
</svg>
