<svg width="447" height="100" viewBox="0 0 447 100" fill="none" xmlns="http://www.w3.org/2000/svg">
<path d="M340.551 100C340.277 100 340.003 99.7222 340.003 99.4444V0.555556C340.003 0.277778 340.277 0 340.551 0C340.825 0 341.099 0.277778 341.099 0.555556V99.1667C341.099 99.7222 340.825 100 340.551 100Z" fill="#E4EBF2"/>
<path d="M0.274196 30.8333H6.85489C7.40328 30.8333 8.22587 30.8333 8.77426 30.5556C9.04845 30.5556 9.32265 30.2778 9.59685 29.7222C12.0646 17.7778 22.484 8.88889 34.8228 8.88889H36.1938C36.468 7.5 36.468 6.11111 36.468 4.44444V0.277778H34.8228C17.2743 0.277778 2.46776 13.6111 0.274196 30.8333Z" fill="#E4EBF2"/>
<path d="M29.3389 90C17.5485 87.5 8.77426 76.9444 8.77426 64.4444V63.0556C7.40328 62.7778 6.0323 62.7778 4.38713 62.7778H0V64.4444C0 82.5 13.1614 97.2222 30.1615 99.4444V92.7778C30.1615 92.2222 30.1615 91.3889 29.8873 90.8333C30.1615 90.2778 29.8873 90 29.3389 90Z" fill="#E4EBF2"/>
<path d="M89.3878 69.1667C89.1136 69.1667 88.8394 69.4444 88.5652 70C86.0974 81.9444 75.678 90.8333 63.3392 90.8333H61.9682C61.694 92.2222 61.694 93.6111 61.694 95.2778V100H63.3392C81.1619 100 95.6943 86.6667 97.8878 69.4444H91.3071C90.7587 68.8889 89.9361 69.1667 89.3878 69.1667Z" fill="#E4EBF2"/>
<path d="M67.7263 0.555556V7.22222C67.7263 7.77778 67.7263 8.61111 68.0005 9.16667C68.0005 9.44444 68.2747 9.72222 68.8231 10C80.6135 12.5 89.3878 23.0556 89.3878 35.5556V36.9444C90.7587 37.2222 92.1297 37.2222 93.7749 37.2222H98.4362V35.5556C98.162 17.5 85.0006 2.77778 67.7263 0.555556Z" fill="#E4EBF2"/>
<path d="M40.0326 76.3889C38.9358 74.7222 37.5648 73.0556 35.9196 71.3889L27.6938 63.0556C26.0486 61.6667 24.6776 60.2778 22.7582 58.8889C17.2743 55.2778 10.9678 53.3333 4.38713 53.3333H0V62.5H4.66132C10.9678 62.5 17.0001 65 21.3873 69.4444L29.6131 77.7778C34.0003 82.2222 36.468 88.3333 36.468 94.7222V99.4444H45.5165V94.7222C45.7907 88.3333 43.8713 81.9444 40.0326 76.3889Z" fill="#E4EBF2"/>
<path d="M43.5971 30.2778C42.7745 31.3889 41.9519 32.2222 40.8551 33.3333L32.6293 41.6667C31.8067 42.5 30.7099 43.6111 29.6131 44.4444C26.8712 46.6667 23.855 48.6111 20.5647 50C15.6291 52.2222 10.1452 53.3333 4.66132 53.3333C11.242 53.3333 17.5485 55.2778 23.0324 58.8889C25.226 58.0556 27.6938 56.6667 29.8873 55.5556C32.6293 53.8889 35.097 51.9444 37.2906 50C37.839 49.4444 38.6616 48.8889 39.21 48.3333L47.4358 40C47.9842 39.4444 48.5326 38.8889 49.081 38.0556C46.8874 35.5556 44.9681 33.0556 43.5971 30.2778Z" fill="#E4EBF2"/>
<path d="M36.468 0.277778V5C36.468 11.3889 34.0003 17.5 29.6131 21.9444L21.3873 30.2778C17.0001 34.7222 10.9678 37.2222 4.66132 37.2222H0V46.3889H4.66132C11.242 46.3889 17.5485 44.4444 23.0324 40.8333C24.6776 39.7222 26.3228 38.3333 27.9679 36.6667L36.1938 28.3333C37.5648 26.9444 38.9358 25.2778 40.3067 23.3333C43.8713 17.7778 45.7907 11.3889 45.7907 4.72222V0.277778H36.468Z" fill="#E4EBF2"/>
<path d="M65.5327 41.6667L57.3069 33.3333C56.4843 32.5 55.3875 31.3889 54.5649 30.2778C52.3714 27.5 50.452 24.4444 49.081 21.1111C46.8874 16.1111 45.7907 10.5556 45.7907 5C45.7907 11.6667 43.8713 18.0556 40.3067 23.6111C41.1293 25.8333 42.5003 28.3333 43.5971 30.5556C45.2423 33.3333 47.1616 35.8333 49.081 38.0556C49.6294 38.6111 50.1778 39.4444 50.7262 40L58.952 48.3333C59.5004 48.8889 60.0488 49.4444 60.8714 50C63.3392 47.7778 65.8069 45.8333 68.2747 44.4444C67.4521 43.6111 66.3553 42.5 65.5327 41.6667Z" fill="#E4EBF2"/>
<path d="M93.5007 37.2222C87.1942 37.2222 81.1619 34.7222 76.7748 30.2778L68.5489 21.9444C64.1618 17.5 61.694 11.3889 61.694 5V0.277778H52.6456V5C52.6456 11.6667 54.5649 18.0556 58.1295 23.6111C59.2262 25.2778 60.5972 26.9444 62.2424 28.6111L70.4683 36.9444C72.1134 38.3333 73.4844 39.7222 75.4038 41.1111C80.8877 44.7222 87.1942 46.6667 93.7749 46.6667H98.4362V37.5H93.5007V37.2222Z" fill="#E4EBF2"/>
<path d="M93.5007 46.6667C86.92 46.6667 80.6135 44.7222 75.1296 41.1111C72.936 41.9444 70.4683 43.3333 68.2747 44.4444C65.5327 46.1111 63.065 48.0556 60.8714 50C60.323 50.5556 59.5004 51.1111 58.952 51.6667L50.7262 60C50.1778 60.5556 49.6294 61.1111 49.081 61.9444C51.2746 64.4444 53.1939 66.9444 54.5649 69.4444C55.3875 68.3333 56.2101 67.5 57.3069 66.3889L65.5327 58.0556C66.3553 57.2222 67.4521 56.1111 68.5489 55.2778C71.2908 53.0556 74.307 51.1111 77.5973 49.7222C82.5329 47.7778 88.0168 46.6667 93.5007 46.6667Z" fill="#E4EBF2"/>
<path d="M93.5007 53.3333C86.92 53.3333 80.6135 55.2778 75.1296 58.8889C73.4844 60 71.8392 61.3889 70.1941 63.0556L61.9682 71.3889C60.5972 72.7778 59.2262 74.4444 57.8553 76.3889C54.2907 81.9444 52.3714 88.3333 52.3714 95V99.7222H61.4198V95C61.4198 88.6111 63.8876 82.5 68.2747 78.0556L76.5006 69.7222C80.8877 65.2778 86.92 62.7778 93.2265 62.7778H97.8878V53.6111H93.5007V53.3333Z" fill="#E4EBF2"/>
<path d="M54.5649 69.7222C52.9197 66.9444 51.0004 64.4444 49.081 62.2222C48.5326 61.6667 47.9842 60.8333 47.4358 60.2778L39.21 51.9444C38.6616 51.3889 38.1132 50.8333 37.2906 50.2778C34.8228 52.5 32.3551 54.4444 29.8873 55.8333C30.9841 56.6667 31.8067 57.5 32.9035 58.6111L41.1293 66.9444C41.9519 67.7778 43.0487 68.8889 43.8713 70C46.0649 72.7778 47.9842 75.8333 49.3552 79.1667C51.5488 84.1667 52.6456 89.7222 52.6456 95.2778C52.6456 88.6111 54.5649 82.2222 58.1295 76.6667C57.0327 74.1667 55.9359 71.6667 54.5649 69.7222Z" fill="#E4EBF2"/>
<path d="M279.679 38.0556C280.502 38.0556 281.325 37.5 281.599 36.6667L283.244 32.5C283.518 32.2222 283.244 31.9444 282.97 31.9444H272.825C272.002 31.9444 271.179 32.2222 270.631 33.3333L269.26 37.5C269.26 37.7778 269.26 38.0556 269.534 38.0556H279.679ZM149.711 32.5H142.308C140.937 32.5 140.114 33.0556 139.291 34.1667L133.533 47.2222L127.501 34.1667C126.953 32.7778 125.856 32.5 124.485 32.5H117.63C116.807 32.5 116.533 32.7778 117.082 33.6111L128.598 56.6667V69.4444C128.598 70 128.872 70.2778 129.42 70.2778H137.646C138.195 70.2778 138.469 70 138.469 69.4444V56.6667L150.533 33.6111C150.808 32.7778 150.533 32.5 149.711 32.5ZM175.211 41.3889H169.179C168.082 41.3889 166.985 42.2222 166.985 43.6111V63.0556H163.695C161.501 63.0556 160.13 62.7778 159.582 61.9444C159.033 60.8333 158.759 59.1667 158.759 55.5556V42.2222C158.759 41.6667 158.485 41.3889 157.937 41.3889H151.904C150.808 41.3889 149.711 42.5 149.711 43.6111V58.3333C149.711 63.6111 150.259 66.3889 152.179 68.3333C154.098 70.2778 156.84 70.8333 162.05 70.8333C167.533 70.8333 171.646 70.5556 174.937 70C175.485 69.7222 175.759 69.7222 175.759 69.1667V42.5C176.034 41.6667 175.759 41.3889 175.211 41.3889ZM202.631 41.9444C200.437 41.3889 198.243 41.3889 194.679 41.3889C187.824 41.6667 184.534 42.2222 182.888 45.8333C181.792 48.3333 181.517 51.1111 181.517 56.1111C181.517 61.1111 181.792 63.8889 182.888 66.3889C184.808 70 187.824 70.8333 194.679 70.8333C198.243 70.8333 200.437 70.5555 202.631 70.2778C203.727 70 204.276 69.1667 204.276 68.0555V63.8889C204.276 63.3333 204.001 63.0556 203.453 63.0556H194.953C193.034 63.0556 191.937 62.5 191.114 61.6667C190.566 60.8333 190.292 58.8889 190.292 56.1111C190.292 53.3333 190.566 51.3889 191.114 50.5556C191.663 49.7222 193.034 49.1667 194.953 49.1667H203.453C204.001 49.1667 204.276 48.8889 204.276 48.3333V44.4444C204.276 43.0556 204.002 42.2222 202.631 41.9444ZM317.518 43.6111C315.599 41.6667 312.857 41.1111 307.647 41.1111C301.615 41.1111 297.228 41.3889 294.76 41.9444C294.212 41.9444 293.938 42.2222 293.938 42.7778V69.4444C293.938 70 294.212 70.2778 294.76 70.2778H302.164C302.712 70.2778 302.986 70 302.986 69.4444V48.6111H306.276C308.744 48.6111 309.567 48.6111 310.389 49.7222C311.212 50.8333 311.212 52.2222 311.212 56.1111V69.4444C311.212 70 311.486 70.2778 312.035 70.2778H319.438C319.986 70.2778 320.26 70 320.26 69.4444V53.6111C319.986 48.3333 319.712 45.5556 317.518 43.6111ZM275.018 41.1111C271.728 41.1111 268.712 41.3889 266.244 41.6667C265.147 41.9444 264.599 42.5 264.599 43.8889V47.7778C264.599 48.3333 264.873 48.6111 265.147 48.6111H275.018C277.486 48.6111 278.857 49.7222 278.857 51.6667V52.7778H273.373C269.534 52.7778 266.792 53.3333 264.873 54.4444C263.228 55.5556 262.405 57.7778 262.131 61.3889C262.405 66.6667 263.502 68.8889 266.792 69.7222C267.889 70 268.986 70.2778 270.083 70.2778C271.179 70.2778 272.55 70.5555 274.47 70.5555C278.857 70.5555 282.696 70.2778 285.986 69.4444C286.809 69.1667 287.083 68.6111 287.083 67.7778V50.2778C287.631 45 285.986 41.3889 275.018 41.1111ZM278.857 63.0556C277.76 63.3333 276.389 63.3333 274.47 63.3333C271.728 63.3333 270.905 62.7778 270.905 60.8333C270.905 58.8889 271.728 58.0556 274.196 58.0556H278.857V63.0556ZM221.276 41.1111C217.985 41.1111 214.969 41.3889 212.502 41.6667C211.405 41.9444 210.856 42.5 210.856 43.8889V47.7778C210.856 48.3333 211.131 48.6111 211.405 48.6111H221.276C223.744 48.6111 225.115 49.7222 225.115 51.6667V52.7778H219.631C215.792 52.7778 213.05 53.3333 211.131 54.4444C209.485 55.5556 208.663 57.7778 208.389 61.3889C208.663 66.6667 209.76 68.8889 213.05 69.7222C214.147 70 215.244 70.2778 216.34 70.2778C217.437 70.2778 218.808 70.5555 220.727 70.5555C225.115 70.5555 228.953 70.2778 232.244 69.4444C233.066 69.1667 233.34 68.6111 233.34 67.7778V50.2778C233.889 45 232.244 41.3889 221.276 41.1111ZM225.115 63.0556C224.018 63.3333 222.647 63.3333 220.727 63.3333C217.985 63.3333 217.163 62.7778 217.163 60.8333C217.163 58.8889 217.985 58.0556 220.453 58.0556H225.115V63.0556ZM256.373 62.7778H254.454C252.26 62.7778 251.437 62.2222 251.437 60V47.2222H255.824C256.373 47.2222 256.647 46.9444 256.647 46.3889V41.1111C256.647 40.5556 256.373 40.2778 255.824 40.2778H251.437V33.3333C251.437 32.7778 250.889 32.5 250.615 32.5H244.857C243.486 32.5 242.389 33.0556 242.389 35.2778V40.2778H239.373C238.824 40.2778 238.55 40.5556 238.55 41.1111V46.3889C238.55 46.9444 238.824 47.2222 239.373 47.2222H242.389V63.3333C242.389 66.6667 243.211 68.6111 245.131 69.7222C246.228 70.2778 247.05 70.2778 247.873 70.5555C248.695 70.5555 249.792 70.8333 251.437 70.8333C252.808 70.8333 254.453 70.5555 256.647 70.2778C257.195 70.2778 257.47 69.7222 257.47 69.1667V63.6111C257.195 63.0556 256.921 62.7778 256.373 62.7778Z" fill="#E4EBF2"/>
<path d="M127.775 11.9444C128.049 11.9444 128.049 11.9444 128.049 12.2222V19.1667C128.049 21.9444 127.501 23.8889 126.678 25C125.856 26.1111 124.211 26.6667 121.743 26.6667C120.646 26.6667 119.549 26.6667 118.727 26.3889C118.452 26.3889 118.178 26.1111 118.178 25.8333V24.1667C118.178 23.8889 118.178 23.8889 118.452 23.8889H121.743C123.114 23.8889 123.936 23.6111 124.211 23.0556C124.759 22.5 124.759 21.1111 124.759 19.1667V12.2222C124.759 11.9444 124.759 11.9444 125.033 11.9444H127.775Z" fill="#E4EBF2"/>
<path d="M139.291 15.8333C139.566 15.8333 139.566 15.8333 139.566 16.1111V26.1111C139.566 26.3889 139.566 26.3889 139.291 26.3889C138.195 26.6667 136.549 26.6667 134.63 26.6667C132.711 26.6667 131.888 26.3889 131.065 25.8333C130.243 25.2778 130.243 24.1667 130.243 21.9444V16.1111C130.243 15.8333 130.243 15.8333 130.517 15.8333H132.711C132.985 15.8333 132.985 15.8333 132.985 16.1111V21.3889C132.985 22.2222 132.985 23.0556 133.259 23.3333C133.533 24.1667 133.807 24.1667 135.178 24.1667H136.824V16.1111C136.824 15.8333 136.824 15.8333 137.098 15.8333H139.291Z" fill="#E4EBF2"/>
<path d="M150.259 16.6667C151.082 17.2222 151.082 18.3333 151.082 20.5556V26.3889C151.082 26.6667 151.082 26.6667 150.808 26.6667H148.614C148.34 26.6667 148.34 26.6667 148.34 26.3889V21.1111C148.34 19.7222 148.34 19.1667 148.066 18.6111C147.791 18.3333 147.517 18.0556 146.42 18.0556H144.775V26.1111C144.775 26.3889 144.775 26.3889 144.501 26.3889H142.308C142.033 26.3889 142.033 26.3889 142.033 26.1111V16.3889C142.033 16.1111 142.033 16.1111 142.308 16.1111C143.404 15.8333 144.775 15.8333 146.695 15.8333C148.614 15.5556 149.437 15.8333 150.259 16.6667Z" fill="#E4EBF2"/>
<path d="M156.566 12.7778C156.84 12.7778 156.84 12.7778 156.84 13.0556V15.8333H158.485C158.759 15.8333 158.759 15.8333 158.759 16.1111V17.7778C158.759 18.0556 158.759 18.0556 158.485 18.0556H156.84V23.3333C156.84 24.1667 157.114 24.4444 157.937 24.4444H158.759C159.033 24.4444 159.033 24.4444 159.033 24.7222V26.3889C159.033 26.6667 159.033 26.6667 158.759 26.6667C158.211 26.6667 157.662 26.9444 157.114 26.9444C156.291 26.9444 156.017 26.9444 155.469 26.6667C154.646 26.3889 154.098 25.8333 154.098 24.4444V18.0556H153.001C152.727 18.0556 152.727 18.0556 152.727 17.7778V16.1111C152.727 15.8333 152.727 15.8333 153.001 15.8333H154.098V13.6111C154.098 13.3333 154.098 13.3333 154.372 13.3333L156.566 12.7778Z" fill="#E4EBF2"/>
<path d="M168.904 16.6667C169.727 17.5 169.727 18.6111 169.727 21.1111C169.727 23.3333 169.453 24.7222 168.904 25.5556C168.356 26.3889 166.985 26.6667 165.066 26.6667C163.146 26.6667 161.775 26.3889 161.227 25.5556C160.679 24.7222 160.404 23.3333 160.404 21.1111C160.404 18.8889 160.679 17.5 161.227 16.6667C161.775 15.8333 163.146 15.5556 165.066 15.5556C166.985 15.5556 168.082 15.8333 168.904 16.6667ZM163.421 18.6111C163.146 18.8889 163.146 19.7222 163.146 21.1111C163.146 22.2222 163.146 23.0556 163.421 23.6111C163.695 23.8889 164.243 24.1667 165.066 24.1667C165.888 24.1667 166.437 23.8889 166.711 23.6111C166.985 23.3333 166.985 22.5 166.985 21.1111C166.985 20 166.985 19.1667 166.711 18.6111C166.437 18.3333 165.888 18.0556 165.066 18.0556C164.243 18.0556 163.695 18.3333 163.421 18.6111Z" fill="#E4EBF2"/>
<path d="M178.776 15.8333C179.05 15.8333 179.05 16.1111 179.05 16.1111V17.5C179.05 17.7778 179.05 17.7778 178.776 17.7778H175.485C174.663 17.7778 174.388 18.0556 174.388 18.3333V18.6111C174.388 18.8889 174.663 19.1667 175.211 19.4444L177.679 20.2778C179.324 20.8333 179.598 21.6667 179.598 23.0556V23.3333C179.598 25.5556 178.227 26.1111 175.485 26.1111C174.114 26.1111 172.743 26.1111 171.646 25.8333C171.372 25.8333 171.372 25.8333 171.372 25.5556V24.4444C171.372 24.1667 171.372 24.1667 171.646 24.1667H175.485C176.582 24.1667 176.856 24.1667 176.856 23.6111V23.3333C176.856 23.0556 176.582 22.7778 175.759 22.5L173.566 21.6667C172.195 21.1111 171.646 20.2778 171.646 18.8889V18.3333C171.646 16.3889 173.017 15.5556 176.034 15.5556C176.856 15.5556 177.953 15.8333 178.776 15.8333Z" fill="#E4EBF2"/>
<path d="M187.824 12.7778C188.098 12.7778 188.098 12.7778 188.098 13.0556V15.8333H189.743C190.018 15.8333 190.018 15.8333 190.018 16.1111V17.7778C190.018 18.0556 190.018 18.0556 189.743 18.0556H188.098V23.3333C188.098 24.1667 188.372 24.4444 189.195 24.4444H190.018C190.292 24.4444 190.292 24.4444 190.292 24.7222V26.3889C190.292 26.6667 190.292 26.6667 190.018 26.6667C189.469 26.6667 188.921 26.9444 188.372 26.9444C187.55 26.9444 187.276 26.9444 186.727 26.6667C185.905 26.3889 185.356 25.8333 185.356 24.4444V18.0556H184.259C183.985 18.0556 183.985 18.0556 183.985 17.7778V16.1111C183.985 15.8333 183.985 15.8333 184.259 15.8333H185.356V13.6111C185.356 13.3333 185.356 13.3333 185.63 13.3333L187.824 12.7778Z" fill="#E4EBF2"/>
<path d="M197.695 15.8333C197.969 15.8333 197.969 16.1111 197.969 16.1111V17.7778C197.969 18.0556 197.969 18.0556 197.695 18.0556H196.05C194.953 18.0556 194.679 18.3333 194.679 19.1667V26.3889C194.679 26.6667 194.679 26.6667 194.405 26.6667H192.211C191.937 26.6667 191.937 26.6667 191.937 26.3889V18.3333C191.937 17.5 192.211 16.6667 192.759 16.3889C193.582 15.8333 194.405 15.5556 195.501 15.5556C196.324 15.5556 197.147 15.8333 197.695 15.8333Z" fill="#E4EBF2"/>
<path d="M206.469 16.3889C207.018 16.9444 207.566 17.7778 207.566 18.8889V25.5556C207.566 25.8333 207.566 26.1111 207.018 26.1111C205.921 26.3889 204.55 26.3889 202.631 26.3889C200.985 26.3889 200.163 26.3889 199.34 25.8333C198.518 25.2778 198.243 24.4444 198.243 23.0556C198.243 21.9444 198.518 21.1111 199.066 20.5556C199.614 20 200.711 20 202.082 20H204.55V19.4444C204.55 18.6111 204.002 18.0556 202.905 18.0556H199.614C199.34 18.0556 199.34 18.0556 199.34 17.7778V16.3889C199.34 16.1111 199.34 16.1111 199.614 16.1111C200.711 15.8333 201.808 15.8333 202.905 15.8333C204.824 15.5556 205.921 15.8333 206.469 16.3889ZM204.824 21.9444H202.631C201.534 21.9444 201.26 22.2222 201.26 23.0556C201.26 23.8889 201.534 24.1667 202.905 24.1667C203.727 24.1667 204.276 24.1667 204.824 23.8889V21.9444Z" fill="#E4EBF2"/>
<path d="M218.26 16.6667C219.082 17.2222 219.082 18.3333 219.082 20.5556V26.3889C219.082 26.6667 219.082 26.6667 218.808 26.6667H216.615C216.34 26.6667 216.34 26.6667 216.34 26.3889V21.1111C216.34 19.7222 216.34 19.1667 216.066 18.6111C215.792 18.3333 215.518 18.0556 214.421 18.0556H212.776V26.1111C212.776 26.3889 212.776 26.3889 212.502 26.3889H210.308C210.034 26.3889 210.034 26.3889 210.034 26.1111V16.3889C210.034 16.1111 210.034 16.1111 210.308 16.1111C211.405 15.8333 212.776 15.8333 214.695 15.8333C216.34 15.5556 217.437 15.8333 218.26 16.6667Z" fill="#E4EBF2"/>
<path d="M228.405 15.8333C228.679 15.8333 228.679 16.1111 228.679 16.1111V17.5C228.679 17.7778 228.679 17.7778 228.405 17.7778H224.84C224.018 17.7778 223.744 18.0556 223.744 18.3333V18.6111C223.744 18.8889 224.018 19.1667 224.566 19.4444L227.034 20.2778C228.679 20.8333 228.953 21.6667 228.953 23.0556V23.3333C228.953 25.5556 227.582 26.1111 224.84 26.1111C223.469 26.1111 222.098 26.1111 221.002 25.8333C220.727 25.8333 220.727 25.8333 220.727 25.5556V24.4444C220.727 24.1667 220.727 24.1667 221.002 24.1667H224.84C225.937 24.1667 226.211 24.1667 226.211 23.6111V23.3333C226.211 23.0556 225.937 22.7778 225.115 22.5L222.921 21.6667C221.55 21.1111 221.002 20.2778 221.002 18.8889V18.3333C221.002 16.3889 222.373 15.5556 225.389 15.5556C226.486 15.5556 227.308 15.8333 228.405 15.8333Z" fill="#E4EBF2"/>
<path d="M236.905 11.6667C237.179 11.6667 237.179 11.9444 237.179 11.9444V13.6111C237.179 13.8889 237.179 13.8889 236.905 13.8889H235.534C234.711 13.8889 234.437 13.8889 234.437 14.7222V15.8333H236.631C236.905 15.8333 236.905 15.8333 236.905 16.1111L236.631 17.7778C236.631 18.0556 236.357 18.0556 236.357 18.0556H234.437V26.3889C234.437 26.6667 234.437 26.6667 234.163 26.6667H231.969C231.695 26.6667 231.695 26.6667 231.695 26.3889V18.0556H230.324C230.05 18.0556 230.05 18.0556 230.05 17.7778V16.1111C230.05 15.8333 230.05 15.8333 230.324 15.8333H231.421V14.1667C231.421 13.0556 231.695 12.2222 232.518 11.9444C233.066 11.6667 233.889 11.3889 234.711 11.3889C235.808 11.6667 236.357 11.6667 236.905 11.6667Z" fill="#E4EBF2"/>
<path d="M246.228 16.6667C247.05 17.5 247.05 18.6111 247.05 21.1111C247.05 23.3333 246.776 24.7222 246.228 25.5556C245.679 26.3889 244.308 26.6667 242.389 26.6667C240.47 26.6667 239.099 26.3889 238.55 25.5556C238.002 24.7222 237.728 23.3333 237.728 21.1111C237.728 18.8889 238.002 17.5 238.55 16.6667C239.099 15.8333 240.47 15.5556 242.389 15.5556C244.308 15.5556 245.405 15.8333 246.228 16.6667ZM240.744 18.6111C240.47 18.8889 240.47 19.7222 240.47 21.1111C240.47 22.2222 240.47 23.0556 240.744 23.6111C241.018 23.8889 241.566 24.1667 242.389 24.1667C243.211 24.1667 243.76 23.8889 244.034 23.6111C244.308 23.3333 244.308 22.5 244.308 21.1111C244.308 20 244.308 19.1667 244.034 18.6111C243.76 18.3333 243.211 18.0556 242.389 18.0556C241.566 18.0556 241.018 18.3333 240.744 18.6111Z" fill="#E4EBF2"/>
<path d="M255.002 15.8333C255.276 15.8333 255.276 16.1111 255.276 16.1111V17.7778C255.276 18.0556 255.276 18.0556 255.002 18.0556H253.357C252.26 18.0556 251.986 18.3333 251.986 19.1667V26.3889C251.986 26.6667 251.986 26.6667 251.712 26.6667H249.518C249.244 26.6667 249.244 26.6667 249.244 26.3889V18.3333C249.244 17.5 249.518 16.6667 250.066 16.3889C250.889 15.8333 251.712 15.5556 252.808 15.5556C253.631 15.5556 254.453 15.8333 255.002 15.8333Z" fill="#E4EBF2"/>
<path d="M270.357 16.6667C270.905 17.2222 271.179 18.3333 271.179 20V26.3889C271.179 26.6667 271.179 26.6667 270.905 26.6667H268.712C268.437 26.6667 268.437 26.6667 268.437 26.3889V21.1111C268.437 18.3333 268.163 18.3333 266.518 18.3333C265.97 18.3333 265.421 18.3333 264.873 18.3333C265.147 18.8889 265.147 19.4444 265.147 20.2778V26.1111C265.147 26.3889 265.147 26.3889 264.873 26.3889H262.679C262.405 26.3889 262.405 26.3889 262.405 26.1111V20.2778C262.405 19.1667 262.405 18.6111 262.131 18.3333C261.857 18.0556 261.583 18.0556 260.76 18.0556H259.389V26.1111C259.389 26.3889 259.389 26.3889 259.115 26.3889H256.921C256.647 26.3889 256.647 26.3889 256.647 26.1111V16.3889C256.647 16.1111 256.647 16.1111 256.921 16.1111C258.018 15.8333 259.115 15.8333 260.486 15.8333C261.857 15.8333 262.954 16.1111 263.776 16.3889C264.873 15.8333 265.97 15.8333 267.066 15.8333C268.712 15.5556 269.808 15.8333 270.357 16.6667Z" fill="#E4EBF2"/>
<path d="M281.599 16.6667C282.147 17.5 282.421 18.8889 282.421 20.8333V21.3889C282.421 21.6667 282.421 21.9444 281.873 21.9444H275.841C275.841 22.7778 276.115 23.3333 276.389 23.6111C276.663 23.8889 277.212 23.8889 278.034 23.8889H281.325C281.599 23.8889 281.599 23.8889 281.599 24.1667V25.8333C281.599 26.1111 281.599 26.1111 281.325 26.1111C280.502 26.3889 279.405 26.3889 277.76 26.3889C275.841 26.3889 274.47 26.1111 273.921 25.2778C273.373 24.4444 273.099 23.0556 273.099 20.8333C273.099 18.6111 273.373 17.2222 273.921 16.3889C274.47 15.5556 275.841 15.2778 277.76 15.2778C279.68 15.5556 281.05 16.1111 281.599 16.6667ZM276.115 20.2778H279.954C279.954 18.6111 279.405 18.0556 278.034 18.0556C276.389 18.0556 276.115 18.6111 276.115 20.2778Z" fill="#E4EBF2"/>
<path d="M298.051 16.6667C298.599 17.2222 298.873 18.3333 298.873 20V26.3889C298.873 26.6667 298.873 26.6667 298.599 26.6667H296.405C296.131 26.6667 296.131 26.6667 296.131 26.3889V21.1111C296.131 18.3333 295.857 18.3333 294.212 18.3333C293.663 18.3333 293.115 18.3333 292.567 18.3333C292.841 18.8889 292.841 19.4444 292.841 20.2778V26.1111C292.841 26.3889 292.841 26.3889 292.567 26.3889H290.373C290.099 26.3889 290.099 26.3889 290.099 26.1111V20.2778C290.099 19.1667 290.099 18.6111 289.825 18.3333C289.551 18.0556 289.276 18.0556 288.454 18.0556H287.083V26.1111C287.083 26.3889 287.083 26.3889 286.809 26.3889H284.615C284.341 26.3889 284.341 26.3889 284.341 26.1111V16.3889C284.341 16.1111 284.341 16.1111 284.615 16.1111C285.712 15.8333 286.809 15.8333 288.18 15.8333C289.551 15.8333 290.647 16.1111 291.47 16.3889C292.567 15.8333 293.663 15.8333 294.76 15.8333C296.405 15.5556 297.502 15.8333 298.051 16.6667Z" fill="#E4EBF2"/>
<path d="M309.567 16.6667C310.389 17.5 310.389 18.6111 310.389 21.1111C310.389 23.3333 310.115 24.7222 309.567 25.5556C309.018 26.3889 307.647 26.6667 305.728 26.6667C303.809 26.6667 302.438 26.3889 301.889 25.5556C301.341 24.7222 301.067 23.3333 301.067 21.1111C301.067 18.8889 301.341 17.5 301.889 16.6667C302.438 15.8333 303.809 15.5556 305.728 15.5556C307.647 15.5556 308.744 15.8333 309.567 16.6667ZM304.083 18.6111C303.809 18.8889 303.809 19.7222 303.809 21.1111C303.809 22.2222 303.809 23.0556 304.083 23.6111C304.357 23.8889 304.905 24.1667 305.728 24.1667C306.551 24.1667 307.099 23.8889 307.373 23.6111C307.647 23.3333 307.647 22.5 307.647 21.1111C307.647 20 307.647 19.1667 307.373 18.6111C307.099 18.3333 306.551 18.0556 305.728 18.0556C304.905 18.0556 304.357 18.3333 304.083 18.6111Z" fill="#E4EBF2"/>
<path d="M319.438 15.8333C319.712 15.8333 319.712 16.1111 319.712 16.1111V17.5C319.712 17.7778 319.712 17.7778 319.438 17.7778H316.148C315.325 17.7778 315.051 18.0556 315.051 18.3333V18.6111C315.051 18.8889 315.325 19.1667 315.873 19.4444L318.341 20.2778C319.986 20.8333 320.26 21.6667 320.26 23.0556V23.3333C320.26 25.5556 318.889 26.1111 316.148 26.1111C314.777 26.1111 313.406 26.1111 312.309 25.8333C312.035 25.8333 312.035 25.8333 312.035 25.5556V24.4444C312.035 24.1667 312.035 24.1667 312.309 24.1667H316.148C317.244 24.1667 317.518 24.1667 317.518 23.6111V23.3333C317.518 23.0556 317.244 22.7778 316.422 22.5L314.228 21.6667C312.857 21.1111 312.309 20.2778 312.309 18.8889V18.3333C312.309 16.3889 313.68 15.5556 316.696 15.5556C317.518 15.5556 318.615 15.8333 319.438 15.8333Z" fill="#E4EBF2"/>
<path d="M126.953 91.3889C126.678 91.6667 126.13 91.6667 125.856 91.6667C125.033 91.6667 124.485 91.6667 123.936 91.3889C123.388 91.1111 122.84 90.8333 122.565 90.2778C122.291 89.7222 122.017 89.4444 121.743 88.6111C121.469 88.0555 121.469 87.5 121.469 86.6667C121.469 86.1111 121.469 85.2778 121.743 84.7222C122.017 84.1667 122.291 83.6111 122.565 83.0555C122.84 82.5 123.388 82.2222 123.936 81.9444C124.485 81.6667 125.033 81.6667 125.856 81.6667C126.404 81.6667 126.678 81.6667 127.227 81.9444C127.775 82.2222 128.049 82.2222 128.324 82.5C128.598 82.7778 128.872 83.0556 129.146 83.6111C129.42 83.8889 129.42 84.4444 129.695 85H127.775C127.775 84.4444 127.501 84.1667 126.953 83.8889C126.678 83.6111 126.13 83.6111 125.582 83.6111C125.033 83.6111 124.759 83.6111 124.485 83.8889C124.211 84.1667 123.936 84.4444 123.662 84.7222C123.388 85 123.388 85.2778 123.114 85.8333C123.114 86.1111 123.114 86.6667 123.114 86.9444C123.114 87.2222 123.114 87.7778 123.114 88.0556C123.114 88.3333 123.388 88.8889 123.662 89.1667C123.936 89.4444 124.211 89.7222 124.485 90C124.759 90.2778 125.307 90.2778 125.582 90.2778C126.13 90.2778 126.678 90 127.227 89.7222C127.501 89.4444 127.775 88.8889 127.775 88.3333H125.856V86.9444H129.695V91.9444H128.324L128.049 90.8333C127.775 90.8333 127.501 91.3889 126.953 91.3889Z" fill="#E4EBF2"/>
<path d="M131.34 85C131.614 84.4444 131.888 83.8889 132.162 83.3333C132.436 82.7778 132.985 82.5 133.533 82.2222C134.082 81.9444 134.63 81.9444 135.453 81.9444C136.275 81.9444 136.824 81.9444 137.372 82.2222C137.92 82.5 138.469 82.7778 138.743 83.3333C139.017 83.8889 139.291 84.1667 139.566 85C139.84 85.5555 139.84 86.1111 139.84 86.9444C139.84 87.5 139.84 88.3333 139.566 88.8889C139.291 89.4444 139.017 90 138.743 90.5555C138.469 91.1111 137.92 91.3889 137.372 91.6667C136.824 91.6667 136.275 91.6667 135.453 91.6667C134.63 91.6667 134.082 91.6667 133.533 91.3889C132.985 91.1111 132.436 90.8333 132.162 90.2778C131.888 89.7222 131.614 89.4444 131.34 88.6111C131.065 88.0555 131.065 87.5 131.065 86.6667C131.065 86.1111 131.065 85.5555 131.34 85ZM133.259 88.0556C133.259 88.3333 133.533 88.8889 133.807 89.1667C134.082 89.4444 134.356 89.7222 134.63 90C134.904 90.2778 135.453 90.2778 135.727 90.2778C136.275 90.2778 136.549 90.2778 136.824 90C137.098 89.7222 137.372 89.7222 137.646 89.1667C137.92 88.8889 137.92 88.6111 138.195 88.0556C138.195 87.7778 138.195 87.2222 138.195 86.9444C138.195 86.6667 138.195 86.1111 138.195 85.8333C138.195 85.5555 137.92 85 137.646 84.7222C137.372 84.4444 137.098 84.1667 136.824 83.8889C136.549 83.6111 136.001 83.6111 135.727 83.6111C135.178 83.6111 134.904 83.6111 134.63 83.8889C134.356 84.1667 134.082 84.4444 133.807 84.7222C133.533 85 133.533 85.2778 133.259 85.8333C133.259 86.1111 133.259 86.6667 133.259 86.9444C132.985 87.2222 132.985 87.7778 133.259 88.0556Z" fill="#E4EBF2"/>
<path d="M145.872 82.2222C146.42 82.2222 146.695 82.2222 146.969 82.2222C147.243 82.2222 147.517 82.5 147.791 82.5C148.066 82.7778 148.34 82.7778 148.34 83.3333C148.614 83.6111 148.614 83.8889 148.614 84.4444C148.614 85 148.614 85.2778 148.34 85.5555C148.066 86.1111 147.791 86.1111 147.517 86.3889C148.066 86.6667 148.614 86.9444 148.888 87.2222C149.162 87.5 149.437 88.0555 149.437 88.6111C149.437 89.1667 149.437 89.4444 149.162 89.7222C148.888 90 148.614 90.2778 148.34 90.5555C148.066 90.8333 147.791 90.8333 147.243 91.1111C146.969 91.1111 146.42 91.3889 146.146 91.3889H141.759V81.9444H145.872V82.2222ZM145.598 85.8333C145.872 85.8333 146.146 85.8333 146.42 85.5555C146.695 85.2778 146.695 85 146.695 84.7222C146.695 84.4444 146.695 84.4444 146.695 84.1667C146.695 83.8889 146.42 83.8889 146.42 83.8889C146.42 83.8889 146.146 83.8889 145.872 83.6111C145.598 83.6111 145.598 83.6111 145.324 83.6111H143.404V85.8333H145.598ZM145.598 90C145.872 90 145.872 90 146.146 90C146.42 90 146.42 90 146.695 89.7222L146.969 89.4444C146.969 89.1667 146.969 89.1667 146.969 88.8889C146.969 88.3333 146.969 88.0555 146.695 87.7778C146.42 87.5 146.146 87.5 145.598 87.5H143.404V90H145.598Z" fill="#E4EBF2"/>
<path d="M152.453 82.2222V91.6667H150.533V82.2222H152.453Z" fill="#E4EBF2"/>
<path d="M161.227 83.8889H156.291V85.8333H160.679V87.5H156.291V89.7222H161.227V91.3889H154.372V81.9444H161.227V83.8889Z" fill="#E4EBF2"/>
<path d="M167.533 82.2222C168.082 82.2222 168.356 82.2222 168.63 82.5C168.904 82.5 169.179 82.7778 169.453 83.0555C169.727 83.3333 170.001 83.6111 170.001 83.8889C170.001 84.1667 170.275 84.4444 170.275 85C170.275 85.5555 170.275 86.1111 170.001 86.3889C169.727 86.6667 169.453 87.2222 168.904 87.2222C169.179 87.2222 169.453 87.5 169.453 87.5C169.727 87.7778 169.727 87.7778 169.727 88.0556C169.727 88.3333 170.001 88.3333 170.001 88.6111C170.001 88.8889 170.001 89.1667 170.001 89.4444C170.001 89.7222 170.001 89.7222 170.001 90C170.001 90.2778 170.001 90.2778 170.001 90.5555C170.001 90.8333 170.001 90.8333 170.001 91.1111C170.001 91.3889 170.001 91.3889 170.275 91.6667H168.356C168.356 91.3889 168.082 91.1111 168.082 90.5555C168.082 90.2778 168.082 89.7222 168.082 89.4444C168.082 88.8889 167.808 88.6111 167.533 88.3333C167.259 88.0555 166.985 88.0556 166.437 88.0556H164.517V91.6667H162.598V82.2222H167.533ZM166.985 86.3889C167.534 86.3889 167.808 86.3889 168.082 86.1111C168.356 85.8333 168.356 85.5555 168.356 85C168.356 84.4444 168.356 84.1667 168.082 83.8889C167.808 83.6111 167.534 83.6111 166.985 83.6111H164.792V86.1111H166.985V86.3889Z" fill="#E4EBF2"/>
<path d="M174.114 82.2222L177.953 88.6111V82.2222H179.872V91.6667H177.953L174.114 85.5555V91.6667H172.195V82.2222H174.114Z" fill="#E4EBF2"/>
<path d="M181.517 85C181.792 84.4444 182.066 83.8889 182.34 83.3333C182.614 82.7778 183.163 82.5 183.711 82.2222C184.259 81.9444 184.808 81.9444 185.63 81.9444C186.453 81.9444 187.001 81.9444 187.55 82.2222C188.098 82.5 188.647 82.7778 188.921 83.3333C189.195 83.8889 189.469 84.1667 189.743 85C190.018 85.5555 190.018 86.1111 190.018 86.9444C190.018 87.5 190.018 88.3333 189.743 88.8889C189.469 89.4444 189.195 90 188.921 90.5555C188.647 91.1111 188.098 91.3889 187.55 91.6667C187.001 91.6667 186.453 91.6667 185.63 91.6667C184.808 91.6667 184.259 91.6667 183.711 91.3889C183.163 91.1111 182.614 90.8333 182.34 90.2778C182.066 89.7222 181.517 89.4444 181.517 88.6111C181.243 88.0555 181.243 87.5 181.243 86.6667C181.243 86.1111 181.243 85.5555 181.517 85ZM183.437 88.0556C183.437 88.3333 183.711 88.8889 183.985 89.1667C184.259 89.4444 184.534 89.7222 184.808 90C185.082 90.2778 185.63 90.2778 185.905 90.2778C186.453 90.2778 186.727 90.2778 187.001 90C187.276 89.7222 187.55 89.7222 187.824 89.1667C188.098 88.8889 188.098 88.6111 188.372 88.0556C188.372 87.7778 188.372 87.2222 188.372 86.9444C188.372 86.6667 188.372 86.1111 188.372 85.8333C188.372 85.5555 188.098 85 187.824 84.7222C187.55 84.4444 187.276 84.1667 187.001 83.8889C186.727 83.6111 186.179 83.6111 185.905 83.6111C185.356 83.6111 185.082 83.6111 184.808 83.8889C184.534 84.1667 184.259 84.4444 183.985 84.7222C183.711 85 183.711 85.2778 183.437 85.8333C183.437 86.1111 183.437 86.6667 183.437 86.9444C183.163 87.2222 183.163 87.7778 183.437 88.0556Z" fill="#E4EBF2"/>
<path d="M202.082 83.8889H197.147V85.8333H201.534V87.5H197.147V89.7222H202.082V91.3889H195.227V81.9444H202.082V83.8889Z" fill="#E4EBF2"/>
<path d="M205.098 89.1667C205.098 89.4444 205.372 89.4444 205.647 89.7222C205.921 89.7222 205.921 90 206.195 90C206.469 90 206.743 90 207.018 90C207.292 90 207.292 90 207.566 90C207.84 90 207.84 90 208.114 89.7222C208.389 89.7222 208.389 89.4444 208.663 89.4444C208.663 89.1667 208.937 89.1667 208.937 88.8889C208.937 88.6111 208.937 88.3333 208.663 88.3333C208.389 88.0555 208.389 88.0556 208.114 88.0556C207.84 88.0556 207.566 87.7778 207.292 87.7778C207.018 87.7778 206.743 87.5 206.195 87.5C205.921 87.5 205.647 87.2222 205.098 87.2222C204.824 87.2222 204.55 86.9444 204.276 86.6667C204.002 86.3889 203.727 86.1111 203.727 85.8333C203.453 85.5555 203.453 85.2778 203.453 84.7222C203.453 84.1667 203.453 83.8889 203.727 83.6111C204.002 83.3333 204.276 83.0555 204.55 82.7778C204.824 82.5 205.372 82.5 205.647 82.2222C206.195 82.2222 206.469 81.9444 207.018 81.9444C207.566 81.9444 207.84 81.9444 208.389 82.2222C208.937 82.2222 209.211 82.5 209.485 82.7778C209.76 83.0555 210.034 83.3333 210.308 83.6111C210.582 83.8889 210.582 84.4444 210.582 85H208.389C208.389 84.7222 208.389 84.4444 208.114 84.4444C208.114 84.1667 207.84 84.1667 207.84 83.8889C207.566 83.8889 207.566 83.6111 207.292 83.6111C207.018 83.6111 206.743 83.6111 206.469 83.6111C206.195 83.6111 206.195 83.6111 205.921 83.6111C205.647 83.6111 205.647 83.6111 205.372 83.8889L205.098 84.1667C205.098 84.1667 205.098 84.4444 205.098 84.7222C205.098 85 205.098 85 205.098 85.2778L205.372 85.5555C205.647 85.5555 205.921 85.8333 206.195 85.8333C206.469 85.8333 207.018 86.1111 207.566 86.1111C207.84 86.1111 208.114 86.1111 208.389 86.3889C208.663 86.3889 208.937 86.6667 209.211 86.9444C209.485 87.2222 209.76 87.5 210.034 87.7778C210.308 88.0555 210.308 88.6111 210.308 89.1667C210.308 89.7222 210.308 90 210.034 90.2778C209.76 90.5555 209.76 90.8333 209.211 91.1111C208.937 91.3889 208.389 91.6667 208.114 91.6667C208.114 91.6667 207.566 91.6667 206.743 91.6667C206.195 91.6667 205.647 91.6667 205.372 91.3889C204.824 91.3889 204.55 91.1111 204.002 90.8333C203.727 90.5556 203.453 90.2778 203.179 89.7222C202.905 89.4444 202.905 88.8889 202.905 88.3333H204.824C204.824 88.6111 204.824 88.8889 205.098 89.1667Z" fill="#E4EBF2"/>
<path d="M211.131 83.8889V82.2222H218.808V83.8889H216.066V91.3889H213.873V83.8889H211.131Z" fill="#E4EBF2"/>
<path d="M223.195 82.2222L226.76 91.6667H224.566L223.744 89.7222H220.179L219.356 91.6667H217.437L221.002 82.2222H223.195ZM223.195 87.7778L222.098 84.4444L221.002 87.7778H223.195Z" fill="#E4EBF2"/>
<path d="M225.389 83.8889V82.2222H233.066V83.8889H230.324V91.3889H228.405V83.8889H225.389Z" fill="#E4EBF2"/>
<path d="M237.453 82.2222L241.018 91.6667H238.824L238.002 89.7222H234.437L233.615 91.6667H231.695L235.26 82.2222H237.453ZM237.728 87.7778L236.631 84.4444L235.534 87.7778H237.728Z" fill="#E4EBF2"/>
<path d="M243.76 89.7222H248.147V91.3889H241.566V81.9444H243.76V89.7222Z" fill="#E4EBF2"/>
<path d="M252.808 84.4444C253.083 83.8889 253.083 83.6111 253.357 83.3333C253.631 83.0555 253.905 82.7778 254.454 82.5C255.002 82.2222 255.276 82.2222 255.824 82.2222C256.373 82.2222 256.647 82.2222 256.921 82.5C257.195 82.5 257.744 82.7778 258.018 83.0555C258.292 83.3333 258.566 83.6111 258.566 83.8889C258.841 84.1667 258.841 84.7222 258.841 85C258.841 85.5555 258.841 85.8333 258.566 86.1111C258.292 86.3889 258.292 86.6667 258.018 86.9444C257.744 87.2222 257.47 87.5 257.195 87.7778C256.921 88.0555 256.647 88.0555 256.373 88.3333C256.099 88.6111 255.824 88.8889 255.55 88.8889C255.276 89.1667 255.002 89.4444 254.728 89.7222H259.115V91.3889H252.26C252.26 90.8333 252.26 90.2778 252.534 90C252.808 89.7222 252.808 89.1667 253.083 88.8889C253.357 88.6111 253.631 88.3333 253.905 88.0556C254.179 87.7778 254.728 87.5 255.002 87.2222C255.276 87.2222 255.276 86.9444 255.55 86.6667C255.824 86.3889 256.099 86.3889 256.099 86.1111C256.373 85.8333 256.373 85.8333 256.647 85.5555C256.647 85.2778 256.921 85 256.921 84.7222C256.921 84.1667 256.921 83.8889 256.647 83.6111C256.373 83.3333 256.099 83.3333 255.55 83.3333C255.276 83.3333 255.002 83.3333 255.002 83.6111C254.728 83.6111 254.728 83.8889 254.454 84.1667C254.454 84.4444 254.179 84.7222 254.179 84.7222C254.179 85 254.179 85.2778 254.179 85.5555H252.534C252.534 85.2778 252.534 85 252.808 84.4444Z" fill="#E4EBF2"/>
<path d="M259.937 84.7222C260.212 84.1667 260.486 83.6111 260.76 83.3333C261.034 83.0555 261.308 82.7778 261.857 82.5C262.131 82.2222 262.679 82.2222 263.228 82.2222C263.776 82.2222 264.05 82.2222 264.599 82.5C264.873 82.7778 265.421 83.0555 265.696 83.3333C265.97 83.6111 266.244 84.1667 266.518 84.7222C266.792 85.2778 266.792 86.1111 266.792 86.9444C266.792 87.7778 266.792 88.6111 266.518 89.1667C266.244 89.7222 265.97 90.2778 265.696 90.5555C265.421 90.8333 265.147 91.1111 264.599 91.3889C263.776 91.6667 263.228 91.6667 262.954 91.6667C262.405 91.6667 262.131 91.6667 261.583 91.3889C261.308 91.1111 260.76 90.8333 260.486 90.5555C260.212 90.2778 259.937 89.7222 259.663 89.1667C259.389 88.6111 259.389 87.7778 259.389 86.9444C259.663 86.1111 259.663 85.2778 259.937 84.7222ZM261.308 87.7778C261.308 88.0555 261.308 88.6111 261.583 88.8889C261.583 89.1667 261.857 89.4444 262.131 89.7222C262.405 90 262.679 90 262.954 90C263.228 90 263.502 90 263.776 89.7222C264.05 89.4444 264.05 89.1667 264.325 88.8889C264.325 88.6111 264.599 88.0555 264.599 87.7778C264.599 87.5 264.599 87.2222 264.599 86.9444C264.599 86.6667 264.599 86.6667 264.599 86.3889C264.599 86.1111 264.599 85.8333 264.599 85.8333C264.599 85.5555 264.599 85.2778 264.599 85C264.599 84.7222 264.325 84.4444 264.325 84.4444C264.325 84.1667 264.05 84.1667 263.776 83.8889C263.502 83.8889 263.502 83.6111 263.228 83.6111C262.954 83.6111 262.679 83.6111 262.679 83.8889C262.405 83.8889 262.405 84.1667 262.131 84.4444C262.131 84.7222 261.857 84.7222 261.857 85C261.857 85.2778 261.857 85.5555 261.857 85.8333C261.857 86.1111 261.857 86.3889 261.857 86.3889C261.857 86.6667 261.857 86.6667 261.857 86.9444C261.308 87.2222 261.308 87.5 261.308 87.7778Z" fill="#E4EBF2"/>
<path d="M269.534 85.5555H267.341V84.1667C267.615 84.1667 267.889 84.1667 268.163 84.1667C268.437 84.1667 268.712 83.8889 268.986 83.8889C269.26 83.6111 269.534 83.6111 269.534 83.3333C269.808 83.0555 269.808 82.7778 269.808 82.5H271.454V91.6667H269.534V85.5555Z" fill="#E4EBF2"/>
<path d="M274.47 83.6111C274.744 83.3333 275.018 83.0555 275.292 82.7778C275.567 82.5 275.841 82.5 276.389 82.2222C276.663 82.2222 277.212 81.9444 277.486 81.9444C278.034 81.9444 278.583 81.9444 278.857 82.2222C279.131 82.5 279.679 82.5 279.679 82.7778C279.954 83.0555 279.954 83.3333 280.228 83.6111C280.228 83.8889 280.502 84.1667 280.502 84.4444C280.502 85 280.502 85.2778 280.228 85.5555C279.954 85.8333 279.68 86.1111 279.131 86.3889C279.68 86.3889 279.954 86.6667 280.502 87.2222C280.776 87.5 281.05 88.0555 281.05 88.6111C281.05 89.1667 281.05 89.4444 280.776 90C280.502 90.2778 280.228 90.5556 279.954 90.8333C279.679 91.1111 279.405 91.1111 278.857 91.3889C278.583 91.3889 278.034 91.6667 277.486 91.6667C276.938 91.6667 276.663 91.6667 276.115 91.3889C275.841 91.3889 275.292 91.1111 275.018 90.8333C274.744 90.5556 274.47 90.2778 274.196 90C273.921 89.7222 273.921 89.1667 273.921 88.6111C273.921 88.0555 274.196 87.5 274.47 87.2222C274.744 86.9444 275.292 86.6667 275.841 86.3889C275.292 86.3889 275.018 86.1111 274.744 85.5555C274.47 85.2778 274.47 84.7222 274.47 84.4444C274.196 84.1667 274.196 83.8889 274.47 83.6111ZM275.841 89.4444C275.841 89.7222 276.115 89.7222 276.115 90C276.389 90.2778 276.389 90.2778 276.663 90.2778C276.938 90.2778 276.938 90.2778 277.212 90.2778C277.486 90.2778 277.76 90.2778 277.76 90.2778C278.034 90.2778 278.034 90 278.309 90C278.583 90 278.583 89.7222 278.583 89.4444C278.583 89.1667 278.583 89.1667 278.583 88.8889C278.583 88.6111 278.583 88.3333 278.583 88.3333C278.583 88.0555 278.309 88.0555 278.309 87.7778C278.034 87.7778 278.034 87.5 277.76 87.5C277.486 87.5 277.486 87.5 277.212 87.5C276.663 87.5 276.389 87.5 276.115 87.7778C275.841 88.0555 275.567 88.3333 275.567 88.8889C275.567 88.8889 275.567 89.1667 275.841 89.4444ZM276.115 85.8333C276.389 86.1111 276.663 86.1111 277.212 86.1111C277.486 86.1111 278.034 86.1111 278.309 85.8333C278.583 85.5555 278.583 85.2778 278.583 85V84.7222C278.583 84.4444 278.583 84.4444 278.309 84.4444C278.309 84.4444 278.034 84.1667 277.76 84.1667C277.486 84.1667 277.486 84.1667 276.938 84.1667C276.663 84.1667 276.663 84.1667 276.389 84.1667C276.115 84.1667 276.115 84.4444 275.841 84.4444L275.567 84.7222C275.567 85 275.567 85 275.567 85.2778C275.841 85.2778 275.841 85.5555 276.115 85.8333Z" fill="#E4EBF2"/>
<path d="M285.438 86.9444C285.712 86.6667 285.986 86.6667 286.26 86.6667C286.534 86.6667 286.534 86.6667 286.809 86.6667C286.809 86.6667 287.083 86.6667 287.083 86.9444L287.357 87.2222C287.357 87.2222 287.357 87.5 287.357 87.7778C287.357 88.0555 287.357 88.0556 287.357 88.0556L286.809 88.6111C286.809 88.6111 286.534 88.6111 286.26 88.6111C285.986 88.6111 285.986 88.6111 285.712 88.6111C285.712 88.6111 285.438 88.6111 285.438 88.3333L285.163 88.0556C285.163 88.0556 285.163 87.7778 285.163 87.5C285.163 87.5 285.163 87.2222 285.438 86.9444Z" fill="#E4EBF2"/>
<path d="M292.292 84.4444C292.292 83.8889 292.567 83.6111 292.841 83.3333C293.115 83.0555 293.389 82.7778 293.938 82.5C294.486 82.2222 294.76 82.2222 295.309 82.2222C295.857 82.2222 296.131 82.2222 296.405 82.5C296.68 82.5 297.228 82.7778 297.502 83.0555C297.776 83.3333 298.051 83.6111 298.051 83.8889C298.325 84.1667 298.325 84.7222 298.325 85C298.325 85.5555 298.325 85.8333 298.051 86.1111C297.776 86.3889 297.776 86.6667 297.502 86.9444C297.228 87.2222 296.954 87.5 296.68 87.7778C296.405 88.0555 296.131 88.0555 295.857 88.3333C295.583 88.6111 295.309 88.8889 295.034 88.8889C294.76 89.1667 294.486 89.4444 294.212 89.7222H298.599V91.3889H292.018C292.018 90.8333 292.018 90.2778 292.292 90C292.567 89.7222 292.567 89.1667 292.841 88.8889C293.115 88.6111 293.389 88.3333 293.663 88.0556C293.938 87.7778 294.486 87.5 294.76 87.2222C295.034 87.2222 295.034 86.9444 295.309 86.6667C295.583 86.3889 295.857 86.3889 295.857 86.1111C296.131 85.8333 296.131 85.8333 296.405 85.5555C296.405 85.2778 296.68 85 296.68 84.7222C296.68 84.1667 296.68 83.8889 296.405 83.6111C296.131 83.3333 295.857 83.3333 295.309 83.3333C295.034 83.3333 294.76 83.3333 294.76 83.6111C294.486 83.6111 294.486 83.8889 294.212 84.1667C294.212 84.4444 293.938 84.7222 293.938 84.7222C293.938 85 293.938 85.2778 293.938 85.5555H292.292C292.018 85.2778 292.018 85 292.292 84.4444Z" fill="#E4EBF2"/>
<path d="M299.147 84.7222C299.422 84.1667 299.696 83.6111 299.97 83.3333C300.244 83.0555 300.518 82.7778 301.067 82.5C301.341 82.2222 301.889 82.2222 302.438 82.2222C302.986 82.2222 303.26 82.2222 303.809 82.5C304.083 82.7778 304.631 83.0555 304.905 83.3333C305.18 83.6111 305.454 84.1667 305.728 84.7222C306.002 85.2778 306.002 86.1111 306.002 86.9444C306.002 87.7778 306.002 88.6111 305.728 89.1667C305.454 89.7222 305.18 90.2778 304.905 90.5555C304.631 90.8333 304.357 91.1111 303.809 91.3889C303.535 91.6667 302.986 91.6667 302.438 91.6667C301.889 91.6667 301.615 91.6667 301.067 91.3889C300.793 91.1111 300.244 90.8333 299.97 90.5555C299.696 90.2778 299.422 89.7222 299.147 89.1667C298.873 88.6111 298.873 87.7778 298.873 86.9444C298.873 86.1111 299.147 85.2778 299.147 84.7222ZM300.793 87.7778C300.793 88.0555 300.793 88.6111 301.067 88.8889C301.067 89.1667 301.341 89.4444 301.615 89.7222C301.889 90 302.164 90 302.438 90C302.712 90 302.986 90 303.26 89.7222C303.534 89.4444 303.535 89.1667 303.809 88.8889C303.809 88.6111 304.083 88.0555 304.083 87.7778C304.083 87.5 304.083 87.2222 304.083 86.9444C304.083 86.6667 304.083 86.6667 304.083 86.3889C304.083 86.1111 304.083 85.8333 304.083 85.8333C304.083 85.5555 304.083 85.2778 304.083 85C304.083 84.7222 303.809 84.4444 303.809 84.4444C303.809 84.1667 303.534 84.1667 303.26 83.8889C302.986 83.8889 302.986 83.6111 302.712 83.6111C302.438 83.6111 302.164 83.6111 302.164 83.8889C301.889 83.8889 301.889 84.1667 301.615 84.4444C301.615 84.7222 301.341 84.7222 301.341 85C301.341 85.2778 301.341 85.5555 301.341 85.8333C301.341 86.1111 301.341 86.3889 301.341 86.3889C301.341 86.6667 301.341 86.6667 301.341 86.9444C300.793 87.2222 300.793 87.5 300.793 87.7778Z" fill="#E4EBF2"/>
<path d="M306.551 84.4444C306.551 83.8889 306.825 83.6111 307.099 83.3333C307.373 83.0555 307.647 82.7778 308.196 82.5C308.744 82.2222 309.018 82.2222 309.567 82.2222C310.115 82.2222 310.389 82.2222 310.664 82.5C310.938 82.5 311.486 82.7778 311.76 83.0555C312.035 83.3333 312.309 83.6111 312.309 83.8889C312.583 84.1667 312.583 84.7222 312.583 85C312.583 85.5555 312.583 85.8333 312.309 86.1111C312.035 86.3889 312.035 86.6667 311.76 86.9444C311.486 87.2222 311.212 87.5 310.938 87.7778C310.664 88.0555 310.389 88.0555 310.115 88.3333C309.841 88.6111 309.567 88.8889 309.293 88.8889C309.018 89.1667 308.744 89.4444 308.47 89.7222H312.857V91.3889H306.276C306.276 90.8333 306.276 90.2778 306.551 90C306.825 89.7222 306.825 89.1667 307.099 88.8889C307.373 88.6111 307.647 88.3333 307.922 88.0556C308.196 87.7778 308.744 87.5 309.018 87.2222C309.293 87.2222 309.293 86.9444 309.567 86.6667C309.841 86.3889 310.115 86.3889 310.115 86.1111C310.389 85.8333 310.389 85.8333 310.664 85.5555C310.664 85.2778 310.938 85 310.938 84.7222C310.938 84.1667 310.938 83.8889 310.664 83.6111C310.389 83.3333 310.115 83.3333 309.567 83.3333C309.293 83.3333 309.018 83.3333 309.018 83.6111C308.744 83.6111 308.744 83.8889 308.47 84.1667C308.47 84.4444 308.196 84.7222 308.196 84.7222C308.196 85 308.196 85.2778 308.196 85.5555H306.551C306.276 85.2778 306.276 85 306.551 84.4444Z" fill="#E4EBF2"/>
<path d="M313.131 89.4444V87.7778L316.97 82.5H318.615V88.0556H319.712V89.4444H318.615V91.6667H316.97V89.4444H313.131ZM316.97 84.7222L314.502 87.7778H316.97V84.7222Z" fill="#E4EBF2"/>
<path d="M361.664 83.6111V81.9444H363.035V83.6111H361.664ZM361.664 91.1111L361.938 84.4444H363.035L363.309 91.1111H361.664Z" fill="#E4EBF2"/>
<path d="M367.97 83.0555V91.1111H366.874V83.0555H365.777V81.9444H369.341V83.0555H367.97Z" fill="#E4EBF2"/>
<path d="M371.809 91.1111V81.9444H374.825V83.0555H372.906V85.8333H374.551V86.9444H372.906V90H374.551V91.1111H371.809Z" fill="#E4EBF2"/>
<path d="M379.761 91.1111V81.9444H382.777V83.0555H381.132V85.8333H382.777V86.9444H381.132V90H382.777V91.1111H379.761Z" fill="#E4EBF2"/>
<path d="M387.987 86.3889V81.9444H389.083V91.1111H387.987V89.4444L386.616 85.2778V91.1111H385.519V81.9444H386.616L387.987 86.3889Z" fill="#E4EBF2"/>
<path d="M395.664 88.8889V89.4444C395.664 90.5556 395.116 91.1111 394.293 91.1111H393.471C392.648 91.1111 392.1 90.5556 392.1 89.4444V83.6111C392.1 82.5 392.648 81.9444 393.471 81.9444H394.293C395.116 81.9444 395.664 82.5 395.664 83.6111V84.7222H394.567V83.8889C394.567 83.6111 394.293 83.3333 394.019 83.3333H393.745C393.471 83.3333 393.196 83.6111 393.196 83.8889V89.7222C393.196 90 393.471 90.2778 393.745 90.2778H394.019C394.293 90.2778 394.567 90 394.567 89.7222V88.8889H395.664Z" fill="#E4EBF2"/>
<path d="M399.777 91.1111H398.68V83.6111C398.68 82.5 399.229 81.9444 400.051 81.9444H400.874C401.697 81.9444 402.245 82.5 402.245 83.6111V91.1111H401.148V87.7778H399.777V91.1111ZM401.148 86.6667V83.6111C401.148 83.3333 400.874 83.0555 400.6 83.0555H400.326C400.051 83.0555 399.777 83.3333 399.777 83.6111V86.6667H401.148Z" fill="#E4EBF2"/>
<path d="M408.003 86.3889V81.9444H409.1V91.1111H408.003V89.4444L406.632 85.2778V91.1111H405.535V81.9444H406.632L408.003 86.3889Z" fill="#E4EBF2"/>
<path d="M414.035 83.0555V91.1111H412.939V83.0555H411.842V81.9444H415.406V83.0555H414.035Z" fill="#E4EBF2"/>
<path d="M418.971 91.1111H417.874V83.6111C417.874 82.5 418.422 81.9444 419.245 81.9444H420.068C420.89 81.9444 421.439 82.5 421.439 83.6111V91.1111H420.342V87.7778H418.971V91.1111ZM420.342 86.6667V83.6111C420.342 83.3333 420.068 83.0555 419.793 83.0555H419.519C419.245 83.0555 418.971 83.3333 418.971 83.6111V86.6667H420.342Z" fill="#E4EBF2"/>
<path d="M424.729 81.9444H427.197C428.019 81.9444 428.568 82.5 428.568 83.6111V85.8333C428.568 86.6667 428.293 87.2222 427.745 87.2222L428.568 91.1111H427.471L426.648 87.5H425.826V91.1111H424.729V81.9444ZM425.826 86.3889H426.648C426.923 86.3889 427.197 86.1111 427.197 85.8333V83.8889C427.197 83.3333 426.923 83.3333 426.648 83.3333H425.826V86.3889Z" fill="#E4EBF2"/>
<path d="M432.406 91.1111H431.31V83.6111C431.31 82.5 431.858 81.9444 432.681 81.9444H433.503C434.326 81.9444 434.874 82.5 434.874 83.6111V91.1111H433.777V87.7778H432.406V91.1111ZM433.229 81.3889H432.406L432.955 80H434.052L433.229 81.3889ZM433.777 86.6667V83.6111C433.777 83.3333 433.503 83.0555 433.229 83.0555H432.955C432.681 83.0555 432.406 83.3333 432.406 83.6111V86.6667H433.777Z" fill="#E4EBF2"/>
<path d="M439.261 81.9444L438.987 88.6111H437.89L437.616 81.9444H439.261ZM439.261 89.4444V91.1111H437.89V89.4444H439.261Z" fill="#E4EBF2"/>
<path fill-rule="evenodd" clip-rule="evenodd" d="M442.552 42.7778C442.826 44.1667 441.455 44.1667 440.906 44.7222C440.632 44.7222 440.084 44.7222 440.084 45C440.084 45.2778 440.632 45 440.906 45C442.277 45.5556 442.277 45.5556 441.455 46.6667C440.906 47.2222 440.906 47.5 440.906 48.3333C440.906 49.4444 440.906 50.5556 440.358 51.6667C439.81 52.7778 439.261 53.0556 437.89 53.0556C437.342 53.0556 436.794 52.7778 436.519 52.7778C434.6 52.2222 434.326 51.6667 434.6 49.7222C434.874 47.7778 435.423 45.5555 434.874 43.6111C434.6 43.3333 434.6 43.0556 434.326 43.3333C434.052 43.3333 434.052 43.6111 434.326 43.6111C434.874 45.5555 434.326 47.2222 434.052 49.1667C434.052 49.4444 434.052 49.7222 434.052 49.7222C433.777 51.9444 433.777 51.9444 431.584 51.3889C430.213 50.8333 429.116 50.8333 427.745 51.9444C425.003 54.1667 421.164 53.6111 418.422 51.1111C417.874 50.5556 417.6 50.2778 417.051 49.7222C415.681 51.9444 413.761 53.3333 411.293 53.3333C401.148 53.3333 391.277 53.3333 381.132 53.3333C380.309 53.3333 379.761 53.3333 379.761 52.2222C379.761 51.1111 380.309 51.1111 381.132 51.1111C390.729 51.1111 400.6 51.1111 410.197 51.1111C410.745 51.1111 411.568 51.3889 411.568 50.5556C411.568 50.2778 411.842 50 411.842 50C412.939 49.7222 414.035 49.4444 414.858 48.8889C415.132 48.8889 415.406 48.8889 415.406 48.6111C416.229 48.3333 416.777 47.7778 417.051 46.9444C417.051 45.8333 416.229 45.5556 415.681 45.2778C414.584 44.7222 413.487 44.4444 412.116 43.8889C414.31 43.3333 415.955 42.5 417.6 41.1111C417.6 42.2222 418.148 43.3333 418.971 44.1667C419.519 44.7222 419.519 45 419.519 45.8333C418.971 47.7778 419.793 49.1667 421.164 50.2778C422.535 51.1111 424.455 51.1111 425.552 50.2778C427.197 49.1667 427.745 47.7778 427.471 45.8333C427.471 45.2778 427.197 44.7222 427.745 44.4444C429.116 43.3333 428.568 41.3889 429.939 40.2778C429.939 40.2778 429.939 40 429.664 39.7222C429.116 39.4444 429.116 38.6111 428.842 38.3333C427.745 35.5556 425.003 33.8889 422.261 34.4444C419.519 35 417.6 37.5 417.6 40.2778C416.229 39.1667 414.584 38.3333 412.664 37.7778C413.213 37.5 413.761 37.2222 414.31 36.9444C414.858 36.6667 415.406 36.3889 415.955 36.1111C417.6 35.2778 417.6 34.1667 415.955 33.0556C415.406 32.5 414.584 32.2222 413.761 32.2222C413.213 31.9444 412.664 31.9444 412.116 31.6667C411.842 31.6667 411.568 31.3889 411.568 31.6667C411.293 31.9444 411.568 32.2222 411.842 32.2222C412.39 32.5 412.939 32.5 413.487 32.7778C414.035 33.0556 414.31 33.0556 414.858 33.3333C415.406 33.6111 416.229 33.6111 416.229 34.4444C416.229 35.2778 415.406 35.5556 414.858 35.5556C414.035 35.8333 412.939 36.1111 412.116 36.3889C411.568 36.6667 411.293 36.6667 411.293 37.5C411.293 38.0556 411.842 38.3333 412.116 38.3333C413.213 38.6111 414.31 38.8889 415.132 39.4444C415.68 39.7222 416.229 39.7222 416.229 40.5556C416.229 41.1111 415.68 41.3889 415.132 41.6667C414.035 41.9444 412.939 42.5 412.116 42.7778C411.568 43.0556 411.293 43.0555 411.293 43.6111C411.293 44.1667 411.568 44.4444 412.116 44.4444C412.664 44.7222 413.487 44.7222 414.035 45C414.858 45.2778 415.955 45.2778 416.229 46.3889C416.503 47.2222 415.132 47.5 414.584 48.0556C413.487 48.3333 412.39 48.6111 411.568 49.1667C411.293 49.4444 411.293 49.7222 411.293 50C411.019 50.2778 410.471 50.2778 410.197 50.2778C405.261 50.2778 400.326 50.2778 395.39 50.2778C394.567 50.2778 394.019 50.2778 394.019 49.1667C394.019 48.0556 394.567 48.3333 395.39 48.3333C397.584 48.3333 399.777 48.3333 401.971 48.3333C402.245 48.3333 403.068 48.6111 403.068 47.7778C403.068 46.9444 402.519 47.2222 401.971 47.2222C400.051 47.2222 398.406 47.2222 396.487 47.2222C395.938 47.2222 395.39 47.5 395.39 46.3889C395.39 45.5556 395.664 45 396.487 45C397.858 45 399.503 45 400.874 45C401.697 45 401.971 45 401.971 43.8889C401.971 42.2222 401.697 40.8333 401.148 39.1667C401.148 38.8889 400.874 38.6111 401.148 38.3333C401.422 38.0556 401.697 38.3333 401.971 38.6111C402.519 39.4444 403.067 39.1667 403.616 38.6111C404.164 37.7778 405.261 37.2222 406.358 36.9444C406.632 36.9444 407.455 36.9444 407.18 36.1111C406.906 35.5556 406.358 35.8333 406.084 35.8333C404.987 35.8333 404.164 36.3889 403.342 36.9444C402.519 37.7778 402.245 37.2222 401.971 36.6667C401.422 35.5555 401.422 34.4444 401.697 33.3333C401.971 32.5 402.245 32.2222 403.068 32.7778C404.438 33.3333 405.809 34.1667 407.455 34.1667C409.1 34.4444 410.197 33.6111 410.471 31.9444C410.745 30 410.197 28.8889 408.551 28.6111C406.632 28.0556 404.438 28.3333 402.519 28.0556C401.697 28.0556 400.6 28.0556 399.777 27.7778C398.955 27.5 398.406 26.9444 398.406 26.1111C398.406 25 398.955 25 399.777 24.7222C402.245 23.8889 404.438 24.4444 406.906 25C408.277 25.5556 409.648 25.8333 410.745 26.6667C411.019 26.9444 411.293 26.9444 411.293 27.2222C411.293 28.6111 412.939 28.8889 413.761 29.7222C414.858 30.8333 416.229 30.8333 417.326 29.7222C417.874 29.1667 418.422 28.8889 418.971 28.3333C419.793 27.5 420.068 26.3889 420.068 25.2778C421.164 18.8889 424.455 14.4444 430.487 12.2222C433.229 11.1111 436.245 10.8333 439.261 10.8333C440.084 10.8333 440.358 11.1111 440.358 11.9444C440.358 12.2222 440.358 12.5 440.358 12.7778C440.632 15 440.084 15.5556 437.89 16.1111C435.697 16.3889 433.777 16.3889 431.584 16.6667C428.019 17.2222 425.277 18.8889 424.455 22.7778C424.181 23.6111 423.632 24.4444 424.181 25.5556C424.455 24.4444 425.003 23.6111 425.277 22.7778C428.019 18.6111 432.132 17.7778 436.519 17.7778C437.342 17.7778 438.439 17.7778 439.261 18.0556C440.358 18.0556 441.181 19.7222 440.632 20.5556C440.358 21.1111 439.81 20.8333 439.536 20.8333C437.068 20.2778 434.326 20.2778 431.858 21.1111C429.939 21.6667 428.293 23.0556 426.923 24.7222C425.277 26.6667 424.729 29.1667 424.455 31.3889C424.455 31.6667 424.455 32.2222 424.729 32.2222C425.003 32.2222 425.277 31.9444 425.277 31.6667C425.552 29.1667 426.374 27.2222 427.745 25C428.293 24.4444 429.116 23.8889 429.939 23.8889C431.31 23.8889 431.858 24.7222 431.858 26.1111C429.116 27.7778 428.293 30.5556 427.471 33.6111C427.471 33.8889 426.923 34.7222 427.745 35C428.293 35 428.293 34.4444 428.293 33.8889C428.842 31.1111 429.939 28.6111 432.132 26.9444C433.229 26.9444 434.052 27.2222 434.6 27.7778C437.89 30.8333 441.729 33.3333 443.923 37.5C445.019 39.4444 444.745 40.5556 443.1 41.6667C442.826 41.6667 442.552 41.6667 442.552 41.9444C442.003 41.9444 441.181 41.6667 440.632 41.9444H440.358C439.81 41.1111 439.261 40.2778 440.906 39.7222C441.181 39.7222 441.455 39.4444 441.181 39.1667C440.906 38.8889 440.632 38.8889 440.358 38.8889C439.536 39.1667 438.987 39.4444 438.987 40.2778C438.713 41.1111 438.987 41.9444 439.81 42.2222C440.358 42.5 441.181 42.7778 442.003 42.5C442.003 42.7778 442.277 42.7778 442.552 42.7778ZM433.503 42.2222C432.681 41.3889 431.858 40.8333 430.487 40.8333C431.31 41.9444 432.406 42.2222 433.229 43.0556C433.503 43.3333 433.777 43.6111 434.052 43.0556C434.052 42.5 433.777 42.2222 433.503 42.2222ZM406.906 38.8889C404.713 38.8889 402.793 40.5556 403.068 43.0556C403.068 45 404.987 46.9444 406.906 46.9444C409.1 46.9444 410.745 45.2778 410.745 43.0556C410.745 40.8333 408.826 38.8889 406.906 38.8889ZM432.406 34.4444C432.955 35.5556 434.326 36.9444 435.148 37.2222C435.971 37.5 436.519 37.2222 437.068 36.3889C437.616 35.5556 437.068 34.7222 436.519 34.7222C435.148 35 433.777 34.7222 432.406 34.4444Z" fill="#E4EBF2"/>
<path fill-rule="evenodd" clip-rule="evenodd" d="M425.826 66.1111C425.826 63.8889 425.826 61.3889 425.826 59.1667C425.826 58.0555 426.374 57.5 427.471 57.5C430.213 57.5 432.681 57.2222 435.423 57.5C438.165 57.7778 439.81 59.4444 440.358 62.2222C440.906 64.7222 439.81 66.9444 437.616 68.3333C437.342 68.6111 436.794 68.6111 437.068 69.1667C437.342 70 437.616 70.5555 438.439 70.8333C438.987 70.8333 439.261 70.8333 439.81 70.8333C440.632 70.5555 441.181 71.1111 441.455 71.6667C442.277 73.3333 442.003 73.8889 440.084 74.4444C436.245 75.5555 433.503 74.1667 432.406 70.2778C432.406 70 432.406 70 432.406 69.7222C432.406 69.1667 432.406 68.6111 431.584 68.8889C430.761 68.8889 431.035 69.4444 431.035 70C431.035 70.8333 431.035 71.9444 431.035 72.7778C431.035 73.8889 430.487 74.4444 429.116 74.7222C425.826 74.7222 425.826 74.7222 425.826 71.3889C425.826 69.4444 425.826 67.7778 425.826 66.1111ZM432.681 61.9444C431.31 61.6667 431.035 62.2222 431.035 63.6111C431.035 63.8889 431.035 64.4444 431.035 64.7222C431.035 65.2778 431.31 65.2778 431.584 65.2778C432.406 65.2778 433.229 65.2778 433.777 65.2778C434.6 65 435.148 64.4444 435.148 63.6111C435.148 62.7778 434.6 61.9444 433.777 61.9444C433.229 61.6667 432.955 61.9444 432.681 61.9444Z" fill="#E4EBF2"/>
<path fill-rule="evenodd" clip-rule="evenodd" d="M370.164 63.6111C370.164 61.9444 370.164 60.5556 370.164 58.8889C370.164 57.5 370.712 56.9444 372.083 56.9444H372.358C375.374 56.9444 375.374 56.9444 375.374 60C375.374 62.5 375.374 65 375.374 67.2222C375.374 68.8889 376.196 70 377.567 70C378.938 70 379.761 68.8889 379.761 67.2222C379.761 64.4444 379.761 61.6667 379.761 58.6111C379.761 57.2222 380.035 56.6667 381.68 56.6667C381.954 56.6667 382.229 56.6667 382.229 56.6667C384.696 56.6667 384.971 56.9444 384.971 59.1667C384.971 61.9444 384.971 64.4444 384.971 67.2222C384.971 71.3889 381.954 74.1667 377.567 74.1667C373.18 74.1667 370.164 71.3889 370.164 67.2222C370.164 66.3889 370.164 65 370.164 63.6111Z" fill="#E4EBF2"/>
<path fill-rule="evenodd" clip-rule="evenodd" d="M425.003 63.6111C425.003 64.7222 425.003 65.8333 425.003 66.9444C425.277 72.5 421.439 75.2778 415.955 74.4444C412.39 73.8889 410.197 71.3889 410.197 67.7778C410.197 65 410.197 61.9444 410.197 59.1667C410.197 57.5 410.471 56.9444 412.116 56.9444C412.39 56.9444 412.939 56.9444 413.213 56.9444C414.584 56.9444 415.132 57.5 415.132 58.8889C415.132 61.6667 415.132 64.4444 415.132 67.2222C415.132 68.3333 415.406 69.1667 416.503 69.7222C418.148 70.2778 419.519 69.1667 419.519 67.2222C419.519 64.4444 419.519 61.6667 419.519 58.8889C419.519 57.2222 419.793 56.6667 421.713 56.6667C422.261 56.6667 422.535 56.6667 423.084 56.6667C424.181 56.6667 424.729 57.2222 424.729 58.3333C425.003 60.5556 425.003 62.2222 425.003 63.6111Z" fill="#E4EBF2"/>
<path fill-rule="evenodd" clip-rule="evenodd" d="M353.987 67.2222C353.987 62.2222 355.632 59.7222 358.648 58.0556C361.938 56.3889 365.228 56.3889 368.519 58.6111C369.341 59.1667 369.89 59.7222 369.067 60.8333C367.97 62.5 367.148 63.0556 366.051 62.5C365.229 61.9444 364.132 61.6667 363.309 61.6667C361.39 61.6667 360.019 62.7778 359.196 64.4445C358.648 66.1111 358.922 68.3333 360.293 69.4445C361.664 70.8333 363.583 70.8333 365.228 70.2778C367.422 69.4444 367.422 69.4445 368.793 71.1111C369.616 72.2222 369.616 72.7778 368.519 73.6111C365.228 75.8333 361.938 75.8333 358.648 74.1667C355.632 72.2222 353.987 69.4445 353.987 67.2222Z" fill="#E4EBF2"/>
<path fill-rule="evenodd" clip-rule="evenodd" d="M393.471 23.3333C394.842 23.3333 397.309 25 397.309 26.1111C397.584 28.0556 398.68 29.1667 400.6 29.1667C402.245 29.4444 404.164 29.4444 406.084 29.4444C406.632 29.4444 407.455 29.4444 408.003 29.7222C409.648 30 409.922 30.5556 409.648 31.9444C409.374 33.3333 408.826 33.6111 407.455 33.3333C405.809 33.0556 404.438 32.5 403.068 31.6667C402.245 31.1111 401.697 31.3889 401.422 32.2222C400.874 33.8889 400.326 35.8333 401.422 37.7778C400.874 38.0556 400.874 37.7778 400.6 37.5C400.326 36.6667 399.777 36.1111 399.229 35.5556C398.406 35 398.132 34.1667 397.858 33.3333C397.035 30.8333 395.39 29.1667 393.196 28.0556C389.632 26.1111 386.067 25 381.954 24.4444C380.309 24.1667 380.035 23.8889 380.858 22.5C381.954 20.2778 384.696 19.4444 387.438 20C389.358 20.2778 391.003 21.3889 392.922 22.2222C393.471 22.5 393.471 22.7778 393.196 23.3333C392.922 23.8889 392.648 24.1667 392.374 24.7222C392.1 25 392.1 25.2778 391.551 25C389.358 23.6111 386.89 22.7778 383.874 22.5C384.422 21.9444 385.245 21.6667 385.793 21.6667C387.438 21.6667 389.083 22.2222 390.454 22.7778C390.729 23.0556 391.277 23.3333 391.551 22.7778C391.826 22.2222 391.277 22.2222 391.003 21.9444C389.906 21.3889 388.535 20.8333 387.438 20.5556C386.067 20.2778 384.696 20.5556 383.325 21.6667C383.051 21.9444 382.503 22.2222 382.777 22.7778C383.051 23.3333 383.6 23.0556 383.874 23.0556C386.067 23.0556 388.261 23.8889 390.454 24.7222C391.277 25 391.826 26.3889 392.922 25.8333C392.922 25.8333 393.196 24.4444 393.471 23.3333C393.471 23.6111 393.471 23.6111 393.471 23.3333Z" fill="#E4EBF2"/>
<path fill-rule="evenodd" clip-rule="evenodd" d="M402.519 57.2222C404.164 57.2222 406.084 57.2222 407.729 57.2222C409.1 57.2222 409.648 57.7778 409.648 59.4444C409.648 61.3889 409.374 61.6667 408.003 61.6667C405.261 61.6667 405.261 61.6667 405.261 64.7222C405.261 67.2222 405.261 70 405.261 72.5C405.261 73.8889 404.713 74.4444 403.342 74.4444C403.068 74.4444 402.793 74.4444 402.519 74.4444C400.6 74.4444 400.326 74.1667 400.326 71.9444C400.326 68.8889 400.326 65.8333 400.326 62.7778C400.326 61.6667 400.051 61.1111 398.955 61.3889C398.68 61.3889 398.68 61.3889 398.406 61.3889C395.938 61.3889 395.116 60.2778 395.938 58.0556C396.213 57.2222 396.761 56.9444 397.584 56.9444C398.955 57.2222 400.6 57.2222 402.519 57.2222Z" fill="#E4EBF2"/>
<path fill-rule="evenodd" clip-rule="evenodd" d="M386.067 66.1111C386.067 63.8889 386.067 61.6667 386.067 59.4444C386.067 57.7778 386.342 57.5 387.987 57.5C391.003 57.5 391.277 57.5 391.277 60.8333C391.277 63.6111 391.277 66.3889 391.277 69.4444C391.277 70.2778 391.551 70.5555 392.374 70.5555C394.019 70.5555 395.664 70.5555 397.309 70.5555C398.68 70.5555 398.955 71.1111 398.955 72.7778C398.955 74.4444 398.68 75 397.309 75C394.293 75 391.003 75 387.987 75C386.616 75 386.342 74.4444 386.342 73.0555C386.067 70.5555 386.067 68.3333 386.067 66.1111Z" fill="#E4EBF2"/>
<path fill-rule="evenodd" clip-rule="evenodd" d="M396.213 33.3333C394.293 32.2222 392.1 31.3889 390.18 30.8333C389.632 30.8333 389.358 30.5556 388.809 30.5556C387.987 30.2778 387.438 30.5556 387.438 31.6667C387.713 33.0556 386.89 33.3333 385.793 33.3333C383.6 33.3333 382.777 32.7778 381.954 30.5556C381.954 30.2778 381.68 30 381.406 30C380.858 29.7222 380.309 29.7222 380.035 29.1667C380.035 28.0556 380.035 27.2222 380.035 26.1111C380.035 25.5556 380.583 25.5556 380.858 25.8333C381.406 25.8333 381.954 25.8333 381.954 26.6667C381.954 27.2222 381.954 28.0556 381.954 28.6111C381.954 28.8889 381.954 29.1667 382.503 29.1667C383.051 29.1667 383.051 28.8889 383.051 28.6111C383.051 28.0556 383.051 27.7778 383.051 27.2222C383.051 26.9444 383.051 26.3889 383.6 26.3889C384.148 26.3889 384.422 26.6667 384.422 27.2222C384.422 27.5 384.422 27.5 384.422 27.7778C384.422 28.0556 384.148 28.6111 384.971 28.6111C385.519 28.6111 385.519 28.0556 385.519 27.7778C385.519 27.5 385.519 26.9444 386.067 26.9444C386.616 26.9444 386.89 27.2222 386.89 27.7778C386.89 28.6111 387.438 28.6111 387.987 28.0556C388.261 27.7778 388.535 27.7778 388.809 27.7778C391.551 28.8889 394.293 30 396.213 32.5C395.938 32.5 396.213 32.7778 396.213 33.3333Z" fill="#E4EBF2"/>
<path fill-rule="evenodd" clip-rule="evenodd" d="M384.422 50.5556C383.325 50.5556 382.229 50.5556 381.132 50.5556C380.858 50.5556 380.583 50.8333 380.309 50.2778C380.309 50 380.309 49.7222 380.583 49.4444C381.68 48.8889 381.954 47.5 382.229 46.3889C382.777 44.7222 384.971 43.6111 386.89 43.8889C387.438 43.8889 387.438 44.1667 387.438 44.7222C387.438 45.5556 387.438 46.3889 387.438 47.2222C387.438 47.7778 387.438 48.3333 387.987 48.3333C388.809 48.6111 388.535 49.1667 388.535 49.7222C388.535 50.5556 387.713 50.2778 387.438 50.2778C386.342 50.5556 385.245 50.5556 384.422 50.5556Z" fill="#E4EBF2"/>
<path fill-rule="evenodd" clip-rule="evenodd" d="M413.213 25.5556C414.584 25.5556 415.955 25.8333 416.777 26.9444C417.326 27.5 417.6 28.3333 416.777 28.8889C416.229 29.4444 415.406 29.7222 414.584 29.1667C413.487 28.3333 412.939 27.2222 411.842 26.3889C411.568 26.1111 411.568 25.8333 412.116 25.8333C412.39 25.8333 412.664 25.5556 413.213 25.5556Z" fill="#E4EBF2"/>
<path fill-rule="evenodd" clip-rule="evenodd" d="M433.503 21.9444C435.697 21.3889 437.616 21.3889 440.084 21.9444C437.616 23.0556 435.697 21.9444 433.503 21.9444Z" fill="#E4EBF2"/>
<path fill-rule="evenodd" clip-rule="evenodd" d="M391.003 49.4444C391.003 50 391.003 50.5556 390.18 50.5556C389.632 50.5556 389.632 50 389.632 49.7222C389.632 49.1667 389.358 48.6111 390.18 48.6111C391.003 48.3333 391.003 48.8889 391.003 49.4444Z" fill="#E4EBF2"/>
<path fill-rule="evenodd" clip-rule="evenodd" d="M391.825 49.4444C391.825 48.8889 391.826 48.3333 392.374 48.3333C393.196 48.3333 393.196 48.8889 393.196 49.4444C393.196 50 393.196 50.5556 392.374 50.5556C391.826 50.5556 391.825 50 391.825 49.4444Z" fill="#E4EBF2"/>
<path fill-rule="evenodd" clip-rule="evenodd" d="M427.471 40.5556C427.471 42.7778 425.552 44.4444 423.358 44.4444C421.164 44.4444 419.245 42.5 419.245 40.2778C419.245 38.0556 421.164 36.1111 423.358 36.1111C425.826 36.3889 427.471 38.3333 427.471 40.5556Z" fill="#E4EBF2"/>
<path fill-rule="evenodd" clip-rule="evenodd" d="M423.358 49.4444C422.535 49.4444 421.713 48.8889 421.164 48.0556C420.89 47.5 420.616 46.9445 421.164 46.3889C421.439 45.8333 421.987 46.3889 422.261 46.3889C423.084 46.3889 423.906 46.3889 425.003 46.3889C425.552 46.1111 425.826 46.3889 425.826 46.9444C426.1 48.0556 425.003 49.4444 423.358 49.4444Z" fill="#E4EBF2"/>
<path fill-rule="evenodd" clip-rule="evenodd" d="M409.374 42.7778C409.374 44.1667 408.277 45.5556 406.632 45.5556C404.987 45.5556 403.89 44.4444 403.89 42.7778C403.89 41.3889 405.261 40 406.632 40C408.277 40 409.374 41.3889 409.374 42.7778ZM407.729 42.7778C407.729 42.2222 407.18 41.6667 406.632 41.6667C405.809 41.6667 405.535 42.2222 405.535 42.7778C405.535 43.3333 406.084 43.8889 406.632 43.6111C407.455 43.8889 407.729 43.3333 407.729 42.7778Z" fill="#E4EBF2"/>
<path d="M446.939 77.7778L401.697 78.6111C394.019 78.6111 386.616 78.8889 378.938 78.8889C371.261 78.6111 363.858 78.6111 356.18 78.0556V77.7778C363.858 77.2222 371.261 76.9444 378.938 76.9444C386.616 76.9444 394.019 76.9444 401.697 77.2222L446.939 77.7778Z" fill="#E4EBF2"/>
</svg>
