<svg width="231" height="100" viewBox="0 0 231 100" fill="none" xmlns="http://www.w3.org/2000/svg">
<path fill-rule="evenodd" clip-rule="evenodd" d="M50.2518 20.0116C25.3868 25.6796 10.6648 39.5026 10.6648 53.3256C10.6648 83.9792 73.7257 89.3002 97.6633 89.2423C127.919 89.1845 215.439 82.996 215.439 43.6669C215.439 19.7224 169.07 0 111.922 0C112.038 0 111.98 0 111.98 0C177.475 0 230.508 22.2094 230.508 49.6819C230.508 93.2331 129.773 100 98.127 100C71.9289 100 0.000129788 93.7536 0.000129788 58.1261C-0.0578306 41.4691 19.3009 25.9109 50.2518 20.0116Z" fill="#E4EBF2"/>
<path fill-rule="evenodd" clip-rule="evenodd" d="M161.362 73.6264C159.217 73.6264 157.42 71.8334 157.42 69.6356C157.42 67.4957 159.217 65.7027 161.362 65.7027C163.564 65.7027 165.361 67.4957 165.361 69.6356C165.303 71.8334 163.564 73.6264 161.362 73.6264ZM161.362 66.1076C159.391 66.1076 157.768 67.727 157.768 69.6356C157.768 71.6599 159.391 73.2215 161.362 73.2215C163.332 73.2215 164.955 71.6021 164.955 69.6356C164.897 67.727 163.332 66.1076 161.362 66.1076Z" fill="#E4EBF2"/>
<path fill-rule="evenodd" clip-rule="evenodd" d="M161.478 71.1394H160.956V68.5946L160.145 71.1394H159.855L159.043 68.5946V71.1394H158.58V68.1897H159.449L160.029 70.0983L160.666 68.1897H161.478V71.1394Z" fill="#E4EBF2"/>
<path fill-rule="evenodd" clip-rule="evenodd" d="M164.086 71.1394H163.506L163.043 69.9248H162.289V71.1394H161.767V68.1897H163.043C163.39 68.1897 163.68 68.2475 163.854 68.4211C164.028 68.5946 164.086 68.7681 164.086 69.0573C164.086 69.4043 163.912 69.6935 163.564 69.8091L164.086 71.1394ZM162.289 69.52H162.985C163.159 69.52 163.332 69.4621 163.39 69.4043C163.506 69.3464 163.564 69.2308 163.564 69.0573C163.564 68.9416 163.506 68.8259 163.39 68.7681C163.332 68.6524 163.216 68.5946 163.043 68.5946H162.289V69.52Z" fill="#E4EBF2"/>
<path fill-rule="evenodd" clip-rule="evenodd" d="M50.0199 20.0116H65.959L71.9289 33.9503L77.725 20.0116H93.8379L93.722 73.6264H77.725V47.5998L71.9289 59.7455L65.959 47.5998V73.6264H50.0199V20.0116Z" fill="#E4EBF2"/>
<path fill-rule="evenodd" clip-rule="evenodd" d="M50.9473 20.937V72.701H65.0316V43.7247L71.9289 57.6634L78.6523 43.6669V72.701H92.8526L92.9106 20.937H78.3625L71.9289 36.2637L65.3214 20.937H50.9473Z" fill="#E4EBF2"/>
<path fill-rule="evenodd" clip-rule="evenodd" d="M159.739 20.0694C167.564 20.2429 177.533 22.3829 177.243 37.0156C176.953 55.5234 157.363 53.7883 153.421 53.7883V73.6264H139.511V20.0116H155.392C156.725 20.0116 158.058 20.0116 159.739 20.0694ZM153.421 41.8739H157.42C159.449 41.8739 163.39 41.8739 163.39 37.8832C163.39 33.8924 160.782 33.8346 157.42 33.8924H153.421V41.8739Z" fill="#E4EBF2"/>
<path fill-rule="evenodd" clip-rule="evenodd" d="M140.438 72.701H152.552V52.8629H153.421C154.175 52.8629 154.87 52.9208 155.566 52.9208C156.667 52.9786 157.71 52.9208 158.696 52.8629C161.304 52.6894 163.912 52.3424 166.404 51.4748C173.186 49.1035 176.258 44.0139 176.373 36.9578C176.489 30.7692 174.751 25.1591 168.665 22.4986C165.883 21.284 162.695 20.9948 159.739 20.8791C158.29 20.8791 156.841 20.8791 155.45 20.8791H140.438V72.701ZM152.552 33.0249H157.42C159.101 33.0249 161.42 32.967 162.811 34.0659C164.028 35.0492 164.318 36.4951 164.318 37.941C164.318 39.5026 163.738 40.8907 162.463 41.7582C161.014 42.7415 159.101 42.8571 157.42 42.8571H152.552V33.0249Z" fill="#E4EBF2"/>
<path fill-rule="evenodd" clip-rule="evenodd" d="M137.54 41.8739C137.54 29.9595 131.57 20.0694 116.674 20.0694C101.721 20.0694 95.7506 31.9838 95.7506 46.8479C95.7506 61.7698 101.721 73.6264 116.674 73.6264C131.57 73.6264 137.54 63.6784 137.54 51.8219H123.63C122.644 55.8126 121.659 59.7455 116.674 59.7455C111.69 59.7455 109.719 52.8051 109.719 46.8479C109.719 40.8907 111.748 33.9503 116.674 33.9503C121.659 33.9503 122.644 37.941 123.63 41.8739H137.54Z" fill="#E4EBF2"/>
<path fill-rule="evenodd" clip-rule="evenodd" d="M136.613 40.9485C136.439 36.2059 135.338 31.2898 132.324 27.4725C128.44 22.5564 122.644 20.937 116.674 20.937C101.489 20.937 96.678 33.6032 96.678 46.7901C96.678 59.9769 101.489 72.701 116.674 72.701C122.702 72.701 128.498 71.0237 132.324 66.1076C135.28 62.3482 136.439 57.432 136.613 52.6894H124.325C123.803 54.8294 123.108 57.2007 121.543 58.8201C120.21 60.1504 118.471 60.6131 116.674 60.6131C115.747 60.6131 114.878 60.4396 114.066 60.0347C109.893 57.9526 108.734 51.07 108.734 46.7901C108.734 45.8068 108.792 44.8814 108.908 43.956C109.255 40.3702 110.588 35.3383 114.066 33.6032C114.878 33.1984 115.747 33.0249 116.674 33.0249C118.471 33.0249 120.21 33.5454 121.543 34.8757C123.108 36.4372 123.803 38.8664 124.325 41.0064H136.613V40.9485Z" fill="#E4EBF2"/>
</svg>
