<svg width="327" height="101" viewBox="0 0 327 101" fill="none" xmlns="http://www.w3.org/2000/svg">
<path fill-rule="evenodd" clip-rule="evenodd" d="M326.352 49.4312C326.352 51.0426 326.352 52.4548 326.352 53.8669C326.321 54.3131 326.265 54.7574 326.186 55.1976H0V49.4312H326.352Z" fill="#E4EBF2"/>
<path fill-rule="evenodd" clip-rule="evenodd" d="M11.6682 29.6611H19.4001C19.8791 33.3332 22.4714 33.7515 25.6442 33.642C30.2934 33.482 34.9427 33.614 39.6088 33.5971C42.6942 33.5971 44.3172 32.1934 44.3341 29.5853C44.3539 27.0277 42.4463 25.186 39.5975 25.172C32.9364 25.1383 26.2753 25.172 19.6114 25.172C15.0241 25.172 11.6654 21.8255 11.6429 17.2185C11.6429 14.5065 11.6062 11.7945 11.6429 9.07689C11.6964 4.43618 15.1566 1.03917 19.8143 1.03356C27.7659 1.03356 35.7203 1.12901 43.6663 0.997061C49.6456 0.898801 53.2889 5.94098 52.2576 12.3026C52.2012 12.6508 51.5081 13.1028 51.0714 13.1449C49.9443 13.2684 48.7833 13.1814 47.6365 13.1954C45.9656 13.2123 44.4243 13.4958 43.734 11.1095C43.4522 10.1437 41.4291 9.14427 40.1611 9.09373C34.6553 8.88037 29.1353 8.99828 23.6182 9.02355C21.581 9.02355 20.1242 10.1971 19.7467 12.0163C19.2648 14.324 20.0481 16.1517 22.0572 16.9377C23.0549 17.3143 24.1124 17.5093 25.1792 17.5133C31.5529 17.5666 37.9295 17.5441 44.3032 17.547C48.8707 17.547 52.2661 20.9159 52.3055 25.5033C52.3281 28.1451 52.3055 30.7841 52.3055 33.4259C52.2914 37.8111 48.9749 41.4215 44.5793 41.4748C36.1261 41.5796 27.6729 41.5796 19.2197 41.4748C15.0579 41.4243 11.9669 38.3136 11.6823 34.1755C11.5865 32.783 11.6682 31.3568 11.6682 29.6611Z" fill="#E4EBF2"/>
<path fill-rule="evenodd" clip-rule="evenodd" d="M226.221 8.94781C226.221 11.6373 226.244 13.9086 226.221 16.1742C226.199 17.7744 227.348 17.5386 228.312 17.5414C234.9 17.5508 241.488 17.5508 248.076 17.5414H250.493V25.0485C249.744 25.085 248.989 25.1524 248.239 25.1552C241.581 25.1552 234.92 25.2142 228.261 25.1271C226.644 25.1075 226.097 25.596 226.182 27.185C226.289 29.2316 226.207 31.2867 226.207 33.5747H258.71V41.357H218.521V1.16557H258.758V8.94781H226.221Z" fill="#E4EBF2"/>
<path fill-rule="evenodd" clip-rule="evenodd" d="M83.4696 1.03361C87.5497 1.03361 91.6297 1.03361 95.7098 1.03361C97.8696 1.02913 99.943 1.87853 101.475 3.39542C103.007 4.91231 103.872 6.97277 103.881 9.12467C103.904 17.255 103.894 25.3863 103.853 33.5186C103.839 37.8448 100.379 41.4412 96.0282 41.4777C87.7253 41.5469 79.4214 41.5469 71.1167 41.4777C66.5717 41.4412 63.3059 38.1565 63.2665 33.6168C63.197 25.4135 63.1801 17.2101 63.2158 9.00676C63.2298 4.40254 66.7605 1.0308 71.4294 1.02518C75.44 1.02706 79.4534 1.02987 83.4696 1.03361ZM83.4301 33.6C86.1493 33.6 88.8684 33.6309 91.5875 33.6C94.4672 33.5579 95.9127 32.0812 95.9155 29.2176C95.9155 23.9414 95.908 18.6662 95.893 13.392C95.893 10.5452 94.3827 9.01798 91.5762 9.00956C86.2112 8.99646 80.8454 8.99646 75.4785 9.00956C72.6608 9.00956 71.2717 10.3768 71.2519 13.2207C71.2068 18.6391 71.204 24.0575 71.2153 29.4758C71.2153 32.1429 72.6241 33.5747 75.2756 33.6028C77.9891 33.6365 80.7082 33.6112 83.4273 33.6084L83.4301 33.6Z" fill="#E4EBF2"/>
<path fill-rule="evenodd" clip-rule="evenodd" d="M277.805 9.25383V41.3794H270.082V1.17119C270.62 1.12065 271.173 1.02239 271.722 1.02239C282.031 1.02239 292.34 1.02707 302.649 1.03643C306.515 1.03643 310.181 4.29026 310.401 8.1505C310.587 11.4212 310.587 14.7143 310.452 17.9766C310.297 21.7582 307.07 24.8408 303.233 25.1412C302.872 25.2099 302.517 25.3037 302.17 25.4219L318.026 40.9639L317.781 41.5002C314.25 41.5002 310.719 41.5254 307.189 41.4665C306.775 41.4665 306.304 41.0594 305.972 40.7309C298.413 33.2444 290.866 25.7373 283.331 18.2096C283.249 18.1282 283.247 17.9653 283.108 17.5358H292.72C294.509 17.5358 296.31 17.6397 298.073 17.4853C300.136 17.3056 301.824 16.3033 302.418 14.2286C302.928 12.4515 302.418 10.8063 300.793 9.73671C300.222 9.32776 299.549 9.08388 298.848 9.03204C292.193 8.9815 285.535 9.00116 278.876 9.01239C278.513 9.06348 278.155 9.14423 277.805 9.25383Z" fill="#E4EBF2"/>
<path fill-rule="evenodd" clip-rule="evenodd" d="M155.73 13.027C154.992 13.1 154.507 13.1842 154.023 13.187C152.031 13.2039 150.038 13.187 148.105 13.187C147.181 9.81808 146.082 8.98988 142.772 8.99269C137.618 8.99269 132.461 8.99269 127.311 8.99269C124.775 8.99269 123.188 10.329 123.132 12.8501C123.005 18.625 123.022 24.4056 123.064 30.1805C123.064 31.9127 124.789 33.5494 126.595 33.5494C132.394 33.6084 138.193 33.628 143.989 33.5494C146.437 33.5185 147.581 31.8397 148.083 29.619H155.496C155.939 33.6196 156.173 37.5107 152.264 39.942C150.819 40.825 149.169 41.3211 147.474 41.3822C139.458 41.5282 131.441 41.4748 123.425 41.4524C118.409 41.4524 115.172 38.1452 115.163 33.1227C115.146 25.2768 115.136 17.4309 115.132 9.58506C115.132 4.18915 118.37 0.991469 123.791 0.988662C131.737 0.988662 139.682 0.988662 147.626 0.988662C149.717 0.968339 151.732 1.76244 153.243 3.20159C154.753 4.64075 155.64 6.61105 155.713 8.6923C155.778 10.1381 155.73 11.5475 155.73 13.027Z" fill="#E4EBF2"/>
<path fill-rule="evenodd" clip-rule="evenodd" d="M207.309 13.0466H199.673C198.678 9.70858 197.683 8.98988 194.125 8.99268C189.053 8.99268 183.961 8.99268 178.881 9.00953C176.345 9.00953 174.75 10.3515 174.699 12.8613C174.581 18.6335 174.598 24.4112 174.657 30.1861C174.674 31.98 176.348 33.555 178.171 33.5719C183.968 33.6336 189.765 33.6336 195.562 33.5719C197.712 33.5494 198.734 32.4854 199.735 29.6414H207.109C207.461 33.6224 207.816 37.5388 203.854 39.9644C202.409 40.8508 200.76 41.3534 199.064 41.4243C190.977 41.5703 182.89 41.5169 174.803 41.4889C170.103 41.472 166.75 38.0498 166.745 33.3697C166.732 25.3835 166.716 17.3972 166.697 9.411C166.697 4.38286 170.05 1.03358 175.15 1.03077C183.166 1.03077 191.182 1.03077 199.199 1.03077C203.725 1.03077 207.23 4.41936 207.309 8.89162C207.328 10.2392 207.309 11.5868 207.309 13.0466Z" fill="#E4EBF2"/>
<path fill-rule="evenodd" clip-rule="evenodd" d="M145.369 70.4449H149.836V100.4H145.369C145.369 96.8826 145.417 93.4154 145.336 89.9482C145.316 89.1369 144.947 87.7023 144.592 87.6461C143.076 87.4496 141.492 87.6152 139.959 87.7977C139.796 87.8174 139.678 88.8112 139.664 89.353C139.638 92.9774 139.664 96.6047 139.664 100.403H135.181V70.4421H139.638C139.638 73.811 139.596 77.1294 139.666 80.4506C139.686 81.3602 139.914 82.9773 140.267 83.0447C141.78 83.3254 143.383 83.1851 144.933 83.0166C145.138 82.9942 145.341 81.8936 145.35 81.3041C145.389 77.7527 145.369 74.2012 145.369 70.4449Z" fill="#E4EBF2"/>
<path fill-rule="evenodd" clip-rule="evenodd" d="M180.126 85.3244C180.126 82.6152 180.101 79.9032 180.126 77.1828C180.213 69.9704 186.536 68.7239 190.986 70.852C193.307 71.9749 194.125 74.2209 194.187 76.5511C194.344 82.3962 194.347 88.2497 194.229 94.0976C194.156 97.6715 192.256 99.9231 189.179 100.631C185.629 101.448 182.62 100.476 181.194 97.7248C180.558 96.3839 180.203 94.9283 180.149 93.4463C179.988 90.7427 180.101 88.0279 180.101 85.3047L180.126 85.3244ZM184.699 85.0829H184.713C184.713 88.0083 184.736 90.9336 184.713 93.859C184.694 95.5996 185.432 96.5794 187.249 96.5626C188.94 96.5485 189.684 95.5968 189.684 93.9769C189.684 88.2694 189.684 82.559 189.684 76.8515C189.684 75.1277 188.932 74.0974 187.148 74.1339C185.364 74.1704 184.674 75.2372 184.699 76.9413C184.733 79.6589 184.702 82.3709 184.702 85.0829H184.699Z" fill="#E4EBF2"/>
<path fill-rule="evenodd" clip-rule="evenodd" d="M228.659 100.451H224.176V70.1978C227.368 70.3579 230.566 70.2905 233.685 70.7593C235.788 71.071 237.261 72.8565 237.529 74.9087C237.934 77.7142 237.999 80.5579 237.723 83.3788C237.284 87.2755 235.041 89.1397 231.068 89.1172C228.974 89.1172 228.532 89.8837 228.622 91.7422C228.757 94.5749 228.659 97.4161 228.659 100.451ZM228.746 84.7152C232.722 85.344 233.412 84.7657 233.415 81.0262C233.415 80.1035 233.415 79.1807 233.415 78.258C233.432 74.7122 232.288 73.8559 228.735 74.8891L228.746 84.7152Z" fill="#E4EBF2"/>
<path fill-rule="evenodd" clip-rule="evenodd" d="M101.314 78.2776C101.217 78.051 101.141 77.8161 101.086 77.5758C101.03 76.1917 100.987 74.6785 99.339 74.2883C98.5416 74.0974 97.0201 74.2883 96.82 74.7487C96.2959 75.9559 95.6929 77.7526 96.2395 78.6791C97.5442 80.8998 99.3559 82.8678 101.185 84.7235C103.225 86.7898 105.022 88.9347 105.541 91.8657C106.161 95.375 104.577 98.918 101.836 100.229C98.8037 101.68 95.073 101.004 92.9738 98.6007C91.41 96.8068 91.1197 94.6114 91.4381 92.4244C91.5001 91.9976 92.9541 91.5316 93.7627 91.5372C94.3686 91.5372 95.1209 92.1548 95.5295 92.7051C95.8112 93.0785 95.5774 93.8112 95.6337 94.3896C95.7943 96.1021 96.8904 96.6355 98.4515 96.599C100.012 96.5625 100.832 95.8298 100.987 94.2885C101.218 92.0987 100.142 90.5013 98.7586 88.9544C96.5044 86.4277 93.9121 84.0778 92.1989 81.217C89.7672 77.149 91.858 71.6717 95.8451 70.3185C100.537 68.7099 105 71.7223 105.239 76.6521C105.296 77.806 104.958 78.4208 103.684 78.3141C102.932 78.2271 102.151 78.2776 101.314 78.2776Z" fill="#E4EBF2"/>
</svg>
