<svg width="80" height="80" viewBox="0 0 80 80" fill="none" xmlns="http://www.w3.org/2000/svg">
<g filter="url(#filter0_di_94_111)">
<path d="M9.2127 29.3041C9.44097 29.5324 9.74066 29.6472 10.0403 29.6472C10.34 29.6472 10.6397 29.533 10.8686 29.3041C11.3257 28.847 11.3257 28.1054 10.8686 27.6483L8.02556 24.8052L10.8686 21.9628C11.3257 21.505 11.3257 20.7641 10.8686 20.3069C10.4114 19.8498 9.66986 19.8498 9.2127 20.3069L5.54203 23.9776C5.32231 24.1973 5.19901 24.4952 5.19901 24.8052C5.19901 25.1159 5.32231 25.4137 5.54203 25.6335L9.2127 29.3041Z" fill="url(#paint0_linear_94_111)"/>
<path d="M20.8314 24.8052L17.9883 27.6483C17.5312 28.1054 17.5312 28.847 17.9889 29.3041C18.2172 29.5324 18.5169 29.6472 18.8166 29.6472C19.1163 29.6472 19.4159 29.5324 19.6442 29.3041L23.3155 25.6329C23.7727 25.1757 23.7727 24.4341 23.3155 23.9776L19.6442 20.3063C19.1871 19.8492 18.4461 19.8492 17.9889 20.3063C17.5312 20.7641 17.5312 21.5051 17.9889 21.9622L20.8314 24.8052Z" fill="url(#paint1_linear_94_111)"/>
<path d="M12.6831 29.566C12.8235 29.6209 12.9688 29.6471 13.111 29.6471C13.5785 29.6471 14.0198 29.3652 14.2011 28.9043L17.085 21.5624C17.3218 20.9606 17.0252 20.2812 16.4234 20.0444C15.8222 19.8082 15.1423 20.1042 14.9061 20.7061L12.0215 28.048C11.7853 28.6498 12.0813 29.3298 12.6831 29.566Z" fill="url(#paint2_linear_94_111)"/>
<path d="M7.0325 36.5161H14.9201C15.5665 36.5161 16.0908 35.9918 16.0908 35.3448C16.0908 34.6984 15.5665 34.1741 14.9201 34.1741H7.0325C6.38552 34.1741 5.86184 34.6984 5.86184 35.3448C5.86184 35.9918 6.38552 36.5161 7.0325 36.5161Z" fill="url(#paint3_linear_94_111)"/>
<path d="M33.0867 34.1741H19.2194C18.5731 34.1741 18.0488 34.6984 18.0488 35.3448C18.0488 35.9918 18.5731 36.5161 19.2194 36.5161H33.0867C33.7336 36.5161 34.2579 35.9918 34.2579 35.3448C34.2579 34.6984 33.7336 34.1741 33.0867 34.1741Z" fill="url(#paint4_linear_94_111)"/>
<path d="M7.0325 41.4544H10.3925C11.0389 41.4544 11.5632 40.9302 11.5632 40.2832C11.5632 39.6368 11.0389 39.1125 10.3925 39.1125H7.0325C6.38552 39.1125 5.86184 39.6368 5.86184 40.2832C5.86184 40.9302 6.38552 41.4544 7.0325 41.4544Z" fill="url(#paint5_linear_94_111)"/>
<path d="M28.8032 39.1125C28.1562 39.1125 27.6326 39.6368 27.6326 40.2832C27.6326 40.9302 28.1562 41.4544 28.8032 41.4544H30.8491C31.4961 41.4544 32.0204 40.9302 32.0204 40.2832C32.0204 39.6368 31.4961 39.1125 30.8491 39.1125H28.8032Z" fill="url(#paint6_linear_94_111)"/>
<path d="M25.7215 40.2832C25.7215 39.6368 25.1972 39.1125 24.5509 39.1125H14.5008C13.8538 39.1125 13.3301 39.6368 13.3301 40.2832C13.3301 40.9302 13.8538 41.4544 14.5008 41.4544H24.5509C25.1972 41.4544 25.7215 40.9302 25.7215 40.2832Z" fill="url(#paint7_linear_94_111)"/>
<path d="M33.3913 40.2832C33.3913 40.9302 33.9155 41.4544 34.5619 41.4544H38.3943C39.0413 41.4544 39.5656 40.9302 39.5656 40.2832C39.5656 39.6368 39.0413 39.1125 38.3943 39.1125H34.5619C33.9155 39.1125 33.3913 39.6368 33.3913 40.2832Z" fill="url(#paint8_linear_94_111)"/>
<path d="M27.0149 25.7446H31.0572C31.7042 25.7446 32.2285 25.2203 32.2285 24.5733C32.2285 23.9269 31.7042 23.4026 31.0572 23.4026H27.0149C26.3679 23.4026 25.8436 23.9269 25.8436 24.5733C25.8436 25.2203 26.3679 25.7446 27.0149 25.7446Z" fill="url(#paint9_linear_94_111)"/>
<path d="M35.5849 25.7446H60.2499C60.8969 25.7446 61.4205 25.2203 61.4205 24.5733C61.4205 23.9269 60.8969 23.4026 60.2499 23.4026H35.5849C34.9379 23.4026 34.4136 23.9269 34.4136 24.5733C34.4136 25.2203 34.9379 25.7446 35.5849 25.7446Z" fill="url(#paint10_linear_94_111)"/>
<path d="M56.5035 28.554H46.512C45.8657 28.554 45.3414 29.0783 45.3414 29.7253C45.3414 30.3716 45.8657 30.8959 46.512 30.8959H56.5035C57.1499 30.8959 57.6742 30.3716 57.6742 29.7253C57.6742 29.0783 57.1499 28.554 56.5035 28.554Z" fill="url(#paint11_linear_94_111)"/>
<path d="M42.7657 28.554H39.3312C38.6842 28.554 38.1606 29.0783 38.1606 29.7253C38.1606 30.3716 38.6842 30.8959 39.3312 30.8959H42.7657C43.4127 30.8959 43.9363 30.3716 43.9363 29.7253C43.9363 29.0783 43.4127 28.554 42.7657 28.554Z" fill="url(#paint12_linear_94_111)"/>
<path d="M27.0149 30.8959H35.4286C36.0749 30.8959 36.5992 30.3716 36.5992 29.7253C36.5992 29.0783 36.0749 28.554 35.4286 28.554H27.0149C26.3679 28.554 25.8436 29.0783 25.8436 29.7253C25.8436 30.3716 26.3679 30.8959 27.0149 30.8959Z" fill="url(#paint13_linear_94_111)"/>
<path d="M24.5655 44.0094H16.6785C16.0316 44.0094 15.5073 44.5337 15.5073 45.1801C15.5073 45.8264 16.0316 46.3507 16.6785 46.3507H24.5655C25.2119 46.3507 25.7362 45.8264 25.7362 45.1801C25.7362 44.5337 25.2119 44.0094 24.5655 44.0094Z" fill="url(#paint14_linear_94_111)"/>
<path d="M13.0921 44.0094H7.0325C6.38552 44.0094 5.86184 44.5337 5.86184 45.1801C5.86184 45.8264 6.38552 46.3507 7.0325 46.3507H13.0921C13.7391 46.3507 14.2627 45.8264 14.2627 45.1801C14.2627 44.5337 13.7391 44.0094 13.0921 44.0094Z" fill="url(#paint15_linear_94_111)"/>
<path d="M38.8631 44.0094H28.5597C27.9127 44.0094 27.389 44.5337 27.389 45.1801C27.389 45.8264 27.9127 46.3507 28.5597 46.3507H38.8631C39.5094 46.3507 40.0337 45.8264 40.0337 45.1801C40.0337 44.5337 39.5094 44.0094 38.8631 44.0094Z" fill="url(#paint16_linear_94_111)"/>
<path d="M52.7968 37.995H47.1627C46.5163 37.995 45.992 38.5192 45.992 39.1656C45.992 39.8126 46.5163 40.3369 47.1627 40.3369H52.7968C53.4438 40.3369 53.9675 39.8126 53.9675 39.1656C53.9675 38.5192 53.4438 37.995 52.7968 37.995Z" fill="url(#paint17_linear_94_111)"/>
<path d="M62.5735 40.3369H70.527C71.174 40.3369 71.6983 39.8126 71.6983 39.1656C71.6983 38.5192 71.174 37.995 70.527 37.995H62.5735C61.9265 37.995 61.4028 38.5192 61.4028 39.1656C61.4028 39.8126 61.9271 40.3369 62.5735 40.3369Z" fill="url(#paint18_linear_94_111)"/>
<path d="M58.5964 37.995H56.7739C56.1269 37.995 55.6026 38.5192 55.6026 39.1656C55.6026 39.8126 56.1269 40.3369 56.7739 40.3369H58.5964C59.2434 40.3369 59.7671 39.8126 59.7671 39.1656C59.7671 38.5192 59.2434 37.995 58.5964 37.995Z" fill="url(#paint19_linear_94_111)"/>
<path d="M47.1627 53.0957H52.7968C53.4438 53.0957 53.9675 52.572 53.9675 51.9251C53.9675 51.2787 53.4438 50.7544 52.7968 50.7544H47.1627C46.5163 50.7544 45.992 51.2787 45.992 51.9251C45.992 52.572 46.5163 53.0957 47.1627 53.0957Z" fill="url(#paint20_linear_94_111)"/>
<path d="M62.5735 53.0957H70.527C71.174 53.0957 71.6983 52.572 71.6983 51.9251C71.6983 51.2787 71.174 50.7544 70.527 50.7544H62.5735C61.9265 50.7544 61.4028 51.2787 61.4028 51.9251C61.4028 52.572 61.9271 53.0957 62.5735 53.0957Z" fill="url(#paint21_linear_94_111)"/>
<path d="M56.7739 53.0957H58.5964C59.2434 53.0957 59.7677 52.572 59.7677 51.9251C59.7677 51.2787 59.2434 50.7544 58.5964 50.7544H56.7739C56.1269 50.7544 55.6032 51.2787 55.6032 51.9251C55.6032 52.572 56.1269 53.0957 56.7739 53.0957Z" fill="url(#paint22_linear_94_111)"/>
<path d="M52.7968 63.5139H47.1627C46.5163 63.5139 45.992 64.0382 45.992 64.6845C45.992 65.3309 46.5163 65.8552 47.1627 65.8552H52.7968C53.4438 65.8552 53.9675 65.3309 53.9675 64.6845C53.9675 64.0382 53.4438 63.5139 52.7968 63.5139Z" fill="url(#paint23_linear_94_111)"/>
<path d="M70.527 63.5139H62.5735C61.9265 63.5139 61.4028 64.0382 61.4028 64.6845C61.4028 65.3309 61.9265 65.8552 62.5735 65.8552H70.527C71.174 65.8552 71.6983 65.3309 71.6983 64.6845C71.6983 64.0382 71.174 63.5139 70.527 63.5139Z" fill="url(#paint24_linear_94_111)"/>
<path d="M58.5964 63.5139H56.7739C56.1269 63.5139 55.6026 64.0382 55.6026 64.6845C55.6026 65.3309 56.1269 65.8552 56.7739 65.8552H58.5964C59.2434 65.8552 59.7671 65.3309 59.7671 64.6845C59.7671 64.0382 59.2434 63.5139 58.5964 63.5139Z" fill="url(#paint25_linear_94_111)"/>
<path d="M74.8477 0.156067H5.15322C2.31202 0.156067 0 2.46748 0 5.30929V61.9605C0 64.8017 2.31202 67.1131 5.15322 67.1131H9.55936C10.2057 67.1131 10.73 66.5894 10.73 65.9425C10.73 65.2961 10.2057 64.7718 9.55936 64.7718H5.15322C3.60292 64.7718 2.34193 63.5108 2.34193 61.9605V57.519H44.9977V59.5368H44.0694C42.7992 59.5368 41.7665 60.5695 41.7665 61.8397V64.7718H16.6779C16.0316 64.7718 15.5073 65.2961 15.5073 65.9425C15.5073 66.5894 16.0316 67.1131 16.6779 67.1131H27.9353V71.3124H24.4001C22.0417 71.3124 20.1234 73.2313 20.1234 75.5891V78.1184C20.1234 79.1945 20.9986 80.0697 22.0747 80.0697H57.8365C58.9126 80.0697 59.7878 79.1945 59.7878 78.1184V75.5891C59.7878 73.2313 57.8695 71.3124 55.5111 71.3124H51.9759V69.8323H73.6209C74.8904 69.8323 75.9231 68.7995 75.9231 67.5294V66.9782C78.2053 66.4485 79.9112 64.4007 79.9112 61.9605L79.9997 5.30868C80.0003 2.46748 77.6889 0.156067 74.8477 0.156067ZM44.1084 54.7315V49.1193H73.5818V54.7315H44.1084ZM47.3391 46.7774V44.314H70.3506V46.7774H47.3391ZM70.3506 57.0728V59.5368H47.3391V57.0728H70.3506ZM30.2766 67.1131H41.7665V67.53C41.7665 68.7995 42.7992 69.8323 44.0694 69.8323H49.6346V71.3124H30.2766V67.1131ZM55.5117 73.6543C56.5786 73.6543 57.4465 74.5222 57.4465 75.5891V77.7284H22.4647V75.5891C22.4647 74.5222 23.3332 73.6543 24.4001 73.6543H55.5117ZM73.5818 67.4903H44.1084V61.8787H73.5818V67.4903ZM77.5699 61.9605C77.5699 63.0946 76.8936 64.0717 75.9238 64.5155V61.8391C75.9238 60.5695 74.8904 59.5368 73.6209 59.5368H72.6926V57.519H77.5699V61.9605ZM77.5699 55.1777H75.8853C75.9091 55.0452 75.9238 49.0802 75.9238 49.0802C75.9238 47.8101 74.8904 46.7774 73.6209 46.7774H72.6926V44.314H73.6209C74.8904 44.314 75.9238 43.2806 75.9238 42.0111V36.3208C75.9238 35.0512 74.8904 34.0179 73.6209 34.0179H67.0077C66.3607 34.0179 65.8371 34.5422 65.8371 35.1892C65.8371 35.8355 66.3607 36.3598 67.0077 36.3598H73.5818V41.972H44.1084V36.3598H59.7225C60.3695 36.3598 60.8932 35.8355 60.8932 35.1892C60.8932 34.5422 60.3695 34.0179 59.7225 34.0179H44.0694C42.7992 34.0179 41.7665 35.0512 41.7665 36.3208V42.0111C41.7665 43.2806 42.7992 44.314 44.0694 44.314H44.9977V46.7774H44.0694C42.7992 46.7774 41.7665 47.8107 41.7665 49.0802C41.7665 49.0802 41.7812 55.0452 41.805 55.1777H2.34193V16.0826H77.5699V55.1777ZM77.5699 13.7407H2.42799V5.30868C2.42799 3.75899 3.68898 2.498 5.23928 2.498H74.7586C76.3089 2.498 77.5699 3.75899 77.5699 5.30929V13.7407Z" fill="url(#paint26_linear_94_111)"/>
<path d="M8.6347 4.65012C6.74016 4.65012 5.19901 6.19126 5.19901 8.0858C5.19901 9.98034 6.74016 11.5221 8.6347 11.5221C10.5292 11.5221 12.071 9.98034 12.071 8.0858C12.071 6.19126 10.5292 4.65012 8.6347 4.65012ZM8.6347 9.18017C8.03167 9.18017 7.54033 8.68944 7.54033 8.0858C7.54033 7.48277 8.03167 6.99144 8.6347 6.99144C9.23834 6.99144 9.72906 7.48277 9.72906 8.0858C9.72906 8.68944 9.23834 9.18017 8.6347 9.18017Z" fill="url(#paint27_linear_94_111)"/>
<path d="M17.3829 4.65012C15.4883 4.65012 13.9466 6.19126 13.9466 8.0858C13.9466 9.98034 15.4883 11.5221 17.3829 11.5221C19.2774 11.5221 20.8185 9.98034 20.8185 8.0858C20.8185 6.19126 19.2768 4.65012 17.3829 4.65012ZM17.3829 9.18017C16.7792 9.18017 16.2885 8.68944 16.2885 8.0858C16.2885 7.48277 16.7792 6.99144 17.3829 6.99144C17.9859 6.99144 18.4772 7.48277 18.4772 8.0858C18.4772 8.68944 17.9859 9.18017 17.3829 9.18017Z" fill="url(#paint28_linear_94_111)"/>
<path d="M26.1304 4.65012C24.2359 4.65012 22.6948 6.19126 22.6948 8.0858C22.6948 9.98034 24.2359 11.5221 26.1304 11.5221C28.025 11.5221 29.5667 9.98034 29.5667 8.0858C29.5667 6.19126 28.025 4.65012 26.1304 4.65012ZM26.1304 9.18017C25.5274 9.18017 25.0361 8.68944 25.0361 8.0858C25.0361 7.48277 25.5274 6.99144 26.1304 6.99144C26.7341 6.99144 27.2248 7.48277 27.2248 8.0858C27.2248 8.68944 26.7341 9.18017 26.1304 9.18017Z" fill="url(#paint29_linear_94_111)"/>
</g>
<defs>
<filter id="filter0_di_94_111" x="0" y="0.156067" width="81.9997" height="81.9136" filterUnits="userSpaceOnUse" color-interpolation-filters="sRGB">
<feFlood flood-opacity="0" result="BackgroundImageFix"/>
<feColorMatrix in="SourceAlpha" type="matrix" values="0 0 0 0 0 0 0 0 0 0 0 0 0 0 0 0 0 0 127 0" result="hardAlpha"/>
<feOffset dx="1" dy="1"/>
<feGaussianBlur stdDeviation="0.5"/>
<feColorMatrix type="matrix" values="0 0 0 0 0.62 0 0 0 0 0.6975 0 0 0 0 0.775 0 0 0 1 0"/>
<feBlend mode="normal" in2="BackgroundImageFix" result="effect1_dropShadow_94_111"/>
<feBlend mode="normal" in="SourceGraphic" in2="effect1_dropShadow_94_111" result="shape"/>
<feColorMatrix in="SourceAlpha" type="matrix" values="0 0 0 0 0 0 0 0 0 0 0 0 0 0 0 0 0 0 127 0" result="hardAlpha"/>
<feOffset/>
<feGaussianBlur stdDeviation="0.4"/>
<feComposite in2="hardAlpha" operator="arithmetic" k2="-1" k3="1"/>
<feColorMatrix type="matrix" values="0 0 0 0 0.580122 0 0 0 0 0.722625 0 0 0 0 0.854167 0 0 0 1 0"/>
<feBlend mode="normal" in2="shape" result="effect2_innerShadow_94_111"/>
</filter>
<linearGradient id="paint0_linear_94_111" x1="19.5275" y1="-8.18599" x2="95.7081" y2="63.3389" gradientUnits="userSpaceOnUse">
<stop stop-color="#353A40"/>
<stop offset="1" stop-color="#16171B"/>
</linearGradient>
<linearGradient id="paint1_linear_94_111" x1="19.5275" y1="-8.18599" x2="95.7081" y2="63.3389" gradientUnits="userSpaceOnUse">
<stop stop-color="#353A40"/>
<stop offset="1" stop-color="#16171B"/>
</linearGradient>
<linearGradient id="paint2_linear_94_111" x1="19.5275" y1="-8.18599" x2="95.7081" y2="63.3389" gradientUnits="userSpaceOnUse">
<stop stop-color="#353A40"/>
<stop offset="1" stop-color="#16171B"/>
</linearGradient>
<linearGradient id="paint3_linear_94_111" x1="19.5275" y1="-8.18599" x2="95.7081" y2="63.3389" gradientUnits="userSpaceOnUse">
<stop stop-color="#353A40"/>
<stop offset="1" stop-color="#16171B"/>
</linearGradient>
<linearGradient id="paint4_linear_94_111" x1="19.5275" y1="-8.18599" x2="95.7081" y2="63.3389" gradientUnits="userSpaceOnUse">
<stop stop-color="#353A40"/>
<stop offset="1" stop-color="#16171B"/>
</linearGradient>
<linearGradient id="paint5_linear_94_111" x1="19.5275" y1="-8.18599" x2="95.7081" y2="63.3389" gradientUnits="userSpaceOnUse">
<stop stop-color="#353A40"/>
<stop offset="1" stop-color="#16171B"/>
</linearGradient>
<linearGradient id="paint6_linear_94_111" x1="19.5275" y1="-8.18599" x2="95.7081" y2="63.3389" gradientUnits="userSpaceOnUse">
<stop stop-color="#353A40"/>
<stop offset="1" stop-color="#16171B"/>
</linearGradient>
<linearGradient id="paint7_linear_94_111" x1="19.5275" y1="-8.18599" x2="95.7081" y2="63.3389" gradientUnits="userSpaceOnUse">
<stop stop-color="#353A40"/>
<stop offset="1" stop-color="#16171B"/>
</linearGradient>
<linearGradient id="paint8_linear_94_111" x1="19.5275" y1="-8.18599" x2="95.7081" y2="63.3389" gradientUnits="userSpaceOnUse">
<stop stop-color="#353A40"/>
<stop offset="1" stop-color="#16171B"/>
</linearGradient>
<linearGradient id="paint9_linear_94_111" x1="19.5275" y1="-8.18599" x2="95.7081" y2="63.3389" gradientUnits="userSpaceOnUse">
<stop stop-color="#353A40"/>
<stop offset="1" stop-color="#16171B"/>
</linearGradient>
<linearGradient id="paint10_linear_94_111" x1="19.5275" y1="-8.18599" x2="95.7081" y2="63.3389" gradientUnits="userSpaceOnUse">
<stop stop-color="#353A40"/>
<stop offset="1" stop-color="#16171B"/>
</linearGradient>
<linearGradient id="paint11_linear_94_111" x1="19.5275" y1="-8.18599" x2="95.7081" y2="63.3389" gradientUnits="userSpaceOnUse">
<stop stop-color="#353A40"/>
<stop offset="1" stop-color="#16171B"/>
</linearGradient>
<linearGradient id="paint12_linear_94_111" x1="19.5275" y1="-8.18599" x2="95.7081" y2="63.3389" gradientUnits="userSpaceOnUse">
<stop stop-color="#353A40"/>
<stop offset="1" stop-color="#16171B"/>
</linearGradient>
<linearGradient id="paint13_linear_94_111" x1="19.5275" y1="-8.18599" x2="95.7081" y2="63.3389" gradientUnits="userSpaceOnUse">
<stop stop-color="#353A40"/>
<stop offset="1" stop-color="#16171B"/>
</linearGradient>
<linearGradient id="paint14_linear_94_111" x1="19.5275" y1="-8.18599" x2="95.7081" y2="63.3389" gradientUnits="userSpaceOnUse">
<stop stop-color="#353A40"/>
<stop offset="1" stop-color="#16171B"/>
</linearGradient>
<linearGradient id="paint15_linear_94_111" x1="19.5275" y1="-8.18599" x2="95.7081" y2="63.3389" gradientUnits="userSpaceOnUse">
<stop stop-color="#353A40"/>
<stop offset="1" stop-color="#16171B"/>
</linearGradient>
<linearGradient id="paint16_linear_94_111" x1="19.5275" y1="-8.18599" x2="95.7081" y2="63.3389" gradientUnits="userSpaceOnUse">
<stop stop-color="#353A40"/>
<stop offset="1" stop-color="#16171B"/>
</linearGradient>
<linearGradient id="paint17_linear_94_111" x1="19.5275" y1="-8.18599" x2="95.7081" y2="63.3389" gradientUnits="userSpaceOnUse">
<stop stop-color="#353A40"/>
<stop offset="1" stop-color="#16171B"/>
</linearGradient>
<linearGradient id="paint18_linear_94_111" x1="19.5275" y1="-8.18599" x2="95.7081" y2="63.3389" gradientUnits="userSpaceOnUse">
<stop stop-color="#353A40"/>
<stop offset="1" stop-color="#16171B"/>
</linearGradient>
<linearGradient id="paint19_linear_94_111" x1="19.5275" y1="-8.18599" x2="95.7081" y2="63.3389" gradientUnits="userSpaceOnUse">
<stop stop-color="#353A40"/>
<stop offset="1" stop-color="#16171B"/>
</linearGradient>
<linearGradient id="paint20_linear_94_111" x1="19.5275" y1="-8.18599" x2="95.7081" y2="63.3389" gradientUnits="userSpaceOnUse">
<stop stop-color="#353A40"/>
<stop offset="1" stop-color="#16171B"/>
</linearGradient>
<linearGradient id="paint21_linear_94_111" x1="19.5275" y1="-8.18599" x2="95.7081" y2="63.3389" gradientUnits="userSpaceOnUse">
<stop stop-color="#353A40"/>
<stop offset="1" stop-color="#16171B"/>
</linearGradient>
<linearGradient id="paint22_linear_94_111" x1="19.5275" y1="-8.18599" x2="95.7081" y2="63.3389" gradientUnits="userSpaceOnUse">
<stop stop-color="#353A40"/>
<stop offset="1" stop-color="#16171B"/>
</linearGradient>
<linearGradient id="paint23_linear_94_111" x1="19.5275" y1="-8.18599" x2="95.7081" y2="63.3389" gradientUnits="userSpaceOnUse">
<stop stop-color="#353A40"/>
<stop offset="1" stop-color="#16171B"/>
</linearGradient>
<linearGradient id="paint24_linear_94_111" x1="19.5275" y1="-8.18599" x2="95.7081" y2="63.3389" gradientUnits="userSpaceOnUse">
<stop stop-color="#353A40"/>
<stop offset="1" stop-color="#16171B"/>
</linearGradient>
<linearGradient id="paint25_linear_94_111" x1="19.5275" y1="-8.18599" x2="95.7081" y2="63.3389" gradientUnits="userSpaceOnUse">
<stop stop-color="#353A40"/>
<stop offset="1" stop-color="#16171B"/>
</linearGradient>
<linearGradient id="paint26_linear_94_111" x1="19.5275" y1="-8.18599" x2="95.7081" y2="63.3389" gradientUnits="userSpaceOnUse">
<stop stop-color="#353A40"/>
<stop offset="1" stop-color="#16171B"/>
</linearGradient>
<linearGradient id="paint27_linear_94_111" x1="19.5275" y1="-8.18599" x2="95.7081" y2="63.3389" gradientUnits="userSpaceOnUse">
<stop stop-color="#353A40"/>
<stop offset="1" stop-color="#16171B"/>
</linearGradient>
<linearGradient id="paint28_linear_94_111" x1="19.5275" y1="-8.18599" x2="95.7081" y2="63.3389" gradientUnits="userSpaceOnUse">
<stop stop-color="#353A40"/>
<stop offset="1" stop-color="#16171B"/>
</linearGradient>
<linearGradient id="paint29_linear_94_111" x1="19.5275" y1="-8.18599" x2="95.7081" y2="63.3389" gradientUnits="userSpaceOnUse">
<stop stop-color="#353A40"/>
<stop offset="1" stop-color="#16171B"/>
</linearGradient>
</defs>
</svg>
