<svg width="676" height="839" viewBox="0 0 676 839" fill="none" xmlns="http://www.w3.org/2000/svg">
<g filter="url(#filter0_ii_54_17)">
<circle cx="341" cy="423" r="75" fill="#E4EBF2"/>
</g>
<circle cx="341" cy="423" r="74.5" stroke="#D2DAE4"/>
<g clip-path="url(#clip0_54_17)">
<g filter="url(#filter1_di_54_17)">
<path d="M310.213 412.304C310.441 412.532 310.741 412.647 311.04 412.647C311.34 412.647 311.64 412.533 311.869 412.304C312.326 411.847 312.326 411.105 311.869 410.648L309.026 407.805L311.869 404.963C312.326 404.505 312.326 403.764 311.869 403.307C311.411 402.85 310.67 402.85 310.213 403.307L306.542 406.978C306.322 407.197 306.199 407.495 306.199 407.805C306.199 408.116 306.322 408.414 306.542 408.633L310.213 412.304Z" fill="url(#paint0_linear_54_17)"/>
<path d="M321.831 407.805L318.988 410.648C318.531 411.105 318.531 411.847 318.989 412.304C319.217 412.532 319.517 412.647 319.817 412.647C320.116 412.647 320.416 412.532 320.644 412.304L324.315 408.633C324.773 408.176 324.773 407.434 324.315 406.978L320.644 403.306C320.187 402.849 319.446 402.849 318.989 403.306C318.531 403.764 318.531 404.505 318.989 404.962L321.831 407.805Z" fill="url(#paint1_linear_54_17)"/>
<path d="M313.683 412.566C313.824 412.621 313.969 412.647 314.111 412.647C314.579 412.647 315.02 412.365 315.201 411.904L318.085 404.562C318.322 403.961 318.025 403.281 317.423 403.044C316.822 402.808 316.142 403.104 315.906 403.706L313.022 411.048C312.785 411.65 313.081 412.33 313.683 412.566Z" fill="url(#paint2_linear_54_17)"/>
<path d="M308.032 419.516H315.92C316.566 419.516 317.091 418.992 317.091 418.345C317.091 417.698 316.566 417.174 315.92 417.174H308.032C307.386 417.174 306.862 417.698 306.862 418.345C306.862 418.992 307.386 419.516 308.032 419.516Z" fill="url(#paint3_linear_54_17)"/>
<path d="M334.087 417.174H320.219C319.573 417.174 319.049 417.698 319.049 418.345C319.049 418.992 319.573 419.516 320.219 419.516H334.087C334.734 419.516 335.258 418.992 335.258 418.345C335.258 417.698 334.734 417.174 334.087 417.174Z" fill="url(#paint4_linear_54_17)"/>
<path d="M308.032 424.454H311.392C312.039 424.454 312.563 423.93 312.563 423.283C312.563 422.637 312.039 422.113 311.392 422.113H308.032C307.386 422.113 306.862 422.637 306.862 423.283C306.862 423.93 307.386 424.454 308.032 424.454Z" fill="url(#paint5_linear_54_17)"/>
<path d="M329.803 422.113C329.156 422.113 328.633 422.637 328.633 423.283C328.633 423.93 329.156 424.454 329.803 424.454H331.849C332.496 424.454 333.02 423.93 333.02 423.283C333.02 422.637 332.496 422.113 331.849 422.113H329.803Z" fill="url(#paint6_linear_54_17)"/>
<path d="M326.722 423.283C326.722 422.637 326.197 422.113 325.551 422.113H315.501C314.854 422.113 314.33 422.637 314.33 423.283C314.33 423.93 314.854 424.454 315.501 424.454H325.551C326.197 424.454 326.722 423.93 326.722 423.283Z" fill="url(#paint7_linear_54_17)"/>
<path d="M334.391 423.283C334.391 423.93 334.916 424.454 335.562 424.454H339.394C340.041 424.454 340.566 423.93 340.566 423.283C340.566 422.637 340.041 422.113 339.394 422.113H335.562C334.916 422.113 334.391 422.637 334.391 423.283Z" fill="url(#paint8_linear_54_17)"/>
<path d="M328.015 408.745H332.057C332.704 408.745 333.229 408.22 333.229 407.573C333.229 406.927 332.704 406.403 332.057 406.403H328.015C327.368 406.403 326.844 406.927 326.844 407.573C326.844 408.22 327.368 408.745 328.015 408.745Z" fill="url(#paint9_linear_54_17)"/>
<path d="M336.585 408.745H361.25C361.897 408.745 362.421 408.22 362.421 407.573C362.421 406.927 361.897 406.403 361.25 406.403H336.585C335.938 406.403 335.414 406.927 335.414 407.573C335.414 408.22 335.938 408.745 336.585 408.745Z" fill="url(#paint10_linear_54_17)"/>
<path d="M357.503 411.554H347.512C346.866 411.554 346.341 412.078 346.341 412.725C346.341 413.372 346.866 413.896 347.512 413.896H357.503C358.15 413.896 358.674 413.372 358.674 412.725C358.674 412.078 358.15 411.554 357.503 411.554Z" fill="url(#paint11_linear_54_17)"/>
<path d="M343.766 411.554H340.331C339.684 411.554 339.161 412.078 339.161 412.725C339.161 413.372 339.684 413.896 340.331 413.896H343.766C344.413 413.896 344.936 413.372 344.936 412.725C344.936 412.078 344.413 411.554 343.766 411.554Z" fill="url(#paint12_linear_54_17)"/>
<path d="M328.015 413.896H336.429C337.075 413.896 337.599 413.372 337.599 412.725C337.599 412.078 337.075 411.554 336.429 411.554H328.015C327.368 411.554 326.844 412.078 326.844 412.725C326.844 413.372 327.368 413.896 328.015 413.896Z" fill="url(#paint13_linear_54_17)"/>
<path d="M325.566 427.009H317.679C317.032 427.009 316.507 427.534 316.507 428.18C316.507 428.826 317.032 429.351 317.679 429.351H325.566C326.212 429.351 326.736 428.826 326.736 428.18C326.736 427.534 326.212 427.009 325.566 427.009Z" fill="url(#paint14_linear_54_17)"/>
<path d="M314.092 427.009H308.032C307.386 427.009 306.862 427.534 306.862 428.18C306.862 428.826 307.386 429.351 308.032 429.351H314.092C314.739 429.351 315.263 428.826 315.263 428.18C315.263 427.534 314.739 427.009 314.092 427.009Z" fill="url(#paint15_linear_54_17)"/>
<path d="M339.863 427.009H329.56C328.913 427.009 328.389 427.534 328.389 428.18C328.389 428.826 328.913 429.351 329.56 429.351H339.863C340.509 429.351 341.034 428.826 341.034 428.18C341.034 427.534 340.509 427.009 339.863 427.009Z" fill="url(#paint16_linear_54_17)"/>
<path d="M353.797 420.995H348.163C347.516 420.995 346.992 421.519 346.992 422.166C346.992 422.813 347.516 423.337 348.163 423.337H353.797C354.444 423.337 354.967 422.813 354.967 422.166C354.967 421.519 354.444 420.995 353.797 420.995Z" fill="url(#paint17_linear_54_17)"/>
<path d="M363.573 423.337H371.527C372.174 423.337 372.698 422.813 372.698 422.166C372.698 421.519 372.174 420.995 371.527 420.995H363.573C362.927 420.995 362.403 421.519 362.403 422.166C362.403 422.813 362.927 423.337 363.573 423.337Z" fill="url(#paint18_linear_54_17)"/>
<path d="M359.596 420.995H357.774C357.127 420.995 356.603 421.519 356.603 422.166C356.603 422.813 357.127 423.337 357.774 423.337H359.596C360.243 423.337 360.767 422.813 360.767 422.166C360.767 421.519 360.243 420.995 359.596 420.995Z" fill="url(#paint19_linear_54_17)"/>
<path d="M348.163 436.096H353.797C354.444 436.096 354.967 435.572 354.967 434.925C354.967 434.279 354.444 433.754 353.797 433.754H348.163C347.516 433.754 346.992 434.279 346.992 434.925C346.992 435.572 347.516 436.096 348.163 436.096Z" fill="url(#paint20_linear_54_17)"/>
<path d="M363.573 436.096H371.527C372.174 436.096 372.698 435.572 372.698 434.925C372.698 434.279 372.174 433.754 371.527 433.754H363.573C362.927 433.754 362.403 434.279 362.403 434.925C362.403 435.572 362.927 436.096 363.573 436.096Z" fill="url(#paint21_linear_54_17)"/>
<path d="M357.774 436.096H359.596C360.243 436.096 360.768 435.572 360.768 434.925C360.768 434.279 360.243 433.754 359.596 433.754H357.774C357.127 433.754 356.603 434.279 356.603 434.925C356.603 435.572 357.127 436.096 357.774 436.096Z" fill="url(#paint22_linear_54_17)"/>
<path d="M353.797 446.514H348.163C347.516 446.514 346.992 447.038 346.992 447.685C346.992 448.331 347.516 448.855 348.163 448.855H353.797C354.444 448.855 354.967 448.331 354.967 447.685C354.967 447.038 354.444 446.514 353.797 446.514Z" fill="url(#paint23_linear_54_17)"/>
<path d="M371.527 446.514H363.573C362.927 446.514 362.403 447.038 362.403 447.685C362.403 448.331 362.927 448.855 363.573 448.855H371.527C372.174 448.855 372.698 448.331 372.698 447.685C372.698 447.038 372.174 446.514 371.527 446.514Z" fill="url(#paint24_linear_54_17)"/>
<path d="M359.596 446.514H357.774C357.127 446.514 356.603 447.038 356.603 447.685C356.603 448.331 357.127 448.855 357.774 448.855H359.596C360.243 448.855 360.767 448.331 360.767 447.685C360.767 447.038 360.243 446.514 359.596 446.514Z" fill="url(#paint25_linear_54_17)"/>
<path d="M375.848 383.156H306.153C303.312 383.156 301 385.467 301 388.309V444.961C301 447.802 303.312 450.113 306.153 450.113H310.559C311.206 450.113 311.73 449.589 311.73 448.942C311.73 448.296 311.206 447.772 310.559 447.772H306.153C304.603 447.772 303.342 446.511 303.342 444.961V440.519H345.998V442.537H345.069C343.799 442.537 342.767 443.57 342.767 444.84V447.772H317.678C317.032 447.772 316.507 448.296 316.507 448.942C316.507 449.589 317.032 450.113 317.678 450.113H328.935V454.312H325.4C323.042 454.312 321.123 456.231 321.123 458.589V461.118C321.123 462.194 321.999 463.07 323.075 463.07H358.837C359.913 463.07 360.788 462.194 360.788 461.118V458.589C360.788 456.231 358.869 454.312 356.511 454.312H352.976V452.832H374.621C375.89 452.832 376.923 451.8 376.923 450.529V449.978C379.205 449.448 380.911 447.401 380.911 444.961L381 388.309C381 385.467 378.689 383.156 375.848 383.156ZM345.108 437.731V432.119H374.582V437.731H345.108ZM348.339 429.777V427.314H371.351V429.777H348.339ZM371.351 440.073V442.537H348.339V440.073H371.351ZM331.277 450.113H342.767V450.53C342.767 451.8 343.799 452.832 345.069 452.832H350.635V454.312H331.277V450.113ZM356.512 456.654C357.579 456.654 358.447 457.522 358.447 458.589V460.728H323.465V458.589C323.465 457.522 324.333 456.654 325.4 456.654H356.512ZM374.582 450.49H345.108V444.879H374.582V450.49ZM378.57 444.961C378.57 446.095 377.894 447.072 376.924 447.515V444.839C376.924 443.57 375.89 442.537 374.621 442.537H373.693V440.519H378.57V444.961ZM378.57 438.178H376.885C376.909 438.045 376.924 432.08 376.924 432.08C376.924 430.81 375.89 429.777 374.621 429.777H373.693V427.314H374.621C375.89 427.314 376.924 426.281 376.924 425.011V419.321C376.924 418.051 375.89 417.018 374.621 417.018H368.008C367.361 417.018 366.837 417.542 366.837 418.189C366.837 418.836 367.361 419.36 368.008 419.36H374.582V424.972H345.108V419.36H360.723C361.369 419.36 361.893 418.836 361.893 418.189C361.893 417.542 361.369 417.018 360.723 417.018H345.069C343.799 417.018 342.767 418.051 342.767 419.321V425.011C342.767 426.281 343.799 427.314 345.069 427.314H345.998V429.777H345.069C343.799 429.777 342.767 430.811 342.767 432.08C342.767 432.08 342.781 438.045 342.805 438.178H303.342V399.083H378.57V438.178ZM378.57 396.741H303.428V388.309C303.428 386.759 304.689 385.498 306.239 385.498H375.759C377.309 385.498 378.57 386.759 378.57 388.309V396.741Z" fill="url(#paint26_linear_54_17)"/>
<path d="M309.635 387.65C307.74 387.65 306.199 389.191 306.199 391.086C306.199 392.98 307.74 394.522 309.635 394.522C311.529 394.522 313.071 392.98 313.071 391.086C313.071 389.191 311.529 387.65 309.635 387.65ZM309.635 392.18C309.032 392.18 308.54 391.689 308.54 391.086C308.54 390.483 309.032 389.991 309.635 389.991C310.238 389.991 310.729 390.483 310.729 391.086C310.729 391.689 310.238 392.18 309.635 392.18Z" fill="url(#paint27_linear_54_17)"/>
<path d="M318.383 387.65C316.488 387.65 314.947 389.191 314.947 391.086C314.947 392.98 316.488 394.522 318.383 394.522C320.277 394.522 321.819 392.98 321.819 391.086C321.819 389.191 320.277 387.65 318.383 387.65ZM318.383 392.18C317.779 392.18 317.288 391.689 317.288 391.086C317.288 390.483 317.779 389.991 318.383 389.991C318.986 389.991 319.477 390.483 319.477 391.086C319.477 391.689 318.986 392.18 318.383 392.18Z" fill="url(#paint28_linear_54_17)"/>
<path d="M327.13 387.65C325.236 387.65 323.695 389.191 323.695 391.086C323.695 392.98 325.236 394.522 327.13 394.522C329.025 394.522 330.567 392.98 330.567 391.086C330.567 389.191 329.025 387.65 327.13 387.65ZM327.13 392.18C326.527 392.18 326.036 391.689 326.036 391.086C326.036 390.483 326.527 389.991 327.13 389.991C327.734 389.991 328.225 390.483 328.225 391.086C328.225 391.689 327.734 392.18 327.13 392.18Z" fill="url(#paint29_linear_54_17)"/>
</g>
</g>
<g filter="url(#filter2_dd_54_17)">
<path d="M490.383 756.051C707.593 802.825 609.378 703.222 619.318 577.019C636.218 478.174 659.403 435.371 627.271 361.679C595.14 287.987 498.833 365.527 469.01 432.159C430.892 517.324 408.37 537.622 346.736 543.359C304.487 543.359 304.487 536.141 269.197 529.679C189.669 515.117 94.2357 548.778 70.578 629.971C40.0575 766.641 71.6682 779.756 175.254 764.876C217.463 758.813 265.22 687.213 359.659 711.924C397.435 721.808 448.134 746.953 490.383 756.051Z" fill="#282A2F"/>
</g>
<g filter="url(#filter3_dd_54_17)">
<path d="M474.477 715.895C648.444 788.264 572.396 641.321 593.272 564.981C603.213 475.844 634.987 473.811 605.698 406.565C576.408 339.319 533.473 383.711 506.288 444.514C471.542 522.23 428.252 574.689 372.085 574.689C333.573 574.689 259.298 564.981 226.45 564.981C158.355 564.981 120.135 609.108 114.118 641.321C97.7151 729.133 112.627 745.902 177.74 728.251C215.017 718.146 241.859 676.622 326.854 676.622C405.233 676.622 435.707 699.767 474.477 715.895Z" fill="#26292E"/>
</g>
<g filter="url(#filter4_dd_54_17)">
<path d="M578.857 428.187C572.109 412.743 543.437 431.421 535.554 460.876C529.897 482.015 532.149 484.923 521.2 507.174C510.685 528.542 501.617 535.75 508.652 553.508C510.949 559.305 514.961 566.226 521.2 575.13C540.146 602.174 575.378 610.432 561.958 535.857C561.958 516 574.106 507.174 581.342 478.051C588.798 448.044 585.606 443.632 578.857 428.187Z" fill="#26292E"/>
</g>
<g filter="url(#filter5_dddi_54_17)">
<path d="M201.628 619.816V629.44H214.156V635.104H201.628V649H194.38V614.176H216.556V619.816H201.628ZM240.335 624.256V649H236.255C235.407 649 234.863 648.616 234.623 647.848L234.191 646.12C233.695 646.6 233.183 647.04 232.655 647.44C232.127 647.84 231.559 648.184 230.951 648.472C230.359 648.76 229.711 648.984 229.007 649.144C228.319 649.304 227.567 649.384 226.751 649.384C225.407 649.384 224.207 649.152 223.151 648.688C222.111 648.224 221.239 647.576 220.535 646.744C219.831 645.912 219.295 644.92 218.927 643.768C218.559 642.616 218.375 641.352 218.375 639.976V624.256H224.999V639.976C224.999 641.352 225.311 642.424 225.935 643.192C226.575 643.944 227.519 644.32 228.767 644.32C229.695 644.32 230.567 644.12 231.383 643.72C232.199 643.304 232.975 642.744 233.711 642.04V624.256H240.335ZM252.074 613.216V649H245.45V613.216H252.074ZM263.862 613.216V649H257.238V613.216H263.862ZM288.659 620.848C288.435 621.216 288.203 621.488 287.963 621.664C287.739 621.824 287.443 621.904 287.075 621.904C286.723 621.904 286.339 621.784 285.923 621.544C285.523 621.288 285.051 621.016 284.507 620.728C283.963 620.44 283.339 620.176 282.635 619.936C281.931 619.68 281.107 619.552 280.163 619.552C278.499 619.552 277.251 619.928 276.419 620.68C275.587 621.416 275.171 622.384 275.171 623.584C275.171 624.352 275.395 624.992 275.843 625.504C276.307 626 276.907 626.432 277.643 626.8C278.395 627.168 279.243 627.496 280.187 627.784C281.131 628.072 282.099 628.392 283.091 628.744C284.083 629.08 285.051 629.48 285.995 629.944C286.939 630.408 287.779 630.992 288.515 631.696C289.267 632.4 289.867 633.264 290.315 634.288C290.779 635.296 291.011 636.528 291.011 637.984C291.011 639.568 290.731 641.056 290.171 642.448C289.627 643.824 288.835 645.032 287.795 646.072C286.755 647.096 285.467 647.904 283.931 648.496C282.411 649.088 280.683 649.384 278.747 649.384C277.643 649.384 276.539 649.272 275.435 649.048C274.347 648.824 273.291 648.512 272.267 648.112C271.259 647.712 270.307 647.232 269.411 646.672C268.515 646.112 267.731 645.488 267.059 644.8L269.171 641.392C269.347 641.136 269.579 640.928 269.867 640.768C270.155 640.592 270.459 640.504 270.779 640.504C271.211 640.504 271.667 640.664 272.147 640.984C272.627 641.304 273.179 641.656 273.803 642.04C274.427 642.424 275.147 642.776 275.963 643.096C276.795 643.416 277.787 643.576 278.939 643.576C280.619 643.576 281.915 643.192 282.827 642.424C283.755 641.656 284.219 640.512 284.219 638.992C284.219 638.112 283.987 637.4 283.523 636.856C283.075 636.312 282.483 635.856 281.747 635.488C281.011 635.12 280.171 634.808 279.227 634.552C278.283 634.28 277.315 633.984 276.323 633.664C275.331 633.344 274.363 632.96 273.419 632.512C272.475 632.064 271.635 631.472 270.899 630.736C270.163 630 269.563 629.088 269.099 628C268.651 626.912 268.427 625.56 268.427 623.944C268.427 622.648 268.683 621.392 269.195 620.176C269.707 618.96 270.459 617.88 271.451 616.936C272.443 615.992 273.659 615.232 275.099 614.656C276.555 614.08 278.219 613.792 280.091 613.792C282.187 613.792 284.123 614.12 285.899 614.776C287.691 615.416 289.203 616.312 290.435 617.464L288.659 620.848ZM302.387 649.384C301.267 649.384 300.275 649.224 299.411 648.904C298.547 648.568 297.819 648.096 297.227 647.488C296.635 646.88 296.187 646.144 295.883 645.28C295.579 644.416 295.427 643.44 295.427 642.352V629.008H293.099C292.747 629.008 292.443 628.896 292.187 628.672C291.947 628.448 291.827 628.112 291.827 627.664V625.072L295.787 624.352L297.131 617.944C297.307 617.224 297.795 616.864 298.595 616.864H302.051V624.4H308.435V629.008H302.051V641.92C302.051 642.608 302.211 643.152 302.531 643.552C302.867 643.952 303.339 644.152 303.947 644.152C304.267 644.152 304.539 644.12 304.763 644.056C304.987 643.976 305.179 643.896 305.339 643.816C305.499 643.72 305.643 643.64 305.771 643.576C305.915 643.496 306.059 643.456 306.203 643.456C306.395 643.456 306.555 643.504 306.683 643.6C306.811 643.68 306.939 643.824 307.067 644.032L309.059 647.2C308.147 647.92 307.115 648.464 305.963 648.832C304.811 649.2 303.619 649.384 302.387 649.384ZM324.519 638.656C322.903 638.736 321.559 638.88 320.487 639.088C319.415 639.28 318.559 639.536 317.919 639.856C317.295 640.176 316.847 640.544 316.575 640.96C316.319 641.36 316.191 641.8 316.191 642.28C316.191 643.24 316.455 643.92 316.983 644.32C317.527 644.72 318.279 644.92 319.239 644.92C320.343 644.92 321.295 644.728 322.095 644.344C322.911 643.944 323.719 643.328 324.519 642.496V638.656ZM311.031 627.688C312.487 626.376 314.095 625.4 315.855 624.76C317.615 624.104 319.519 623.776 321.567 623.776C323.039 623.776 324.351 624.016 325.503 624.496C326.671 624.976 327.655 625.648 328.455 626.512C329.271 627.36 329.895 628.376 330.327 629.56C330.759 630.744 330.975 632.04 330.975 633.448V649H327.951C327.327 649 326.847 648.912 326.511 648.736C326.191 648.56 325.927 648.192 325.719 647.632L325.191 646.048C324.567 646.592 323.959 647.072 323.367 647.488C322.791 647.904 322.191 648.256 321.567 648.544C320.943 648.816 320.271 649.024 319.551 649.168C318.847 649.312 318.055 649.384 317.175 649.384C316.087 649.384 315.095 649.24 314.199 648.952C313.303 648.664 312.527 648.24 311.871 647.68C311.231 647.104 310.735 646.392 310.383 645.544C310.031 644.696 309.855 643.72 309.855 642.616C309.855 641.704 310.087 640.792 310.551 639.88C311.015 638.968 311.807 638.144 312.927 637.408C314.063 636.656 315.567 636.04 317.439 635.56C319.327 635.064 321.687 634.784 324.519 634.72V633.448C324.519 631.896 324.191 630.76 323.535 630.04C322.879 629.304 321.935 628.936 320.703 628.936C319.791 628.936 319.031 629.048 318.423 629.272C317.815 629.48 317.279 629.712 316.815 629.968C316.367 630.208 315.943 630.44 315.543 630.664C315.143 630.872 314.679 630.976 314.151 630.976C313.687 630.976 313.295 630.864 312.975 630.64C312.671 630.4 312.415 630.12 312.207 629.8L311.031 627.688ZM353.698 629.776C353.506 630.032 353.314 630.232 353.122 630.376C352.93 630.504 352.658 630.568 352.306 630.568C351.986 630.568 351.674 630.48 351.37 630.304C351.082 630.112 350.746 629.912 350.362 629.704C349.978 629.48 349.522 629.28 348.994 629.104C348.466 628.912 347.81 628.816 347.026 628.816C346.034 628.816 345.17 629 344.434 629.368C343.714 629.72 343.114 630.232 342.634 630.904C342.154 631.576 341.794 632.392 341.554 633.352C341.33 634.312 341.218 635.392 341.218 636.592C341.218 639.12 341.722 641.056 342.73 642.4C343.754 643.744 345.146 644.416 346.906 644.416C347.514 644.416 348.034 644.368 348.466 644.272C348.914 644.16 349.298 644.024 349.618 643.864C349.954 643.704 350.242 643.528 350.482 643.336C350.722 643.144 350.946 642.968 351.154 642.808C351.378 642.648 351.594 642.52 351.802 642.424C352.026 642.312 352.274 642.256 352.546 642.256C353.058 642.256 353.458 642.448 353.746 642.832L355.642 645.232C354.938 646.048 354.186 646.728 353.386 647.272C352.586 647.8 351.754 648.224 350.89 648.544C350.042 648.848 349.178 649.056 348.298 649.168C347.418 649.296 346.546 649.36 345.682 649.36C344.162 649.36 342.722 649.08 341.362 648.52C340.002 647.944 338.81 647.112 337.786 646.024C336.762 644.936 335.946 643.6 335.338 642.016C334.746 640.432 334.45 638.624 334.45 636.592C334.45 634.784 334.714 633.104 335.242 631.552C335.77 630 336.546 628.656 337.57 627.52C338.594 626.384 339.858 625.496 341.362 624.856C342.882 624.2 344.634 623.872 346.618 623.872C348.506 623.872 350.162 624.176 351.586 624.784C353.01 625.392 354.29 626.272 355.426 627.424L353.698 629.776ZM365.22 613.216V633.52H366.324C366.74 633.52 367.068 633.464 367.308 633.352C367.548 633.224 367.788 633 368.028 632.68L373.5 625.384C373.772 625.016 374.076 624.736 374.412 624.544C374.764 624.352 375.204 624.256 375.732 624.256H381.78L374.676 633.28C374.116 634.032 373.468 634.624 372.732 635.056C373.1 635.312 373.42 635.608 373.692 635.944C373.964 636.28 374.228 636.656 374.484 637.072L382.14 649H376.188C375.676 649 375.236 648.92 374.868 648.76C374.5 648.584 374.196 648.28 373.956 647.848L368.388 638.752C368.164 638.368 367.932 638.12 367.692 638.008C367.452 637.896 367.092 637.84 366.612 637.84H365.22V649H358.596V613.216H365.22ZM442.962 614.176L432.162 649H425.658L418.53 626.224C418.418 625.904 418.306 625.552 418.194 625.168C418.082 624.784 417.978 624.376 417.882 623.944C417.786 624.376 417.682 624.784 417.57 625.168C417.458 625.552 417.346 625.904 417.234 626.224L410.034 649H403.506L392.73 614.176H398.778C399.402 614.176 399.922 614.32 400.338 614.608C400.77 614.896 401.05 615.28 401.178 615.76L406.578 635.392C406.706 635.936 406.834 636.528 406.962 637.168C407.106 637.792 407.242 638.456 407.37 639.16C407.514 638.44 407.666 637.768 407.826 637.144C407.986 636.52 408.162 635.936 408.354 635.392L414.642 615.76C414.77 615.36 415.042 615 415.458 614.68C415.89 614.344 416.41 614.176 417.018 614.176H419.13C419.754 614.176 420.258 614.328 420.642 614.632C421.042 614.92 421.338 615.296 421.53 615.76L427.794 635.392C427.986 635.904 428.162 636.464 428.322 637.072C428.482 637.664 428.634 638.296 428.778 638.968C428.906 638.296 429.026 637.664 429.138 637.072C429.266 636.464 429.394 635.904 429.522 635.392L434.922 615.76C435.034 615.344 435.306 614.976 435.738 614.656C436.17 614.336 436.69 614.176 437.298 614.176H442.962ZM458.217 633.712C458.217 633.024 458.121 632.368 457.929 631.744C457.753 631.12 457.465 630.568 457.065 630.088C456.665 629.608 456.161 629.232 455.553 628.96C454.945 628.672 454.217 628.528 453.369 628.528C451.785 628.528 450.545 628.976 449.649 629.872C448.753 630.768 448.169 632.048 447.897 633.712H458.217ZM447.801 637.648C448.009 639.968 448.665 641.664 449.769 642.736C450.889 643.808 452.345 644.344 454.137 644.344C455.049 644.344 455.833 644.24 456.489 644.032C457.161 643.808 457.745 643.568 458.241 643.312C458.753 643.04 459.209 642.8 459.609 642.592C460.025 642.368 460.433 642.256 460.833 642.256C461.345 642.256 461.745 642.448 462.033 642.832L463.953 645.232C463.249 646.048 462.473 646.728 461.625 647.272C460.777 647.8 459.897 648.224 458.985 648.544C458.073 648.848 457.153 649.056 456.225 649.168C455.297 649.296 454.401 649.36 453.537 649.36C451.809 649.36 450.193 649.08 448.689 648.52C447.201 647.944 445.897 647.104 444.777 646C443.673 644.88 442.801 643.496 442.161 641.848C441.521 640.2 441.201 638.288 441.201 636.112C441.201 634.432 441.473 632.848 442.017 631.36C442.577 629.872 443.377 628.576 444.417 627.472C445.457 626.368 446.721 625.496 448.209 624.856C449.697 624.2 451.377 623.872 453.249 623.872C454.833 623.872 456.289 624.128 457.617 624.64C458.961 625.136 460.113 625.864 461.073 626.824C462.049 627.784 462.801 628.968 463.329 630.376C463.873 631.768 464.145 633.36 464.145 635.152C464.145 635.648 464.121 636.056 464.073 636.376C464.025 636.696 463.945 636.952 463.833 637.144C463.721 637.336 463.569 637.472 463.377 637.552C463.185 637.616 462.937 637.648 462.633 637.648H447.801ZM474.479 642.472C475.103 643.192 475.775 643.696 476.495 643.984C477.231 644.272 477.991 644.416 478.775 644.416C479.591 644.416 480.327 644.272 480.983 643.984C481.655 643.68 482.231 643.208 482.711 642.568C483.191 641.912 483.559 641.064 483.815 640.024C484.071 638.984 484.199 637.728 484.199 636.256C484.199 634.944 484.095 633.832 483.887 632.92C483.679 631.992 483.367 631.232 482.951 630.64C482.551 630.048 482.055 629.616 481.463 629.344C480.871 629.072 480.183 628.936 479.399 628.936C478.359 628.936 477.455 629.168 476.687 629.632C475.935 630.08 475.199 630.744 474.479 631.624V642.472ZM474.479 627.112C475.455 626.136 476.535 625.352 477.719 624.76C478.903 624.168 480.231 623.872 481.703 623.872C483.127 623.872 484.407 624.16 485.543 624.736C486.695 625.296 487.671 626.104 488.471 627.16C489.287 628.216 489.911 629.496 490.343 631C490.791 632.488 491.015 634.16 491.015 636.016C491.015 638.016 490.759 639.84 490.247 641.488C489.751 643.12 489.039 644.52 488.111 645.688C487.183 646.856 486.071 647.76 484.775 648.4C483.495 649.04 482.063 649.36 480.479 649.36C479.711 649.36 479.023 649.28 478.415 649.12C477.807 648.976 477.247 648.768 476.735 648.496C476.223 648.224 475.751 647.904 475.319 647.536C474.887 647.152 474.479 646.728 474.095 646.264L473.831 647.752C473.719 648.216 473.535 648.544 473.279 648.736C473.023 648.912 472.679 649 472.247 649H467.855V613.216H474.479V627.112Z" fill="#E4EBF2"/>
</g>
<g filter="url(#filter6_dd_54_17)">
<path d="M192.617 79.9492C-24.5926 33.1745 73.6225 132.778 63.6816 258.981C46.7819 357.826 23.597 400.629 55.7287 474.321C87.8605 548.013 184.167 470.473 213.99 403.841C252.108 318.676 274.63 298.378 336.264 292.641C378.513 292.641 378.513 299.859 413.804 306.321C493.331 320.883 588.764 287.222 612.422 206.029C642.943 69.3588 611.332 56.2443 507.746 71.1238C465.537 77.1868 417.78 148.787 323.341 124.076C285.565 114.192 234.866 89.0472 192.617 79.9492Z" fill="#282A2F"/>
</g>
<g filter="url(#filter7_dd_54_17)">
<path d="M208.523 120.105C34.5561 47.7365 110.604 194.679 89.7284 271.019C79.7875 360.156 48.0126 362.189 77.3022 429.435C106.592 496.681 149.527 452.289 176.712 391.486C211.458 313.77 254.748 261.311 310.915 261.311C349.427 261.311 423.702 271.019 456.55 271.019C524.645 271.019 562.865 226.892 568.882 194.679C585.285 106.867 570.373 90.0984 505.26 107.749C467.983 117.854 441.141 159.378 356.146 159.378C277.767 159.378 247.293 136.233 208.523 120.105Z" fill="#26292E"/>
</g>
<g filter="url(#filter8_dd_54_17)">
<path d="M104.143 407.813C110.891 423.257 139.563 404.579 147.446 375.124C153.103 353.985 150.851 351.077 161.8 328.826C172.315 307.458 181.383 300.25 174.348 282.492C172.051 276.695 168.039 269.774 161.8 260.87C142.854 233.826 107.622 225.568 121.042 300.143C121.042 320 108.894 328.826 101.658 357.949C94.2018 387.956 97.3944 392.368 104.143 407.813Z" fill="#26292E"/>
</g>
<g filter="url(#filter9_dddi_54_17)">
<path d="M216.199 207.896C216.199 210.44 215.767 212.784 214.903 214.928C214.055 217.056 212.847 218.888 211.279 220.424C209.727 221.96 207.855 223.16 205.663 224.024C203.471 224.888 201.039 225.32 198.367 225.32H184.975V190.496H198.367C201.039 190.496 203.471 190.928 205.663 191.792C207.855 192.656 209.727 193.864 211.279 195.416C212.847 196.952 214.055 198.784 214.903 200.912C215.767 203.04 216.199 205.368 216.199 207.896ZM208.807 207.896C208.807 206.072 208.567 204.432 208.087 202.976C207.607 201.52 206.919 200.288 206.023 199.28C205.127 198.272 204.031 197.496 202.735 196.952C201.455 196.408 199.999 196.136 198.367 196.136H192.223V219.68H198.367C199.999 219.68 201.455 219.416 202.735 218.888C204.031 218.344 205.127 217.568 206.023 216.56C206.919 215.536 207.607 214.296 208.087 212.84C208.567 211.384 208.807 209.736 208.807 207.896ZM226.62 200.576V225.32H219.996V200.576H226.62ZM227.412 193.544C227.412 194.104 227.3 194.624 227.076 195.104C226.852 195.584 226.548 196.008 226.164 196.376C225.796 196.744 225.356 197.032 224.844 197.24C224.348 197.448 223.812 197.552 223.236 197.552C222.692 197.552 222.172 197.448 221.676 197.24C221.196 197.032 220.772 196.744 220.404 196.376C220.036 196.008 219.74 195.584 219.516 195.104C219.308 194.624 219.204 194.104 219.204 193.544C219.204 192.984 219.308 192.464 219.516 191.984C219.74 191.488 220.036 191.056 220.404 190.688C220.772 190.32 221.196 190.032 221.676 189.824C222.172 189.616 222.692 189.512 223.236 189.512C223.812 189.512 224.348 189.616 224.844 189.824C225.356 190.032 225.796 190.32 226.164 190.688C226.548 191.056 226.852 191.488 227.076 191.984C227.3 192.464 227.412 192.984 227.412 193.544ZM247.257 205.664C247.081 205.936 246.897 206.136 246.705 206.264C246.529 206.376 246.281 206.432 245.961 206.432C245.641 206.432 245.313 206.352 244.977 206.192C244.641 206.032 244.265 205.864 243.849 205.688C243.433 205.496 242.953 205.32 242.409 205.16C241.881 205 241.265 204.92 240.561 204.92C239.489 204.92 238.657 205.144 238.065 205.592C237.473 206.024 237.177 206.6 237.177 207.32C237.177 207.816 237.345 208.232 237.681 208.568C238.017 208.904 238.457 209.2 239.001 209.456C239.561 209.696 240.193 209.928 240.897 210.152C241.601 210.36 242.321 210.592 243.057 210.848C243.809 211.104 244.537 211.4 245.241 211.736C245.945 212.072 246.569 212.496 247.113 213.008C247.673 213.504 248.121 214.112 248.457 214.832C248.793 215.536 248.961 216.392 248.961 217.4C248.961 218.6 248.737 219.712 248.289 220.736C247.857 221.744 247.217 222.616 246.369 223.352C245.521 224.088 244.465 224.664 243.201 225.08C241.937 225.496 240.481 225.704 238.833 225.704C237.985 225.704 237.145 225.624 236.313 225.464C235.481 225.32 234.689 225.112 233.937 224.84C233.185 224.552 232.481 224.224 231.825 223.856C231.169 223.488 230.601 223.088 230.121 222.656L231.657 220.184C231.833 219.896 232.049 219.672 232.305 219.512C232.577 219.352 232.921 219.272 233.337 219.272C233.737 219.272 234.105 219.376 234.441 219.584C234.777 219.776 235.153 219.992 235.569 220.232C235.985 220.456 236.473 220.672 237.033 220.88C237.609 221.072 238.321 221.168 239.169 221.168C239.809 221.168 240.361 221.096 240.825 220.952C241.289 220.808 241.665 220.616 241.953 220.376C242.241 220.12 242.449 219.84 242.577 219.536C242.721 219.216 242.793 218.888 242.793 218.552C242.793 218.008 242.617 217.568 242.265 217.232C241.929 216.88 241.481 216.576 240.921 216.32C240.377 216.064 239.745 215.832 239.025 215.624C238.305 215.416 237.569 215.184 236.817 214.928C236.081 214.672 235.353 214.368 234.633 214.016C233.929 213.664 233.297 213.224 232.737 212.696C232.193 212.152 231.745 211.488 231.393 210.704C231.057 209.92 230.889 208.968 230.889 207.848C230.889 206.824 231.089 205.856 231.489 204.944C231.889 204.016 232.489 203.2 233.289 202.496C234.089 201.792 235.081 201.232 236.265 200.816C237.465 200.4 238.849 200.192 240.417 200.192C242.177 200.192 243.777 200.48 245.217 201.056C246.657 201.632 247.841 202.384 248.769 203.312L247.257 205.664ZM268.403 210.032C268.403 209.344 268.307 208.688 268.115 208.064C267.939 207.44 267.651 206.888 267.251 206.408C266.851 205.928 266.347 205.552 265.739 205.28C265.131 204.992 264.403 204.848 263.555 204.848C261.971 204.848 260.731 205.296 259.835 206.192C258.939 207.088 258.355 208.368 258.083 210.032H268.403ZM257.987 213.968C258.195 216.288 258.851 217.984 259.955 219.056C261.075 220.128 262.531 220.664 264.323 220.664C265.235 220.664 266.019 220.56 266.675 220.352C267.347 220.128 267.931 219.888 268.427 219.632C268.939 219.36 269.395 219.12 269.795 218.912C270.211 218.688 270.619 218.576 271.019 218.576C271.531 218.576 271.931 218.768 272.219 219.152L274.139 221.552C273.435 222.368 272.659 223.048 271.811 223.592C270.963 224.12 270.083 224.544 269.171 224.864C268.259 225.168 267.339 225.376 266.411 225.488C265.483 225.616 264.587 225.68 263.723 225.68C261.995 225.68 260.379 225.4 258.875 224.84C257.387 224.264 256.083 223.424 254.963 222.32C253.859 221.2 252.987 219.816 252.347 218.168C251.707 216.52 251.387 214.608 251.387 212.432C251.387 210.752 251.659 209.168 252.203 207.68C252.763 206.192 253.563 204.896 254.603 203.792C255.643 202.688 256.907 201.816 258.395 201.176C259.883 200.52 261.563 200.192 263.435 200.192C265.019 200.192 266.475 200.448 267.803 200.96C269.147 201.456 270.299 202.184 271.259 203.144C272.235 204.104 272.987 205.288 273.515 206.696C274.059 208.088 274.331 209.68 274.331 211.472C274.331 211.968 274.307 212.376 274.259 212.696C274.211 213.016 274.131 213.272 274.019 213.464C273.907 213.656 273.755 213.792 273.563 213.872C273.371 213.936 273.123 213.968 272.819 213.968H257.987ZM284.185 203.456C284.681 202.976 285.193 202.536 285.721 202.136C286.265 201.736 286.833 201.392 287.425 201.104C288.033 200.816 288.681 200.592 289.369 200.432C290.073 200.272 290.833 200.192 291.649 200.192C292.993 200.192 294.185 200.424 295.225 200.888C296.265 201.352 297.137 202 297.841 202.832C298.561 203.664 299.097 204.656 299.449 205.808C299.817 206.96 300.001 208.224 300.001 209.6V225.32H293.401V209.6C293.401 208.224 293.081 207.16 292.441 206.408C291.801 205.64 290.857 205.256 289.609 205.256C288.681 205.256 287.809 205.456 286.993 205.856C286.177 206.256 285.401 206.816 284.665 207.536V225.32H278.041V200.576H282.121C282.953 200.576 283.505 200.96 283.777 201.728L284.185 203.456ZM291.721 192.392C292.153 192.392 292.497 192.28 292.753 192.056C293.009 191.816 293.137 191.36 293.137 190.688H297.169C297.169 191.632 297.033 192.488 296.761 193.256C296.505 194.024 296.145 194.68 295.681 195.224C295.217 195.752 294.665 196.168 294.025 196.472C293.385 196.76 292.697 196.904 291.961 196.904C291.385 196.904 290.841 196.808 290.329 196.616C289.833 196.408 289.361 196.192 288.913 195.968C288.481 195.728 288.081 195.512 287.713 195.32C287.345 195.112 287.017 195.008 286.729 195.008C286.297 195.008 285.953 195.136 285.697 195.392C285.457 195.632 285.337 196.088 285.337 196.76H281.257C281.257 195.816 281.385 194.96 281.641 194.192C281.913 193.424 282.281 192.768 282.745 192.224C283.225 191.68 283.777 191.264 284.401 190.976C285.041 190.672 285.729 190.52 286.465 190.52C287.057 190.52 287.609 190.616 288.121 190.808C288.633 191 289.105 191.216 289.537 191.456C289.969 191.696 290.361 191.912 290.713 192.104C291.081 192.296 291.417 192.392 291.721 192.392ZM316.036 200.192C317.892 200.192 319.58 200.488 321.1 201.08C322.62 201.672 323.924 202.52 325.012 203.624C326.1 204.712 326.94 206.04 327.532 207.608C328.124 209.176 328.42 210.944 328.42 212.912C328.42 214.88 328.124 216.656 327.532 218.24C326.94 219.808 326.1 221.144 325.012 222.248C323.924 223.352 322.62 224.2 321.1 224.792C319.58 225.384 317.892 225.68 316.036 225.68C314.164 225.68 312.46 225.384 310.924 224.792C309.404 224.2 308.1 223.352 307.012 222.248C305.924 221.144 305.076 219.808 304.468 218.24C303.876 216.656 303.58 214.88 303.58 212.912C303.58 210.944 303.876 209.176 304.468 207.608C305.076 206.04 305.924 204.712 307.012 203.624C308.1 202.52 309.404 201.672 310.924 201.08C312.46 200.488 314.164 200.192 316.036 200.192ZM316.036 220.712C317.924 220.712 319.324 220.064 320.236 218.768C321.148 217.456 321.604 215.512 321.604 212.936C321.604 210.376 321.148 208.448 320.236 207.152C319.324 205.84 317.924 205.184 316.036 205.184C314.1 205.184 312.676 205.84 311.764 207.152C310.852 208.448 310.396 210.376 310.396 212.936C310.396 215.512 310.852 217.456 311.764 218.768C312.676 220.064 314.1 220.712 316.036 220.712ZM358.337 219.56C359.505 219.56 360.553 219.368 361.481 218.984C362.409 218.584 363.193 218.024 363.833 217.304C364.473 216.584 364.961 215.712 365.297 214.688C365.633 213.664 365.801 212.512 365.801 211.232V190.496H373.001V211.232C373.001 213.344 372.657 215.288 371.969 217.064C371.297 218.824 370.329 220.344 369.065 221.624C367.801 222.904 366.265 223.904 364.457 224.624C362.649 225.344 360.609 225.704 358.337 225.704C356.065 225.704 354.017 225.344 352.193 224.624C350.385 223.904 348.849 222.904 347.585 221.624C346.321 220.344 345.345 218.824 344.657 217.064C343.985 215.288 343.649 213.344 343.649 211.232V190.496H350.849V211.232C350.849 212.512 351.017 213.664 351.353 214.688C351.689 215.712 352.177 216.584 352.817 217.304C353.457 218.024 354.241 218.584 355.169 218.984C356.097 219.368 357.153 219.56 358.337 219.56ZM386.695 225.32H379.447V190.496H386.695V225.32ZM408.529 225.224C408.225 226.024 407.737 226.624 407.065 227.024C406.409 227.44 405.737 227.648 405.049 227.648H402.241L416.089 191.816C416.361 191.096 416.793 190.536 417.385 190.136C417.977 189.736 418.657 189.536 419.425 189.536H422.257L408.529 225.224ZM452.056 219.56C453.224 219.56 454.272 219.368 455.2 218.984C456.128 218.584 456.912 218.024 457.552 217.304C458.192 216.584 458.68 215.712 459.016 214.688C459.352 213.664 459.52 212.512 459.52 211.232V190.496H466.72V211.232C466.72 213.344 466.376 215.288 465.688 217.064C465.016 218.824 464.048 220.344 462.784 221.624C461.52 222.904 459.984 223.904 458.176 224.624C456.368 225.344 454.328 225.704 452.056 225.704C449.784 225.704 447.736 225.344 445.912 224.624C444.104 223.904 442.568 222.904 441.304 221.624C440.04 220.344 439.064 218.824 438.376 217.064C437.704 215.288 437.368 213.344 437.368 211.232V190.496H444.568V211.232C444.568 212.512 444.736 213.664 445.072 214.688C445.408 215.712 445.896 216.584 446.536 217.304C447.176 218.024 447.96 218.584 448.888 218.984C449.816 219.368 450.872 219.56 452.056 219.56ZM502.182 225.32H494.982C494.502 225.32 494.11 225.2 493.806 224.96C493.518 224.72 493.286 224.44 493.11 224.12L485.574 211.304C485.494 211.48 485.414 211.656 485.334 211.832C485.27 211.992 485.19 212.144 485.094 212.288L477.942 224.12C477.734 224.424 477.486 224.704 477.198 224.96C476.926 225.2 476.574 225.32 476.142 225.32H469.422L480.822 207.392L469.854 190.496H477.054C477.534 190.496 477.886 190.56 478.11 190.688C478.334 190.816 478.534 191.024 478.71 191.312L486.198 203.624C486.278 203.432 486.366 203.24 486.462 203.048C486.558 202.84 486.67 202.632 486.798 202.424L493.518 191.432C493.71 191.112 493.918 190.88 494.142 190.736C494.382 190.576 494.67 190.496 495.006 190.496H501.894L490.83 207.08L502.182 225.32Z" fill="#E4EBF2"/>
</g>
<defs>
<filter id="filter0_ii_54_17" x="256" y="331" width="172" height="187" filterUnits="userSpaceOnUse" color-interpolation-filters="sRGB">
<feFlood flood-opacity="0" result="BackgroundImageFix"/>
<feBlend mode="normal" in="SourceGraphic" in2="BackgroundImageFix" result="shape"/>
<feColorMatrix in="SourceAlpha" type="matrix" values="0 0 0 0 0 0 0 0 0 0 0 0 0 0 0 0 0 0 127 0" result="hardAlpha"/>
<feOffset dx="-10" dy="-17"/>
<feGaussianBlur stdDeviation="12.5"/>
<feComposite in2="hardAlpha" operator="arithmetic" k2="-1" k3="1"/>
<feColorMatrix type="matrix" values="0 0 0 0 0.954167 0 0 0 0 0.9725 0 0 0 0 1 0 0 0 1 0"/>
<feBlend mode="normal" in2="shape" result="effect1_innerShadow_54_17"/>
<feColorMatrix in="SourceAlpha" type="matrix" values="0 0 0 0 0 0 0 0 0 0 0 0 0 0 0 0 0 0 127 0" result="hardAlpha"/>
<feOffset dx="12" dy="22"/>
<feGaussianBlur stdDeviation="10"/>
<feComposite in2="hardAlpha" operator="arithmetic" k2="-1" k3="1"/>
<feColorMatrix type="matrix" values="0 0 0 0 0.504167 0 0 0 0 0.517262 0 0 0 0 0.55 0 0 0 1 0"/>
<feBlend mode="normal" in2="effect1_innerShadow_54_17" result="effect2_innerShadow_54_17"/>
</filter>
<filter id="filter1_di_54_17" x="301" y="383.156" width="81.9997" height="81.9136" filterUnits="userSpaceOnUse" color-interpolation-filters="sRGB">
<feFlood flood-opacity="0" result="BackgroundImageFix"/>
<feColorMatrix in="SourceAlpha" type="matrix" values="0 0 0 0 0 0 0 0 0 0 0 0 0 0 0 0 0 0 127 0" result="hardAlpha"/>
<feOffset dx="1" dy="1"/>
<feGaussianBlur stdDeviation="0.5"/>
<feColorMatrix type="matrix" values="0 0 0 0 0.62 0 0 0 0 0.6975 0 0 0 0 0.775 0 0 0 1 0"/>
<feBlend mode="normal" in2="BackgroundImageFix" result="effect1_dropShadow_54_17"/>
<feBlend mode="normal" in="SourceGraphic" in2="effect1_dropShadow_54_17" result="shape"/>
<feColorMatrix in="SourceAlpha" type="matrix" values="0 0 0 0 0 0 0 0 0 0 0 0 0 0 0 0 0 0 127 0" result="hardAlpha"/>
<feOffset/>
<feGaussianBlur stdDeviation="0.4"/>
<feComposite in2="hardAlpha" operator="arithmetic" k2="-1" k3="1"/>
<feColorMatrix type="matrix" values="0 0 0 0 0.580122 0 0 0 0 0.722625 0 0 0 0 0.854167 0 0 0 1 0"/>
<feBlend mode="normal" in2="shape" result="effect2_innerShadow_54_17"/>
</filter>
<filter id="filter2_dd_54_17" x="20.4754" y="300.767" width="654.867" height="510.913" filterUnits="userSpaceOnUse" color-interpolation-filters="sRGB">
<feFlood flood-opacity="0" result="BackgroundImageFix"/>
<feColorMatrix in="SourceAlpha" type="matrix" values="0 0 0 0 0 0 0 0 0 0 0 0 0 0 0 0 0 0 127 0" result="hardAlpha"/>
<feOffset dx="-12" dy="-4"/>
<feGaussianBlur stdDeviation="13.5"/>
<feColorMatrix type="matrix" values="0 0 0 0 0.191389 0 0 0 0 0.203167 0 0 0 0 0.220833 0 0 0 1 0"/>
<feBlend mode="normal" in2="BackgroundImageFix" result="effect1_dropShadow_54_17"/>
<feColorMatrix in="SourceAlpha" type="matrix" values="0 0 0 0 0 0 0 0 0 0 0 0 0 0 0 0 0 0 127 0" result="hardAlpha"/>
<feOffset dx="12" dy="22"/>
<feGaussianBlur stdDeviation="10"/>
<feColorMatrix type="matrix" values="0 0 0 0 0.100781 0 0 0 0 0.104129 0 0 0 0 0.1125 0 0 0 1 0"/>
<feBlend mode="normal" in2="effect1_dropShadow_54_17" result="effect2_dropShadow_54_17"/>
<feBlend mode="normal" in="SourceGraphic" in2="effect2_dropShadow_54_17" result="shape"/>
</filter>
<filter id="filter3_dd_54_17" x="79.9783" y="347.895" width="567.831" height="427.488" filterUnits="userSpaceOnUse" color-interpolation-filters="sRGB">
<feFlood flood-opacity="0" result="BackgroundImageFix"/>
<feColorMatrix in="SourceAlpha" type="matrix" values="0 0 0 0 0 0 0 0 0 0 0 0 0 0 0 0 0 0 127 0" result="hardAlpha"/>
<feOffset dx="-8" dy="-5"/>
<feGaussianBlur stdDeviation="10"/>
<feColorMatrix type="matrix" values="0 0 0 0 0.222396 0 0 0 0 0.235104 0 0 0 0 0.254167 0 0 0 1 0"/>
<feBlend mode="normal" in2="BackgroundImageFix" result="effect1_dropShadow_54_17"/>
<feColorMatrix in="SourceAlpha" type="matrix" values="0 0 0 0 0 0 0 0 0 0 0 0 0 0 0 0 0 0 127 0" result="hardAlpha"/>
<feOffset dx="10" dy="20"/>
<feGaussianBlur stdDeviation="10"/>
<feColorMatrix type="matrix" values="0 0 0 0 0.100781 0 0 0 0 0.104129 0 0 0 0 0.1125 0 0 0 1 0"/>
<feBlend mode="normal" in2="effect1_dropShadow_54_17" result="effect2_dropShadow_54_17"/>
<feBlend mode="normal" in="SourceGraphic" in2="effect2_dropShadow_54_17" result="shape"/>
</filter>
<filter id="filter4_dd_54_17" x="491.165" y="405.636" width="107.467" height="206.882" filterUnits="userSpaceOnUse" color-interpolation-filters="sRGB">
<feFlood flood-opacity="0" result="BackgroundImageFix"/>
<feColorMatrix in="SourceAlpha" type="matrix" values="0 0 0 0 0 0 0 0 0 0 0 0 0 0 0 0 0 0 127 0" result="hardAlpha"/>
<feOffset dx="-1" dy="-3"/>
<feGaussianBlur stdDeviation="7"/>
<feColorMatrix type="matrix" values="0 0 0 0 0.222396 0 0 0 0 0.235104 0 0 0 0 0.254167 0 0 0 1 0"/>
<feBlend mode="normal" in2="BackgroundImageFix" result="effect1_dropShadow_54_17"/>
<feColorMatrix in="SourceAlpha" type="matrix" values="0 0 0 0 0 0 0 0 0 0 0 0 0 0 0 0 0 0 127 0" result="hardAlpha"/>
<feOffset dx="5" dy="10"/>
<feGaussianBlur stdDeviation="4"/>
<feColorMatrix type="matrix" values="0 0 0 0 0.100781 0 0 0 0 0.104129 0 0 0 0 0.1125 0 0 0 1 0"/>
<feBlend mode="normal" in2="effect1_dropShadow_54_17" result="effect2_dropShadow_54_17"/>
<feBlend mode="normal" in="SourceGraphic" in2="effect2_dropShadow_54_17" result="shape"/>
</filter>
<filter id="filter5_dddi_54_17" x="190.38" y="611.216" width="304.635" height="48.1681" filterUnits="userSpaceOnUse" color-interpolation-filters="sRGB">
<feFlood flood-opacity="0" result="BackgroundImageFix"/>
<feColorMatrix in="SourceAlpha" type="matrix" values="0 0 0 0 0 0 0 0 0 0 0 0 0 0 0 0 0 0 127 0" result="hardAlpha"/>
<feOffset/>
<feGaussianBlur stdDeviation="1"/>
<feColorMatrix type="matrix" values="0 0 0 0 0.580122 0 0 0 0 0.722625 0 0 0 0 0.854167 0 0 0 1 0"/>
<feBlend mode="normal" in2="BackgroundImageFix" result="effect1_dropShadow_54_17"/>
<feColorMatrix in="SourceAlpha" type="matrix" values="0 0 0 0 0 0 0 0 0 0 0 0 0 0 0 0 0 0 127 0" result="hardAlpha"/>
<feOffset dy="4"/>
<feGaussianBlur stdDeviation="2"/>
<feColorMatrix type="matrix" values="0 0 0 0 0 0 0 0 0 0 0 0 0 0 0 0 0 0 0.25 0"/>
<feBlend mode="normal" in2="effect1_dropShadow_54_17" result="effect2_dropShadow_54_17"/>
<feColorMatrix in="SourceAlpha" type="matrix" values="0 0 0 0 0 0 0 0 0 0 0 0 0 0 0 0 0 0 127 0" result="hardAlpha"/>
<feOffset dy="6"/>
<feGaussianBlur stdDeviation="2"/>
<feColorMatrix type="matrix" values="0 0 0 0 0 0 0 0 0 0 0 0 0 0 0 0 0 0 0.3 0"/>
<feBlend mode="normal" in2="effect2_dropShadow_54_17" result="effect3_dropShadow_54_17"/>
<feBlend mode="normal" in="SourceGraphic" in2="effect3_dropShadow_54_17" result="shape"/>
<feColorMatrix in="SourceAlpha" type="matrix" values="0 0 0 0 0 0 0 0 0 0 0 0 0 0 0 0 0 0 127 0" result="hardAlpha"/>
<feOffset dx="1" dy="1"/>
<feGaussianBlur stdDeviation="0.75"/>
<feComposite in2="hardAlpha" operator="arithmetic" k2="-1" k3="1"/>
<feColorMatrix type="matrix" values="0 0 0 0 0.161319 0 0 0 0 0.272326 0 0 0 0 0.383333 0 0 0 0.5 0"/>
<feBlend mode="normal" in2="shape" result="effect4_innerShadow_54_17"/>
</filter>
<filter id="filter6_dd_54_17" x="0.657593" y="35.3196" width="654.867" height="510.913" filterUnits="userSpaceOnUse" color-interpolation-filters="sRGB">
<feFlood flood-opacity="0" result="BackgroundImageFix"/>
<feColorMatrix in="SourceAlpha" type="matrix" values="0 0 0 0 0 0 0 0 0 0 0 0 0 0 0 0 0 0 127 0" result="hardAlpha"/>
<feOffset dx="-12" dy="-4"/>
<feGaussianBlur stdDeviation="13.5"/>
<feColorMatrix type="matrix" values="0 0 0 0 0.191389 0 0 0 0 0.203167 0 0 0 0 0.220833 0 0 0 1 0"/>
<feBlend mode="normal" in2="BackgroundImageFix" result="effect1_dropShadow_54_17"/>
<feColorMatrix in="SourceAlpha" type="matrix" values="0 0 0 0 0 0 0 0 0 0 0 0 0 0 0 0 0 0 127 0" result="hardAlpha"/>
<feOffset dx="12" dy="22"/>
<feGaussianBlur stdDeviation="10"/>
<feColorMatrix type="matrix" values="0 0 0 0 0.100781 0 0 0 0 0.104129 0 0 0 0 0.1125 0 0 0 1 0"/>
<feBlend mode="normal" in2="effect1_dropShadow_54_17" result="effect2_dropShadow_54_17"/>
<feBlend mode="normal" in="SourceGraphic" in2="effect2_dropShadow_54_17" result="shape"/>
</filter>
<filter id="filter7_dd_54_17" x="37.1904" y="75.6166" width="567.831" height="427.488" filterUnits="userSpaceOnUse" color-interpolation-filters="sRGB">
<feFlood flood-opacity="0" result="BackgroundImageFix"/>
<feColorMatrix in="SourceAlpha" type="matrix" values="0 0 0 0 0 0 0 0 0 0 0 0 0 0 0 0 0 0 127 0" result="hardAlpha"/>
<feOffset dx="-8" dy="-5"/>
<feGaussianBlur stdDeviation="10"/>
<feColorMatrix type="matrix" values="0 0 0 0 0.222396 0 0 0 0 0.235104 0 0 0 0 0.254167 0 0 0 1 0"/>
<feBlend mode="normal" in2="BackgroundImageFix" result="effect1_dropShadow_54_17"/>
<feColorMatrix in="SourceAlpha" type="matrix" values="0 0 0 0 0 0 0 0 0 0 0 0 0 0 0 0 0 0 127 0" result="hardAlpha"/>
<feOffset dx="10" dy="20"/>
<feGaussianBlur stdDeviation="10"/>
<feColorMatrix type="matrix" values="0 0 0 0 0.100781 0 0 0 0 0.104129 0 0 0 0 0.1125 0 0 0 1 0"/>
<feBlend mode="normal" in2="effect1_dropShadow_54_17" result="effect2_dropShadow_54_17"/>
<feBlend mode="normal" in="SourceGraphic" in2="effect2_dropShadow_54_17" result="shape"/>
</filter>
<filter id="filter8_dd_54_17" x="82.3674" y="224.481" width="107.467" height="206.882" filterUnits="userSpaceOnUse" color-interpolation-filters="sRGB">
<feFlood flood-opacity="0" result="BackgroundImageFix"/>
<feColorMatrix in="SourceAlpha" type="matrix" values="0 0 0 0 0 0 0 0 0 0 0 0 0 0 0 0 0 0 127 0" result="hardAlpha"/>
<feOffset dx="-1" dy="-3"/>
<feGaussianBlur stdDeviation="7"/>
<feColorMatrix type="matrix" values="0 0 0 0 0.222396 0 0 0 0 0.235104 0 0 0 0 0.254167 0 0 0 1 0"/>
<feBlend mode="normal" in2="BackgroundImageFix" result="effect1_dropShadow_54_17"/>
<feColorMatrix in="SourceAlpha" type="matrix" values="0 0 0 0 0 0 0 0 0 0 0 0 0 0 0 0 0 0 127 0" result="hardAlpha"/>
<feOffset dx="5" dy="10"/>
<feGaussianBlur stdDeviation="4"/>
<feColorMatrix type="matrix" values="0 0 0 0 0.100781 0 0 0 0 0.104129 0 0 0 0 0.1125 0 0 0 1 0"/>
<feBlend mode="normal" in2="effect1_dropShadow_54_17" result="effect2_dropShadow_54_17"/>
<feBlend mode="normal" in="SourceGraphic" in2="effect2_dropShadow_54_17" result="shape"/>
</filter>
<filter id="filter9_dddi_54_17" x="180.975" y="187.512" width="325.207" height="50.136" filterUnits="userSpaceOnUse" color-interpolation-filters="sRGB">
<feFlood flood-opacity="0" result="BackgroundImageFix"/>
<feColorMatrix in="SourceAlpha" type="matrix" values="0 0 0 0 0 0 0 0 0 0 0 0 0 0 0 0 0 0 127 0" result="hardAlpha"/>
<feOffset/>
<feGaussianBlur stdDeviation="1"/>
<feColorMatrix type="matrix" values="0 0 0 0 0.580122 0 0 0 0 0.722625 0 0 0 0 0.854167 0 0 0 1 0"/>
<feBlend mode="normal" in2="BackgroundImageFix" result="effect1_dropShadow_54_17"/>
<feColorMatrix in="SourceAlpha" type="matrix" values="0 0 0 0 0 0 0 0 0 0 0 0 0 0 0 0 0 0 127 0" result="hardAlpha"/>
<feOffset dy="4"/>
<feGaussianBlur stdDeviation="2"/>
<feColorMatrix type="matrix" values="0 0 0 0 0 0 0 0 0 0 0 0 0 0 0 0 0 0 0.25 0"/>
<feBlend mode="normal" in2="effect1_dropShadow_54_17" result="effect2_dropShadow_54_17"/>
<feColorMatrix in="SourceAlpha" type="matrix" values="0 0 0 0 0 0 0 0 0 0 0 0 0 0 0 0 0 0 127 0" result="hardAlpha"/>
<feOffset dy="6"/>
<feGaussianBlur stdDeviation="2"/>
<feColorMatrix type="matrix" values="0 0 0 0 0 0 0 0 0 0 0 0 0 0 0 0 0 0 0.3 0"/>
<feBlend mode="normal" in2="effect2_dropShadow_54_17" result="effect3_dropShadow_54_17"/>
<feBlend mode="normal" in="SourceGraphic" in2="effect3_dropShadow_54_17" result="shape"/>
<feColorMatrix in="SourceAlpha" type="matrix" values="0 0 0 0 0 0 0 0 0 0 0 0 0 0 0 0 0 0 127 0" result="hardAlpha"/>
<feOffset dx="1" dy="1"/>
<feGaussianBlur stdDeviation="0.75"/>
<feComposite in2="hardAlpha" operator="arithmetic" k2="-1" k3="1"/>
<feColorMatrix type="matrix" values="0 0 0 0 0.161319 0 0 0 0 0.272326 0 0 0 0 0.383333 0 0 0 0.5 0"/>
<feBlend mode="normal" in2="shape" result="effect4_innerShadow_54_17"/>
</filter>
<linearGradient id="paint0_linear_54_17" x1="320.527" y1="374.814" x2="396.708" y2="446.339" gradientUnits="userSpaceOnUse">
<stop stop-color="#353A40"/>
<stop offset="1" stop-color="#16171B"/>
</linearGradient>
<linearGradient id="paint1_linear_54_17" x1="320.527" y1="374.814" x2="396.708" y2="446.339" gradientUnits="userSpaceOnUse">
<stop stop-color="#353A40"/>
<stop offset="1" stop-color="#16171B"/>
</linearGradient>
<linearGradient id="paint2_linear_54_17" x1="320.527" y1="374.814" x2="396.708" y2="446.339" gradientUnits="userSpaceOnUse">
<stop stop-color="#353A40"/>
<stop offset="1" stop-color="#16171B"/>
</linearGradient>
<linearGradient id="paint3_linear_54_17" x1="320.527" y1="374.814" x2="396.708" y2="446.339" gradientUnits="userSpaceOnUse">
<stop stop-color="#353A40"/>
<stop offset="1" stop-color="#16171B"/>
</linearGradient>
<linearGradient id="paint4_linear_54_17" x1="320.527" y1="374.814" x2="396.708" y2="446.339" gradientUnits="userSpaceOnUse">
<stop stop-color="#353A40"/>
<stop offset="1" stop-color="#16171B"/>
</linearGradient>
<linearGradient id="paint5_linear_54_17" x1="320.527" y1="374.814" x2="396.708" y2="446.339" gradientUnits="userSpaceOnUse">
<stop stop-color="#353A40"/>
<stop offset="1" stop-color="#16171B"/>
</linearGradient>
<linearGradient id="paint6_linear_54_17" x1="320.527" y1="374.814" x2="396.708" y2="446.339" gradientUnits="userSpaceOnUse">
<stop stop-color="#353A40"/>
<stop offset="1" stop-color="#16171B"/>
</linearGradient>
<linearGradient id="paint7_linear_54_17" x1="320.527" y1="374.814" x2="396.708" y2="446.339" gradientUnits="userSpaceOnUse">
<stop stop-color="#353A40"/>
<stop offset="1" stop-color="#16171B"/>
</linearGradient>
<linearGradient id="paint8_linear_54_17" x1="320.527" y1="374.814" x2="396.708" y2="446.339" gradientUnits="userSpaceOnUse">
<stop stop-color="#353A40"/>
<stop offset="1" stop-color="#16171B"/>
</linearGradient>
<linearGradient id="paint9_linear_54_17" x1="320.527" y1="374.814" x2="396.708" y2="446.339" gradientUnits="userSpaceOnUse">
<stop stop-color="#353A40"/>
<stop offset="1" stop-color="#16171B"/>
</linearGradient>
<linearGradient id="paint10_linear_54_17" x1="320.527" y1="374.814" x2="396.708" y2="446.339" gradientUnits="userSpaceOnUse">
<stop stop-color="#353A40"/>
<stop offset="1" stop-color="#16171B"/>
</linearGradient>
<linearGradient id="paint11_linear_54_17" x1="320.527" y1="374.814" x2="396.708" y2="446.339" gradientUnits="userSpaceOnUse">
<stop stop-color="#353A40"/>
<stop offset="1" stop-color="#16171B"/>
</linearGradient>
<linearGradient id="paint12_linear_54_17" x1="320.527" y1="374.814" x2="396.708" y2="446.339" gradientUnits="userSpaceOnUse">
<stop stop-color="#353A40"/>
<stop offset="1" stop-color="#16171B"/>
</linearGradient>
<linearGradient id="paint13_linear_54_17" x1="320.527" y1="374.814" x2="396.708" y2="446.339" gradientUnits="userSpaceOnUse">
<stop stop-color="#353A40"/>
<stop offset="1" stop-color="#16171B"/>
</linearGradient>
<linearGradient id="paint14_linear_54_17" x1="320.527" y1="374.814" x2="396.708" y2="446.339" gradientUnits="userSpaceOnUse">
<stop stop-color="#353A40"/>
<stop offset="1" stop-color="#16171B"/>
</linearGradient>
<linearGradient id="paint15_linear_54_17" x1="320.527" y1="374.814" x2="396.708" y2="446.339" gradientUnits="userSpaceOnUse">
<stop stop-color="#353A40"/>
<stop offset="1" stop-color="#16171B"/>
</linearGradient>
<linearGradient id="paint16_linear_54_17" x1="320.527" y1="374.814" x2="396.708" y2="446.339" gradientUnits="userSpaceOnUse">
<stop stop-color="#353A40"/>
<stop offset="1" stop-color="#16171B"/>
</linearGradient>
<linearGradient id="paint17_linear_54_17" x1="320.527" y1="374.814" x2="396.708" y2="446.339" gradientUnits="userSpaceOnUse">
<stop stop-color="#353A40"/>
<stop offset="1" stop-color="#16171B"/>
</linearGradient>
<linearGradient id="paint18_linear_54_17" x1="320.527" y1="374.814" x2="396.708" y2="446.339" gradientUnits="userSpaceOnUse">
<stop stop-color="#353A40"/>
<stop offset="1" stop-color="#16171B"/>
</linearGradient>
<linearGradient id="paint19_linear_54_17" x1="320.527" y1="374.814" x2="396.708" y2="446.339" gradientUnits="userSpaceOnUse">
<stop stop-color="#353A40"/>
<stop offset="1" stop-color="#16171B"/>
</linearGradient>
<linearGradient id="paint20_linear_54_17" x1="320.527" y1="374.814" x2="396.708" y2="446.339" gradientUnits="userSpaceOnUse">
<stop stop-color="#353A40"/>
<stop offset="1" stop-color="#16171B"/>
</linearGradient>
<linearGradient id="paint21_linear_54_17" x1="320.527" y1="374.814" x2="396.708" y2="446.339" gradientUnits="userSpaceOnUse">
<stop stop-color="#353A40"/>
<stop offset="1" stop-color="#16171B"/>
</linearGradient>
<linearGradient id="paint22_linear_54_17" x1="320.527" y1="374.814" x2="396.708" y2="446.339" gradientUnits="userSpaceOnUse">
<stop stop-color="#353A40"/>
<stop offset="1" stop-color="#16171B"/>
</linearGradient>
<linearGradient id="paint23_linear_54_17" x1="320.527" y1="374.814" x2="396.708" y2="446.339" gradientUnits="userSpaceOnUse">
<stop stop-color="#353A40"/>
<stop offset="1" stop-color="#16171B"/>
</linearGradient>
<linearGradient id="paint24_linear_54_17" x1="320.527" y1="374.814" x2="396.708" y2="446.339" gradientUnits="userSpaceOnUse">
<stop stop-color="#353A40"/>
<stop offset="1" stop-color="#16171B"/>
</linearGradient>
<linearGradient id="paint25_linear_54_17" x1="320.527" y1="374.814" x2="396.708" y2="446.339" gradientUnits="userSpaceOnUse">
<stop stop-color="#353A40"/>
<stop offset="1" stop-color="#16171B"/>
</linearGradient>
<linearGradient id="paint26_linear_54_17" x1="320.527" y1="374.814" x2="396.708" y2="446.339" gradientUnits="userSpaceOnUse">
<stop stop-color="#353A40"/>
<stop offset="1" stop-color="#16171B"/>
</linearGradient>
<linearGradient id="paint27_linear_54_17" x1="320.527" y1="374.814" x2="396.708" y2="446.339" gradientUnits="userSpaceOnUse">
<stop stop-color="#353A40"/>
<stop offset="1" stop-color="#16171B"/>
</linearGradient>
<linearGradient id="paint28_linear_54_17" x1="320.527" y1="374.814" x2="396.708" y2="446.339" gradientUnits="userSpaceOnUse">
<stop stop-color="#353A40"/>
<stop offset="1" stop-color="#16171B"/>
</linearGradient>
<linearGradient id="paint29_linear_54_17" x1="320.527" y1="374.814" x2="396.708" y2="446.339" gradientUnits="userSpaceOnUse">
<stop stop-color="#353A40"/>
<stop offset="1" stop-color="#16171B"/>
</linearGradient>
<clipPath id="clip0_54_17">
<rect width="80" height="80" fill="white" transform="translate(301 383)"/>
</clipPath>
</defs>
</svg>
