<svg width="332" height="99" viewBox="0 0 332 99" fill="none" xmlns="http://www.w3.org/2000/svg">
<path d="M144.062 52.6587C143.667 56.0425 142.414 58.6572 140.305 60.5029C138.21 62.334 135.419 63.2495 131.933 63.2495C128.154 63.2495 125.122 61.8945 122.836 59.1846C120.566 56.4746 119.431 52.8491 119.431 48.3081V45.2319C119.431 42.2583 119.958 39.6436 121.013 37.3877C122.082 35.1318 123.591 33.4033 125.539 32.2021C127.487 30.9863 129.743 30.3784 132.307 30.3784C135.705 30.3784 138.43 31.3306 140.481 33.2349C142.531 35.1245 143.725 37.7466 144.062 41.1011H139.821C139.455 38.5522 138.657 36.7065 137.426 35.564C136.211 34.4214 134.504 33.8501 132.307 33.8501C129.611 33.8501 127.495 34.8462 125.957 36.8384C124.433 38.8306 123.671 41.665 123.671 45.3418V48.4399C123.671 51.9116 124.397 54.6729 125.847 56.7236C127.297 58.7744 129.326 59.7998 131.933 59.7998C134.277 59.7998 136.071 59.2725 137.316 58.2178C138.576 57.1484 139.411 55.2954 139.821 52.6587H144.062Z" fill="#E4EBF2"/>
<path d="M174.428 62.8101H170.188V48.0225H154.06V62.8101H149.841V30.8179H154.06V44.5728H170.188V30.8179H174.428V62.8101Z" fill="#E4EBF2"/>
<path d="M186.447 62.8101H182.229V30.8179H186.447V62.8101Z" fill="#E4EBF2"/>
<path d="M198.422 59.3604H213.584V62.8101H194.182V30.8179H198.422V59.3604Z" fill="#E4EBF2"/>
<path d="M222.636 59.3604H237.797V62.8101H218.396V30.8179H222.636V59.3604Z" fill="#E4EBF2"/>
<path d="M252.036 48.5498C248.418 47.5098 245.781 46.2354 244.126 44.7266C242.485 43.2031 241.665 41.3281 241.665 39.1016C241.665 36.582 242.668 34.502 244.675 32.8613C246.696 31.2061 249.318 30.3784 252.541 30.3784C254.738 30.3784 256.694 30.8032 258.408 31.6528C260.136 32.5024 261.469 33.6743 262.407 35.1685C263.359 36.6626 263.835 38.2959 263.835 40.0684H259.594C259.594 38.1348 258.979 36.6187 257.749 35.52C256.518 34.4067 254.782 33.8501 252.541 33.8501C250.461 33.8501 248.835 34.3115 247.663 35.2344C246.506 36.1426 245.927 37.4097 245.927 39.0356C245.927 40.3394 246.477 41.4453 247.575 42.3535C248.689 43.2471 250.571 44.0674 253.222 44.8145C255.888 45.5615 257.968 46.3892 259.462 47.2974C260.971 48.1909 262.085 49.2383 262.802 50.4395C263.535 51.6406 263.901 53.0542 263.901 54.6802C263.901 57.2729 262.89 59.353 260.869 60.9204C258.847 62.4731 256.145 63.2495 252.761 63.2495C250.564 63.2495 248.513 62.832 246.608 61.9971C244.704 61.1475 243.232 59.9902 242.192 58.5254C241.167 57.0605 240.654 55.3979 240.654 53.5376H244.895C244.895 55.4712 245.605 57.002 247.026 58.1299C248.461 59.2432 250.373 59.7998 252.761 59.7998C254.987 59.7998 256.694 59.3457 257.88 58.4375C259.067 57.5293 259.66 56.2915 259.66 54.7241C259.66 53.1567 259.111 51.9482 258.012 51.0986C256.914 50.2344 254.921 49.3848 252.036 48.5498Z" fill="#E4EBF2"/>
<path d="M273.855 62.8101H269.636V30.8179H273.855V62.8101Z" fill="#E4EBF2"/>
<path d="M281.589 62.8101V30.8179H290.62C293.403 30.8179 295.864 31.4331 298.003 32.6636C300.141 33.894 301.789 35.6445 302.946 37.915C304.118 40.1855 304.711 42.793 304.726 45.7373V47.7808C304.726 50.7983 304.14 53.4424 302.968 55.7129C301.811 57.9834 300.148 59.7266 297.981 60.9424C295.827 62.1582 293.315 62.7808 290.444 62.8101H281.589ZM285.808 34.2896V59.3604H290.246C293.498 59.3604 296.025 58.3496 297.827 56.3281C299.643 54.3066 300.551 51.4282 300.551 47.6929V45.8252C300.551 42.1924 299.694 39.3726 297.981 37.3657C296.281 35.3442 293.864 34.3188 290.73 34.2896H285.808Z" fill="#E4EBF2"/>
<path d="M329.204 48.0225H315.339V59.3604H331.445V62.8101H311.12V30.8179H331.225V34.2896H315.339V44.5728H329.204V48.0225Z" fill="#E4EBF2"/>
<path d="M49.4183 98.8096C39.6454 98.8137 30.0908 95.9189 21.9636 90.4913C13.8364 85.0637 7.50183 77.3473 3.76134 68.3186C0.0208549 59.2898 -0.957415 49.3544 0.950318 39.7695C2.85805 30.1846 7.56605 21.3809 14.4786 14.4725C23.7452 5.20591 36.3134 0 49.4183 0C62.5232 0 75.0914 5.20591 84.3579 14.4725C93.6245 23.7391 98.8304 36.3072 98.8304 49.4122C98.8304 62.5171 93.6245 75.0853 84.3579 84.3518C79.7796 88.9527 74.3341 92.5995 68.3366 95.0812C62.3391 97.5629 55.9089 98.8302 49.4183 98.8096ZM49.4183 0.665292C39.7769 0.665073 30.352 3.52391 22.3354 8.88027C14.3188 14.2366 8.07062 21.8499 4.38099 30.7574C0.691369 39.6649 -0.273983 49.4664 1.60702 58.9225C3.48802 68.3786 8.13088 77.0646 14.9485 83.882C24.0904 93.0239 36.4896 98.1598 49.4183 98.1598C62.347 98.1598 74.7461 93.0239 83.8881 83.882C93.03 74.74 98.1659 62.3408 98.1659 49.4122C98.1659 36.4835 93.03 24.0843 83.8881 14.9424C79.3717 10.4019 73.9998 6.80219 68.0831 4.35154C62.1664 1.9009 55.8224 0.64798 49.4183 0.665292Z" fill="#E4EBF2"/>
<path d="M23.7436 77.6169C23.5588 77.8109 23.4153 78.0404 23.322 78.2916C23.3056 78.3629 23.3106 78.4375 23.3363 78.5061C23.362 78.5746 23.4073 78.6341 23.4665 78.6771C23.5395 78.7411 23.628 78.7847 23.7231 78.8038C23.8183 78.8228 23.9167 78.8165 24.0087 78.7855C24.2492 78.6999 24.4589 78.5447 24.6111 78.3398L25.7195 77.0145C25.6245 76.9475 25.5495 76.8559 25.5027 76.7494C25.4974 76.7073 25.5023 76.6645 25.5169 76.6247C25.5316 76.5848 25.5556 76.5491 25.587 76.5205C25.6339 76.4576 25.7027 76.4146 25.7798 76.4C25.8198 76.3983 25.8597 76.4049 25.8971 76.4194C25.9344 76.4339 25.9683 76.456 25.9966 76.4843L26.3942 76.8217C26.4314 76.8454 26.4626 76.8772 26.4856 76.9148C26.5086 76.9524 26.5226 76.9947 26.5268 77.0386C26.4973 77.158 26.4347 77.2666 26.346 77.3518L26.2738 77.4482L25.1533 78.7855L24.9485 79.0386C24.8294 79.1678 24.7573 79.3333 24.7436 79.5084C24.7403 79.5825 24.755 79.6563 24.7864 79.7235C24.8179 79.7907 24.8653 79.8492 24.9244 79.894C25.0197 79.9732 25.138 80.0196 25.2617 80.0265C25.402 80.035 25.5424 80.0103 25.6713 79.9542L27.1412 78.2072L27.0207 78.1108C26.9248 78.0448 26.8496 77.9529 26.8039 77.8458C26.796 77.8046 26.7985 77.7622 26.8111 77.7222C26.8238 77.6823 26.8461 77.6461 26.8762 77.6169C26.8997 77.5822 26.93 77.5526 26.9651 77.5298C27.0003 77.5071 27.0397 77.4916 27.081 77.4843C27.1769 77.4935 27.2664 77.5362 27.334 77.6048L28.1774 78.3157C28.2455 78.365 28.2928 78.4381 28.3099 78.5205C28.3109 78.5604 28.304 78.6002 28.2895 78.6374C28.275 78.6746 28.2533 78.7086 28.2256 78.7374C28.2022 78.773 28.1698 78.8018 28.1318 78.8208C28.0937 78.8399 28.0512 78.8485 28.0087 78.8458C27.8863 78.8086 27.7747 78.7425 27.6834 78.653H27.6231L25.9123 80.6892C26.0202 80.7672 26.1071 80.8706 26.1653 80.9904C26.1753 81.0333 26.1739 81.0782 26.1612 81.1205C26.1486 81.1627 26.125 81.201 26.093 81.2313C26.0693 81.2637 26.0386 81.2903 26.0031 81.3091C25.9676 81.3279 25.9283 81.3384 25.8882 81.3398C25.7974 81.3342 25.7117 81.2956 25.6472 81.2313L25.1653 80.8217C25.093 80.7655 25.0569 80.7133 25.0569 80.6651C25.0661 80.5977 25.0955 80.5347 25.1412 80.4843C24.9902 80.5155 24.8344 80.5155 24.6834 80.4843C24.5369 80.4412 24.4014 80.3672 24.2858 80.2675C24.1501 80.1634 24.0493 80.0205 23.9966 79.8578C23.9452 79.7054 23.9452 79.5404 23.9966 79.388C23.8144 79.431 23.6247 79.431 23.4424 79.388C23.2641 79.3495 23.0983 79.2666 22.9605 79.147C22.8385 79.0602 22.7403 78.944 22.6751 78.8093C22.6098 78.6745 22.5795 78.5255 22.587 78.3759C22.6587 77.9897 22.8431 77.6333 23.1171 77.3518L24.322 75.9181C24.2269 75.8511 24.1519 75.7595 24.1051 75.653C24.0972 75.6119 24.0997 75.5694 24.1123 75.5294C24.125 75.4895 24.1473 75.4533 24.1774 75.4241C24.2016 75.3912 24.2322 75.3635 24.2674 75.3428C24.3026 75.3221 24.3417 75.3088 24.3822 75.3036C24.4221 75.3026 24.4619 75.3095 24.4991 75.324C24.5363 75.3385 24.5703 75.3602 24.5991 75.388L24.9846 75.7133C25.0211 75.7394 25.051 75.7738 25.0719 75.8135C25.0928 75.8532 25.1041 75.8973 25.1051 75.9422C25.0898 76.0518 25.039 76.1534 24.9605 76.2313L23.7436 77.6169Z" fill="#E4EBF2"/>
<path d="M21.8039 73.0266C22.097 73.0564 22.3826 73.138 22.6473 73.2675C22.9029 73.3907 23.1321 73.5626 23.322 73.7736C23.579 74.034 23.7257 74.3836 23.7316 74.7495C23.728 74.9165 23.6897 75.0809 23.6192 75.2323C23.5487 75.3837 23.4475 75.5188 23.322 75.629C23.1781 75.7656 23.0028 75.8645 22.8115 75.9171C22.6203 75.9696 22.419 75.9741 22.2256 75.9302C21.7506 75.7912 21.3299 75.5094 21.0208 75.123C20.9122 75.001 20.8116 74.8723 20.7195 74.7374C20.6221 74.5986 20.5336 74.4537 20.4545 74.3037C20.3456 74.3738 20.2549 74.4688 20.1898 74.5807C20.1247 74.6927 20.087 74.8185 20.08 74.9479C20.0729 75.0772 20.0966 75.2064 20.1492 75.3248C20.2017 75.4432 20.2816 75.5474 20.3822 75.629C20.5557 75.8104 20.7649 75.954 20.9967 76.0507C21.1709 76.1171 21.3335 76.2106 21.4786 76.3278C21.5055 76.3563 21.5251 76.3909 21.5356 76.4287C21.5461 76.4665 21.5472 76.5063 21.5388 76.5446C21.523 76.6342 21.4761 76.7153 21.4063 76.7736C21.2858 76.886 21.081 76.8659 20.7918 76.7133C20.4488 76.5147 20.143 76.2579 19.8882 75.9543C19.7445 75.8149 19.6299 75.6484 19.5513 75.4642C19.4727 75.2801 19.4316 75.0822 19.4304 74.882C19.4519 74.6839 19.5131 74.4922 19.6104 74.3183C19.7077 74.1444 19.8391 73.9919 19.9967 73.8699L21.3942 72.6651L21.2617 72.5085C21.163 72.4154 21.0885 72.2996 21.0448 72.1712C21.0386 72.1278 21.0443 72.0836 21.0613 72.0433C21.0783 72.003 21.1059 71.9681 21.1412 71.9422C21.1696 71.9139 21.2035 71.8918 21.2408 71.8773C21.2781 71.8628 21.3181 71.8562 21.3581 71.8579C21.444 71.8744 21.5211 71.9215 21.575 71.9904L22.0087 72.4724C22.033 72.498 22.0519 72.5283 22.0643 72.5614C22.0767 72.5945 22.0824 72.6298 22.081 72.6651C22.075 72.7405 22.0455 72.8122 21.9967 72.8699L21.8039 73.0266ZM20.8521 73.9302C20.9142 74.068 20.9867 74.2009 21.0689 74.3278C21.144 74.4469 21.2286 74.5597 21.322 74.6651C21.5419 74.9348 21.8285 75.1425 22.1533 75.2675C22.2647 75.3138 22.3869 75.3282 22.506 75.309C22.6252 75.2899 22.7366 75.238 22.828 75.1591C22.8962 75.1 22.9493 75.0254 22.9828 74.9415C23.0164 74.8577 23.0294 74.7671 23.0207 74.6772C23.0021 74.469 22.9129 74.2734 22.7677 74.123C22.5392 73.8654 22.2428 73.6775 21.9123 73.5808C21.8017 73.5196 21.6773 73.4875 21.5509 73.4875C21.4244 73.4875 21.3001 73.5196 21.1894 73.5808L20.8521 73.9302Z" fill="#E4EBF2"/>
<path d="M19.5147 70.1229L18.7436 68.9784C18.6905 68.9098 18.6647 68.8239 18.6714 68.7374C18.6796 68.6997 18.6957 68.6642 18.7185 68.633C18.7414 68.6019 18.7704 68.5759 18.8039 68.5567C18.835 68.5296 18.8715 68.5092 18.9108 68.4967C18.9502 68.4843 18.9917 68.4801 19.0328 68.4844C19.0889 68.4979 19.1415 68.5232 19.1872 68.5585C19.2329 68.5938 19.2706 68.6383 19.2979 68.6892L20.8159 70.9302C20.8691 70.9987 20.8949 71.0846 20.8882 71.1711C20.8794 71.2118 20.8619 71.25 20.837 71.2833C20.812 71.3166 20.7802 71.3441 20.7436 71.3639C20.7079 71.381 20.6688 71.3899 20.6292 71.3899C20.5896 71.3899 20.5505 71.381 20.5147 71.3639C20.4278 71.3289 20.3555 71.2651 20.3099 71.1832L19.9123 70.5808L17.7075 72.0627L17.8641 72.2916C17.9708 72.4225 18.0488 72.5744 18.093 72.7374C18.092 72.782 18.0793 72.8256 18.056 72.8637C18.0327 72.9018 17.9998 72.933 17.9605 72.9543C17.9246 72.9706 17.8855 72.979 17.8461 72.979C17.8066 72.979 17.7676 72.9706 17.7316 72.9543C17.6489 72.9234 17.5803 72.8635 17.5388 72.7856L17.0087 72.0024C16.9912 71.9476 16.9912 71.8886 17.0087 71.8338C17.0095 71.8092 17.0166 71.7852 17.0292 71.7642C17.0419 71.7431 17.0597 71.7256 17.081 71.7133L17.6593 71.3157C17.2882 71.2971 16.9241 71.2071 16.587 71.0506C16.2995 70.9073 16.0545 70.6913 15.8762 70.4241C15.753 70.2554 15.6819 70.0544 15.6714 69.8458C15.6662 69.7685 15.6812 69.6912 15.715 69.6215C15.7488 69.5518 15.8002 69.492 15.8641 69.4482C15.9099 69.429 15.9591 69.4191 16.0087 69.4191C16.0584 69.4191 16.1075 69.429 16.1533 69.4482C16.2015 69.4536 16.248 69.4693 16.2895 69.4942C16.3311 69.5192 16.3668 69.5528 16.3943 69.5928C16.4424 69.6987 16.467 69.8138 16.4665 69.9302C16.4709 70.0748 16.5124 70.2159 16.587 70.3398C16.7303 70.5357 16.9268 70.6863 17.1533 70.7735C17.4516 70.921 17.7674 71.0303 18.093 71.0988L19.5147 70.1229Z" fill="#E4EBF2"/>
<path d="M16.1774 66.5447L17.2858 66.0145C17.3722 65.9884 17.4645 65.9884 17.5509 66.0145C17.5872 66.0178 17.6219 66.0307 17.6516 66.0519C17.6812 66.0731 17.7047 66.1018 17.7196 66.135L18.0449 66.8218C18.0765 66.9031 18.0765 66.9934 18.0449 67.0748C18.0304 67.1133 18.0078 67.1482 17.9787 67.1773C17.9496 67.2064 17.9147 67.229 17.8762 67.2435C17.8395 67.2646 17.798 67.2757 17.7557 67.2757C17.7134 67.2757 17.6718 67.2646 17.6352 67.2435C17.533 67.1462 17.4547 67.0266 17.4063 66.8941L17.322 66.7133L13.4906 68.5447L13.5629 68.7013C13.6445 68.8369 13.694 68.9894 13.7075 69.1471C13.6991 69.1913 13.679 69.2325 13.6494 69.2664C13.6197 69.3003 13.5816 69.3256 13.5388 69.3398C13.5013 69.358 13.4601 69.3674 13.4184 69.3674C13.3766 69.3674 13.3355 69.358 13.2979 69.3398C13.22 69.2983 13.16 69.2298 13.1292 69.1471L12.7919 68.4362C12.7725 68.3775 12.7725 68.3142 12.7919 68.2555C12.7958 68.2318 12.8056 68.2095 12.8203 68.1906C12.835 68.1717 12.8542 68.1567 12.8762 68.1471L15.5509 66.87L14.1292 66.2194C14.1465 66.2988 14.1465 66.3809 14.1292 66.4603C14.1076 66.5183 14.0644 66.5658 14.0087 66.5928C13.9776 66.6108 13.9423 66.6203 13.9063 66.6203C13.8704 66.6203 13.835 66.6108 13.8039 66.5928C13.7273 66.539 13.6686 66.4635 13.6352 66.376L13.1533 65.3639C13.1257 65.286 13.1257 65.2009 13.1533 65.123C13.165 65.0849 13.1852 65.05 13.2123 65.0208C13.2395 64.9915 13.2728 64.9688 13.3099 64.9543C13.4625 64.882 13.6071 64.9623 13.7437 65.1953L13.8159 65.3037C13.8905 65.4123 13.9844 65.5062 14.0931 65.5808C14.2321 65.6777 14.3816 65.7586 14.5388 65.8218L15.2738 66.135L16.1412 63.9784L15.9846 63.6531C15.9562 63.5712 15.9562 63.482 15.9846 63.4001C15.9984 63.3612 16.0207 63.3259 16.0499 63.2967C16.0791 63.2675 16.1144 63.2452 16.1533 63.2314C16.1911 63.2141 16.2322 63.2051 16.2738 63.2051C16.3154 63.2051 16.3565 63.2141 16.3943 63.2314C16.4767 63.2706 16.5412 63.3394 16.575 63.4242L17.0569 64.4362C17.0838 64.5225 17.0838 64.615 17.0569 64.7013C17.0473 64.7372 17.0291 64.7702 17.004 64.7975C16.9788 64.8248 16.9473 64.8455 16.9123 64.8579C16.8799 64.8715 16.8451 64.8785 16.8099 64.8785C16.7748 64.8785 16.7399 64.8715 16.7075 64.8579C16.624 64.8234 16.5497 64.7697 16.4906 64.7013L15.6834 66.3519L16.1774 66.5447Z" fill="#E4EBF2"/>
<path d="M14.2015 62.4242C14.3655 62.3689 14.5165 62.2804 14.645 62.1644C14.7735 62.0483 14.8768 61.9071 14.9485 61.7495C15.0792 61.4082 15.0792 61.0306 14.9485 60.6893C14.8242 60.3423 14.627 60.0259 14.3702 59.7616C14.1932 59.5894 14.0393 59.395 13.9123 59.1833C13.8842 59.1137 13.8842 59.0359 13.9123 58.9664C13.9263 58.9324 13.9476 58.9018 13.9747 58.8768C14.0017 58.8518 14.0339 58.8331 14.069 58.8218C14.1463 58.791 14.2326 58.791 14.3099 58.8218C14.4103 58.873 14.5002 58.9424 14.575 59.0266C14.7845 59.2432 14.9703 59.4815 15.1292 59.7375C15.2847 59.9868 15.4101 60.2537 15.5027 60.5327C15.7149 61.0457 15.7149 61.622 15.5027 62.1351C15.3829 62.3754 15.2136 62.5877 15.006 62.7579C14.7983 62.9282 14.557 63.0526 14.2979 63.123C14.0384 63.2196 13.7613 63.2599 13.485 63.2413C13.2087 63.2226 12.9396 63.1453 12.6955 63.0146C12.1938 62.7295 11.8256 62.2573 11.6714 61.7013C11.5083 61.2309 11.5212 60.7173 11.7075 60.2556C11.8015 60.0317 11.9428 59.8307 12.1216 59.6665C12.3004 59.5022 12.5126 59.3785 12.7437 59.3037C12.7946 59.28 12.8501 59.2678 12.9063 59.2678C12.9625 59.2678 13.018 59.28 13.069 59.3037C13.1904 59.4403 13.2735 59.6066 13.3099 59.7857L14.2015 62.4242ZM13.6834 62.5688L12.84 60.0025C12.557 60.1271 12.3327 60.3557 12.2135 60.6411C12.1004 60.9358 12.1004 61.262 12.2135 61.5568C12.3071 61.8782 12.5067 62.1584 12.7798 62.3519C13.0433 62.5243 13.3581 62.6008 13.6714 62.5688H13.6834Z" fill="#E4EBF2"/>
<path d="M10.4425 55.2555C10.4111 55.1576 10.4111 55.0523 10.4425 54.9543C10.4635 54.9175 10.4931 54.8862 10.5287 54.8631C10.5644 54.84 10.605 54.8259 10.6473 54.8218C10.683 54.8047 10.7221 54.7958 10.7617 54.7958C10.8014 54.7958 10.8405 54.8047 10.8762 54.8218C10.9432 54.8857 10.9858 54.9709 10.9967 55.0628L11.2979 56.7134L12.6593 56.4724C12.9721 56.4496 13.2705 56.3319 13.5148 56.1351C13.5786 56.0454 13.6215 55.9426 13.6402 55.8341C13.659 55.7257 13.6532 55.6144 13.6232 55.5086C13.5558 55.2245 13.4375 54.9551 13.2738 54.7134C13.1399 54.5274 13.0305 54.3249 12.9485 54.111C12.9349 54.0785 12.9279 54.0437 12.9279 54.0086C12.9279 53.9734 12.9349 53.9386 12.9485 53.9062C12.9689 53.8749 12.9955 53.8482 13.0266 53.8275C13.0576 53.8068 13.0925 53.7925 13.1292 53.7857C13.1692 53.7688 13.2123 53.7601 13.2557 53.7601C13.2992 53.7601 13.3422 53.7688 13.3822 53.7857C13.4852 53.8688 13.5712 53.9711 13.6352 54.0869C13.7725 54.3024 13.8933 54.5279 13.9967 54.7616C14.0789 54.9509 14.1395 55.149 14.1774 55.3519C14.2386 55.6257 14.2386 55.9095 14.1774 56.1833C14.12 56.4086 13.9884 56.608 13.8039 56.7495C13.7106 56.8273 13.6047 56.8884 13.4907 56.9302C13.2941 56.9946 13.0926 57.043 12.8882 57.0748H12.7678L11.4063 57.3158L11.5268 58.0146C11.5581 58.1002 11.5581 58.1941 11.5268 58.2796C11.5037 58.3137 11.4734 58.3421 11.438 58.3629C11.4025 58.3838 11.3629 58.3965 11.322 58.4001C11.2785 58.4153 11.2315 58.4177 11.1867 58.4071C11.1418 58.3964 11.101 58.3731 11.069 58.3399C10.9889 58.2036 10.9395 58.0515 10.9244 57.8941L10.8642 57.4965L10.0328 57.6411H9.81597C9.72679 57.6754 9.62803 57.6754 9.53886 57.6411C9.50453 57.6156 9.47603 57.583 9.45525 57.5456C9.43448 57.5082 9.42191 57.4668 9.41838 57.4242C9.39724 57.3832 9.38622 57.3378 9.38622 57.2917C9.38622 57.2456 9.39724 57.2001 9.41838 57.1592C9.55564 57.0698 9.71297 57.016 9.87621 57.0025L10.7075 56.858L10.4425 55.2555Z" fill="#E4EBF2"/>
<path d="M8.64729 51.376C8.46121 51.421 8.2671 51.421 8.08102 51.376C8.0007 51.3278 7.95653 51.2154 7.94849 51.0387C7.92585 50.967 7.92171 50.8907 7.93645 50.817C7.9512 50.7433 7.98435 50.6745 8.03283 50.617C8.16338 50.5518 8.30895 50.5227 8.45452 50.5327C8.59987 50.4888 8.75494 50.4888 8.9003 50.5327C8.97367 50.629 9.00808 50.7494 8.99668 50.87C9.01832 50.9899 8.99699 51.1137 8.93644 51.2194C8.86207 51.3047 8.75939 51.3604 8.64729 51.376ZM13.0569 50.4363V49.111C13.0283 49.0332 13.0283 48.9478 13.0569 48.87C13.0848 48.8411 13.1186 48.8185 13.1561 48.804C13.1935 48.7894 13.2337 48.7832 13.2738 48.7857C13.3159 48.778 13.3592 48.7794 13.4008 48.7898C13.4423 48.8002 13.4812 48.8193 13.5147 48.8459C13.5686 48.9233 13.5942 49.0169 13.587 49.111L13.7075 52.3158C13.7195 52.4047 13.6981 52.4949 13.6473 52.5688C13.62 52.5993 13.5866 52.6236 13.5492 52.6403C13.5118 52.6569 13.4713 52.6654 13.4304 52.6652C13.3902 52.6685 13.3498 52.6627 13.3122 52.6481C13.2746 52.6335 13.2409 52.6105 13.2135 52.5808C13.158 52.5083 13.1283 52.4192 13.1292 52.3278V51.123L10.4666 51.2194V52.0266C10.4793 52.1194 10.4579 52.2136 10.4063 52.2917C10.3796 52.3228 10.3462 52.3476 10.3087 52.3643C10.2712 52.3809 10.2305 52.3891 10.1895 52.3881C10.1502 52.393 10.1104 52.389 10.0728 52.3765C10.0353 52.364 10.001 52.3433 9.97258 52.3158C9.91704 52.2479 9.88718 52.1626 9.88825 52.0748V50.87C9.86975 50.8112 9.86975 50.7481 9.88825 50.6893C9.90053 50.668 9.91803 50.6502 9.93912 50.6375C9.9602 50.6249 9.98416 50.6178 10.0087 50.617L13.0569 50.4363Z" fill="#E4EBF2"/>
<path d="M13.069 47.3037L10.4304 47.0025V47.0748C10.4257 47.2063 10.3885 47.3347 10.322 47.4483C10.2929 47.4824 10.2553 47.5082 10.2129 47.523C10.1706 47.5379 10.1251 47.5412 10.081 47.5326C10.0389 47.5331 9.99718 47.5235 9.95947 47.5046C9.92175 47.4858 9.88908 47.4582 9.86416 47.4242C9.83292 47.3303 9.83292 47.2289 9.86416 47.135V46.5446C9.86588 46.4835 9.88697 46.4244 9.9244 46.376C9.94489 46.3654 9.96761 46.3599 9.99066 46.3599C10.0137 46.3599 10.0364 46.3654 10.0569 46.376H10.334C10.1937 46.2009 10.08 46.006 9.99669 45.7977C9.92755 45.5965 9.90288 45.3828 9.9244 45.1712C9.93228 44.989 9.97943 44.8108 10.0626 44.6486C10.1458 44.4864 10.263 44.3441 10.4063 44.2314C10.7296 44.0078 11.1265 43.9172 11.5148 43.9784L13.3822 44.1712V43.9784C13.3839 43.8744 13.4175 43.7734 13.4786 43.6892C13.5078 43.6592 13.544 43.6368 13.5839 43.6242C13.6239 43.6116 13.6664 43.6091 13.7075 43.6169C13.7508 43.6178 13.7931 43.6292 13.8309 43.6502C13.8687 43.6712 13.9008 43.7012 13.9244 43.7374C13.9569 43.8516 13.9569 43.9726 13.9244 44.0868L13.828 45.0025C13.8301 45.122 13.7965 45.2394 13.7316 45.3398C13.6936 45.3564 13.6526 45.365 13.6111 45.365C13.5697 45.365 13.5287 45.3564 13.4907 45.3398C13.4483 45.3414 13.4063 45.3322 13.3684 45.3133C13.3305 45.2943 13.298 45.2662 13.2738 45.2314C13.2423 45.1211 13.2423 45.0043 13.2738 44.894V44.7495L11.6111 44.5928C11.349 44.5473 11.0792 44.5987 10.8521 44.7374C10.7571 44.8097 10.6796 44.9025 10.6254 45.0089C10.5712 45.1153 10.5416 45.2325 10.5389 45.3519C10.5079 45.6255 10.581 45.9008 10.7437 46.123C10.8191 46.2356 10.9189 46.3298 11.0357 46.3986C11.1525 46.4675 11.2833 46.5091 11.4184 46.5205L13.1292 46.6892V46.5446C13.1308 46.4294 13.1642 46.3168 13.2256 46.2193C13.2559 46.1914 13.2927 46.1713 13.3326 46.1608C13.3725 46.1503 13.4143 46.1497 13.4545 46.1591C13.4973 46.158 13.5399 46.166 13.5794 46.1826C13.6188 46.1992 13.6543 46.2241 13.6834 46.2555C13.7192 46.3774 13.7192 46.5071 13.6834 46.629L13.6111 47.376V47.5928C13.6078 47.6819 13.5738 47.767 13.5148 47.8338C13.4834 47.8601 13.4466 47.8792 13.4071 47.8896C13.3675 47.9 13.3261 47.9015 13.2858 47.894C13.2422 47.8955 13.1989 47.8851 13.1607 47.8638C13.1225 47.8426 13.0908 47.8114 13.069 47.7736C13.0378 47.6469 13.0378 47.5146 13.069 47.388V47.3037Z" fill="#E4EBF2"/>
<path d="M14.84 39.2435C15.1091 39.3005 15.3716 39.3853 15.6232 39.4965C15.7638 39.5699 15.8871 39.6726 15.9846 39.7977C16.1538 40.0131 16.2582 40.2722 16.2858 40.5447C16.3188 40.8803 16.2902 41.2192 16.2015 41.5447C16.1577 41.7752 16.0719 41.9957 15.9485 42.1953C15.916 42.2532 15.8654 42.2987 15.8044 42.3249C15.7434 42.351 15.6754 42.3563 15.6111 42.3398C15.5697 42.3289 15.5311 42.3093 15.4978 42.2823C15.4646 42.2553 15.4375 42.2215 15.4184 42.1832C15.3848 42.098 15.3848 42.0033 15.4184 41.9182C15.4479 41.8076 15.4841 41.699 15.5268 41.5928C15.5697 41.4827 15.606 41.37 15.6352 41.2555C15.6878 41.1063 15.7085 40.9477 15.6961 40.79C15.6836 40.6323 15.6383 40.479 15.5629 40.3398C15.3373 40.0786 15.025 39.9074 14.6834 39.8579L14.2015 39.7374C14.3454 39.9299 14.4443 40.1522 14.4907 40.388C14.5316 40.7375 14.4731 41.0914 14.3218 41.409C14.1704 41.7266 13.9324 41.9949 13.6352 42.1832C13.209 42.4169 12.7103 42.4809 12.2389 42.3625C11.7675 42.2441 11.3583 41.952 11.0931 41.5447C10.966 41.3467 10.8803 41.1252 10.841 40.8933C10.8016 40.6614 10.8095 40.424 10.8642 40.1953C10.9156 39.9876 11.0055 39.7915 11.1292 39.617C11.268 39.4213 11.4344 39.2468 11.6232 39.0989L11.334 39.0266C11.3104 39.0226 11.2881 39.0128 11.2692 38.9981C11.2502 38.9834 11.2353 38.9642 11.2256 38.9423C11.2071 38.8834 11.2071 38.8204 11.2256 38.7615L11.3702 38.1591C11.3849 38.0692 11.4321 37.9878 11.5027 37.9302C11.5387 37.9139 11.5777 37.9055 11.6172 37.9055C11.6566 37.9055 11.6957 37.9139 11.7316 37.9302C11.7767 37.9356 11.8194 37.9529 11.8555 37.9805C11.8915 38.008 11.9195 38.0448 11.9364 38.0868C11.9691 38.2133 11.9691 38.3459 11.9364 38.4724V38.5688L14.84 39.2435ZM11.5027 40.2796C11.4582 40.4363 11.446 40.6003 11.4667 40.7618C11.4874 40.9233 11.5406 41.079 11.6232 41.2194C11.7049 41.3593 11.8139 41.4814 11.9439 41.5782C12.0738 41.675 12.222 41.7446 12.3794 41.7829C12.5369 41.8211 12.7005 41.8272 12.8604 41.8008C13.0203 41.7743 13.1732 41.7159 13.3099 41.629C13.5807 41.4447 13.7736 41.1666 13.8515 40.8485C13.9294 40.5303 13.8867 40.1946 13.7316 39.9061C13.6489 39.7704 13.5402 39.6525 13.4117 39.559C13.2833 39.4655 13.1376 39.3983 12.983 39.3614C12.8285 39.3244 12.6682 39.3184 12.5113 39.3436C12.3544 39.3689 12.2041 39.4249 12.069 39.5085C11.9256 39.5929 11.8013 39.706 11.7039 39.8408C11.6064 39.9756 11.5379 40.1291 11.5027 40.2917V40.2796Z" fill="#E4EBF2"/>
<path d="M15.9123 30.0146L16.6593 28.7014C16.7003 28.6257 16.7696 28.5694 16.8521 28.5448C16.8901 28.5282 16.9311 28.5196 16.9726 28.5196C17.014 28.5196 17.055 28.5282 17.0931 28.5448C17.1288 28.5627 17.1602 28.5881 17.1851 28.6193C17.2101 28.6505 17.228 28.6867 17.2376 28.7255C17.2673 28.8031 17.2673 28.8889 17.2376 28.9664L16.4906 30.2797L17.84 31.0508C17.9194 31.0904 17.98 31.1596 18.0087 31.2435C18.0194 31.2831 18.0219 31.3245 18.0161 31.3651C18.0103 31.4057 17.9962 31.4447 17.9748 31.4796C17.9533 31.5146 17.925 31.5448 17.8915 31.5685C17.8579 31.5921 17.8199 31.6086 17.7798 31.617C17.7398 31.6339 17.6967 31.6426 17.6533 31.6426C17.6098 31.6426 17.5668 31.6339 17.5268 31.617L16.1774 30.846L15.4425 32.1472C15.4019 32.2258 15.333 32.286 15.2497 32.3158C15.2137 32.3321 15.1747 32.3406 15.1352 32.3406C15.0957 32.3406 15.0567 32.3321 15.0208 32.3158C14.9847 32.2954 14.9532 32.2677 14.9284 32.2345C14.9035 32.2014 14.8857 32.1634 14.8762 32.1231C14.8593 32.083 14.8506 32.04 14.8506 31.9966C14.8506 31.9531 14.8593 31.9101 14.8762 31.8701L15.6111 30.5688L14.2617 29.8098C14.1824 29.7702 14.1218 29.701 14.0931 29.617C14.0765 29.579 14.0679 29.538 14.0679 29.4966C14.0679 29.4551 14.0765 29.4141 14.0931 29.3761C14.1129 29.3395 14.1404 29.3077 14.1737 29.2828C14.2069 29.2578 14.2452 29.2403 14.2858 29.2315C14.3672 29.1999 14.4575 29.1999 14.5388 29.2315L15.9123 30.0146Z" fill="#E4EBF2"/>
<path d="M24.322 25.3158L25.0328 24.617C25.0884 24.5543 25.1661 24.5155 25.2497 24.5086C25.2915 24.5099 25.3326 24.5203 25.37 24.539C25.4074 24.5577 25.4404 24.5843 25.4665 24.617C25.4992 24.6432 25.5259 24.6761 25.5446 24.7136C25.5633 24.751 25.5737 24.7921 25.575 24.8339C25.5557 24.9284 25.5047 25.0134 25.4304 25.0749L24.1171 26.4002C24.0576 26.4663 23.9764 26.509 23.8882 26.5207C23.8472 26.5217 23.8064 26.5135 23.7689 26.4969C23.7314 26.4802 23.6981 26.4554 23.6713 26.4243C23.6372 26.3952 23.6114 26.3575 23.5966 26.3152C23.5817 26.2729 23.5784 26.2273 23.587 26.1833C23.635 26.0575 23.7137 25.9456 23.8159 25.858L20.8039 22.7857C20.7162 22.888 20.6044 22.9667 20.4786 23.0146C20.4335 23.0218 20.3872 23.0167 20.3448 22.9997C20.3024 22.9827 20.2653 22.9546 20.2376 22.9183C20.2058 22.8921 20.1805 22.8589 20.1638 22.8212C20.1471 22.7836 20.1393 22.7425 20.1412 22.7014C20.156 22.6115 20.2031 22.5301 20.2738 22.4725L20.7195 22.0267C20.7609 21.9796 20.8155 21.946 20.8762 21.9303C20.8967 21.9197 20.9194 21.9142 20.9424 21.9142C20.9655 21.9142 20.9882 21.9197 21.0087 21.9303L21.2858 22.2195C21.2832 21.9633 21.3324 21.7092 21.4304 21.4725C21.528 21.2412 21.6714 21.0322 21.8521 20.858C22.0309 20.6716 22.2462 20.524 22.4846 20.4245C22.723 20.325 22.9793 20.2757 23.2376 20.2797C23.4981 20.2832 23.7552 20.3394 23.9933 20.445C24.2314 20.5507 24.4457 20.7034 24.6232 20.8942C24.8034 21.0644 24.9467 21.2699 25.0441 21.4979C25.1415 21.7259 25.191 21.9715 25.1894 22.2195C25.1842 22.4697 25.1282 22.7162 25.0246 22.9441C24.921 23.1719 24.7721 23.3763 24.587 23.5448C24.3913 23.7421 24.1577 23.8979 23.9003 24.0026C23.6631 24.0964 23.4073 24.1335 23.1533 24.111L24.322 25.3158ZM24.1171 23.2797C24.2453 23.1632 24.3487 23.0221 24.4212 22.8648C24.4936 22.7075 24.5336 22.5372 24.5388 22.364C24.5329 22.0153 24.3933 21.6822 24.149 21.4334C23.9046 21.1846 23.5741 21.039 23.2256 21.0267C23.0521 21.0272 22.8806 21.0626 22.7212 21.1309C22.5618 21.1992 22.4178 21.299 22.2979 21.4243C22.165 21.541 22.0574 21.6836 21.9815 21.8434C21.9056 22.0031 21.863 22.1767 21.8565 22.3534C21.8499 22.5301 21.8794 22.7064 21.9433 22.8713C22.0071 23.0362 22.1039 23.1864 22.2277 23.3127C22.3515 23.439 22.4998 23.5387 22.6634 23.6058C22.8271 23.6728 23.0027 23.7058 23.1795 23.7027C23.3563 23.6996 23.5307 23.6605 23.6919 23.5878C23.8531 23.5151 23.9978 23.4102 24.1171 23.2797Z" fill="#E4EBF2"/>
<path d="M27.4545 20.4122L28.5629 19.593C28.6266 19.5383 28.7079 19.5083 28.7918 19.5086C28.8317 19.5153 28.8696 19.5307 28.9029 19.5536C28.9362 19.5765 28.9641 19.6064 28.9846 19.6412C29.0138 19.6713 29.0364 19.7073 29.051 19.7467C29.0655 19.7861 29.0716 19.8282 29.0689 19.8701C29.0339 19.957 28.9701 20.0293 28.8882 20.0749L26.7075 21.7014C26.6407 21.7589 26.5546 21.789 26.4665 21.7857C26.4248 21.7799 26.3848 21.765 26.3495 21.7421C26.3141 21.7192 26.2841 21.6889 26.2617 21.6532C26.2446 21.6175 26.2357 21.5784 26.2357 21.5388C26.2357 21.4991 26.2446 21.46 26.2617 21.4243C26.2913 21.3347 26.3509 21.2581 26.4304 21.2074L27.0087 20.7737L25.3219 18.6291L25.093 18.7978C24.9632 18.9088 24.8112 18.9909 24.6473 19.0388C24.6026 19.0378 24.5591 19.025 24.521 19.0017C24.4829 18.9784 24.4516 18.9455 24.4304 18.9062C24.4057 18.8763 24.3876 18.8415 24.3773 18.8042C24.3669 18.7668 24.3645 18.7277 24.3701 18.6894C24.3954 18.6042 24.4512 18.5312 24.5268 18.4845L25.2858 17.9183C25.3305 17.8825 25.3853 17.8614 25.4424 17.858C25.467 17.8588 25.491 17.8659 25.512 17.8786C25.5331 17.8912 25.5506 17.909 25.5629 17.9303L25.9846 18.4966C25.9918 18.1278 26.0695 17.7639 26.2135 17.4243C26.3466 17.1309 26.5543 16.8775 26.8159 16.6894C26.9785 16.5598 27.1752 16.4802 27.3822 16.4604C27.4592 16.4504 27.5376 16.4607 27.6094 16.4903C27.6813 16.5199 27.7442 16.5677 27.7918 16.6291C27.8231 16.6698 27.8456 16.7164 27.8581 16.7662C27.8705 16.8159 27.8726 16.8677 27.8641 16.9183C27.8595 16.9653 27.8453 17.0109 27.8225 17.0523C27.7998 17.0938 27.7688 17.1301 27.7316 17.1592C27.6266 17.2115 27.5115 17.2403 27.3942 17.2436C27.2527 17.2536 27.1159 17.2992 26.9966 17.3761C26.8059 17.5292 26.6636 17.7342 26.587 17.9665C26.4705 18.3088 26.4016 18.6656 26.3822 19.0267L27.4545 20.4122Z" fill="#E4EBF2"/>
<path d="M33.3219 15.2556C33.459 15.4901 33.5439 15.7514 33.5709 16.0217C33.5979 16.292 33.5664 16.5649 33.4786 16.8219C33.2728 17.3593 32.8816 17.8054 32.3755 18.0794C31.8695 18.3535 31.282 18.4373 30.7195 18.3158C30.4608 18.2412 30.2195 18.116 30.0095 17.9474C29.7995 17.7789 29.625 17.5704 29.4962 17.3339C29.3673 17.0975 29.2866 16.8379 29.2588 16.5701C29.231 16.3022 29.2565 16.0316 29.334 15.7737C29.5397 15.2362 29.931 14.7901 30.437 14.5161C30.9431 14.2421 31.5305 14.1582 32.093 14.2797C32.3561 14.3442 32.6021 14.4648 32.8142 14.6333C33.0263 14.8017 33.1995 15.014 33.3219 15.2556ZM32.1171 17.5448C32.2892 17.4586 32.4421 17.3383 32.5663 17.1912C32.6906 17.0442 32.7837 16.8734 32.84 16.6893C32.9356 16.319 32.8867 15.9261 32.7033 15.5904C32.5198 15.2548 32.2155 15.0016 31.8521 14.8821C31.477 14.7891 31.0807 14.8402 30.7416 15.0254C30.4025 15.2106 30.1452 15.5163 30.0207 15.8821C29.9251 16.2525 29.974 16.6454 30.1575 16.981C30.341 17.3167 30.6453 17.5699 31.0087 17.6893C31.19 17.738 31.3792 17.7503 31.5653 17.7255C31.7514 17.7007 31.9308 17.6393 32.093 17.5448H32.1171Z" fill="#E4EBF2"/>
<path d="M38.346 15.099C38.4538 15.3549 38.5346 15.6214 38.587 15.8942C38.6206 16.049 38.6206 16.2092 38.587 16.364C38.5041 16.6227 38.3495 16.8525 38.1412 17.0267C37.8843 17.2425 37.5904 17.4099 37.2737 17.5207C37.0602 17.6134 36.8316 17.6665 36.599 17.6773C36.5348 17.6815 36.4709 17.6651 36.4167 17.6304C36.3625 17.5957 36.3209 17.5446 36.2978 17.4845C36.2795 17.4449 36.27 17.4017 36.27 17.358C36.27 17.3143 36.2795 17.2711 36.2978 17.2315C36.3398 17.1468 36.4134 17.0819 36.5026 17.0508L37.1773 16.858C37.3285 16.8178 37.4697 16.7468 37.5921 16.6493C37.7144 16.5518 37.8152 16.4301 37.8882 16.2917C37.9747 15.9615 37.9405 15.6111 37.7918 15.3038L37.6111 14.8339C37.5331 15.0601 37.4055 15.2659 37.2376 15.4363C36.9753 15.6802 36.648 15.843 36.2953 15.905C35.9425 15.967 35.5794 15.9256 35.2496 15.7857C34.8265 15.5679 34.4989 15.2013 34.3298 14.7565C34.1608 14.3116 34.1622 13.8199 34.334 13.3761C34.4299 13.1555 34.5704 12.9571 34.7467 12.7933C34.9229 12.6295 35.131 12.5039 35.3581 12.4243C35.5583 12.3493 35.7708 12.3125 35.9846 12.3158C36.2221 12.3224 36.4574 12.3629 36.6834 12.4363L36.5508 12.0628C36.5381 12.0409 36.5315 12.0159 36.5315 11.9905C36.5315 11.9652 36.5381 11.9402 36.5508 11.9183C36.5885 11.8726 36.6388 11.8391 36.6954 11.8219L37.2858 11.605C37.3675 11.5756 37.457 11.5756 37.5388 11.605C37.5755 11.6203 37.6084 11.6432 37.6354 11.6723C37.6625 11.7014 37.6829 11.736 37.6954 11.7737C37.7176 11.8121 37.7293 11.8558 37.7293 11.9002C37.7293 11.9446 37.7176 11.9882 37.6954 12.0267C37.6009 12.1183 37.4849 12.1846 37.3581 12.2195H37.2858L38.346 15.099ZM35.599 12.9303C35.4444 12.9813 35.3016 13.0631 35.1794 13.1707C35.0573 13.2784 34.9582 13.4098 34.8882 13.5568C34.8183 13.7034 34.7788 13.8626 34.772 14.0249C34.7652 14.1872 34.7913 14.3491 34.8487 14.501C34.9061 14.653 34.9936 14.7917 35.106 14.909C35.2184 15.0262 35.3533 15.1195 35.5026 15.1833C35.8082 15.3033 36.1473 15.3057 36.4545 15.1899C36.7617 15.0742 37.0149 14.8486 37.1653 14.5568C37.2333 14.4108 37.2713 14.2527 37.277 14.0917C37.2828 13.9308 37.2563 13.7703 37.199 13.6198C37.1417 13.4693 37.0549 13.3318 36.9435 13.2154C36.8322 13.0991 36.6987 13.0062 36.5508 12.9423C36.4013 12.8758 36.2398 12.8404 36.0762 12.8383C35.9125 12.8363 35.7502 12.8676 35.599 12.9303Z" fill="#E4EBF2"/>
<path d="M41.0809 14.0026L42.4183 13.7014C42.4997 13.6698 42.5899 13.6698 42.6713 13.7014C42.7039 13.7232 42.7315 13.7516 42.7522 13.7848C42.773 13.8181 42.7865 13.8553 42.7918 13.8941C42.8084 13.9321 42.8169 13.9732 42.8169 14.0146C42.8169 14.0561 42.8084 14.0971 42.7918 14.1351C42.7273 14.2013 42.6424 14.2437 42.5508 14.2556L39.9123 14.846C39.8309 14.8776 39.7406 14.8776 39.6593 14.846C39.6236 14.8235 39.5932 14.7936 39.5703 14.7582C39.5474 14.7228 39.5326 14.6829 39.5267 14.6411C39.5096 14.6054 39.5007 14.5663 39.5007 14.5267C39.5007 14.4871 39.5096 14.4479 39.5267 14.4122C39.5912 14.346 39.6761 14.3036 39.7677 14.2917L40.4665 14.1351L39.9002 11.5448L39.6231 11.605C39.4563 11.6408 39.2839 11.6408 39.1171 11.605C39.0773 11.5864 39.043 11.5577 39.0177 11.5217C38.9923 11.4858 38.9767 11.4439 38.9725 11.4002C38.9562 11.3642 38.9478 11.3252 38.9478 11.2857C38.9478 11.2462 38.9562 11.2072 38.9725 11.1713C39.0313 11.1042 39.1129 11.0613 39.2014 11.0508L40.1532 10.858C40.2118 10.8378 40.2754 10.8378 40.334 10.858C40.3559 10.8677 40.3751 10.8826 40.3898 10.9016C40.4045 10.9205 40.4143 10.9428 40.4183 10.9664L40.5749 11.6532C40.729 11.318 40.9457 11.0154 41.2135 10.7616C41.452 10.546 41.7427 10.3964 42.0568 10.3279C42.2574 10.2686 42.4708 10.2686 42.6713 10.3279C42.7455 10.3511 42.8124 10.3934 42.8652 10.4504C42.918 10.5075 42.955 10.5774 42.9725 10.6532C42.9917 10.699 43.0016 10.7481 43.0016 10.7978C43.0016 10.8474 42.9917 10.8966 42.9725 10.9423C42.9496 10.9837 42.9186 11.0199 42.8813 11.0489C42.8441 11.0779 42.8013 11.099 42.7556 11.111C42.6444 11.1348 42.5295 11.1348 42.4183 11.111C42.2799 11.0758 42.135 11.0758 41.9966 11.111C41.76 11.1735 41.5465 11.3032 41.3821 11.4845C41.1384 11.7485 40.9317 12.0444 40.7677 12.364L41.0809 14.0026Z" fill="#E4EBF2"/>
<path d="M47.4303 13.1351C47.2304 13.3515 46.9938 13.531 46.7315 13.6652C46.4799 13.7933 46.2057 13.8711 45.9243 13.8941C45.5616 13.9408 45.1948 13.8459 44.9002 13.6291C44.771 13.5249 44.6647 13.3951 44.588 13.2479C44.5113 13.1007 44.4658 12.9393 44.4544 12.7737C44.4337 12.5778 44.4613 12.3798 44.5348 12.1971C44.6083 12.0143 44.7255 11.8524 44.8761 11.7255C45.2781 11.429 45.7623 11.2648 46.2617 11.2556H47.2496C47.259 11.1267 47.2378 10.9974 47.1877 10.8783C47.1376 10.7592 47.0601 10.6536 46.9614 10.5702C46.8627 10.4868 46.7457 10.4279 46.6199 10.3983C46.4941 10.3688 46.3631 10.3694 46.2376 10.4002C45.9915 10.4281 45.7537 10.506 45.5388 10.6291C45.3824 10.7273 45.2117 10.8005 45.0327 10.8459C44.9943 10.8493 44.9557 10.8434 44.9201 10.8287C44.8844 10.814 44.8528 10.791 44.8279 10.7616C44.7689 10.6948 44.7349 10.6097 44.7315 10.5206C44.7315 10.36 44.8721 10.2114 45.1532 10.0749C45.5354 9.91399 45.9437 9.82417 46.358 9.80981C46.5558 9.77772 46.7579 9.78571 46.9524 9.83332C47.147 9.88092 47.33 9.96716 47.4906 10.0869C47.634 10.224 47.7484 10.3885 47.827 10.5706C47.9057 10.7527 47.9469 10.9488 47.9484 11.1472L48.105 13.0146H48.2135C48.344 12.9825 48.4805 12.9825 48.611 13.0146C48.6489 13.0364 48.6801 13.0682 48.7013 13.1064C48.7226 13.1446 48.733 13.1878 48.7315 13.2315C48.7382 13.2717 48.7363 13.3129 48.7259 13.3524C48.7155 13.3918 48.6969 13.4287 48.6713 13.4604C48.6057 13.5213 48.5198 13.5556 48.4303 13.5568H47.7797C47.7177 13.581 47.6489 13.581 47.587 13.5568C47.5271 13.5072 47.4849 13.4396 47.4665 13.364L47.4303 13.1351ZM47.2978 11.8339L46.852 11.7616H46.4062C46.0562 11.7738 45.7155 11.8776 45.4183 12.0628C45.3134 12.1231 45.2275 12.2114 45.17 12.3178C45.1125 12.4242 45.0859 12.5445 45.093 12.6652C45.0985 12.7553 45.1254 12.8427 45.1715 12.9202C45.2176 12.9978 45.2815 13.0632 45.358 13.111C45.5375 13.2235 45.7504 13.2704 45.9605 13.2435C46.3043 13.219 46.6342 13.0979 46.9123 12.8941C47.1934 12.6853 47.3259 12.4845 47.3098 12.2917L47.2978 11.8339Z" fill="#E4EBF2"/>
<path d="M53.1532 11.4604C53.2074 11.1982 53.2074 10.9276 53.1532 10.6653C53.1244 10.5966 53.0758 10.5382 53.0135 10.4974C52.9512 10.4566 52.8782 10.4354 52.8038 10.4364C52.7076 10.4301 52.6115 10.449 52.5248 10.4913C52.4382 10.5335 52.3641 10.5977 52.3098 10.6773C52.1671 10.8913 52.0915 11.143 52.093 11.4002L51.9966 13.1231H52.0689C52.1829 13.1217 52.2952 13.1508 52.3942 13.2074C52.4234 13.2372 52.4452 13.2735 52.4577 13.3132C52.4703 13.353 52.4733 13.3952 52.4665 13.4363C52.4672 13.5168 52.437 13.5944 52.3821 13.6532C52.3522 13.6779 52.3174 13.696 52.2801 13.7063C52.2427 13.7167 52.2036 13.7191 52.1653 13.7135H51.6351C51.5902 13.7173 51.5451 13.7106 51.5032 13.6938C51.4614 13.6771 51.424 13.6508 51.3942 13.6171C51.36 13.499 51.36 13.3737 51.3942 13.2556V13.1351L51.5026 11.3882V11.0629C51.523 10.8907 51.4848 10.7167 51.3942 10.5689C51.3532 10.507 51.2978 10.4561 51.2327 10.4204C51.1676 10.3847 51.0949 10.3654 51.0207 10.3641C50.8982 10.3544 50.7758 10.3839 50.6713 10.4484C50.551 10.5279 50.4518 10.6354 50.3821 10.7617L50.2496 13.0388H50.4062C50.5204 13.0361 50.633 13.0653 50.7315 13.1231C50.7616 13.1523 50.7839 13.1885 50.7965 13.2284C50.8092 13.2684 50.8117 13.3109 50.8038 13.352C50.8058 13.3939 50.7993 13.4357 50.7848 13.475C50.7704 13.5143 50.7481 13.5504 50.7195 13.5809C50.6299 13.6131 50.5319 13.6131 50.4424 13.5809L49.346 13.5207C49.2618 13.5221 49.1802 13.492 49.1171 13.4363C49.0921 13.4042 49.0739 13.3674 49.0635 13.3281C49.0532 13.2887 49.0509 13.2477 49.0568 13.2074C49.0541 13.1649 49.0627 13.1225 49.0818 13.0844C49.1008 13.0463 49.1296 13.0139 49.1653 12.9906C49.288 12.9609 49.416 12.9609 49.5388 12.9906H49.6231L49.7797 10.34H49.7074C49.5739 10.3442 49.4414 10.3152 49.3219 10.2556C49.2856 10.2279 49.2574 10.1909 49.2404 10.1485C49.2235 10.106 49.2183 10.0598 49.2255 10.0147C49.2254 9.97553 49.2341 9.93687 49.2507 9.90145C49.2674 9.86604 49.2917 9.83476 49.3219 9.80985C49.4037 9.78041 49.4931 9.78041 49.5749 9.80985H50.2135C50.2716 9.7876 50.336 9.7876 50.3942 9.80985C50.4154 9.87647 50.4154 9.94805 50.3942 10.0147C50.5051 9.90911 50.6362 9.82714 50.7797 9.77371C50.9224 9.72233 51.0743 9.7018 51.2255 9.71347C51.3943 9.71747 51.558 9.77203 51.6954 9.87009C51.8211 9.97126 51.91 10.111 51.9484 10.2677C52.0589 10.116 52.2033 9.99223 52.3701 9.90624C52.5357 9.82951 52.7182 9.79634 52.9002 9.80985C53.0499 9.80704 53.1979 9.842 53.3306 9.91148C53.4633 9.98097 53.5763 10.0828 53.6592 10.2074C53.8318 10.5626 53.8947 10.961 53.8399 11.352L53.6833 13.2677H53.7436C53.8617 13.264 53.9784 13.2932 54.0809 13.352C54.111 13.3812 54.1333 13.4174 54.1459 13.4573C54.1586 13.4973 54.161 13.5398 54.1532 13.5809C54.1542 13.6209 54.1473 13.6606 54.1328 13.6978C54.1183 13.7351 54.0966 13.769 54.0689 13.7978C54.0368 13.8228 53.9999 13.841 53.9606 13.8513C53.9212 13.8617 53.8802 13.864 53.8399 13.858H53.3339C53.288 13.8604 53.2422 13.8518 53.2003 13.833C53.1584 13.8141 53.1216 13.7855 53.093 13.7496C53.0598 13.6478 53.0598 13.5381 53.093 13.4363L53.1532 11.4604Z" fill="#E4EBF2"/>
<path d="M57.4544 13.9905C57.202 14.1425 56.9246 14.2486 56.6351 14.3038C56.3567 14.3587 56.0702 14.3587 55.7918 14.3038C55.434 14.2485 55.1109 14.0589 54.8881 13.7737C54.7917 13.6371 54.7248 13.4819 54.6916 13.318C54.6584 13.1542 54.6597 12.9852 54.6954 12.8219C54.7326 12.6201 54.8208 12.4312 54.9515 12.2731C55.0823 12.1149 55.2512 11.9928 55.4424 11.9182C55.9091 11.744 56.4184 11.7187 56.9002 11.846L57.3701 11.9664L57.8399 12.1592C57.875 12.0372 57.8856 11.9094 57.8711 11.7833C57.8566 11.6572 57.8174 11.5352 57.7556 11.4243C57.6765 11.3239 57.5783 11.2403 57.4666 11.1782C57.3549 11.1162 57.232 11.0769 57.105 11.0628C56.8626 11.0128 56.6125 11.0128 56.3701 11.0628C56.1903 11.1161 56.0033 11.1405 55.8158 11.1351C55.7772 11.1293 55.7406 11.1142 55.7091 11.0911C55.6777 11.068 55.6523 11.0377 55.6351 11.0026C55.6038 10.917 55.6038 10.8231 55.6351 10.7375C55.6351 10.5769 55.8118 10.4725 56.1652 10.4243C56.5672 10.3726 56.9752 10.393 57.3701 10.4845C57.5689 10.5082 57.761 10.5715 57.9348 10.6709C58.1087 10.7702 58.2608 10.9035 58.3821 11.0628C58.4899 11.2421 58.5585 11.4421 58.5834 11.6498C58.6083 11.8574 58.589 12.068 58.5267 12.2676L58.1532 14.111H58.358C58.4914 14.1244 58.6195 14.1699 58.7315 14.2435C58.7527 14.2802 58.7638 14.3217 58.7638 14.364C58.7638 14.4063 58.7527 14.4479 58.7315 14.4845C58.7271 14.5252 58.714 14.5645 58.6933 14.5999C58.6725 14.6352 58.6445 14.6657 58.611 14.6893C58.5294 14.7198 58.4396 14.7198 58.358 14.6893L57.7195 14.5568C57.6773 14.5621 57.6346 14.5572 57.5947 14.5425C57.5549 14.5278 57.5192 14.5038 57.4905 14.4724C57.4683 14.4019 57.4683 14.3262 57.4905 14.2556L57.4544 13.9905ZM57.6833 12.7014C57.5519 12.6268 57.4149 12.5624 57.2737 12.5086C57.1407 12.4573 57.0037 12.417 56.864 12.3881C56.5285 12.2992 56.1755 12.2992 55.8399 12.3881C55.7236 12.4189 55.6181 12.4814 55.5351 12.5686C55.4522 12.6558 55.395 12.7643 55.3701 12.8821C55.3498 12.9709 55.3513 13.0632 55.3744 13.1513C55.3975 13.2394 55.4414 13.3206 55.5026 13.3881C55.6446 13.5441 55.8361 13.6462 56.0448 13.6773C56.3833 13.7451 56.7342 13.7159 57.0568 13.5929C57.3861 13.4725 57.5709 13.3158 57.611 13.1231L57.6833 12.7014Z" fill="#E4EBF2"/>
<path d="M63.5628 12.6533C63.5716 12.6156 63.5893 12.5806 63.6145 12.5513C63.6397 12.5219 63.6715 12.499 63.7074 12.4846C63.7893 12.4561 63.8785 12.4561 63.9604 12.4846C64.0046 12.493 64.0458 12.5131 64.0797 12.5427C64.1136 12.5724 64.139 12.6105 64.1532 12.6533C64.1632 12.7937 64.1383 12.9344 64.0809 13.0629L63.8279 13.7858C63.8183 13.8261 63.8006 13.8641 63.7757 13.8973C63.7508 13.9304 63.7194 13.9581 63.6833 13.9786C63.6433 13.9955 63.6002 14.0042 63.5568 14.0042C63.5133 14.0042 63.4703 13.9955 63.4303 13.9786C63.366 13.9572 63.3108 13.9147 63.2737 13.8581C63.2243 13.7598 63.1917 13.6539 63.1773 13.5448C63.1357 13.3112 63.0363 13.0917 62.8881 12.9063C62.7423 12.732 62.5502 12.6025 62.3339 12.5328C61.9751 12.3848 61.5723 12.3848 61.2134 12.5328C61.0451 12.6069 60.8945 12.7163 60.7719 12.8534C60.6493 12.9906 60.5575 13.1524 60.5026 13.328C60.429 13.4992 60.391 13.6837 60.391 13.8701C60.391 14.0565 60.429 14.241 60.5026 14.4123C60.5819 14.578 60.6946 14.7255 60.8334 14.8457C60.9723 14.966 61.1345 15.0563 61.3098 15.1111C61.4768 15.1685 61.6514 15.201 61.8279 15.2075C62.0026 15.2136 62.1773 15.1933 62.3459 15.1472L62.599 15.0749C62.7443 15.0027 62.9085 14.9775 63.0688 15.0027C63.1066 15.0133 63.1417 15.0318 63.1717 15.057C63.2018 15.0821 63.2262 15.1134 63.2433 15.1487C63.2604 15.184 63.2698 15.2226 63.2708 15.2618C63.2719 15.301 63.2647 15.3399 63.2496 15.3761C63.1773 15.585 62.9082 15.7255 62.4423 15.7978C62.0014 15.8679 61.5499 15.8265 61.1291 15.6773C60.87 15.5924 60.6302 15.4572 60.4234 15.2794C60.2167 15.1015 60.047 14.8847 59.9243 14.6412C59.8059 14.4003 59.7366 14.1383 59.7204 13.8703C59.7042 13.6024 59.7415 13.3339 59.8301 13.0805C59.9187 12.8271 60.0568 12.5938 60.2363 12.3943C60.4159 12.1948 60.6334 12.033 60.8761 11.9183C61.1296 11.8113 61.4021 11.7561 61.6773 11.7561C61.9525 11.7561 62.2249 11.8113 62.4785 11.9183C62.6792 11.9893 62.8696 12.0865 63.0447 12.2075C63.2311 12.3394 63.4046 12.4886 63.5628 12.6533Z" fill="#E4EBF2"/>
<path d="M66.3941 17.2436L67.599 17.846C67.6777 17.8783 67.742 17.9383 67.7797 18.0147C67.796 18.0506 67.8044 18.0896 67.8044 18.1291C67.8044 18.1686 67.796 18.2076 67.7797 18.2436C67.7315 18.348 67.6753 18.4082 67.611 18.4243C67.5184 18.435 67.4249 18.4137 67.3459 18.3641L64.4303 16.8821C64.3455 16.8484 64.2767 16.7838 64.2375 16.7014C64.2202 16.6636 64.2112 16.6225 64.2112 16.5809C64.2112 16.5393 64.2202 16.4982 64.2375 16.4604C64.2533 16.422 64.2778 16.3878 64.3092 16.3606C64.3406 16.3334 64.3779 16.3139 64.4182 16.3038C64.5042 16.2744 64.5974 16.2744 64.6833 16.3038L65.8038 16.8821L67.0086 14.4725L66.2857 14.099C66.2022 14.0634 66.1339 13.9994 66.0929 13.9183C66.0696 13.8416 66.0766 13.7588 66.1125 13.6871C66.1483 13.6154 66.2103 13.5601 66.2857 13.5327C66.3675 13.5033 66.4569 13.5033 66.5387 13.5327L67.623 14.087C67.6784 14.1128 67.7246 14.1548 67.7556 14.2074C67.7683 14.2294 67.7749 14.2544 67.7749 14.2797C67.7749 14.3051 67.7683 14.33 67.7556 14.352L66.3941 17.2436ZM67.7435 12.9424C67.8127 12.7619 67.9243 12.6008 68.0688 12.4725C68.1251 12.4449 68.1869 12.4305 68.2496 12.4305C68.3122 12.4305 68.374 12.4449 68.4303 12.4725C68.5829 12.5528 68.6672 12.6331 68.6833 12.7135C68.6831 12.8717 68.6371 13.0266 68.5508 13.1593C68.4383 13.3681 68.35 13.4886 68.2857 13.5207C68.1627 13.5387 68.0375 13.5085 67.9363 13.4364C67.7757 13.356 67.6833 13.2797 67.6592 13.2074C67.6563 13.1139 67.6815 13.0216 67.7315 12.9424H67.7435Z" fill="#E4EBF2"/>
<path d="M72.9122 19.846C72.7646 20.0733 72.5699 20.2662 72.3412 20.4117C72.1126 20.5572 71.8553 20.6519 71.5869 20.6893C71.0138 20.7444 70.4399 20.5924 69.9691 20.2609C69.4984 19.9294 69.1619 19.4403 69.0206 18.8821C68.9668 18.6143 68.9675 18.3384 69.0225 18.0709C69.0775 17.8033 69.1858 17.5496 69.341 17.3247C69.4961 17.0999 69.6949 16.9086 69.9255 16.7622C70.1561 16.6158 70.4138 16.5172 70.6833 16.4725C71.2564 16.4174 71.8303 16.5694 72.301 16.901C72.7718 17.2325 73.1082 17.7216 73.2495 18.2797C73.3113 18.5496 73.3132 18.8297 73.2549 19.1003C73.1966 19.3709 73.0796 19.6255 72.9122 19.846ZM70.3098 19.7616C70.4624 19.8788 70.6371 19.9637 70.8235 20.0114C71.0099 20.059 71.204 20.0683 71.3941 20.0387C71.7727 19.9653 72.1087 19.7494 72.3329 19.4356C72.557 19.1218 72.6523 18.7339 72.5989 18.352C72.5175 17.9729 72.2962 17.6383 71.9791 17.415C71.662 17.1917 71.2725 17.0961 70.8881 17.1472C70.5095 17.2206 70.1735 17.4365 69.9493 17.7503C69.7252 18.0641 69.6299 18.452 69.6833 18.8339C69.7195 19.0229 69.7937 19.2026 69.9014 19.362C70.0091 19.5215 70.148 19.6574 70.3098 19.7616ZM71.9001 15.9544L74.1893 16.1472H74.2495C74.2774 16.1688 74.2984 16.1981 74.3098 16.2315C74.3196 16.2751 74.3196 16.3204 74.3098 16.364V16.6412C74.2821 16.6483 74.2531 16.6483 74.2254 16.6412H74.129L71.9242 16.0267L71.9001 15.9544Z" fill="#E4EBF2"/>
<path d="M73.1652 21.7978L74.9845 19.8581C74.8791 19.7756 74.7962 19.6678 74.7435 19.5448C74.7175 19.5085 74.7016 19.466 74.6974 19.4215C74.6931 19.3771 74.7007 19.3323 74.7194 19.2918C74.7443 19.2578 74.777 19.2302 74.8147 19.2113C74.8524 19.1925 74.8941 19.1829 74.9363 19.1834C75.0341 19.2027 75.1229 19.2535 75.1893 19.3279L75.3339 19.4605L75.623 19.7376C75.6713 19.7779 75.7052 19.8329 75.7194 19.8942C75.73 19.9147 75.7355 19.9374 75.7355 19.9605C75.7355 19.9835 75.73 20.0062 75.7194 20.0267L75.5266 20.2315C75.7719 20.2283 76.016 20.2649 76.2495 20.34C76.4517 20.4078 76.6367 20.5188 76.7917 20.6653C76.9315 20.7821 77.0446 20.9275 77.1236 21.0916C77.2026 21.2558 77.2455 21.435 77.2495 21.6171C77.2319 22.01 77.0636 22.3811 76.7796 22.6532L75.5025 24.0267L75.6471 24.1592C75.7274 24.2248 75.7861 24.3129 75.8158 24.4123C75.8201 24.4525 75.8147 24.4932 75.8 24.531C75.7853 24.5687 75.7618 24.6024 75.7315 24.6291C75.7041 24.6627 75.6689 24.689 75.629 24.7058C75.5891 24.7226 75.5457 24.7294 75.5025 24.7255C75.3858 24.6913 75.2813 24.6244 75.2013 24.5327L74.5266 23.9062C74.4328 23.8358 74.3616 23.7395 74.3218 23.6291C74.3222 23.5854 74.3321 23.5422 74.3508 23.5027C74.3695 23.4632 74.3966 23.4282 74.4303 23.4002C74.4544 23.3654 74.487 23.3373 74.5248 23.3183C74.5627 23.2994 74.6048 23.2903 74.6471 23.2918C74.7586 23.3235 74.8589 23.3862 74.9363 23.4725L75.0447 23.5689L76.2495 22.3641C76.4452 22.185 76.5694 21.941 76.5989 21.6773C76.6009 21.5579 76.5759 21.4395 76.5258 21.3311C76.4758 21.2226 76.4019 21.1268 76.3098 21.0508C76.111 20.8621 75.8488 20.7546 75.5748 20.7496C75.4395 20.7424 75.3042 20.7657 75.1791 20.8178C75.0539 20.87 74.9421 20.9496 74.8519 21.0508L73.6471 22.2556L73.7556 22.352C73.8484 22.4234 73.9193 22.5194 73.9604 22.6291C73.9647 22.6694 73.9593 22.7101 73.9446 22.7478C73.9299 22.7856 73.9064 22.8192 73.876 22.846C73.8505 22.8803 73.818 22.9088 73.7806 22.9296C73.7432 22.9504 73.7018 22.9629 73.6592 22.9665C73.5372 22.9297 73.4285 22.8586 73.3459 22.7617L72.7917 22.2436L72.623 22.087C72.5532 22.0287 72.5063 21.9476 72.4905 21.858C72.4876 21.815 72.4949 21.7719 72.5116 21.7322C72.5283 21.6924 72.5541 21.6572 72.5869 21.6291C72.6127 21.5938 72.6476 21.5662 72.688 21.5492C72.7283 21.5322 72.7725 21.5265 72.8158 21.5327C72.936 21.579 73.0434 21.6534 73.1291 21.7496L73.1652 21.7978Z" fill="#E4EBF2"/>
<path d="M40.105 86.0747C40.2255 86.0747 40.2617 86.1952 40.2135 86.3277L39.2014 89.5445C39.1211 89.7952 39.0161 90.0374 38.8882 90.2674C38.7459 90.5131 38.5371 90.7136 38.2858 90.8457C37.9775 91.0172 37.6251 91.0927 37.2737 91.0626C36.6929 91.0181 36.1291 90.8452 35.6231 90.5566C35.3364 90.395 35.0959 90.1628 34.9243 89.8819C34.83 89.6825 34.7612 89.472 34.7195 89.2554C34.672 88.8886 34.7176 88.5157 34.852 88.1711L38.3822 76.9542C38.4462 76.6722 38.5654 76.4057 38.7329 76.17C38.9004 75.9343 39.1129 75.734 39.3581 75.5807C39.5754 75.4808 39.8072 75.4157 40.0448 75.388C40.453 75.3508 40.8644 75.4043 41.2496 75.5446C41.5458 75.6271 41.8266 75.7573 42.0809 75.9301C42.2659 76.064 42.432 76.222 42.5749 76.4C42.686 76.5317 42.7718 76.6829 42.8279 76.8458C42.8279 76.9904 42.9002 77.0988 42.9243 77.1831C42.9534 77.3384 42.9534 77.4977 42.9243 77.653C42.8749 77.8977 42.8105 78.1391 42.7315 78.3759L41.599 81.9903L40.2014 81.5446C40.0809 81.5446 40.0568 81.4241 40.093 81.2795L41.1291 78.0024C41.2044 77.8067 41.2372 77.5973 41.2255 77.388C41.21 77.3038 41.1815 77.2225 41.1412 77.147C41.1078 77.0927 41.064 77.0456 41.0123 77.0084C40.9606 76.9712 40.902 76.9446 40.84 76.9301H40.6593C40.5801 76.9112 40.4975 76.9112 40.4183 76.9301C40.2922 76.9793 40.1891 77.0738 40.1291 77.1952C40.073 77.3247 40.0248 77.4575 39.9846 77.5928L36.5508 88.4361C36.5508 88.5566 36.4785 88.665 36.4544 88.7855C36.4242 88.8959 36.4242 89.0125 36.4544 89.1229C36.49 89.2083 36.5459 89.2837 36.6173 89.3425C36.6887 89.4013 36.7734 89.4417 36.8641 89.4602H37.0207C37.1061 89.4926 37.2004 89.4926 37.2858 89.4602C37.3463 89.4456 37.4028 89.4174 37.4508 89.3778C37.4988 89.3381 37.5371 89.288 37.5629 89.2313C37.6188 89.1017 37.6671 88.9689 37.7075 88.8337L38.7316 85.5928L40.105 86.0747Z" fill="#E4EBF2"/>
<path d="M52.2978 77.1229L52.6472 92.4603C52.6514 92.4849 52.6496 92.5103 52.642 92.5341C52.6344 92.558 52.6212 92.5796 52.6035 92.5973C52.5858 92.615 52.5642 92.6283 52.5403 92.6358C52.5165 92.6434 52.4911 92.6452 52.4665 92.641H50.9484L50.7918 85.9302H49.4183L49.5628 92.4603C49.5628 92.5808 49.5026 92.641 49.358 92.641H47.8641L47.5147 76.9784H49.0086C49.1412 76.9784 49.2135 76.9784 49.2135 77.1591L49.3821 84.5085H50.7556L50.6231 76.9663H52.1412C52.1827 76.9663 52.2225 76.9828 52.2519 77.0122C52.2813 77.0416 52.2978 77.0814 52.2978 77.1229Z" fill="#E4EBF2"/>
<path d="M63.1893 90.4482L61.7676 90.894L57.0327 75.9181L58.4544 75.4723C58.5829 75.4322 58.6672 75.4683 58.7074 75.5807L63.3339 90.2072C63.37 90.3759 63.3219 90.3759 63.1893 90.4482Z" fill="#E4EBF2"/>
<path d="M74.1652 84.9662L71.4182 86.7614L62.9845 73.5084L64.4062 72.5928L72.105 84.6409L73.5146 83.653L74.2014 84.7132C74.2195 84.7304 74.2333 84.7518 74.2415 84.7754C74.2498 84.799 74.2522 84.8243 74.2487 84.8491C74.2451 84.8739 74.2357 84.8974 74.2212 84.9178C74.2067 84.9382 74.1875 84.9548 74.1652 84.9662Z" fill="#E4EBF2"/>
<path d="M83.0567 76.7012L80.9122 79.1109L69.105 68.7736L70.2134 67.4844L80.9363 76.8699L82.1411 75.5567L83.0929 76.388C83.1344 76.3928 83.1723 76.4139 83.1983 76.4466C83.2243 76.4794 83.2362 76.5211 83.2314 76.5627C83.2266 76.6042 83.2055 76.6422 83.1728 76.6682C83.14 76.6941 83.0983 76.706 83.0567 76.7012Z" fill="#E4EBF2"/>
<path d="M80.0447 62.5446L76.4302 60.9302C76.3654 60.8924 76.2928 60.8699 76.2179 60.8644C76.1431 60.8589 76.0679 60.8705 75.9983 60.8984C75.9286 60.9263 75.8662 60.9697 75.8158 61.0253C75.7654 61.0809 75.7283 61.1472 75.7074 61.2193C75.6604 61.3477 75.6604 61.4885 75.7074 61.6169C75.7074 61.7534 75.8559 61.882 76.1531 62.0024L79.7073 63.5928C79.9632 63.7106 80.2476 63.7525 80.5266 63.7133C80.8111 63.6731 81.0901 63.6003 81.3579 63.4964C81.6163 63.4009 81.8696 63.2923 82.117 63.1711C82.3027 63.0715 82.4961 62.9869 82.6953 62.9181C83.1576 62.7678 83.6434 62.7024 84.129 62.7253C84.5757 62.7666 85.0118 62.8848 85.4182 63.0747L88.2254 64.2795L88.635 64.4844C88.7275 64.5371 88.8126 64.602 88.888 64.6771L89.0447 64.8217C89.194 65.0124 89.2971 65.2351 89.3459 65.4723C89.3815 65.6958 89.3815 65.9235 89.3459 66.147C89.3248 66.3512 89.2845 66.5529 89.2254 66.7494C89.1844 66.8845 89.1362 67.0172 89.0808 67.147C88.973 67.3908 88.831 67.618 88.6591 67.8217C88.4932 68.0201 88.2933 68.1873 88.0688 68.3157C87.8459 68.4384 87.5995 68.5123 87.3459 68.5325C87.0638 68.5524 86.7814 68.4985 86.5266 68.3759L82.9122 66.7494L83.5266 65.388C83.5828 65.2675 83.6672 65.2313 83.7796 65.2795L87.0808 66.7615C87.1445 66.8019 87.2166 66.8272 87.2915 66.8355C87.3665 66.8438 87.4423 66.8348 87.5133 66.8092C87.5842 66.7836 87.6484 66.7421 87.7008 66.6879C87.7533 66.6337 87.7926 66.5682 87.8158 66.4964C87.8599 66.3634 87.8599 66.2197 87.8158 66.0868C87.8158 65.9502 87.6631 65.8217 87.3579 65.7012L84.9483 64.641C84.5728 64.4587 84.1609 64.364 83.7435 64.364C83.3261 64.364 82.9141 64.4587 82.5387 64.641C81.9935 64.8965 81.4296 65.11 80.8519 65.2795C80.3148 65.4442 79.7359 65.4056 79.2254 65.1711L75.2375 63.388C75.0391 63.3069 74.8493 63.206 74.6712 63.0868C74.5779 63.0165 74.493 62.9356 74.4182 62.8458C74.245 62.6458 74.1249 62.4055 74.0688 62.147C74.0339 61.9275 74.0339 61.7039 74.0688 61.4844C74.0909 61.295 74.1354 61.109 74.2013 60.9302L74.358 60.5687C74.4295 60.4116 74.5099 60.2588 74.5989 60.1109C74.7043 59.9366 74.8342 59.7784 74.9845 59.641C75.1467 59.4949 75.3293 59.3731 75.5266 59.2796C75.741 59.1799 75.9779 59.1384 76.2134 59.1591H76.6712L76.9363 59.2555L80.8399 61.0024L80.2254 62.3639C80.2093 62.5647 80.1491 62.6249 80.0447 62.5446Z" fill="#E4EBF2"/>
<path d="M92.382 54.7615L92.1772 56.2314L76.6351 54.0507L76.8399 52.5808C76.8399 52.4482 76.9242 52.388 77.0447 52.4001L92.2254 54.5326C92.3579 54.5446 92.4061 54.629 92.382 54.7615Z" fill="#E4EBF2"/>
<path d="M90.0206 41.3158C90.4092 41.2623 90.8051 41.3165 91.1651 41.4724C91.3998 41.5803 91.6091 41.7362 91.7796 41.9302C91.9411 42.1243 92.0601 42.35 92.129 42.5929C92.1964 42.8343 92.2488 43.0798 92.2856 43.3278L92.5989 45.5326L77.0567 47.7495L76.6833 45.1591C76.6675 44.9787 76.6675 44.7973 76.6833 44.6169C76.7099 44.3371 76.8051 44.0681 76.9604 43.8338C77.1406 43.5247 77.4212 43.2866 77.7555 43.1591C78.0915 43.04 78.4386 42.9552 78.7917 42.9061L90.0206 41.3158ZM78.9965 44.5928L78.5989 44.6772C78.4655 44.7233 78.3511 44.8122 78.2736 44.9302C78.2028 45.0458 78.1692 45.1804 78.1772 45.3157C78.1772 45.4443 78.1772 45.5728 78.1772 45.7013V45.882L90.8519 44.0748V43.7254C90.8599 43.6453 90.8599 43.5645 90.8519 43.4844C90.7716 43.2274 90.639 43.0868 90.4543 43.0627C90.2505 43.0345 90.0437 43.0345 89.8399 43.0627L78.9965 44.5928Z" fill="#E4EBF2"/>
<path d="M87.8519 29.4123L89.2495 32.352L75.0688 39.0749L73.6351 36.0749L74.7796 35.5327C74.8 35.5183 74.8236 35.5089 74.8483 35.5055C74.8731 35.502 74.8983 35.5045 74.9219 35.5127C74.9455 35.521 74.9667 35.5348 74.9839 35.5529C75.0011 35.5711 75.0137 35.5931 75.0206 35.6171L75.6471 36.9303L80.4664 34.6171L79.8278 33.2677L80.9483 32.7375C81.0768 32.6813 81.1652 32.7054 81.2134 32.8098L81.7796 34.0147L87.1772 31.4604L86.4302 29.8821L87.5507 29.352C87.7073 29.2797 87.8037 29.3038 87.8519 29.4123Z" fill="#E4EBF2"/>
<path d="M36.1051 74.2555C36.0536 74.2682 35.9999 74.2682 35.9484 74.2555C32.2074 72.2375 28.9697 69.4019 26.4762 65.9595C23.9828 62.5172 22.2978 58.5567 21.5467 54.3731C20.7957 50.1894 20.9979 45.8902 22.1382 41.7955C23.2786 37.7008 25.3278 33.916 28.1334 30.7228C30.9389 27.5296 34.4285 25.0104 38.3423 23.3524C42.2562 21.6945 46.4936 20.9407 50.7392 21.1471C54.9847 21.3534 59.1291 22.5146 62.8637 24.5443C66.5984 26.574 69.8272 29.4198 72.3098 32.87C72.3513 32.9404 72.3648 33.0239 72.3476 33.1038C72.3304 33.1837 72.2838 33.2542 72.217 33.3012C72.1501 33.3483 72.0681 33.3685 71.987 33.3578C71.906 33.3471 71.832 33.3063 71.7797 33.2435C69.3604 29.8612 66.2084 27.069 62.559 25.0753C58.9096 23.0816 54.8571 21.9378 50.7038 21.7294C46.5506 21.5209 42.4039 22.2532 38.5732 23.8715C34.7426 25.4898 31.3269 27.9524 28.581 31.0754C25.8352 34.1985 23.8302 37.9013 22.7156 41.9076C21.601 45.914 21.4057 50.1203 22.1441 54.2127C22.8825 58.305 24.5357 62.1778 26.9802 65.5419C29.4248 68.906 32.5975 71.6746 36.2617 73.641C36.3212 73.6774 36.3673 73.732 36.3934 73.7967C36.4195 73.8614 36.4241 73.9327 36.4066 74.0002C36.389 74.0677 36.3502 74.1278 36.296 74.1716C36.2417 74.2154 36.1747 74.2406 36.1051 74.2434V74.2555Z" fill="#E4EBF2"/>
</svg>
