<svg width="258" height="100" viewBox="0 0 258 100" fill="none" xmlns="http://www.w3.org/2000/svg">
<path d="M170.408 0H185.918V82.6531H170.408V0Z" fill="#E4EBF2"/>
<path d="M192.449 0V14.4898H217.143V82.8571H232.653V14.4898H257.347V0H192.449Z" fill="#E4EBF2"/>
<path d="M87.551 39.5918L96.5306 19.1836L88.3673 0.204029L71.4286 39.5918H48.5714V53.4693H65.3061C61.0204 62.2448 51.8367 68.3673 41.4286 68.3673C26.7347 68.3673 14.6939 56.3265 14.6939 41.6326C14.6939 26.9387 26.7347 14.8979 41.4286 14.8979C53.2653 14.8979 63.4694 22.653 66.9388 33.4693L74.2857 16.5306C66.7347 6.73464 54.898 0.204029 41.4286 0.204029C18.5714 -5.31436e-05 0 18.5714 0 41.4285C0 64.2857 18.5714 82.8571 41.4286 82.8571C57.551 82.8571 71.4286 73.6734 78.1633 60.4081C78.7755 59.1836 79.1837 57.9591 79.7959 56.7346L81.4286 53.2653H111.224L105.306 39.5918H87.551Z" fill="#E4EBF2"/>
<path d="M129.388 0H144.898V82.6531H129.388V0Z" fill="#E4EBF2"/>
<path d="M7.95918 97.3469C7.95918 99.1837 6.53061 100 4.4898 100C2.85714 100 2.2449 99.7959 0.816329 99.1837L1.42857 97.7551C2.65306 98.3673 3.46939 98.3673 4.4898 98.3673C5.51021 98.3673 6.12245 97.9592 6.12245 97.3469C6.12245 96.7347 5.51021 96.5306 4.28572 96.1225C2.44898 95.7143 1.02041 95.3061 1.02041 93.4694C0.816329 91.8367 2.04082 90.8163 4.08163 90.8163C5.30612 90.8163 6.73469 91.2245 7.55102 91.4286L6.7347 92.8571C5.91837 92.449 4.89796 92.2449 4.08163 92.2449C3.26531 92.2449 2.65306 92.6531 2.65306 93.2653C2.65306 93.8776 3.26531 94.0816 4.69388 94.4898C6.53061 94.898 7.95918 95.7143 7.95918 97.3469Z" fill="#E4EBF2"/>
<path d="M21.0204 95.306C21.0204 97.755 18.9796 99.9999 16.3265 99.9999C13.6735 99.9999 11.6327 97.9591 11.6327 95.306C11.6327 92.8571 13.8776 90.6122 16.3265 90.6122C18.7755 90.8163 21.0204 92.8571 21.0204 95.306ZM18.9796 95.306C18.9796 93.6734 17.7551 92.4489 16.1225 92.4489C14.4898 92.4489 13.2653 93.6734 13.2653 95.306C13.2653 96.9387 14.4898 98.1632 16.1225 98.1632C17.7551 98.1632 18.9796 96.9387 18.9796 95.306Z" fill="#E4EBF2"/>
<path d="M31.4286 98.3672V99.9999H25.102V91.0203H26.9388V98.3672H31.4286Z" fill="#E4EBF2"/>
<path d="M42.8571 96.3264C42.8571 98.3672 41.4286 99.9999 38.9796 99.9999C36.5306 99.9999 35.102 98.3672 35.102 96.3264V91.0203H36.9388V95.9182C36.9388 97.5509 37.7551 98.3672 39.1837 98.3672C40.6122 98.3672 41.4286 97.5509 41.4286 95.9182V91.0203H43.2653L42.8571 96.3264Z" fill="#E4EBF2"/>
<path d="M53.6735 97.1428L55.1021 98.3673C54.2857 99.3877 52.8572 99.9999 51.4286 99.9999C48.7755 99.9999 46.7347 97.9591 46.7347 95.306C46.7347 92.8571 48.7755 90.6122 51.4286 90.6122C52.8572 90.6122 54.2857 91.2244 55.1021 92.4489L53.6735 93.6734C53.2653 93.0611 52.449 92.4489 51.4286 92.4489C49.7959 92.4489 48.5714 93.4693 48.5714 95.306C48.5714 96.9387 49.7959 98.1632 51.4286 98.1632C52.449 98.1632 53.2653 97.755 53.6735 97.1428Z" fill="#E4EBF2"/>
<path d="M60.8163 99.7959H58.9796V90.8163H60.8163V99.7959Z" fill="#E4EBF2"/>
<path d="M74.4898 95.306C74.4898 97.755 72.449 99.9999 69.7959 99.9999C67.1429 99.9999 65.1021 97.9591 65.1021 95.306C65.1021 92.8571 67.3469 90.6122 69.7959 90.6122C72.2449 90.8163 74.4898 92.8571 74.4898 95.306ZM72.6531 95.306C72.6531 93.6734 71.4286 92.4489 69.7959 92.4489C68.1633 92.4489 66.9388 93.6734 66.9388 95.306C66.9388 96.9387 68.1633 98.1632 69.7959 98.1632C71.2245 98.1632 72.6531 96.9387 72.6531 95.306Z" fill="#E4EBF2"/>
<path d="M86.5306 91.0203V99.9999H85.7143L80.4082 94.2856V99.9999H78.5714V91.0203H79.3878L84.6939 96.7346V91.0203H86.5306Z" fill="#E4EBF2"/>
<path d="M97.7551 98.3672V99.9999H91.0204V91.0203H97.551V92.6529H92.6531V94.8978H96.7347V96.5305H92.6531V98.5713L97.7551 98.3672Z" fill="#E4EBF2"/>
<path d="M108.367 97.3469C108.367 99.1837 106.939 100 104.898 100C103.265 100 102.653 99.7959 101.224 99.1837L101.837 97.7551C103.061 98.3673 103.878 98.3673 104.898 98.3673C105.918 98.3673 106.531 97.9592 106.531 97.3469C106.531 96.7347 105.918 96.5306 104.694 96.1225C102.857 95.7143 101.429 95.3061 101.429 93.4694C101.429 91.8367 102.653 90.8163 104.694 90.8163C105.918 90.8163 107.347 91.2245 108.163 91.4286L107.347 92.8571C106.531 92.449 105.51 92.2449 104.694 92.2449C103.878 92.2449 103.265 92.6531 103.265 93.2653C103.265 93.8776 103.878 94.0816 105.306 94.4898C107.143 94.898 108.367 95.7143 108.367 97.3469Z" fill="#E4EBF2"/>
<path d="M125.918 98.3672V99.9999H119.184V91.0203H125.714V92.6529H120.816V94.8978H124.898V96.5305H120.816V98.5713L125.918 98.3672Z" fill="#E4EBF2"/>
<path d="M138.98 91.0203V99.9999H137.143V95.1019L134.286 98.9795L131.429 95.1019V99.9999H129.592V91.0203H130.408L134.082 96.1223L137.755 91.0203H138.98Z" fill="#E4EBF2"/>
<path d="M147.143 91.0203C149.796 91.0203 150.612 92.6529 150.612 94.2856C150.612 96.7346 148.98 97.755 146.735 97.755H145.102V99.9999H143.265V91.0203H147.143ZM146.531 96.1223C147.959 96.1223 148.776 95.5101 148.776 94.2856C148.776 93.4693 148.367 92.4489 146.939 92.4489H145.306V95.9182H146.531V96.1223Z" fill="#E4EBF2"/>
<path d="M158.163 97.551C158.163 97.551 157.959 97.551 157.755 97.551H156.122V99.7959H154.286V90.8163H158.163C160.816 90.8163 161.633 92.449 161.633 94.0816C161.633 95.7143 161.02 96.7347 159.796 97.1429L161.837 99.7959H159.592L158.163 97.551ZM156.327 96.1225H157.959C159.388 96.1225 160.204 95.3061 160.204 94.2857C160.204 93.4694 159.796 92.449 158.367 92.449H156.531L156.327 96.1225Z" fill="#E4EBF2"/>
<path d="M172.653 98.3672V99.9999H165.918V91.0203H172.449V92.6529H167.551V94.8978H171.633V96.5305H167.551V98.5713L172.653 98.3672Z" fill="#E4EBF2"/>
<path d="M183.469 97.3469C183.469 99.1837 182.041 100 180 100C178.367 100 177.755 99.7959 176.327 99.1837L176.939 97.7551C178.163 98.3673 178.98 98.3673 180 98.3673C181.02 98.3673 181.633 97.9592 181.633 97.3469C181.633 96.7347 181.02 96.5306 179.796 96.1225C177.959 95.7143 176.531 95.3061 176.531 93.4694C176.531 91.8367 177.755 90.8163 179.796 90.8163C181.02 90.8163 182.449 91.2245 183.265 91.4286L182.449 92.8571C181.633 92.449 180.612 92.2449 179.796 92.2449C178.98 92.2449 178.367 92.6531 178.367 93.2653C178.367 93.8776 178.98 94.0816 180.408 94.4898C182.041 94.898 183.469 95.7143 183.469 97.3469Z" fill="#E4EBF2"/>
<path d="M193.061 97.9592H189.184L188.367 99.7959H186.327L190.612 90.8163H191.429L195.714 99.7959H193.878L193.061 97.9592ZM189.796 96.5306H192.449L191.225 93.6735L189.796 96.5306Z" fill="#E4EBF2"/>
<path d="M203.265 97.551C203.265 97.551 203.061 97.551 202.857 97.551H201.225V99.7959H199.388V90.8163H203.265C205.918 90.8163 206.735 92.449 206.735 94.0816C206.735 95.7143 206.122 96.7347 204.898 97.1429L206.939 99.7959H204.694L203.265 97.551ZM201.225 96.1225H202.857C204.286 96.1225 205.102 95.3061 205.102 94.2857C205.102 93.4694 204.694 92.449 203.265 92.449H201.429L201.225 96.1225Z" fill="#E4EBF2"/>
<path d="M212.857 99.7959H211.02V90.8163H212.857V99.7959Z" fill="#E4EBF2"/>
<path d="M223.061 97.9592H219.184L218.367 99.7959H216.531L220.816 90.8163H221.633L225.918 99.7959H224.082L223.061 97.9592ZM219.796 96.5306H222.449L221.224 93.6735L219.796 96.5306Z" fill="#E4EBF2"/>
<path d="M235.918 98.3672V99.9999H229.592V91.0203H231.429V98.3672H235.918Z" fill="#E4EBF2"/>
<path d="M246.531 98.3672V99.9999H239.796V91.0203H246.327V92.6529H241.429V94.8978H245.51V96.5305H241.429V98.5713L246.531 98.3672Z" fill="#E4EBF2"/>
<path d="M257.347 97.3469C257.347 99.1837 255.918 100 253.878 100C252.245 100 251.633 99.7959 250.204 99.1837L250.816 97.7551C252.041 98.3673 252.857 98.3673 253.878 98.3673C254.898 98.3673 255.51 97.9592 255.51 97.3469C255.51 96.7347 254.898 96.5306 253.673 96.1225C251.837 95.7143 250.408 95.3061 250.408 93.4694C250.408 91.8367 251.633 90.8163 253.673 90.8163C254.898 90.8163 256.327 91.2245 257.143 91.4286L256.327 92.8571C255.51 92.449 254.49 92.2449 253.673 92.2449C252.857 92.2449 252.245 92.6531 252.245 93.2653C252.245 93.8776 252.857 94.0816 254.286 94.4898C255.918 94.898 257.347 95.7143 257.347 97.3469Z" fill="#E4EBF2"/>
<path d="M144.694 82.8571L109.184 0H88.1633L123.878 82.8571H144.694Z" fill="#E4EBF2"/>
<path d="M185.918 82.8571L150.204 0H129.388L164.898 82.8571H185.918Z" fill="#E4EBF2"/>
</svg>
