<svg width="528" height="100" viewBox="0 0 528 100" fill="none" xmlns="http://www.w3.org/2000/svg">
<path d="M351.195 100C350.912 100 350.63 99.7222 350.63 99.4444V0.555556C350.63 0.277778 350.912 0 351.195 0C351.478 0 351.761 0.277778 351.761 0.555556V99.1667C351.761 99.7222 351.478 100 351.195 100Z" fill="#E4EBF2"/>
<path d="M0.282709 30.8336H7.06909C7.63462 30.8336 8.48292 30.8336 9.04845 30.5558C9.33121 30.5558 9.61398 30.278 9.89674 29.7224C12.4416 17.778 23.1867 8.88911 35.9112 8.88911H37.325C37.6078 7.50022 37.6078 6.11133 37.6078 4.44467V0.278H35.9112C17.8142 0.278 2.54484 13.6113 0.282709 30.8336Z" fill="#E4EBF2"/>
<path d="M30.2559 90.0002C18.097 87.5002 9.0485 76.9447 9.0485 64.4447V63.0558C7.63468 62.778 6.22085 62.778 4.52425 62.778H0V64.4447C0 82.5002 13.5728 97.2224 31.1042 99.4447V92.778C31.1042 92.2225 31.1042 91.3891 30.8215 90.8336C31.1042 90.278 30.8215 90.0002 30.2559 90.0002Z" fill="#E4EBF2"/>
<path d="M92.1816 69.1667C91.8989 69.1667 91.6161 69.4445 91.3333 70C88.7884 81.9445 78.0434 90.8333 65.3189 90.8333H63.9051C63.6223 92.2222 63.6223 93.6111 63.6223 95.2778V100H65.3189C83.6987 100 98.6852 86.6667 100.947 69.4444H94.161C93.5955 68.8889 92.7472 69.1667 92.1816 69.1667Z" fill="#E4EBF2"/>
<path d="M69.8432 0.556001V7.22267C69.8432 7.77822 69.8432 8.61156 70.1259 9.16711C70.1259 9.44489 70.4087 9.72267 70.9742 10.0004C83.1332 12.5004 92.1817 23.056 92.1817 35.556V36.9449C93.5955 37.2227 95.0093 37.2227 96.7059 37.2227H101.513V35.556C101.23 17.5004 87.6574 2.77822 69.8432 0.556001Z" fill="#E4EBF2"/>
<path d="M41.2838 76.3893C40.1527 74.7227 38.7389 73.056 37.0423 71.3893L28.5593 63.056C26.8627 61.6671 25.4489 60.2782 23.4696 58.8893C17.8142 55.2782 11.3106 53.3338 4.52425 53.3338H0V62.5004H4.80702C11.3106 62.5004 17.5315 65.0004 22.0557 69.4449L30.5387 77.7782C35.063 82.2227 37.6078 88.3338 37.6078 94.7227V99.4449H46.9391V94.7227C47.2219 88.3338 45.2425 81.9449 41.2838 76.3893Z" fill="#E4EBF2"/>
<path d="M44.9598 30.2781C44.1115 31.3892 43.2632 32.2226 42.1321 33.3337L33.6492 41.667C32.8009 42.5003 31.6698 43.6115 30.5387 44.4448C27.7111 46.667 24.6006 48.6115 21.2075 50.0003C16.1177 52.2226 10.4624 53.3337 4.80705 53.3337C11.5934 53.3337 18.097 55.2781 23.7523 58.8892C26.0145 58.0559 28.5594 56.667 30.8215 55.5559C33.6492 53.8892 36.194 51.9448 38.4562 50.0003C39.0217 49.4448 39.87 48.8892 40.4355 48.3337L48.9185 40.0003C49.484 39.4448 50.0496 38.8892 50.6151 38.0559C48.353 35.5559 46.3736 33.0559 44.9598 30.2781Z" fill="#E4EBF2"/>
<path d="M37.6078 0.278L37.6078 5.00022C37.6078 11.3891 35.063 17.5002 30.5387 21.9447L22.0557 30.278C17.5315 34.7224 11.3106 37.2224 4.80702 37.2224H0V46.3891H4.80702C11.5934 46.3891 18.097 44.4447 23.7523 40.8336C25.4489 39.7224 27.1455 38.3336 28.8421 36.6669L37.3251 28.3336C38.7389 26.9447 40.1527 25.278 41.5666 23.3336C45.2425 17.778 47.2219 11.3891 47.2219 4.72245V0.278H37.6078Z" fill="#E4EBF2"/>
<path d="M67.581 41.6668L59.0981 33.3335C58.2498 32.5001 57.1187 31.389 56.2704 30.2779C54.0083 27.5001 52.0289 24.4446 50.6151 21.1112C48.353 16.1112 47.2219 10.5557 47.2219 5.00011C47.2219 11.6668 45.2425 18.0557 41.5666 23.6112C42.4149 25.8334 43.8287 28.3334 44.9598 30.5557C46.6564 33.3334 48.6357 35.8337 50.6151 38.0559C51.1806 38.6114 51.7462 39.4446 52.3117 40.0001L60.7947 48.3334C61.3602 48.889 61.9257 49.4446 62.774 50.0001C65.3189 47.7779 67.8638 45.8335 70.4087 44.4446C69.5604 43.6112 68.4293 42.5001 67.581 41.6668Z" fill="#E4EBF2"/>
<path d="M96.4231 37.2224C89.9195 37.2224 83.6987 34.7224 79.1744 30.278L70.6915 21.9447C66.1672 17.5002 63.6223 11.3891 63.6223 5.00022V0.278H54.291V5.00022C54.291 11.6669 56.2704 18.0558 59.9464 23.6113C61.0774 25.278 62.4913 26.9447 64.1879 28.6113L72.6708 36.9447C74.3674 38.3336 75.7812 39.7224 77.7606 41.1113C83.4159 44.7224 89.9195 46.6669 96.7059 46.6669H101.513V37.5002H96.4231V37.2224Z" fill="#E4EBF2"/>
<path d="M96.4232 46.6668C89.6368 46.6668 83.1332 44.7223 77.4779 41.1112C75.2158 41.9446 72.6708 43.3335 70.4087 44.4446C67.581 46.1112 65.0362 48.0557 62.774 50.0001C62.2085 50.5557 61.3602 51.1112 60.7947 51.6668L52.3117 60.0001C51.7462 60.5557 51.1807 61.1112 50.6151 61.9446C52.8773 64.4446 54.8566 66.9446 56.2704 69.4446C57.1187 68.3335 57.967 67.5001 59.0981 66.389L67.5811 58.0557C68.4294 57.2223 69.5604 56.1112 70.6915 55.2779C73.5192 53.0557 76.6296 51.1112 80.0228 49.7223C85.1125 47.7779 90.7679 46.6668 96.4232 46.6668Z" fill="#E4EBF2"/>
<path d="M96.4231 53.3338C89.6367 53.3338 83.1331 55.2782 77.4778 58.8893C75.7812 60.0004 74.0846 61.3893 72.388 63.056L63.905 71.3893C62.4912 72.7782 61.0773 74.4449 59.6635 76.3893C55.9876 81.9449 54.0082 88.3338 54.0082 95.0005V99.7227H63.3395V95.0005C63.3395 88.6116 65.8844 82.5005 70.4086 78.056L78.8916 69.7227C83.4158 65.2782 89.6367 62.7782 96.1403 62.7782H100.947V53.6116H96.4231V53.3338Z" fill="#E4EBF2"/>
<path d="M56.2704 69.7224C54.5739 66.9447 52.5945 64.4447 50.6151 62.2224C50.0496 61.6669 49.4841 60.8336 48.9185 60.278L40.4356 51.9447C39.87 51.3891 39.3045 50.8336 38.4562 50.278C35.9113 52.5002 33.3664 54.4447 30.8215 55.8336C31.9526 56.6669 32.8009 57.5002 33.9319 58.6113L42.4149 66.9447C43.2632 67.778 44.3943 68.8891 45.2426 70.0002C47.5047 72.778 49.4841 75.8336 50.8979 79.1669C53.16 84.1669 54.2911 89.7224 54.2911 95.278C54.2911 88.6113 56.2705 82.2224 59.9464 76.6669C58.8153 74.1669 57.6843 71.6669 56.2704 69.7224Z" fill="#E4EBF2"/>
<path d="M288.421 38.0556C289.269 38.0556 290.118 37.5 290.4 36.6667L292.097 32.5C292.38 32.2222 292.097 31.9444 291.814 31.9444H281.352C280.504 31.9444 279.655 32.2222 279.09 33.3333L277.676 37.5C277.676 37.7778 277.676 38.0556 277.959 38.0556H288.421ZM154.39 32.5H146.755C145.342 32.5 144.493 33.0556 143.645 34.1667L137.707 47.2222L131.486 34.1667C130.921 32.7778 129.789 32.5 128.376 32.5H121.307C120.458 32.5 120.175 32.7778 120.741 33.6111L132.617 56.6667V69.4444C132.617 70 132.9 70.2778 133.465 70.2778H141.948C142.514 70.2778 142.797 70 142.797 69.4444V56.6667L155.238 33.6111C155.521 32.7778 155.238 32.5 154.39 32.5ZM180.687 41.3889H174.466C173.335 41.3889 172.204 42.2222 172.204 43.6111V63.0556H168.811C166.549 63.0556 165.135 62.7778 164.57 61.9444C164.004 60.8333 163.721 59.1667 163.721 55.5556V42.2222C163.721 41.6667 163.439 41.3889 162.873 41.3889H156.652C155.521 41.3889 154.39 42.5 154.39 43.6111V58.3333C154.39 63.6111 154.956 66.3889 156.935 68.3333C158.914 70.2778 161.742 70.8333 167.115 70.8333C172.77 70.8333 177.011 70.5556 180.405 70C180.97 69.7222 181.253 69.7222 181.253 69.1667V42.5C181.536 41.6667 181.253 41.3889 180.687 41.3889ZM208.964 41.9445C206.702 41.3889 204.44 41.3889 200.764 41.3889C193.695 41.6667 190.301 42.2222 188.605 45.8333C187.474 48.3333 187.191 51.1111 187.191 56.1111C187.191 61.1111 187.474 63.8889 188.605 66.3889C190.584 70 193.695 70.8333 200.764 70.8333C204.44 70.8333 206.702 70.5555 208.964 70.2778C210.095 70 210.66 69.1667 210.66 68.0555V63.8889C210.66 63.3333 210.378 63.0556 209.812 63.0556H201.046C199.067 63.0556 197.936 62.5 197.088 61.6667C196.522 60.8333 196.239 58.8889 196.239 56.1111C196.239 53.3333 196.522 51.3889 197.088 50.5556C197.653 49.7222 199.067 49.1667 201.046 49.1667H209.812C210.378 49.1667 210.66 48.8889 210.66 48.3333V44.4444C210.66 43.0556 210.378 42.2222 208.964 41.9445ZM327.443 43.6111C325.463 41.6667 322.636 41.1111 317.263 41.1111C311.042 41.1111 306.518 41.3889 303.973 41.9445C303.408 41.9445 303.125 42.2222 303.125 42.7778V69.4444C303.125 70 303.408 70.2778 303.973 70.2778H311.608C312.173 70.2778 312.456 70 312.456 69.4444V48.6111H315.849C318.394 48.6111 319.243 48.6111 320.091 49.7222C320.939 50.8333 320.939 52.2222 320.939 56.1111V69.4444C320.939 70 321.222 70.2778 321.787 70.2778H329.422C329.988 70.2778 330.27 70 330.27 69.4444V53.6111C329.988 48.3333 329.705 45.5556 327.443 43.6111ZM283.614 41.1111C280.221 41.1111 277.11 41.3889 274.566 41.6667C273.435 41.9444 272.869 42.5 272.869 43.8889V47.7778C272.869 48.3333 273.152 48.6111 273.434 48.6111H283.614C286.159 48.6111 287.573 49.7222 287.573 51.6667V52.7778H281.917C277.959 52.7778 275.131 53.3333 273.152 54.4444C271.455 55.5556 270.607 57.7778 270.324 61.3889C270.607 66.6667 271.738 68.8889 275.131 69.7222C276.262 70 277.393 70.2778 278.524 70.2778C279.655 70.2778 281.069 70.5556 283.049 70.5556C287.573 70.5556 291.532 70.2778 294.925 69.4444C295.773 69.1667 296.056 68.6111 296.056 67.7778V50.2778C296.621 45 294.925 41.3889 283.614 41.1111ZM287.573 63.0556C286.442 63.3333 285.028 63.3333 283.049 63.3333C280.221 63.3333 279.373 62.7778 279.373 60.8333C279.373 58.8889 280.221 58.0556 282.766 58.0556H287.573V63.0556ZM228.192 41.1111C224.799 41.1111 221.688 41.3889 219.143 41.6667C218.012 41.9444 217.447 42.5 217.447 43.8889V47.7778C217.447 48.3333 217.73 48.6111 218.012 48.6111H228.192C230.737 48.6111 232.151 49.7222 232.151 51.6667V52.7778H226.495C222.537 52.7778 219.709 53.3333 217.73 54.4444C216.033 55.5556 215.185 57.7778 214.902 61.3889C215.185 66.6667 216.316 68.8889 219.709 69.7222C220.84 70 221.971 70.2778 223.102 70.2778C224.233 70.2778 225.647 70.5556 227.626 70.5556C232.151 70.5556 236.109 70.2778 239.503 69.4444C240.351 69.1667 240.634 68.6111 240.634 67.7778V50.2778C241.199 45 239.503 41.3889 228.192 41.1111ZM232.151 63.0556C231.02 63.3333 229.606 63.3333 227.626 63.3333C224.799 63.3333 223.95 62.7778 223.95 60.8333C223.95 58.8889 224.799 58.0556 227.344 58.0556H232.151V63.0556ZM264.386 62.7778H262.407C260.145 62.7778 259.296 62.2222 259.296 60V47.2222H263.82C264.386 47.2222 264.669 46.9444 264.669 46.3889V41.1111C264.669 40.5556 264.386 40.2778 263.82 40.2778H259.296V33.3333C259.296 32.7778 258.731 32.5 258.448 32.5H252.51C251.096 32.5 249.965 33.0556 249.965 35.2778V40.2778H246.855C246.289 40.2778 246.006 40.5556 246.006 41.1111V46.3889C246.006 46.9444 246.289 47.2222 246.855 47.2222H249.965V63.3333C249.965 66.6667 250.813 68.6111 252.793 69.7222C253.924 70.2778 254.772 70.2778 255.62 70.5556C256.469 70.5556 257.6 70.8333 259.296 70.8333C260.71 70.8333 262.407 70.5555 264.669 70.2778C265.234 70.2778 265.517 69.7222 265.517 69.1667V63.6111C265.234 63.0556 264.952 62.7778 264.386 62.7778Z" fill="#E4EBF2"/>
<path d="M131.769 11.9446C132.052 11.9446 132.052 11.9446 132.052 12.2223V19.1668C132.052 21.9446 131.486 23.889 130.638 25.0001C129.789 26.1112 128.093 26.6668 125.548 26.6668C124.417 26.6668 123.286 26.6668 122.438 26.389C122.155 26.389 121.872 26.1112 121.872 25.8334V24.1668C121.872 23.889 121.872 23.889 122.155 23.889H125.548C126.962 23.889 127.81 23.6112 128.093 23.0557C128.658 22.5001 128.658 21.1112 128.658 19.1668V12.2223C128.658 11.9446 128.658 11.9446 128.941 11.9446H131.769Z" fill="#E4EBF2"/>
<path d="M143.645 15.8338C143.928 15.8338 143.928 15.8338 143.928 16.1116V26.1116C143.928 26.3893 143.928 26.3893 143.645 26.3893C142.514 26.6671 140.817 26.6671 138.838 26.6671C136.859 26.6671 136.01 26.3893 135.162 25.8338C134.314 25.2782 134.314 24.1671 134.314 21.9449V16.1116C134.314 15.8338 134.314 15.8338 134.596 15.8338H136.859C137.141 15.8338 137.141 15.8338 137.141 16.1116V21.3893C137.141 22.2227 137.141 23.056 137.424 23.3338C137.707 24.1671 137.99 24.1671 139.404 24.1671H141.1V16.1116C141.1 15.8338 141.1 15.8338 141.383 15.8338H143.645Z" fill="#E4EBF2"/>
<path d="M154.956 16.6669C155.804 17.2224 155.804 18.3336 155.804 20.5558V26.3891C155.804 26.6669 155.804 26.6669 155.521 26.6669H153.259C152.976 26.6669 152.976 26.6669 152.976 26.3891V21.1113C152.976 19.7224 152.976 19.1669 152.693 18.6113C152.411 18.3336 152.128 18.0558 150.997 18.0558H149.3V26.1113C149.3 26.3891 149.3 26.3891 149.018 26.3891H146.755C146.473 26.3891 146.473 26.3891 146.473 26.1113V16.3891C146.473 16.1113 146.473 16.1113 146.755 16.1113C147.886 15.8336 149.3 15.8336 151.28 15.8336C153.259 15.5558 154.107 15.8336 154.956 16.6669Z" fill="#E4EBF2"/>
<path d="M161.459 12.778C161.742 12.778 161.742 12.778 161.742 13.0558V15.8336H163.438C163.721 15.8336 163.721 15.8336 163.721 16.1113V17.778C163.721 18.0558 163.721 18.0558 163.438 18.0558H161.742V23.3336C161.742 24.1669 162.025 24.4447 162.873 24.4447H163.721C164.004 24.4447 164.004 24.4447 164.004 24.7224V26.3891C164.004 26.6669 164.004 26.6669 163.721 26.6669C163.156 26.6669 162.59 26.9447 162.025 26.9447C161.176 26.9447 160.894 26.9447 160.328 26.6669C159.48 26.3891 158.914 25.8336 158.914 24.4447V18.0558H157.783C157.5 18.0558 157.5 18.0558 157.5 17.778V16.1113C157.5 15.8336 157.5 15.8336 157.783 15.8336H158.914V13.6113C158.914 13.3336 158.914 13.3336 159.197 13.3336L161.459 12.778Z" fill="#E4EBF2"/>
<path d="M174.184 16.6669C175.032 17.5002 175.032 18.6113 175.032 21.1113C175.032 23.3336 174.749 24.7224 174.184 25.5558C173.618 26.3891 172.204 26.6669 170.225 26.6669C168.246 26.6669 166.832 26.3891 166.266 25.5558C165.701 24.7224 165.418 23.3336 165.418 21.1113C165.418 18.8891 165.701 17.5002 166.266 16.6669C166.832 15.8336 168.246 15.5558 170.225 15.5558C172.204 15.5558 173.335 15.8336 174.184 16.6669ZM168.528 18.6113C168.246 18.8891 168.246 19.7224 168.246 21.1113C168.246 22.2224 168.246 23.0558 168.528 23.6113C168.811 23.8891 169.377 24.1669 170.225 24.1669C171.073 24.1669 171.639 23.8891 171.922 23.6113C172.204 23.3336 172.204 22.5002 172.204 21.1113C172.204 20.0002 172.204 19.1669 171.922 18.6113C171.639 18.3336 171.073 18.0558 170.225 18.0558C169.377 18.0558 168.811 18.3336 168.528 18.6113Z" fill="#E4EBF2"/>
<path d="M184.363 15.8336C184.646 15.8336 184.646 16.1113 184.646 16.1113V17.5002C184.646 17.778 184.646 17.778 184.363 17.778H180.97C180.122 17.778 179.839 18.0558 179.839 18.3336V18.6113C179.839 18.8891 180.122 19.1669 180.687 19.4447L183.232 20.278C184.929 20.8336 185.212 21.6669 185.212 23.0558V23.3336C185.212 25.5558 183.798 26.1113 180.97 26.1113C179.556 26.1113 178.142 26.1113 177.011 25.8336C176.729 25.8336 176.729 25.8336 176.729 25.5558V24.4447C176.729 24.1669 176.729 24.1669 177.011 24.1669H180.97C182.101 24.1669 182.384 24.1669 182.384 23.6113V23.3336C182.384 23.0558 182.101 22.778 181.253 22.5002L178.991 21.6669C177.577 21.1113 177.011 20.278 177.011 18.8891V18.3336C177.011 16.3891 178.425 15.5558 181.536 15.5558C182.384 15.5558 183.515 15.8336 184.363 15.8336Z" fill="#E4EBF2"/>
<path d="M193.694 12.778C193.977 12.778 193.977 12.778 193.977 13.0558V15.8336H195.674C195.957 15.8336 195.957 15.8336 195.957 16.1113V17.778C195.957 18.0558 195.957 18.0558 195.674 18.0558H193.977V23.3336C193.977 24.1669 194.26 24.4447 195.108 24.4447H195.957C196.239 24.4447 196.239 24.4447 196.239 24.7224V26.3891C196.239 26.6669 196.239 26.6669 195.957 26.6669C195.391 26.6669 194.826 26.9447 194.26 26.9447C193.412 26.9447 193.129 26.9447 192.563 26.6669C191.715 26.3891 191.15 25.8336 191.15 24.4447V18.0558H190.019C189.736 18.0558 189.736 18.0558 189.736 17.778V16.1113C189.736 15.8336 189.736 15.8336 190.019 15.8336H191.15V13.6113C191.15 13.3336 191.15 13.3336 191.432 13.3336L193.694 12.778Z" fill="#E4EBF2"/>
<path d="M203.874 15.8336C204.157 15.8336 204.157 16.1113 204.157 16.1113V17.778C204.157 18.0558 204.157 18.0558 203.874 18.0558H202.178C201.046 18.0558 200.764 18.3336 200.764 19.1669V26.3891C200.764 26.6669 200.764 26.6669 200.481 26.6669H198.219C197.936 26.6669 197.936 26.6669 197.936 26.3891V18.3336C197.936 17.5002 198.219 16.6669 198.784 16.3891C199.633 15.8336 200.481 15.5558 201.612 15.5558C202.46 15.5558 203.309 15.8336 203.874 15.8336Z" fill="#E4EBF2"/>
<path d="M212.923 16.3892C213.488 16.9447 214.054 17.7781 214.054 18.8892V25.5558C214.054 25.8336 214.054 26.1114 213.488 26.1114C212.357 26.3892 210.943 26.3892 208.964 26.3892C207.267 26.3892 206.419 26.3892 205.571 25.8336C204.722 25.2781 204.44 24.4447 204.44 23.0558C204.44 21.9447 204.722 21.1114 205.288 20.5558C205.853 20.0003 206.984 20.0003 208.398 20.0003H210.943V19.4447C210.943 18.6114 210.378 18.0558 209.247 18.0558H205.853C205.571 18.0558 205.571 18.0558 205.571 17.7781V16.3892C205.571 16.1114 205.571 16.1114 205.853 16.1114C206.985 15.8336 208.116 15.8336 209.247 15.8336C211.226 15.5558 212.357 15.8336 212.923 16.3892ZM211.226 21.9447H208.964C207.833 21.9447 207.55 22.2225 207.55 23.0558C207.55 23.8892 207.833 24.1669 209.247 24.1669C210.095 24.1669 210.66 24.1669 211.226 23.8892V21.9447Z" fill="#E4EBF2"/>
<path d="M225.081 16.6669C225.93 17.2224 225.93 18.3336 225.93 20.5558V26.3891C225.93 26.6669 225.93 26.6669 225.647 26.6669H223.385C223.102 26.6669 223.102 26.6669 223.102 26.3891V21.1113C223.102 19.7224 223.102 19.1669 222.819 18.6113C222.537 18.3336 222.254 18.0558 221.123 18.0558H219.426V26.1113C219.426 26.3891 219.426 26.3891 219.143 26.3891H216.881C216.599 26.3891 216.599 26.3891 216.599 26.1113V16.3891C216.599 16.1113 216.599 16.1113 216.881 16.1113C218.012 15.8336 219.426 15.8336 221.406 15.8336C223.102 15.5558 224.233 15.8336 225.081 16.6669Z" fill="#E4EBF2"/>
<path d="M235.544 15.8336C235.827 15.8336 235.827 16.1113 235.827 16.1113V17.5002C235.827 17.778 235.827 17.778 235.544 17.778H231.868C231.02 17.778 230.737 18.0558 230.737 18.3336V18.6113C230.737 18.8891 231.02 19.1669 231.585 19.4447L234.13 20.278C235.827 20.8336 236.109 21.6669 236.109 23.0558V23.3336C236.109 25.5558 234.696 26.1113 231.868 26.1113C230.454 26.1113 229.04 26.1113 227.909 25.8336C227.626 25.8336 227.626 25.8336 227.626 25.5558V24.4447C227.626 24.1669 227.626 24.1669 227.909 24.1669H231.868C232.999 24.1669 233.282 24.1669 233.282 23.6113V23.3336C233.282 23.0558 232.999 22.778 232.151 22.5002L229.889 21.6669C228.475 21.1113 227.909 20.278 227.909 18.8891V18.3336C227.909 16.3891 229.323 15.5558 232.433 15.5558C233.565 15.5558 234.413 15.8336 235.544 15.8336Z" fill="#E4EBF2"/>
<path d="M244.31 11.6669C244.592 11.6669 244.592 11.9447 244.592 11.9447V13.6113C244.592 13.8891 244.592 13.8891 244.31 13.8891H242.896C242.047 13.8891 241.765 13.8891 241.765 14.7224V15.8336H244.027C244.31 15.8336 244.31 15.8336 244.31 16.1113L244.027 17.778C244.027 18.0558 243.744 18.0558 243.744 18.0558H241.765V26.3891C241.765 26.6669 241.765 26.6669 241.482 26.6669H239.22C238.937 26.6669 238.937 26.6669 238.937 26.3891V18.0558H237.523C237.24 18.0558 237.24 18.0558 237.24 17.778V16.1113C237.24 15.8336 237.24 15.8336 237.523 15.8336H238.654V14.1669C238.654 13.0558 238.937 12.2224 239.785 11.9447C240.351 11.6669 241.199 11.3891 242.047 11.3891C243.178 11.6669 243.744 11.6669 244.31 11.6669Z" fill="#E4EBF2"/>
<path d="M253.924 16.6669C254.772 17.5002 254.772 18.6113 254.772 21.1113C254.772 23.3336 254.489 24.7224 253.924 25.5558C253.358 26.3891 251.944 26.6669 249.965 26.6669C247.985 26.6669 246.572 26.3891 246.006 25.5558C245.441 24.7224 245.158 23.3336 245.158 21.1113C245.158 18.8891 245.441 17.5002 246.006 16.6669C246.572 15.8336 247.985 15.5558 249.965 15.5558C251.944 15.5558 253.075 15.8336 253.924 16.6669ZM248.268 18.6113C247.985 18.8891 247.985 19.7224 247.985 21.1113C247.985 22.2224 247.985 23.0558 248.268 23.6113C248.551 23.8891 249.117 24.1669 249.965 24.1669C250.813 24.1669 251.379 23.8891 251.661 23.6113C251.944 23.3336 251.944 22.5002 251.944 21.1113C251.944 20.0002 251.944 19.1669 251.661 18.6113C251.379 18.3336 250.813 18.0558 249.965 18.0558C249.117 18.0558 248.551 18.3336 248.268 18.6113Z" fill="#E4EBF2"/>
<path d="M262.972 15.8336C263.255 15.8336 263.255 16.1113 263.255 16.1113V17.778C263.255 18.0558 263.255 18.0558 262.972 18.0558H261.275C260.144 18.0558 259.862 18.3336 259.862 19.1669V26.3891C259.862 26.6669 259.862 26.6669 259.579 26.6669H257.317C257.034 26.6669 257.034 26.6669 257.034 26.3891V18.3336C257.034 17.5002 257.317 16.6669 257.882 16.3891C258.731 15.8336 259.579 15.5558 260.71 15.5558C261.558 15.5558 262.407 15.8336 262.972 15.8336Z" fill="#E4EBF2"/>
<path d="M278.807 16.6669C279.373 17.2224 279.655 18.3336 279.655 20.0002V26.3891C279.655 26.6669 279.655 26.6669 279.373 26.6669H277.11C276.828 26.6669 276.828 26.6669 276.828 26.3891V21.1113C276.828 18.3336 276.545 18.3336 274.848 18.3336C274.283 18.3336 273.717 18.3336 273.152 18.3336C273.434 18.8891 273.434 19.4447 273.434 20.278V26.1113C273.434 26.3891 273.434 26.3891 273.152 26.3891H270.89C270.607 26.3891 270.607 26.3891 270.607 26.1113V20.278C270.607 19.1669 270.607 18.6113 270.324 18.3336C270.041 18.0558 269.758 18.0558 268.91 18.0558H267.496V26.1113C267.496 26.3891 267.496 26.3891 267.214 26.3891H264.951C264.669 26.3891 264.669 26.3891 264.669 26.1113V16.3891C264.669 16.1113 264.669 16.1113 264.951 16.1113C266.083 15.8336 267.214 15.8336 268.627 15.8336C270.041 15.8336 271.172 16.1113 272.021 16.3891C273.152 15.8336 274.283 15.8336 275.414 15.8336C277.11 15.5558 278.241 15.8336 278.807 16.6669Z" fill="#E4EBF2"/>
<path d="M290.4 16.6667C290.966 17.5 291.249 18.8889 291.249 20.8333V21.3889C291.249 21.6667 291.249 21.9444 290.683 21.9444H284.462C284.462 22.7778 284.745 23.3333 285.028 23.6111C285.311 23.8889 285.876 23.8889 286.724 23.8889H290.118C290.4 23.8889 290.4 23.8889 290.4 24.1667V25.8333C290.4 26.1111 290.4 26.1111 290.118 26.1111C289.269 26.3889 288.138 26.3889 286.442 26.3889C284.462 26.3889 283.048 26.1111 282.483 25.2778C281.917 24.4444 281.635 23.0556 281.635 20.8333C281.635 18.6111 281.917 17.2222 282.483 16.3889C283.048 15.5556 284.462 15.2778 286.442 15.2778C288.421 15.5556 289.835 16.1111 290.4 16.6667ZM284.745 20.2778H288.704C288.704 18.6111 288.138 18.0556 286.724 18.0556C285.028 18.0556 284.745 18.6111 284.745 20.2778Z" fill="#E4EBF2"/>
<path d="M307.366 16.6669C307.932 17.2224 308.215 18.3336 308.215 20.0002V26.3891C308.215 26.6669 308.215 26.6669 307.932 26.6669H305.67C305.387 26.6669 305.387 26.6669 305.387 26.3891V21.1113C305.387 18.3336 305.104 18.3336 303.408 18.3336C302.842 18.3336 302.276 18.3336 301.711 18.3336C301.994 18.8891 301.994 19.4447 301.994 20.278V26.1113C301.994 26.3891 301.994 26.3891 301.711 26.3891H299.449C299.166 26.3891 299.166 26.3891 299.166 26.1113V20.278C299.166 19.1669 299.166 18.6113 298.883 18.3336C298.601 18.0558 298.318 18.0558 297.469 18.0558H296.056V26.1113C296.056 26.3891 296.056 26.3891 295.773 26.3891H293.511C293.228 26.3891 293.228 26.3891 293.228 26.1113V16.3891C293.228 16.1113 293.228 16.1113 293.511 16.1113C294.642 15.8336 295.773 15.8336 297.187 15.8336C298.601 15.8336 299.732 16.1113 300.58 16.3891C301.711 15.8336 302.842 15.8336 303.973 15.8336C305.67 15.5558 306.801 15.8336 307.366 16.6669Z" fill="#E4EBF2"/>
<path d="M319.243 16.6669C320.091 17.5002 320.091 18.6113 320.091 21.1113C320.091 23.3336 319.808 24.7224 319.243 25.5558C318.677 26.3891 317.263 26.6669 315.284 26.6669C313.304 26.6669 311.891 26.3891 311.325 25.5558C310.76 24.7224 310.477 23.3336 310.477 21.1113C310.477 18.8891 310.76 17.5002 311.325 16.6669C311.891 15.8336 313.304 15.5558 315.284 15.5558C317.263 15.5558 318.394 15.8336 319.243 16.6669ZM313.587 18.6113C313.304 18.8891 313.304 19.7224 313.304 21.1113C313.304 22.2224 313.304 23.0558 313.587 23.6113C313.87 23.8891 314.435 24.1669 315.284 24.1669C316.132 24.1669 316.698 23.8891 316.98 23.6113C317.263 23.3336 317.263 22.5002 317.263 21.1113C317.263 20.0002 317.263 19.1669 316.98 18.6113C316.698 18.3336 316.132 18.0558 315.284 18.0558C314.435 18.0558 313.87 18.3336 313.587 18.6113Z" fill="#E4EBF2"/>
<path d="M329.422 15.8336C329.705 15.8336 329.705 16.1113 329.705 16.1113V17.5002C329.705 17.778 329.705 17.778 329.422 17.778H326.029C325.181 17.778 324.898 18.0558 324.898 18.3336V18.6113C324.898 18.8891 325.181 19.1669 325.746 19.4447L328.291 20.278C329.988 20.8336 330.27 21.6669 330.27 23.0558V23.3336C330.27 25.5558 328.857 26.1113 326.029 26.1113C324.615 26.1113 323.201 26.1113 322.07 25.8336C321.787 25.8336 321.787 25.8336 321.787 25.5558V24.4447C321.787 24.1669 321.787 24.1669 322.07 24.1669H326.029C327.16 24.1669 327.443 24.1669 327.443 23.6113V23.3336C327.443 23.0558 327.16 22.778 326.312 22.5002L324.05 21.6669C322.636 21.1113 322.07 20.278 322.07 18.8891V18.3336C322.07 16.3891 323.484 15.5558 326.594 15.5558C327.443 15.5558 328.574 15.8336 329.422 15.8336Z" fill="#E4EBF2"/>
<path d="M130.921 91.3892C130.638 91.667 130.072 91.667 129.789 91.667C128.941 91.667 128.376 91.667 127.81 91.3892C127.245 91.1115 126.679 90.8337 126.396 90.2781C126.113 89.7226 125.831 89.4448 125.548 88.6115C125.265 88.0559 125.265 87.5003 125.265 86.667C125.265 86.1114 125.265 85.2781 125.548 84.7225C125.831 84.167 126.113 83.6115 126.396 83.0559C126.679 82.5003 127.245 82.2225 127.81 81.9448C128.376 81.667 128.941 81.667 129.789 81.667C130.355 81.667 130.638 81.667 131.203 81.9448C131.769 82.2225 132.052 82.2225 132.334 82.5003C132.617 82.7781 132.9 83.0559 133.183 83.6115C133.465 83.8892 133.465 84.4448 133.748 85.0003H131.769C131.769 84.4448 131.486 84.167 130.921 83.8892C130.638 83.6114 130.072 83.6115 129.507 83.6115C128.941 83.6115 128.658 83.6114 128.376 83.8892C128.093 84.167 127.81 84.4448 127.527 84.7225C127.245 85.0003 127.245 85.2781 126.962 85.8337C126.962 86.1115 126.962 86.667 126.962 86.9448C126.962 87.2226 126.962 87.7781 126.962 88.0559C126.962 88.3337 127.245 88.8892 127.527 89.167C127.81 89.4448 128.093 89.7226 128.376 90.0003C128.658 90.2781 129.224 90.2781 129.507 90.2781C130.072 90.2781 130.638 90.0003 131.203 89.7226C131.486 89.4448 131.769 88.8892 131.769 88.3337H129.789V86.9448H133.748V91.9448H132.334L132.052 90.8337C131.769 90.8337 131.486 91.3892 130.921 91.3892Z" fill="#E4EBF2"/>
<path d="M135.445 85.0006C135.728 84.445 136.01 83.8894 136.293 83.3339C136.576 82.7783 137.141 82.5006 137.707 82.2228C138.272 81.945 138.838 81.945 139.686 81.945C140.535 81.945 141.1 81.945 141.666 82.2228C142.231 82.5006 142.797 82.7783 143.079 83.3339C143.362 83.8894 143.645 84.1672 143.928 85.0006C144.211 85.5561 144.211 86.1117 144.211 86.945C144.211 87.5006 144.211 88.3339 143.928 88.8894C143.645 89.445 143.362 90.0006 143.079 90.5561C142.797 91.1117 142.231 91.3894 141.666 91.6672C141.1 91.6672 140.535 91.6672 139.686 91.6672C138.838 91.6672 138.272 91.6672 137.707 91.3895C137.141 91.1117 136.576 90.8339 136.293 90.2783C136.01 89.7228 135.728 89.445 135.445 88.6117C135.162 88.0561 135.162 87.5006 135.162 86.6672C135.162 86.1117 135.162 85.5561 135.445 85.0006ZM137.424 88.0561C137.424 88.3339 137.707 88.8894 137.99 89.1672C138.272 89.445 138.555 89.7228 138.838 90.0006C139.121 90.2783 139.686 90.2783 139.969 90.2783C140.535 90.2783 140.817 90.2783 141.1 90.0006C141.383 89.7228 141.666 89.7228 141.948 89.1672C142.231 88.8894 142.231 88.6117 142.514 88.0561C142.514 87.7783 142.514 87.2228 142.514 86.945C142.514 86.6672 142.514 86.1117 142.514 85.8339C142.514 85.5561 142.231 85.0006 141.948 84.7228C141.666 84.445 141.383 84.1672 141.1 83.8895C140.817 83.6117 140.252 83.6117 139.969 83.6117C139.403 83.6117 139.121 83.6117 138.838 83.8895C138.555 84.1672 138.272 84.445 137.99 84.7228C137.707 85.0006 137.707 85.2783 137.424 85.8339C137.424 86.1117 137.424 86.6672 137.424 86.945C137.141 87.2228 137.141 87.7783 137.424 88.0561Z" fill="#E4EBF2"/>
<path d="M150.431 82.2228C150.997 82.2228 151.28 82.2228 151.562 82.2228C151.845 82.2228 152.128 82.5006 152.411 82.5006C152.694 82.7783 152.976 82.7783 152.976 83.3339C153.259 83.6117 153.259 83.8895 153.259 84.445C153.259 85.0006 153.259 85.2783 152.976 85.5561C152.694 86.1117 152.411 86.1117 152.128 86.3895C152.694 86.6672 153.259 86.945 153.542 87.2228C153.825 87.5006 154.107 88.0561 154.107 88.6117C154.107 89.1672 154.107 89.445 153.825 89.7228C153.542 90.0006 153.259 90.2783 152.976 90.5561C152.694 90.8339 152.411 90.8339 151.845 91.1117C151.562 91.1117 150.997 91.3895 150.714 91.3895H146.19V81.945H150.431V82.2228ZM150.149 85.8339C150.431 85.8339 150.714 85.8339 150.997 85.5561C151.28 85.2783 151.28 85.0006 151.28 84.7228C151.28 84.445 151.28 84.445 151.28 84.1672C151.28 83.8894 150.997 83.8895 150.997 83.8895C150.997 83.8895 150.714 83.8895 150.431 83.6117C150.149 83.6117 150.149 83.6117 149.866 83.6117H147.887V85.8339H150.149ZM150.149 90.0006C150.431 90.0006 150.431 90.0006 150.714 90.0006C150.997 90.0006 150.997 90.0006 151.28 89.7228L151.562 89.445C151.562 89.1672 151.562 89.1672 151.562 88.8894C151.562 88.3339 151.562 88.0561 151.28 87.7783C150.997 87.5006 150.714 87.5006 150.149 87.5006H147.887V90.0006H150.149Z" fill="#E4EBF2"/>
<path d="M157.218 82.2224V91.6669H155.238V82.2224H157.218Z" fill="#E4EBF2"/>
<path d="M166.266 83.8895H161.176V85.8339H165.701V87.5006H161.176V89.7228H166.266V91.3895H159.197V81.945H166.266V83.8895Z" fill="#E4EBF2"/>
<path d="M172.77 82.2224C173.335 82.2224 173.618 82.2225 173.901 82.5002C174.184 82.5002 174.466 82.778 174.749 83.0558C175.032 83.3336 175.315 83.6113 175.315 83.8891C175.315 84.1669 175.597 84.4447 175.597 85.0002C175.597 85.5558 175.597 86.1113 175.315 86.3891C175.032 86.6669 174.749 87.2225 174.184 87.2225C174.466 87.2225 174.749 87.5002 174.749 87.5002C175.032 87.778 175.032 87.778 175.032 88.0558C175.032 88.3336 175.315 88.3336 175.315 88.6113C175.315 88.8891 175.315 89.1669 175.315 89.4447C175.315 89.7225 175.315 89.7225 175.315 90.0002C175.315 90.278 175.315 90.278 175.315 90.5558C175.315 90.8335 175.315 90.8335 175.315 91.1113C175.315 91.3891 175.315 91.3891 175.597 91.6669H173.618C173.618 91.3891 173.335 91.1113 173.335 90.5558C173.335 90.278 173.335 89.7225 173.335 89.4447C173.335 88.8891 173.053 88.6113 172.77 88.3335C172.487 88.0558 172.204 88.0558 171.639 88.0558H169.659V91.6669H167.68V82.2224H172.77ZM172.204 86.3891C172.77 86.3891 173.053 86.3891 173.335 86.1113C173.618 85.8336 173.618 85.5558 173.618 85.0002C173.618 84.4447 173.618 84.1669 173.335 83.8891C173.053 83.6113 172.77 83.6113 172.204 83.6113H169.942V86.1113H172.204V86.3891Z" fill="#E4EBF2"/>
<path d="M179.556 82.2224L183.515 88.6113V82.2224H185.494V91.6669H183.515L179.556 85.5558V91.6669H177.577V82.2224H179.556Z" fill="#E4EBF2"/>
<path d="M187.191 85.0006C187.474 84.445 187.756 83.8894 188.039 83.3339C188.322 82.7783 188.887 82.5006 189.453 82.2228C190.019 81.945 190.584 81.945 191.432 81.945C192.281 81.945 192.846 81.945 193.412 82.2228C193.977 82.5006 194.543 82.7783 194.826 83.3339C195.108 83.8894 195.391 84.1672 195.674 85.0006C195.957 85.5561 195.957 86.1117 195.957 86.945C195.957 87.5006 195.957 88.3339 195.674 88.8894C195.391 89.445 195.108 90.0006 194.826 90.5561C194.543 91.1117 193.977 91.3894 193.412 91.6672C192.846 91.6672 192.281 91.6672 191.432 91.6672C190.584 91.6672 190.019 91.6672 189.453 91.3895C188.887 91.1117 188.322 90.8339 188.039 90.2783C187.756 89.7228 187.191 89.445 187.191 88.6117C186.908 88.0561 186.908 87.5006 186.908 86.6672C186.908 86.1117 186.908 85.5561 187.191 85.0006ZM189.17 88.0561C189.17 88.3339 189.453 88.8894 189.736 89.1672C190.019 89.445 190.301 89.7228 190.584 90.0006C190.867 90.2783 191.432 90.2783 191.715 90.2783C192.281 90.2783 192.563 90.2783 192.846 90.0006C193.129 89.7228 193.412 89.7228 193.694 89.1672C193.977 88.8894 193.977 88.6117 194.26 88.0561C194.26 87.7783 194.26 87.2228 194.26 86.945C194.26 86.6672 194.26 86.1117 194.26 85.8339C194.26 85.5561 193.977 85.0006 193.694 84.7228C193.412 84.445 193.129 84.1672 192.846 83.8895C192.563 83.6117 191.998 83.6117 191.715 83.6117C191.15 83.6117 190.867 83.6117 190.584 83.8895C190.301 84.1672 190.019 84.445 189.736 84.7228C189.453 85.0006 189.453 85.2783 189.17 85.8339C189.17 86.1117 189.17 86.6672 189.17 86.945C188.887 87.2228 188.887 87.7783 189.17 88.0561Z" fill="#E4EBF2"/>
<path d="M208.398 83.8895H203.309V85.8339H207.833V87.5006H203.309V89.7228H208.398V91.3895H201.329V81.945H208.398V83.8895Z" fill="#E4EBF2"/>
<path d="M211.509 89.1672C211.509 89.445 211.792 89.445 212.074 89.7228C212.357 89.7228 212.357 90.0006 212.64 90.0006C212.923 90.0006 213.205 90.0006 213.488 90.0006C213.771 90.0006 213.771 90.0006 214.054 90.0006C214.336 90.0006 214.336 90.0005 214.619 89.7228C214.902 89.7228 214.902 89.445 215.185 89.445C215.185 89.1672 215.467 89.1672 215.467 88.8894C215.467 88.6117 215.468 88.3339 215.185 88.3339C214.902 88.0561 214.902 88.0561 214.619 88.0561C214.336 88.0561 214.054 87.7783 213.771 87.7783C213.488 87.7783 213.205 87.5006 212.64 87.5006C212.357 87.5006 212.074 87.2228 211.509 87.2228C211.226 87.2228 210.943 86.945 210.66 86.6672C210.378 86.3895 210.095 86.1117 210.095 85.8339C209.812 85.5561 209.812 85.2783 209.812 84.7228C209.812 84.1672 209.812 83.8894 210.095 83.6117C210.378 83.3339 210.66 83.0561 210.943 82.7783C211.226 82.5005 211.792 82.5006 212.074 82.2228C212.64 82.2228 212.923 81.945 213.488 81.945C214.054 81.945 214.336 81.945 214.902 82.2228C215.468 82.2228 215.75 82.5005 216.033 82.7783C216.316 83.0561 216.599 83.3339 216.881 83.6117C217.164 83.8894 217.164 84.445 217.164 85.0006H214.902C214.902 84.7228 214.902 84.445 214.619 84.445C214.619 84.1672 214.336 84.1672 214.336 83.8895C214.054 83.8895 214.054 83.6117 213.771 83.6117C213.488 83.6117 213.205 83.6117 212.923 83.6117C212.64 83.6117 212.64 83.6117 212.357 83.6117C212.074 83.6117 212.074 83.6117 211.792 83.8895L211.509 84.1672C211.509 84.1672 211.509 84.445 211.509 84.7228C211.509 85.0006 211.509 85.0006 211.509 85.2783L211.792 85.5561C212.074 85.5561 212.357 85.8339 212.64 85.8339C212.923 85.8339 213.488 86.1117 214.054 86.1117C214.336 86.1117 214.619 86.1117 214.902 86.3895C215.185 86.3895 215.468 86.6672 215.75 86.945C216.033 87.2228 216.316 87.5006 216.599 87.7783C216.881 88.0561 216.881 88.6117 216.881 89.1672C216.881 89.7228 216.881 90.0006 216.599 90.2783C216.316 90.5561 216.316 90.8339 215.75 91.1117C215.468 91.3894 214.902 91.6672 214.619 91.6672C214.619 91.6672 214.054 91.6672 213.205 91.6672C212.64 91.6672 212.074 91.6672 211.792 91.3895C211.226 91.3895 210.943 91.1117 210.378 90.8339C210.095 90.5561 209.812 90.2783 209.529 89.7228C209.247 89.445 209.247 88.8894 209.247 88.3339H211.226C211.226 88.6117 211.226 88.8894 211.509 89.1672Z" fill="#E4EBF2"/>
<path d="M217.73 83.8891V82.2224H225.647V83.8891H222.819V91.3891H220.557V83.8891H217.73Z" fill="#E4EBF2"/>
<path d="M230.171 82.2224L233.847 91.6669H231.585L230.737 89.7224H227.061L226.213 91.6669H224.233L227.909 82.2224H230.171ZM230.171 87.778L229.04 84.4447L227.909 87.778H230.171Z" fill="#E4EBF2"/>
<path d="M232.433 83.8891V82.2224H240.351V83.8891H237.523V91.3891H235.544V83.8891H232.433Z" fill="#E4EBF2"/>
<path d="M244.875 82.2224L248.551 91.6669H246.289L245.441 89.7224H241.765L240.916 91.6669H238.937L242.613 82.2224H244.875ZM245.158 87.778L244.027 84.4447L242.896 87.778H245.158Z" fill="#E4EBF2"/>
<path d="M251.379 89.7228H255.903V91.3895H249.117V81.945H251.379V89.7228Z" fill="#E4EBF2"/>
<path d="M260.71 84.4447C260.993 83.8891 260.993 83.6113 261.276 83.3336C261.558 83.0558 261.841 82.778 262.407 82.5002C262.972 82.2225 263.255 82.2224 263.82 82.2224C264.386 82.2224 264.669 82.2225 264.952 82.5002C265.234 82.5002 265.8 82.778 266.083 83.0558C266.365 83.3336 266.648 83.6113 266.648 83.8891C266.931 84.1669 266.931 84.7224 266.931 85.0002C266.931 85.5558 266.931 85.8336 266.648 86.1113C266.365 86.3891 266.365 86.6669 266.083 86.9447C265.8 87.2224 265.517 87.5002 265.234 87.778C264.952 88.0558 264.669 88.0558 264.386 88.3335C264.103 88.6113 263.82 88.8891 263.538 88.8891C263.255 89.1669 262.972 89.4447 262.689 89.7224H267.214V91.3891H260.145C260.145 90.8336 260.145 90.278 260.427 90.0002C260.71 89.7225 260.71 89.1669 260.993 88.8891C261.276 88.6113 261.558 88.3336 261.841 88.0558C262.124 87.778 262.689 87.5002 262.972 87.2225C263.255 87.2225 263.255 86.9447 263.538 86.6669C263.82 86.3891 264.103 86.3891 264.103 86.1113C264.386 85.8336 264.386 85.8335 264.669 85.5558C264.669 85.278 264.952 85.0002 264.952 84.7225C264.952 84.1669 264.952 83.8891 264.669 83.6113C264.386 83.3336 264.103 83.3336 263.538 83.3336C263.255 83.3336 262.972 83.3336 262.972 83.6113C262.689 83.6113 262.689 83.8891 262.407 84.1669C262.407 84.4447 262.124 84.7225 262.124 84.7225C262.124 85.0002 262.124 85.278 262.124 85.5558H260.427C260.427 85.278 260.427 85.0002 260.71 84.4447Z" fill="#E4EBF2"/>
<path d="M268.062 84.7225C268.345 84.1669 268.627 83.6113 268.91 83.3336C269.193 83.0558 269.476 82.778 270.041 82.5002C270.324 82.2225 270.89 82.2224 271.455 82.2224C272.021 82.2224 272.303 82.2225 272.869 82.5002C273.152 82.778 273.717 83.0558 274 83.3336C274.283 83.6113 274.566 84.1669 274.848 84.7225C275.131 85.278 275.131 86.1113 275.131 86.9447C275.131 87.778 275.131 88.6113 274.848 89.1669C274.566 89.7224 274.283 90.278 274 90.5558C273.717 90.8335 273.434 91.1113 272.869 91.3891C272.021 91.6669 271.455 91.6669 271.172 91.6669C270.607 91.6669 270.324 91.6669 269.758 91.3891C269.476 91.1113 268.91 90.8335 268.627 90.5558C268.345 90.278 268.062 89.7224 267.779 89.1669C267.496 88.6113 267.496 87.778 267.496 86.9447C267.779 86.1113 267.779 85.278 268.062 84.7225ZM269.476 87.778C269.476 88.0558 269.476 88.6113 269.758 88.8891C269.758 89.1669 270.041 89.4447 270.324 89.7224C270.607 90.0002 270.89 90.0002 271.172 90.0002C271.455 90.0002 271.738 90.0002 272.021 89.7224C272.303 89.4447 272.303 89.1669 272.586 88.8891C272.586 88.6113 272.869 88.0558 272.869 87.778C272.869 87.5002 272.869 87.2224 272.869 86.9447C272.869 86.6669 272.869 86.6669 272.869 86.3891C272.869 86.1113 272.869 85.8336 272.869 85.8336C272.869 85.5558 272.869 85.278 272.869 85.0002C272.869 84.7224 272.586 84.4447 272.586 84.4447C272.586 84.1669 272.303 84.1669 272.021 83.8891C271.738 83.8891 271.738 83.6113 271.455 83.6113C271.172 83.6113 270.89 83.6113 270.89 83.8891C270.607 83.8891 270.607 84.1669 270.324 84.4447C270.324 84.7224 270.041 84.7224 270.041 85.0002C270.041 85.278 270.041 85.5558 270.041 85.8336C270.041 86.1113 270.041 86.3891 270.041 86.3891C270.041 86.6669 270.041 86.6669 270.041 86.9447C269.476 87.2224 269.476 87.5002 269.476 87.778Z" fill="#E4EBF2"/>
<path d="M277.959 85.556H275.697V84.1671C275.979 84.1671 276.262 84.1671 276.545 84.1671C276.828 84.1671 277.11 83.8893 277.393 83.8893C277.676 83.6116 277.959 83.6116 277.959 83.3338C278.242 83.056 278.242 82.7782 278.242 82.5004H279.938V91.6671H277.959V85.556Z" fill="#E4EBF2"/>
<path d="M283.048 83.6117C283.331 83.3339 283.614 83.0561 283.897 82.7783C284.179 82.5005 284.462 82.5006 285.028 82.2228C285.311 82.2228 285.876 81.945 286.159 81.945C286.724 81.945 287.29 81.945 287.573 82.2228C287.855 82.5006 288.421 82.5005 288.421 82.7783C288.704 83.0561 288.704 83.3339 288.987 83.6117C288.987 83.8894 289.269 84.1672 289.269 84.445C289.269 85.0006 289.269 85.2783 288.987 85.5561C288.704 85.8339 288.421 86.1117 287.855 86.3895C288.421 86.3895 288.704 86.6672 289.269 87.2228C289.552 87.5006 289.835 88.0561 289.835 88.6117C289.835 89.1672 289.835 89.445 289.552 90.0006C289.269 90.2783 288.987 90.5561 288.704 90.8339C288.421 91.1117 288.138 91.1117 287.573 91.3895C287.29 91.3895 286.724 91.6672 286.159 91.6672C285.593 91.6672 285.311 91.6672 284.745 91.3895C284.462 91.3895 283.897 91.1117 283.614 90.8339C283.331 90.5561 283.048 90.2783 282.766 90.0006C282.483 89.7228 282.483 89.1672 282.483 88.6117C282.483 88.0561 282.766 87.5006 283.048 87.2228C283.331 86.945 283.897 86.6672 284.462 86.3895C283.897 86.3895 283.614 86.1117 283.331 85.5561C283.048 85.2783 283.048 84.7228 283.048 84.445C282.766 84.1672 282.766 83.8894 283.048 83.6117ZM284.462 89.445C284.462 89.7228 284.745 89.7228 284.745 90.0006C285.028 90.2783 285.028 90.2783 285.311 90.2783C285.593 90.2783 285.593 90.2783 285.876 90.2783C286.159 90.2783 286.442 90.2783 286.442 90.2783C286.724 90.2783 286.724 90.0006 287.007 90.0006C287.29 90.0006 287.29 89.7228 287.29 89.445C287.29 89.1672 287.29 89.1672 287.29 88.8894C287.29 88.6117 287.29 88.3339 287.29 88.3339C287.29 88.0561 287.007 88.0561 287.007 87.7783C286.724 87.7783 286.724 87.5006 286.442 87.5006C286.159 87.5006 286.159 87.5006 285.876 87.5006C285.311 87.5006 285.028 87.5006 284.745 87.7783C284.462 88.0561 284.18 88.3339 284.18 88.8894C284.18 88.8894 284.179 89.1672 284.462 89.445ZM284.745 85.8339C285.028 86.1117 285.311 86.1117 285.876 86.1117C286.159 86.1117 286.724 86.1117 287.007 85.8339C287.29 85.5561 287.29 85.2783 287.29 85.0006V84.7228C287.29 84.445 287.29 84.445 287.007 84.445C287.007 84.445 286.724 84.1672 286.442 84.1672C286.159 84.1672 286.159 84.1672 285.593 84.1672C285.311 84.1672 285.311 84.1672 285.028 84.1672C284.745 84.1672 284.745 84.445 284.462 84.445L284.18 84.7228C284.18 85.0006 284.18 85.0006 284.18 85.2783C284.462 85.2783 284.462 85.5561 284.745 85.8339Z" fill="#E4EBF2"/>
<path d="M294.359 86.9449C294.642 86.6671 294.925 86.6671 295.207 86.6671C295.49 86.6671 295.49 86.6671 295.773 86.6671C295.773 86.6671 296.056 86.6671 296.056 86.9449L296.339 87.2227C296.339 87.2227 296.339 87.5004 296.339 87.7782C296.339 88.056 296.339 88.056 296.339 88.056L295.773 88.6115C295.773 88.6115 295.49 88.6115 295.207 88.6115C294.925 88.6115 294.925 88.6115 294.642 88.6115C294.642 88.6115 294.359 88.6116 294.359 88.3338L294.076 88.056C294.076 88.056 294.076 87.7782 294.076 87.5005C294.076 87.5005 294.076 87.2227 294.359 86.9449Z" fill="#E4EBF2"/>
<path d="M301.428 84.4447C301.428 83.8891 301.711 83.6113 301.994 83.3336C302.277 83.0558 302.559 82.778 303.125 82.5002C303.69 82.2225 303.973 82.2224 304.539 82.2224C305.104 82.2224 305.387 82.2225 305.67 82.5002C305.953 82.5002 306.518 82.778 306.801 83.0558C307.084 83.3336 307.366 83.6113 307.366 83.8891C307.649 84.1669 307.649 84.7224 307.649 85.0002C307.649 85.5558 307.649 85.8336 307.366 86.1113C307.084 86.3891 307.084 86.6669 306.801 86.9447C306.518 87.2224 306.235 87.5002 305.953 87.778C305.67 88.0558 305.387 88.0558 305.104 88.3335C304.822 88.6113 304.539 88.8891 304.256 88.8891C303.973 89.1669 303.69 89.4447 303.408 89.7224H307.932V91.3891H301.146C301.146 90.8336 301.145 90.278 301.428 90.0002C301.711 89.7225 301.711 89.1669 301.994 88.8891C302.277 88.6113 302.559 88.3336 302.842 88.0558C303.125 87.778 303.69 87.5002 303.973 87.2225C304.256 87.2225 304.256 86.9447 304.539 86.6669C304.821 86.3891 305.104 86.3891 305.104 86.1113C305.387 85.8336 305.387 85.8335 305.67 85.5558C305.67 85.278 305.953 85.0002 305.953 84.7225C305.953 84.1669 305.953 83.8891 305.67 83.6113C305.387 83.3336 305.104 83.3336 304.539 83.3336C304.256 83.3336 303.973 83.3336 303.973 83.6113C303.69 83.6113 303.69 83.8891 303.408 84.1669C303.408 84.4447 303.125 84.7225 303.125 84.7225C303.125 85.0002 303.125 85.278 303.125 85.5558H301.428C301.145 85.278 301.145 85.0002 301.428 84.4447Z" fill="#E4EBF2"/>
<path d="M308.497 84.7225C308.78 84.1669 309.063 83.6113 309.346 83.3336C309.629 83.0558 309.911 82.778 310.477 82.5002C310.76 82.2225 311.325 82.2224 311.891 82.2224C312.456 82.2224 312.739 82.2225 313.304 82.5002C313.587 82.778 314.153 83.0558 314.436 83.3336C314.718 83.6113 315.001 84.1669 315.284 84.7225C315.567 85.278 315.567 86.1113 315.567 86.9447C315.567 87.778 315.567 88.6113 315.284 89.1669C315.001 89.7224 314.718 90.278 314.436 90.5558C314.153 90.8335 313.87 91.1113 313.304 91.3891C313.022 91.6669 312.456 91.6669 311.891 91.6669C311.325 91.6669 311.042 91.6669 310.477 91.3891C310.194 91.1113 309.629 90.8335 309.346 90.5558C309.063 90.278 308.78 89.7224 308.497 89.1669C308.215 88.6113 308.215 87.778 308.215 86.9447C308.215 86.1113 308.497 85.278 308.497 84.7225ZM310.194 87.778C310.194 88.0558 310.194 88.6113 310.477 88.8891C310.477 89.1669 310.76 89.4447 311.042 89.7224C311.325 90.0002 311.608 90.0002 311.891 90.0002C312.173 90.0002 312.456 90.0002 312.739 89.7224C313.022 89.4447 313.022 89.1669 313.304 88.8891C313.304 88.6113 313.587 88.0558 313.587 87.778C313.587 87.5002 313.587 87.2224 313.587 86.9447C313.587 86.6669 313.587 86.6669 313.587 86.3891C313.587 86.1113 313.587 85.8336 313.587 85.8336C313.587 85.5558 313.587 85.278 313.587 85.0002C313.587 84.7224 313.304 84.4447 313.304 84.4447C313.304 84.1669 313.022 84.1669 312.739 83.8891C312.456 83.8891 312.456 83.6113 312.173 83.6113C311.891 83.6113 311.608 83.6113 311.608 83.8891C311.325 83.8891 311.325 84.1669 311.042 84.4447C311.042 84.7224 310.76 84.7224 310.76 85.0002C310.76 85.278 310.76 85.5558 310.76 85.8336C310.76 86.1113 310.76 86.3891 310.76 86.3891C310.76 86.6669 310.76 86.6669 310.76 86.9447C310.194 87.2224 310.194 87.5002 310.194 87.778Z" fill="#E4EBF2"/>
<path d="M316.132 84.4447C316.132 83.8891 316.415 83.6113 316.698 83.3336C316.98 83.0558 317.263 82.778 317.829 82.5002C318.394 82.2225 318.677 82.2224 319.242 82.2224C319.808 82.2224 320.091 82.2225 320.374 82.5002C320.656 82.5002 321.222 82.778 321.505 83.0558C321.787 83.3336 322.07 83.6113 322.07 83.8891C322.353 84.1669 322.353 84.7224 322.353 85.0002C322.353 85.5558 322.353 85.8336 322.07 86.1113C321.787 86.3891 321.787 86.6669 321.505 86.9447C321.222 87.2224 320.939 87.5002 320.656 87.778C320.373 88.0558 320.091 88.0558 319.808 88.3335C319.525 88.6113 319.242 88.8891 318.96 88.8891C318.677 89.1669 318.394 89.4447 318.111 89.7224H322.636V91.3891H315.849C315.849 90.8336 315.849 90.278 316.132 90.0002C316.415 89.7225 316.415 89.1669 316.698 88.8891C316.98 88.6113 317.263 88.3336 317.546 88.0558C317.829 87.778 318.394 87.5002 318.677 87.2225C318.96 87.2225 318.96 86.9447 319.242 86.6669C319.525 86.3891 319.808 86.3891 319.808 86.1113C320.091 85.8336 320.091 85.8335 320.374 85.5558C320.374 85.278 320.656 85.0002 320.656 84.7225C320.656 84.1669 320.656 83.8891 320.374 83.6113C320.091 83.3336 319.808 83.3336 319.242 83.3336C318.96 83.3336 318.677 83.3336 318.677 83.6113C318.394 83.6113 318.394 83.8891 318.111 84.1669C318.111 84.4447 317.829 84.7225 317.829 84.7225C317.829 85.0002 317.829 85.278 317.829 85.5558H316.132C315.849 85.278 315.849 85.0002 316.132 84.4447Z" fill="#E4EBF2"/>
<path d="M322.918 89.4449V87.7782L326.877 82.5004H328.574V88.056H329.705V89.4449H328.574V91.6671H326.877V89.4449H322.918ZM326.877 84.7227L324.332 87.7782H326.877V84.7227Z" fill="#E4EBF2"/>
<path d="M373.92 16.402C366.689 16.402 363.679 18.544 363.679 23.474V24.188C363.679 27.554 364.579 29.73 365.928 30.818C366.586 31.328 367.485 31.77 368.592 32.144L373.92 33.946C375.685 34.524 376.273 34.864 376.273 35.952V36.19C376.273 37.04 375.65 37.448 374.405 37.448H364.268C363.714 37.448 363.437 37.72 363.437 38.23V41.766C363.437 42.276 363.679 42.616 364.198 42.718C367.52 43.364 370.391 43.67 372.848 43.67C380.01 43.67 383.608 41.29 383.608 36.564V35.748C383.608 32.45 382.501 30.41 381.082 29.492C380.356 29.016 379.352 28.54 378.038 28.064L372.536 26.126C371.533 25.752 371.014 25.174 371.014 24.392V24.018C371.014 23.1 371.672 22.624 372.986 22.624H381.566C382.085 22.624 382.362 22.386 382.362 21.876V18.034C382.362 17.694 382.12 17.456 381.601 17.286C379.145 16.708 376.584 16.402 373.92 16.402Z" fill="#E4EBF2"/>
<path d="M386.85 16.606C386.504 16.606 386.331 16.776 386.331 17.15V42.956C386.331 43.33 386.504 43.5 386.85 43.5H405.291C405.672 43.5 405.845 43.33 405.845 42.99V37.788C405.845 37.448 405.672 37.278 405.291 37.278H393.597V32.994H404.357C404.737 32.994 404.91 32.824 404.91 32.484V27.622C404.91 27.282 404.737 27.112 404.357 27.112H393.597V22.828H405.291C405.672 22.828 405.845 22.658 405.845 22.318V17.116C405.845 16.776 405.672 16.606 405.291 16.606H386.85Z" fill="#E4EBF2"/>
<path d="M420.001 16.402C415.295 16.402 412.562 17.116 410.728 19.292C408.929 21.434 408.341 24.562 408.341 30.002C408.341 35.306 409.137 38.91 410.728 40.814C412.354 42.718 415.434 43.67 420.001 43.67C423.08 43.67 425.467 43.432 427.162 42.956C427.854 42.786 428.166 42.514 428.166 41.8V37.992C428.166 37.618 427.993 37.448 427.647 37.448H420.001C418.236 37.448 417.094 36.938 416.541 35.918C415.987 34.864 415.71 32.892 415.71 30.002C415.71 27.112 415.987 25.174 416.541 24.154C417.094 23.134 418.236 22.624 420.001 22.624H427.647C427.993 22.624 428.166 22.454 428.166 22.08V18.272C428.166 17.592 427.889 17.354 427.162 17.116C425.329 16.64 422.941 16.402 420.001 16.402Z" fill="#E4EBF2"/>
<path d="M453.257 30.07C453.257 24.664 452.6 21.468 450.766 19.292C448.933 17.116 446.13 16.402 441.425 16.402C436.72 16.402 433.917 17.116 432.083 19.292C430.25 21.468 429.592 24.664 429.592 30.07C429.765 40.746 432.083 43.466 441.425 43.67C450.766 43.466 453.084 40.746 453.257 30.07ZM436.962 30.07C436.962 27.214 437.273 25.276 437.861 24.222C438.449 23.168 439.66 22.624 441.425 22.624C443.189 22.624 444.4 23.168 444.988 24.222C445.577 25.276 445.888 27.214 445.888 30.07C445.888 32.892 445.577 34.83 444.988 35.884C444.4 36.938 443.189 37.448 441.425 37.448C439.66 37.448 438.449 36.938 437.861 35.884C437.273 34.83 436.962 32.892 436.962 30.07Z" fill="#E4EBF2"/>
<path d="M467.267 16.402C462.562 16.402 459.828 17.082 457.995 19.258C456.196 21.434 455.608 24.596 455.608 30.036C455.608 35.34 456.403 38.944 457.995 40.848C459.621 42.718 462.7 43.67 467.267 43.67C469.793 43.67 471.938 43.432 473.771 42.922C475.605 42.412 476.781 41.8 477.266 41.086C477.404 40.848 477.473 40.508 477.473 40.066V30.886C477.473 30.512 477.3 30.308 476.954 30.308H471.211C470.865 30.308 470.692 30.512 470.692 30.886V37.448H467.267C465.503 37.448 464.361 36.938 463.807 35.918C463.254 34.864 462.977 32.926 462.977 30.036C462.977 27.112 463.254 25.14 463.773 24.154C464.326 23.134 465.503 22.624 467.267 22.624H475.847C476.193 22.624 476.366 22.454 476.366 22.08V18.272C476.366 17.558 476.09 17.286 475.363 17.116C473.668 16.64 470.969 16.402 467.267 16.402Z" fill="#E4EBF2"/>
<path d="M481.113 16.606C480.767 16.606 480.594 16.776 480.594 17.15V42.956C480.594 43.33 480.767 43.5 481.113 43.5H499.554C499.934 43.5 500.107 43.33 500.107 42.99V37.788C500.107 37.448 499.934 37.278 499.554 37.278H487.86V32.994H498.62C499 32.994 499.173 32.824 499.173 32.484V27.622C499.173 27.282 499 27.112 498.62 27.112H487.86V22.828H499.554C499.934 22.828 500.107 22.658 500.107 22.318V17.116C500.107 16.776 499.934 16.606 499.554 16.606H481.113Z" fill="#E4EBF2"/>
<path d="M520.491 16.606C520.041 16.606 519.73 16.776 519.557 17.15L514.54 27.554L509.558 17.15C509.281 16.776 508.97 16.606 508.624 16.606H501.635C501.116 16.606 500.978 16.844 501.254 17.354L510.907 34.354V42.922C510.907 43.296 511.08 43.5 511.426 43.5H517.654C518 43.5 518.173 43.296 518.173 42.922V34.456L527.86 17.354C528.137 16.844 527.999 16.606 527.48 16.606H520.491Z" fill="#E4EBF2"/>
<path d="M364.003 61.07C364.162 61.2653 364.461 61.4484 364.897 61.6193C365.336 61.7902 365.747 61.8756 366.13 61.8756C366.594 61.8756 367.034 61.9478 367.45 62.0923C367.866 62.2367 368.224 62.4331 368.524 62.6813C368.827 62.9275 369.066 63.2255 369.242 63.5754C369.418 63.9233 369.506 64.2936 369.506 64.6863C369.506 65.0789 369.418 65.4502 369.242 65.8002C369.066 66.1481 368.827 66.4461 368.524 66.6943C368.224 66.9426 367.866 67.1389 367.45 67.2833C367.034 67.4278 366.594 67.5 366.13 67.5C365.561 67.5 364.979 67.4064 364.385 67.2192C363.791 67.0321 363.329 66.792 363 66.499C362.948 66.4543 362.904 66.4065 362.866 66.3556C362.829 66.3027 362.796 66.2417 362.767 66.1725C362.74 66.1033 362.736 66.0301 362.755 65.9528C362.773 65.8734 362.818 65.7971 362.888 65.7239C362.952 65.6588 363.022 65.615 363.096 65.5927C363.171 65.5682 363.238 65.5621 363.298 65.5743C363.36 65.5866 363.424 65.611 363.491 65.6476C363.557 65.6822 363.611 65.7168 363.652 65.7514C363.693 65.7859 363.735 65.8226 363.776 65.8612C363.818 65.8978 363.842 65.9182 363.848 65.9222C364.067 66.0748 364.413 66.2162 364.885 66.3464C365.357 66.4746 365.772 66.5387 366.13 66.5387C366.472 66.5387 366.793 66.4878 367.093 66.3861C367.395 66.2844 367.65 66.1491 367.857 65.9802C368.064 65.8093 368.227 65.612 368.347 65.3882C368.468 65.1624 368.528 64.9284 368.528 64.6863C368.528 64.4442 368.468 64.2112 368.347 63.9874C368.227 63.7616 368.064 63.5643 367.857 63.3954C367.65 63.2265 367.395 63.0912 367.093 62.9895C366.793 62.8878 366.472 62.8369 366.13 62.8369C365.567 62.8369 365.01 62.7271 364.46 62.5073C363.911 62.2856 363.498 61.9987 363.22 61.6467C363.082 61.4697 362.969 61.2653 362.882 61.0333C362.797 60.7994 362.755 60.5756 362.755 60.3619C362.755 60.1483 362.797 59.9245 362.882 59.6906C362.969 59.4566 363.082 59.2511 363.22 59.0741C363.498 58.7221 363.911 58.4363 364.46 58.2166C365.01 57.9948 365.567 57.8839 366.13 57.8839C366.714 57.8839 367.306 57.9714 367.906 58.1464C368.509 58.3193 368.983 58.5451 369.329 58.8239C369.432 58.9073 369.49 59.0151 369.503 59.1473C369.517 59.2796 369.482 59.3966 369.397 59.4983C369.312 59.6 369.203 59.658 369.068 59.6722C368.933 59.6845 368.814 59.6488 368.711 59.5654C368.491 59.3884 368.117 59.2247 367.587 59.0741C367.057 58.9215 366.571 58.8452 366.13 58.8452C365.747 58.8452 365.336 58.9307 364.897 59.1016C364.461 59.2725 364.162 59.4556 364.003 59.6509C363.943 59.7262 363.883 59.8442 363.823 60.0049C363.763 60.1656 363.733 60.2846 363.733 60.3619C363.733 60.4393 363.763 60.5583 363.823 60.719C363.883 60.8777 363.943 60.9947 364.003 61.07Z" fill="#E4EBF2"/>
<path d="M370.762 58.3508C370.762 58.2227 370.809 58.1128 370.905 58.0212C371.002 57.9297 371.118 57.8839 371.253 57.8839H377.025C377.158 57.8839 377.272 57.9317 377.367 58.0274C377.464 58.1209 377.513 58.2339 377.513 58.3661C377.513 58.4983 377.464 58.6113 377.367 58.7048C377.272 58.7984 377.158 58.8452 377.025 58.8452H371.74V61.8756H374.137C374.282 61.8756 374.407 61.9224 374.51 62.016C374.616 62.1096 374.668 62.2225 374.668 62.3547C374.668 62.487 374.616 62.6009 374.51 62.6965C374.407 62.7901 374.282 62.8369 374.137 62.8369H371.74V66.5387H377.025C377.158 66.5387 377.272 66.5865 377.367 66.6821C377.464 66.7757 377.513 66.8876 377.513 67.0178C377.513 67.1501 377.464 67.264 377.367 67.3596C377.272 67.4532 377.158 67.5 377.025 67.5H371.253C371.118 67.5 371.002 67.4542 370.905 67.3627C370.809 67.2711 370.762 67.1613 370.762 67.0331V58.3508Z" fill="#E4EBF2"/>
<path d="M384.657 65.7056C384.754 65.614 384.87 65.5703 385.005 65.5743C385.139 65.5764 385.253 65.6252 385.346 65.7208C385.44 65.8165 385.484 65.9314 385.48 66.0657C385.478 66.1979 385.428 66.3098 385.331 66.4014C384.985 66.7249 384.51 66.9893 383.905 67.1948C383.303 67.3983 382.711 67.5 382.129 67.5C381.655 67.5 381.177 67.3891 380.694 67.1674C380.214 66.9436 379.786 66.6455 379.409 66.2732C379.034 65.9009 378.745 65.493 378.542 65.0494C378.397 64.73 378.278 64.3486 378.185 63.905C378.092 63.4615 378.046 63.0577 378.046 62.6935C378.046 62.3273 378.092 61.9224 378.185 61.4789C378.278 61.0354 378.397 60.6539 378.542 60.3345C378.745 59.891 379.034 59.483 379.409 59.1107C379.786 58.7384 380.214 58.4414 380.694 58.2196C381.177 57.9958 381.655 57.8839 382.129 57.8839C382.705 57.8839 383.291 57.9714 383.887 58.1464C384.485 58.3193 384.957 58.5451 385.303 58.8239C385.406 58.9073 385.464 59.0151 385.477 59.1473C385.491 59.2796 385.456 59.3966 385.371 59.4983C385.286 59.6 385.177 59.658 385.042 59.6722C384.908 59.6845 384.788 59.6488 384.685 59.5654C384.465 59.3884 384.094 59.2247 383.57 59.0741C383.046 58.9215 382.566 58.8452 382.129 58.8452C381.837 58.8452 381.515 58.9276 381.163 59.0924C380.811 59.2552 380.477 59.483 380.16 59.776C379.844 60.0669 379.603 60.3823 379.44 60.7221C379.332 60.956 379.236 61.2744 379.151 61.6773C379.066 62.0781 379.024 62.4168 379.024 62.6935C379.024 62.9681 379.066 63.3069 379.151 63.7097C379.236 64.1105 379.332 64.4279 379.44 64.6619C379.603 65.0016 379.844 65.318 380.16 65.611C380.477 65.9019 380.811 66.1298 381.163 66.2946C381.515 66.4573 381.837 66.5387 382.129 66.5387C382.558 66.5387 383.031 66.4522 383.548 66.2793C384.068 66.1043 384.438 65.9131 384.657 65.7056Z" fill="#E4EBF2"/>
<path d="M386.994 57.8839H389.733C390.219 57.8839 390.678 57.945 391.108 58.067C391.539 58.1871 391.912 58.3549 392.226 58.5706C392.543 58.7842 392.794 59.0456 392.978 59.3549C393.162 59.6641 393.254 59.9988 393.254 60.3589C393.254 60.776 393.133 61.1585 392.891 61.5064C392.649 61.8522 392.326 62.134 391.922 62.3517C391.518 62.5673 391.065 62.7118 390.562 62.785L393.186 66.792C393.254 66.9039 393.272 67.0209 393.239 67.143C393.206 67.265 393.132 67.3606 393.018 67.4298C392.894 67.4949 392.768 67.5122 392.639 67.4817C392.513 67.4512 392.416 67.381 392.347 67.2711L389.354 62.8369H387.481V67.0331C387.481 67.1613 387.434 67.2711 387.338 67.3627C387.243 67.4542 387.128 67.5 386.994 67.5C386.859 67.5 386.743 67.4542 386.646 67.3627C386.551 67.2711 386.503 67.1613 386.503 67.0331V58.3508C386.503 58.2227 386.551 58.1128 386.646 58.0212C386.743 57.9297 386.859 57.8839 386.994 57.8839ZM387.481 61.8756H389.733C390.039 61.8756 390.329 61.8471 390.602 61.7902C390.875 61.7312 391.113 61.6528 391.313 61.5552C391.514 61.4555 391.688 61.3416 391.835 61.2134C391.982 61.0832 392.092 60.9459 392.164 60.8014C392.239 60.6549 392.276 60.5084 392.276 60.3619C392.276 60.2155 392.239 60.07 392.164 59.9255C392.092 59.7791 391.982 59.6417 391.835 59.5136C391.688 59.3833 391.514 59.2684 391.313 59.1687C391.113 59.069 390.875 58.9907 390.602 58.9337C390.329 58.8747 390.039 58.8452 389.733 58.8452H387.481V61.8756Z" fill="#E4EBF2"/>
<path d="M394.523 58.3508C394.523 58.2227 394.57 58.1128 394.666 58.0212C394.763 57.9297 394.879 57.8839 395.013 57.8839H400.786C400.919 57.8839 401.033 57.9317 401.128 58.0274C401.225 58.1209 401.274 58.2339 401.274 58.3661C401.274 58.4983 401.225 58.6113 401.128 58.7048C401.033 58.7984 400.919 58.8452 400.786 58.8452H395.501V61.8756H397.898C398.043 61.8756 398.167 61.9224 398.271 62.016C398.377 62.1096 398.429 62.2225 398.429 62.3547C398.429 62.487 398.377 62.6009 398.271 62.6965C398.167 62.7901 398.043 62.8369 397.898 62.8369H395.501V66.5387H400.786C400.919 66.5387 401.033 66.5865 401.128 66.6821C401.225 66.7757 401.274 66.8876 401.274 67.0178C401.274 67.1501 401.225 67.264 401.128 67.3596C401.033 67.4532 400.919 67.5 400.786 67.5H395.013C394.879 67.5 394.763 67.4542 394.666 67.3627C394.57 67.2711 394.523 67.1613 394.523 67.0331V58.3508Z" fill="#E4EBF2"/>
<path d="M402.049 58.8452C401.916 58.8452 401.801 58.7984 401.704 58.7048C401.609 58.6113 401.561 58.4983 401.561 58.3661C401.561 58.2339 401.609 58.1209 401.704 58.0274C401.801 57.9317 401.916 57.8839 402.049 57.8839H407.822C407.956 57.8839 408.071 57.9317 408.166 58.0274C408.264 58.1209 408.312 58.2339 408.312 58.3661C408.312 58.4963 408.264 58.6092 408.166 58.7048C408.071 58.7984 407.956 58.8452 407.822 58.8452H405.468V67.0361C405.468 67.1643 405.416 67.2742 405.312 67.3657C405.209 67.4552 405.084 67.5 404.937 67.5C404.79 67.5 404.664 67.4552 404.561 67.3657C404.457 67.2742 404.406 67.1643 404.406 67.0361V58.8452H402.049Z" fill="#E4EBF2"/>
<path d="M410.77 63.5083H413.18L411.975 59.8889L410.77 63.5083ZM408.618 66.8988L411.466 58.2196C411.499 58.124 411.561 58.0436 411.652 57.9785C411.743 57.9134 411.851 57.8819 411.975 57.8839C412.099 57.8819 412.207 57.9134 412.298 57.9785C412.391 58.0436 412.453 58.123 412.484 58.2166L415.329 66.8988C415.352 66.9782 415.357 67.0534 415.344 67.1246C415.332 67.1938 415.303 67.2528 415.257 67.3016C415.212 67.3505 415.159 67.3922 415.099 67.4268C415.039 67.4613 414.973 67.4817 414.9 67.4878C414.83 67.4919 414.762 67.4868 414.695 67.4725C414.631 67.4563 414.571 67.4227 414.515 67.3718C414.461 67.321 414.421 67.2559 414.394 67.1765L413.5 64.4727H410.45L409.556 67.1735C409.531 67.2528 409.491 67.3189 409.435 67.3718C409.381 67.4247 409.321 67.4593 409.255 67.4756C409.19 67.4898 409.122 67.4949 409.05 67.4909C408.979 67.4868 408.913 67.4675 408.851 67.4329C408.791 67.3962 408.738 67.3535 408.693 67.3047C408.647 67.2559 408.617 67.1958 408.602 67.1246C408.59 67.0534 408.595 66.9782 408.618 66.8988Z" fill="#E4EBF2"/>
<path d="M416.861 57.8839H419.6C420.087 57.8839 420.545 57.945 420.976 58.067C421.407 58.1871 421.779 58.3549 422.094 58.5706C422.411 58.7842 422.661 59.0456 422.845 59.3549C423.03 59.6641 423.122 59.9988 423.122 60.3589C423.122 60.776 423.001 61.1585 422.758 61.5064C422.516 61.8522 422.193 62.134 421.79 62.3517C421.386 62.5673 420.932 62.7118 420.429 62.785L423.053 66.792C423.122 66.9039 423.139 67.0209 423.106 67.143C423.073 67.265 423 67.3606 422.886 67.4298C422.762 67.4949 422.635 67.5122 422.507 67.4817C422.381 67.4512 422.283 67.381 422.215 67.2711L419.221 62.8369H417.349V67.0331C417.349 67.1613 417.301 67.2711 417.206 67.3627C417.111 67.4542 416.996 67.5 416.861 67.5C416.727 67.5 416.611 67.4542 416.513 67.3627C416.418 67.2711 416.371 67.1613 416.371 67.0331V58.3508C416.371 58.2227 416.418 58.1128 416.513 58.0212C416.611 57.9297 416.727 57.8839 416.861 57.8839ZM417.349 61.8756H419.6C419.907 61.8756 420.196 61.8471 420.47 61.7902C420.743 61.7312 420.98 61.6528 421.181 61.5552C421.382 61.4555 421.556 61.3416 421.703 61.2134C421.85 61.0832 421.959 60.9459 422.032 60.8014C422.106 60.6549 422.144 60.5084 422.144 60.3619C422.144 60.2155 422.106 60.07 422.032 59.9255C421.959 59.7791 421.85 59.6417 421.703 59.5136C421.556 59.3833 421.382 59.2684 421.181 59.1687C420.98 59.069 420.743 58.9907 420.47 58.9337C420.196 58.8747 419.907 58.8452 419.6 58.8452H417.349V61.8756Z" fill="#E4EBF2"/>
<path d="M425.198 55.1648C425.287 55.0651 425.398 55.0112 425.533 55.0031C425.668 54.9929 425.786 55.0315 425.887 55.119C425.988 55.2065 426.043 55.3164 426.052 55.4486C426.062 55.5809 426.023 55.6968 425.934 55.7965L424.564 57.3346C424.475 57.4343 424.362 57.4892 424.226 57.4994C424.091 57.5075 423.973 57.4679 423.872 57.3804C423.77 57.2929 423.715 57.183 423.707 57.0508C423.699 56.9185 423.739 56.8026 423.828 56.7029L425.198 55.1648ZM424.39 58.3508C424.39 58.2227 424.438 58.1128 424.533 58.0212C424.63 57.9297 424.746 57.8839 424.881 57.8839C425.015 57.8839 425.13 57.9297 425.226 58.0212C425.321 58.1128 425.368 58.2227 425.368 58.3508V67.0331C425.368 67.1613 425.321 67.2711 425.226 67.3627C425.13 67.4542 425.015 67.5 424.881 67.5C424.746 67.5 424.63 67.4542 424.533 67.3627C424.438 67.2711 424.39 67.1613 424.39 67.0331V58.3508Z" fill="#E4EBF2"/>
<path d="M428.556 63.5083H430.966L429.761 59.8889L428.556 63.5083ZM426.404 66.8988L429.252 58.2196C429.285 58.124 429.347 58.0436 429.438 57.9785C429.529 57.9134 429.637 57.8819 429.761 57.8839C429.885 57.8819 429.993 57.9134 430.084 57.9785C430.177 58.0436 430.239 58.123 430.27 58.2166L433.115 66.8988C433.138 66.9782 433.143 67.0534 433.13 67.1246C433.118 67.1938 433.089 67.2528 433.043 67.3016C432.998 67.3505 432.945 67.3922 432.885 67.4268C432.825 67.4613 432.759 67.4817 432.686 67.4878C432.616 67.4919 432.548 67.4868 432.481 67.4725C432.417 67.4563 432.357 67.4227 432.301 67.3718C432.247 67.321 432.207 67.2559 432.18 67.1765L431.286 64.4727H428.236L427.342 67.1735C427.317 67.2528 427.277 67.3189 427.221 67.3718C427.167 67.4247 427.107 67.4593 427.041 67.4756C426.976 67.4898 426.908 67.4949 426.836 67.4909C426.765 67.4868 426.699 67.4675 426.637 67.4329C426.577 67.3962 426.524 67.3535 426.479 67.3047C426.433 67.2559 426.403 67.1958 426.388 67.1246C426.376 67.0534 426.381 66.9782 426.404 66.8988Z" fill="#E4EBF2"/>
<path d="M441.391 66.5387H443.642C444.06 66.5387 444.465 66.4421 444.856 66.2488C445.25 66.0555 445.594 65.792 445.89 65.4584C446.186 65.1247 446.423 64.7168 446.602 64.2346C446.782 63.7504 446.872 63.2367 446.872 62.6935C446.872 62.3293 446.83 61.9763 446.747 61.6345C446.667 61.2927 446.554 60.9825 446.409 60.7037C446.266 60.423 446.093 60.1666 445.89 59.9347C445.687 59.7007 445.467 59.5044 445.229 59.3457C444.993 59.187 444.739 59.0639 444.468 58.9764C444.197 58.889 443.922 58.8452 443.642 58.8452H441.391V66.5387ZM447.713 61.4575C447.804 61.8604 447.85 62.2723 447.85 62.6935C447.85 63.1146 447.804 63.5276 447.713 63.9325C447.624 64.3353 447.496 64.7138 447.328 65.0678C447.16 65.4218 446.951 65.7483 446.701 66.0474C446.452 66.3464 446.175 66.6038 445.869 66.8195C445.564 67.0331 445.222 67.1999 444.841 67.32C444.46 67.44 444.06 67.5 443.642 67.5H440.903C440.768 67.5 440.652 67.4542 440.555 67.3627C440.46 67.2711 440.412 67.1613 440.412 67.0331V58.3508C440.412 58.2227 440.46 58.1128 440.555 58.0212C440.652 57.9297 440.768 57.8839 440.903 57.8839H443.642C444.06 57.8839 444.46 57.9439 444.841 58.064C445.222 58.184 445.564 58.3519 445.869 58.5675C446.175 58.7811 446.452 59.0375 446.701 59.3366C446.951 59.6356 447.16 59.9632 447.328 60.3192C447.496 60.6732 447.624 61.0527 447.713 61.4575Z" fill="#E4EBF2"/>
<path d="M449.115 58.3508C449.115 58.2227 449.163 58.1128 449.258 58.0212C449.355 57.9297 449.471 57.8839 449.606 57.8839H455.379C455.511 57.8839 455.625 57.9317 455.72 58.0274C455.818 58.1209 455.866 58.2339 455.866 58.3661C455.866 58.4983 455.818 58.6113 455.72 58.7048C455.625 58.7984 455.511 58.8452 455.379 58.8452H450.093V61.8756H452.491C452.636 61.8756 452.76 61.9224 452.863 62.016C452.969 62.1096 453.022 62.2225 453.022 62.3547C453.022 62.487 452.969 62.6009 452.863 62.6965C452.76 62.7901 452.636 62.8369 452.491 62.8369H450.093V66.5387H455.379C455.511 66.5387 455.625 66.5865 455.72 66.6821C455.818 66.7757 455.866 66.8876 455.866 67.0178C455.866 67.1501 455.818 67.264 455.72 67.3596C455.625 67.4532 455.511 67.5 455.379 67.5H449.606C449.471 67.5 449.355 67.4542 449.258 67.3627C449.163 67.2711 449.115 67.1613 449.115 67.0331V58.3508Z" fill="#E4EBF2"/>
<path d="M463.142 58.3508C463.142 58.2227 463.19 58.1128 463.285 58.0212C463.382 57.9297 463.498 57.8839 463.633 57.8839C463.767 57.8839 463.882 57.9297 463.978 58.0212C464.073 58.1128 464.12 58.2227 464.12 58.3508V66.5387H469.406C469.538 66.5387 469.652 66.5865 469.747 66.6821C469.845 66.7757 469.893 66.8876 469.893 67.0178C469.893 67.1501 469.845 67.264 469.747 67.3596C469.652 67.4532 469.538 67.5 469.406 67.5H463.633C463.498 67.5 463.382 67.4542 463.285 67.3627C463.19 67.2711 463.142 67.1613 463.142 67.0331V58.3508Z" fill="#E4EBF2"/>
<path d="M472.351 63.5083H474.761L473.556 59.8889L472.351 63.5083ZM470.199 66.8988L473.047 58.2196C473.08 58.124 473.142 58.0436 473.233 57.9785C473.324 57.9134 473.432 57.8819 473.556 57.8839C473.68 57.8819 473.788 57.9134 473.879 57.9785C473.972 58.0436 474.034 58.123 474.065 58.2166L476.91 66.8988C476.933 66.9782 476.938 67.0534 476.926 67.1246C476.913 67.1938 476.884 67.2528 476.839 67.3016C476.793 67.3505 476.74 67.3922 476.68 67.4268C476.62 67.4613 476.554 67.4817 476.481 67.4878C476.411 67.4919 476.343 67.4868 476.276 67.4725C476.212 67.4563 476.152 67.4227 476.096 67.3718C476.043 67.321 476.002 67.2559 475.975 67.1765L475.081 64.4727H472.031L471.137 67.1735C471.112 67.2528 471.072 67.3189 471.016 67.3718C470.962 67.4247 470.902 67.4593 470.836 67.4756C470.772 67.4898 470.703 67.4949 470.631 67.4909C470.56 67.4868 470.494 67.4675 470.432 67.4329C470.372 67.3962 470.319 67.3535 470.274 67.3047C470.228 67.2559 470.198 67.1958 470.184 67.1246C470.171 67.0534 470.176 66.9782 470.199 66.8988Z" fill="#E4EBF2"/>
<path d="M369.363 78.7056C369.46 78.614 369.576 78.5703 369.711 78.5744C369.845 78.5764 369.959 78.6252 370.052 78.7208C370.146 78.8165 370.19 78.9314 370.186 79.0657C370.184 79.1979 370.134 79.3098 370.037 79.4014C369.691 79.7249 369.216 79.9893 368.611 80.1948C368.009 80.3983 367.417 80.5 366.835 80.5C366.361 80.5 365.883 80.3891 365.4 80.1674C364.92 79.9436 364.492 79.6455 364.115 79.2732C363.74 78.9009 363.451 78.493 363.248 78.0495C363.103 77.73 362.984 77.3486 362.891 76.905C362.798 76.4615 362.751 76.0577 362.751 75.6935C362.751 75.3273 362.798 74.9224 362.891 74.4789C362.984 74.0354 363.103 73.6539 363.248 73.3345C363.451 72.891 363.74 72.483 364.115 72.1107C364.492 71.7384 364.92 71.4414 365.4 71.2196C365.883 70.9958 366.361 70.8839 366.835 70.8839C367.411 70.8839 367.997 70.9714 368.593 71.1464C369.191 71.3193 369.663 71.5451 370.009 71.8239C370.112 71.9073 370.17 72.0151 370.183 72.1474C370.197 72.2796 370.162 72.3966 370.077 72.4983C369.992 72.6 369.883 72.658 369.748 72.6723C369.613 72.6845 369.494 72.6489 369.391 72.5654C369.171 72.3884 368.8 72.2247 368.276 72.0741C367.752 71.9215 367.272 71.8452 366.835 71.8452C366.543 71.8452 366.221 71.9276 365.869 72.0924C365.517 72.2552 365.183 72.483 364.866 72.776C364.55 73.0669 364.309 73.3823 364.146 73.7221C364.038 73.956 363.942 74.2744 363.857 74.6773C363.772 75.0781 363.73 75.4168 363.73 75.6935C363.73 75.9682 363.772 76.3069 363.857 76.7097C363.942 77.1105 364.038 77.4279 364.146 77.6619C364.309 78.0016 364.55 78.318 364.866 78.611C365.183 78.9019 365.517 79.1298 365.869 79.2946C366.221 79.4573 366.543 79.5387 366.835 79.5387C367.264 79.5387 367.737 79.4522 368.254 79.2793C368.774 79.1043 369.143 78.9131 369.363 78.7056Z" fill="#E4EBF2"/>
<path d="M376.137 72.0588C375.758 71.9164 375.306 71.8452 374.78 71.8452C374.254 71.8452 373.802 71.9164 373.423 72.0588C373.044 72.2013 372.724 72.4261 372.464 72.7333C372.205 73.0405 372.012 73.4393 371.886 73.9296C371.762 74.4179 371.7 75.0058 371.7 75.6935C371.7 76.3812 371.762 76.9691 371.886 77.4574C372.012 77.9457 372.205 78.3434 372.464 78.6507C372.724 78.9579 373.044 79.1827 373.423 79.3251C373.802 79.4675 374.254 79.5387 374.78 79.5387C375.306 79.5387 375.758 79.4675 376.137 79.3251C376.516 79.1827 376.835 78.9579 377.094 78.6507C377.355 78.3434 377.548 77.9457 377.675 77.4574C377.801 76.9691 377.864 76.3812 377.864 75.6935C377.864 75.0058 377.801 74.4179 377.675 73.9296C377.548 73.4393 377.355 73.0405 377.094 72.7333C376.835 72.4261 376.516 72.2013 376.137 72.0588ZM376.581 80.1735C376.066 80.3912 375.466 80.5 374.78 80.5C374.095 80.5 373.495 80.3912 372.979 80.1735C372.464 79.9558 372.04 79.6394 371.709 79.2244C371.38 78.8093 371.132 78.3068 370.967 77.7168C370.803 77.1268 370.721 76.4524 370.721 75.6935C370.721 74.9346 370.803 74.2602 370.967 73.6702C371.132 73.0802 371.38 72.5777 371.709 72.1626C372.04 71.7455 372.464 71.4281 372.979 71.2105C373.495 70.9928 374.095 70.8839 374.78 70.8839C375.329 70.8839 375.824 70.9551 376.265 71.0975C376.708 71.2379 377.089 71.4424 377.407 71.7109C377.728 71.9775 377.995 72.3071 378.209 72.6997C378.424 73.0924 378.583 73.5379 378.687 74.0364C378.79 74.5348 378.842 75.0872 378.842 75.6935C378.842 76.4524 378.759 77.1268 378.594 77.7168C378.43 78.3068 378.183 78.8093 377.852 79.2244C377.52 79.6394 377.097 79.9558 376.581 80.1735Z" fill="#E4EBF2"/>
<path d="M380.111 80.0331V71.3508C380.111 71.2206 380.157 71.1108 380.25 71.0212C380.346 70.9297 380.463 70.8839 380.601 70.8839C380.692 70.8839 380.774 70.9063 380.847 70.9511C380.921 70.9958 380.979 71.0518 381.021 71.1189L385.884 78.5774V71.3661C385.884 71.2338 385.932 71.1209 386.03 71.0274C386.127 70.9317 386.242 70.8839 386.374 70.8839C386.509 70.8839 386.624 70.9297 386.719 71.0212C386.814 71.1128 386.862 71.2227 386.862 71.3508V80.0331C386.862 80.1633 386.814 80.2742 386.719 80.3657C386.626 80.4553 386.511 80.5 386.374 80.5C386.283 80.5 386.2 80.4787 386.126 80.4359C386.053 80.3912 385.996 80.3352 385.955 80.2681L381.089 72.8065V80.0178C381.089 80.1501 381.04 80.264 380.943 80.3596C380.848 80.4532 380.734 80.5 380.601 80.5C380.467 80.5 380.351 80.4542 380.253 80.3627C380.158 80.2711 380.111 80.1613 380.111 80.0331Z" fill="#E4EBF2"/>
<path d="M388.369 71.8452C388.237 71.8452 388.122 71.7984 388.025 71.7048C387.929 71.6113 387.882 71.4983 387.882 71.3661C387.882 71.2338 387.929 71.1209 388.025 71.0274C388.122 70.9317 388.237 70.8839 388.369 70.8839H394.142C394.277 70.8839 394.392 70.9317 394.487 71.0274C394.584 71.1209 394.633 71.2338 394.633 71.3661C394.633 71.4963 394.584 71.6092 394.487 71.7048C394.392 71.7984 394.277 71.8452 394.142 71.8452H391.788V80.0361C391.788 80.1643 391.737 80.2742 391.633 80.3657C391.53 80.4553 391.404 80.5 391.257 80.5C391.11 80.5 390.985 80.4553 390.882 80.3657C390.778 80.2742 390.726 80.1643 390.726 80.0361V71.8452H388.369Z" fill="#E4EBF2"/>
<path d="M396.144 70.8839H398.883C399.369 70.8839 399.828 70.945 400.258 71.067C400.689 71.1871 401.062 71.3549 401.376 71.5706C401.693 71.7842 401.944 72.0456 402.128 72.3549C402.312 72.6641 402.404 72.9988 402.404 73.3589C402.404 73.776 402.283 74.1585 402.041 74.5064C401.799 74.8522 401.476 75.134 401.072 75.3517C400.668 75.5674 400.215 75.7118 399.712 75.785L402.336 79.792C402.404 79.9039 402.422 80.0209 402.389 80.143C402.356 80.265 402.282 80.3606 402.168 80.4298C402.044 80.4949 401.918 80.5122 401.789 80.4817C401.663 80.4512 401.566 80.381 401.497 80.2711L398.504 75.8369H396.631V80.0331C396.631 80.1613 396.584 80.2711 396.488 80.3627C396.393 80.4542 396.278 80.5 396.144 80.5C396.009 80.5 395.893 80.4542 395.796 80.3627C395.701 80.2711 395.653 80.1613 395.653 80.0331V71.3508C395.653 71.2227 395.701 71.1128 395.796 71.0212C395.893 70.9297 396.009 70.8839 396.144 70.8839ZM396.631 74.8756H398.883C399.189 74.8756 399.479 74.8471 399.752 74.7902C400.026 74.7312 400.263 74.6528 400.463 74.5552C400.664 74.4555 400.838 74.3416 400.985 74.2134C401.132 74.0832 401.242 73.9459 401.314 73.8014C401.389 73.6549 401.426 73.5084 401.426 73.362C401.426 73.2155 401.389 73.07 401.314 72.9256C401.242 72.7791 401.132 72.6417 400.985 72.5136C400.838 72.3834 400.664 72.2684 400.463 72.1687C400.263 72.069 400.026 71.9907 399.752 71.9337C399.479 71.8747 399.189 71.8452 398.883 71.8452H396.631V74.8756Z" fill="#E4EBF2"/>
<path d="M405.111 76.5083H407.52L406.315 72.8889L405.111 76.5083ZM402.958 79.8988L405.806 71.2196C405.839 71.124 405.901 71.0436 405.992 70.9785C406.084 70.9134 406.191 70.8819 406.315 70.8839C406.44 70.8819 406.547 70.9134 406.638 70.9785C406.732 71.0436 406.794 71.123 406.825 71.2166L409.669 79.8988C409.692 79.9782 409.697 80.0534 409.685 80.1246C409.672 80.1938 409.643 80.2528 409.598 80.3017C409.552 80.3505 409.5 80.3922 409.439 80.4268C409.379 80.4614 409.313 80.4817 409.241 80.4878C409.17 80.4919 409.102 80.4868 409.036 80.4725C408.972 80.4563 408.912 80.4227 408.856 80.3718C408.802 80.321 408.761 80.2559 408.735 80.1765L407.84 77.4727H404.791L403.896 80.1735C403.871 80.2528 403.831 80.3189 403.775 80.3718C403.721 80.4247 403.661 80.4593 403.595 80.4756C403.531 80.4898 403.463 80.4949 403.39 80.4909C403.32 80.4868 403.254 80.4675 403.191 80.4329C403.131 80.3963 403.079 80.3535 403.033 80.3047C402.987 80.2559 402.957 80.1959 402.943 80.1246C402.931 80.0534 402.936 79.9782 402.958 79.8988Z" fill="#E4EBF2"/>
<path d="M410.711 71.3508C410.711 71.2227 410.759 71.1128 410.854 71.0212C410.951 70.9297 411.067 70.8839 411.202 70.8839C411.336 70.8839 411.451 70.9297 411.546 71.0212C411.642 71.1128 411.689 71.2227 411.689 71.3508V79.5387H416.975C417.107 79.5387 417.221 79.5865 417.316 79.6821C417.414 79.7757 417.462 79.8876 417.462 80.0178C417.462 80.1501 417.414 80.264 417.316 80.3596C417.221 80.4532 417.107 80.5 416.975 80.5H411.202C411.067 80.5 410.951 80.4542 410.854 80.3627C410.759 80.2711 410.711 80.1613 410.711 80.0331V71.3508Z" fill="#E4EBF2"/>
<path d="M423.411 72.0588C423.032 71.9164 422.579 71.8452 422.054 71.8452C421.528 71.8452 421.075 71.9164 420.696 72.0588C420.318 72.2013 419.998 72.4261 419.737 72.7333C419.478 73.0405 419.286 73.4393 419.159 73.9296C419.035 74.4179 418.973 75.0058 418.973 75.6935C418.973 76.3812 419.035 76.9691 419.159 77.4574C419.286 77.9457 419.478 78.3434 419.737 78.6507C419.998 78.9579 420.318 79.1827 420.696 79.3251C421.075 79.4675 421.528 79.5387 422.054 79.5387C422.579 79.5387 423.032 79.4675 423.411 79.3251C423.789 79.1827 424.108 78.9579 424.367 78.6507C424.628 78.3434 424.822 77.9457 424.948 77.4574C425.074 76.9691 425.137 76.3812 425.137 75.6935C425.137 75.0058 425.074 74.4179 424.948 73.9296C424.822 73.4393 424.628 73.0405 424.367 72.7333C424.108 72.4261 423.789 72.2013 423.411 72.0588ZM423.855 80.1735C423.339 80.3912 422.739 80.5 422.054 80.5C421.368 80.5 420.768 80.3912 420.252 80.1735C419.737 79.9558 419.314 79.6394 418.982 79.2244C418.653 78.8093 418.406 78.3068 418.24 77.7168C418.077 77.1268 417.995 76.4524 417.995 75.6935C417.995 74.9346 418.077 74.2602 418.24 73.6702C418.406 73.0802 418.653 72.5777 418.982 72.1626C419.314 71.7455 419.737 71.4281 420.252 71.2105C420.768 70.9928 421.368 70.8839 422.054 70.8839C422.602 70.8839 423.097 70.9551 423.538 71.0975C423.981 71.2379 424.362 71.4424 424.681 71.7109C425.002 71.9775 425.269 72.3071 425.482 72.6997C425.697 73.0924 425.857 73.5379 425.96 74.0364C426.064 74.5348 426.115 75.0872 426.115 75.6935C426.115 76.4524 426.033 77.1268 425.867 77.7168C425.703 78.3068 425.456 78.8093 425.125 79.2244C424.794 79.6394 424.37 79.9558 423.855 80.1735Z" fill="#E4EBF2"/>
<path d="M427.875 70.8839H430.614C431.1 70.8839 431.559 70.945 431.989 71.067C432.42 71.1871 432.793 71.3549 433.107 71.5706C433.424 71.7842 433.674 72.0456 433.859 72.3549C434.043 72.6641 434.135 72.9988 434.135 73.3589C434.135 73.776 434.014 74.1585 433.772 74.5064C433.53 74.8522 433.207 75.134 432.803 75.3517C432.399 75.5674 431.946 75.7118 431.443 75.785L434.067 79.792C434.135 79.9039 434.153 80.0209 434.12 80.143C434.086 80.265 434.013 80.3606 433.899 80.4298C433.775 80.4949 433.649 80.5122 433.52 80.4817C433.394 80.4512 433.297 80.381 433.228 80.2711L430.235 75.8369H428.362V80.0331C428.362 80.1613 428.314 80.2711 428.219 80.3627C428.124 80.4542 428.009 80.5 427.875 80.5C427.74 80.5 427.624 80.4542 427.527 80.3627C427.432 80.2711 427.384 80.1613 427.384 80.0331V71.3508C427.384 71.2227 427.432 71.1128 427.527 71.0212C427.624 70.9297 427.74 70.8839 427.875 70.8839ZM428.362 74.8756H430.614C430.92 74.8756 431.21 74.8471 431.483 74.7902C431.756 74.7312 431.993 74.6528 432.194 74.5552C432.395 74.4555 432.569 74.3416 432.716 74.2134C432.863 74.0832 432.973 73.9459 433.045 73.8014C433.12 73.6549 433.157 73.5084 433.157 73.362C433.157 73.2155 433.12 73.07 433.045 72.9256C432.973 72.7791 432.863 72.6417 432.716 72.5136C432.569 72.3834 432.395 72.2684 432.194 72.1687C431.993 72.069 431.756 71.9907 431.483 71.9337C431.21 71.8747 430.92 71.8452 430.614 71.8452H428.362V74.8756Z" fill="#E4EBF2"/>
<path d="M436.211 68.1648C436.3 68.0651 436.412 68.0112 436.546 68.0031C436.681 67.9929 436.799 68.0315 436.9 68.119C437.002 68.2065 437.057 68.3164 437.065 68.4486C437.075 68.5809 437.036 68.6968 436.947 68.7965L435.577 70.3346C435.488 70.4343 435.376 70.4892 435.239 70.4994C435.104 70.5075 434.986 70.4679 434.885 70.3804C434.783 70.2929 434.729 70.183 434.72 70.0508C434.712 69.9185 434.752 69.8026 434.841 69.7029L436.211 68.1648ZM435.404 71.3508C435.404 71.2227 435.451 71.1128 435.546 71.0212C435.644 70.9297 435.76 70.8839 435.894 70.8839C436.029 70.8839 436.144 70.9297 436.239 71.0212C436.334 71.1128 436.382 71.2227 436.382 71.3508V80.0331C436.382 80.1613 436.334 80.2711 436.239 80.3627C436.144 80.4542 436.029 80.5 435.894 80.5C435.76 80.5 435.644 80.4542 435.546 80.3627C435.451 80.2711 435.404 80.1613 435.404 80.0331V71.3508Z" fill="#E4EBF2"/>
<path d="M439.569 76.5083H441.979L440.774 72.8889L439.569 76.5083ZM437.417 79.8988L440.265 71.2196C440.298 71.124 440.36 71.0436 440.451 70.9785C440.542 70.9134 440.65 70.8819 440.774 70.8839C440.898 70.8819 441.006 70.9134 441.097 70.9785C441.19 71.0436 441.253 71.123 441.284 71.2166L444.128 79.8988C444.151 79.9782 444.156 80.0534 444.144 80.1246C444.131 80.1938 444.102 80.2528 444.057 80.3017C444.011 80.3505 443.958 80.3922 443.898 80.4268C443.838 80.4614 443.772 80.4817 443.7 80.4878C443.629 80.4919 443.561 80.4868 443.495 80.4725C443.43 80.4563 443.37 80.4227 443.315 80.3718C443.261 80.321 443.22 80.2559 443.193 80.1765L442.299 77.4727H439.25L438.355 80.1735C438.33 80.2528 438.29 80.3189 438.234 80.3718C438.18 80.4247 438.12 80.4593 438.054 80.4756C437.99 80.4898 437.921 80.4949 437.849 80.4909C437.779 80.4868 437.712 80.4675 437.65 80.4329C437.59 80.3963 437.537 80.3535 437.492 80.3047C437.446 80.2559 437.416 80.1959 437.402 80.1246C437.389 80.0534 437.395 79.9782 437.417 79.8988Z" fill="#E4EBF2"/>
<path d="M455.022 75.8369C454.877 75.8369 454.753 75.7901 454.649 75.6965C454.548 75.6009 454.497 75.487 454.497 75.3548C454.497 75.2225 454.548 75.1096 454.649 75.016C454.753 74.9224 454.877 74.8756 455.022 74.8756H457.885C458.02 74.8756 458.134 74.9214 458.23 75.013C458.325 75.1045 458.373 75.2144 458.373 75.3425V79.0474C458.385 79.2 458.335 79.3271 458.223 79.4288C457.878 79.7442 457.403 80.0016 456.798 80.2009C456.196 80.4003 455.603 80.5 455.022 80.5C454.548 80.5 454.069 80.3891 453.587 80.1674C453.107 79.9436 452.678 79.6455 452.301 79.2732C451.927 78.9009 451.638 78.493 451.435 78.0495C451.29 77.73 451.171 77.3486 451.078 76.905C450.985 76.4615 450.938 76.0577 450.938 75.6935C450.938 75.3273 450.985 74.9224 451.078 74.4789C451.171 74.0354 451.29 73.6539 451.435 73.3345C451.638 72.891 451.927 72.483 452.301 72.1107C452.678 71.7384 453.107 71.4414 453.587 71.2196C454.069 70.9958 454.548 70.8839 455.022 70.8839C455.597 70.8839 456.183 70.9714 456.779 71.1464C457.378 71.3193 457.85 71.5451 458.195 71.8239C458.299 71.9073 458.357 72.0151 458.369 72.1474C458.384 72.2796 458.349 72.3966 458.264 72.4983C458.179 72.6 458.069 72.658 457.935 72.6723C457.8 72.6845 457.681 72.6489 457.578 72.5654C457.358 72.3884 456.986 72.2247 456.463 72.0741C455.939 71.9215 455.459 71.8452 455.022 71.8452C454.73 71.8452 454.408 71.9276 454.056 72.0924C453.704 72.2552 453.37 72.483 453.053 72.776C452.736 73.0669 452.496 73.3823 452.332 73.7221C452.225 73.956 452.129 74.2744 452.044 74.6773C451.959 75.0781 451.916 75.4168 451.916 75.6935C451.916 75.9682 451.959 76.3069 452.044 76.7097C452.129 77.1105 452.225 77.4279 452.332 77.6619C452.496 78.0016 452.736 78.318 453.053 78.611C453.37 78.9019 453.704 79.1298 454.056 79.2946C454.408 79.4573 454.73 79.5387 455.022 79.5387C455.405 79.5387 455.831 79.4706 456.301 79.3342C456.771 79.1959 457.135 79.0372 457.394 78.8582V75.8369H455.022Z" fill="#E4EBF2"/>
<path d="M459.88 71.3508C459.88 71.2227 459.928 71.1128 460.023 71.0212C460.12 70.9297 460.236 70.8839 460.371 70.8839H466.144C466.276 70.8839 466.39 70.9317 466.485 71.0274C466.583 71.1209 466.631 71.2338 466.631 71.3661C466.631 71.4983 466.583 71.6113 466.485 71.7048C466.39 71.7984 466.276 71.8452 466.144 71.8452H460.858V74.8756H463.256C463.401 74.8756 463.525 74.9224 463.628 75.016C463.734 75.1096 463.787 75.2225 463.787 75.3548C463.787 75.487 463.734 75.6009 463.628 75.6965C463.525 75.7901 463.401 75.8369 463.256 75.8369H460.858V79.5387H466.144C466.276 79.5387 466.39 79.5865 466.485 79.6821C466.583 79.7757 466.631 79.8876 466.631 80.0178C466.631 80.1501 466.583 80.264 466.485 80.3596C466.39 80.4532 466.276 80.5 466.144 80.5H460.371C460.236 80.5 460.12 80.4542 460.023 80.3627C459.928 80.2711 459.88 80.1613 459.88 80.0331V71.3508Z" fill="#E4EBF2"/>
<path d="M467.651 80.0331V71.3508C467.651 71.2206 467.698 71.1108 467.791 71.0212C467.886 70.9297 468.003 70.8839 468.142 70.8839C468.233 70.8839 468.315 70.9063 468.387 70.9511C468.462 70.9958 468.52 71.0518 468.561 71.1189L473.424 78.5774V71.3661C473.424 71.2338 473.473 71.1209 473.57 71.0274C473.668 70.9317 473.782 70.8839 473.915 70.8839C474.05 70.8839 474.164 70.9297 474.26 71.0212C474.355 71.1128 474.403 71.2227 474.403 71.3508V80.0331C474.403 80.1633 474.355 80.2742 474.26 80.3657C474.166 80.4553 474.052 80.5 473.915 80.5C473.824 80.5 473.741 80.4787 473.667 80.4359C473.594 80.3912 473.537 80.3352 473.496 80.2681L468.63 72.8065V80.0178C468.63 80.1501 468.581 80.264 468.484 80.3596C468.388 80.4532 468.274 80.5 468.142 80.5C468.007 80.5 467.891 80.4542 467.794 80.3627C467.699 80.2711 467.651 80.1613 467.651 80.0331Z" fill="#E4EBF2"/>
<path d="M476.155 71.3508C476.155 71.2227 476.203 71.1128 476.298 71.0212C476.396 70.9297 476.512 70.8839 476.646 70.8839H482.419C482.552 70.8839 482.665 70.9317 482.761 71.0274C482.858 71.1209 482.907 71.2338 482.907 71.3661C482.907 71.4983 482.858 71.6113 482.761 71.7048C482.665 71.7984 482.552 71.8452 482.419 71.8452H477.134V74.8756H479.531C479.676 74.8756 479.8 74.9224 479.904 75.016C480.009 75.1096 480.062 75.2225 480.062 75.3548C480.062 75.487 480.009 75.6009 479.904 75.6965C479.8 75.7901 479.676 75.8369 479.531 75.8369H477.134V79.5387H482.419C482.552 79.5387 482.665 79.5865 482.761 79.6821C482.858 79.7757 482.907 79.8876 482.907 80.0178C482.907 80.1501 482.858 80.264 482.761 80.3596C482.665 80.4532 482.552 80.5 482.419 80.5H476.646C476.512 80.5 476.396 80.4542 476.298 80.3627C476.203 80.2711 476.155 80.1613 476.155 80.0331V71.3508Z" fill="#E4EBF2"/>
<path d="M484.417 70.8839H487.156C487.643 70.8839 488.101 70.945 488.532 71.067C488.963 71.1871 489.335 71.3549 489.65 71.5706C489.967 71.7842 490.217 72.0456 490.401 72.3549C490.586 72.6641 490.678 72.9988 490.678 73.3589C490.678 73.776 490.557 74.1585 490.314 74.5064C490.072 74.8522 489.749 75.134 489.346 75.3517C488.942 75.5674 488.489 75.7118 487.985 75.785L490.609 79.792C490.678 79.9039 490.695 80.0209 490.662 80.143C490.629 80.265 490.556 80.3606 490.442 80.4298C490.318 80.4949 490.191 80.5122 490.063 80.4817C489.937 80.4512 489.839 80.381 489.771 80.2711L486.777 75.8369H484.905V80.0331C484.905 80.1613 484.857 80.2711 484.762 80.3627C484.667 80.4542 484.552 80.5 484.417 80.5C484.283 80.5 484.167 80.4542 484.069 80.3627C483.974 80.2711 483.927 80.1613 483.927 80.0331V71.3508C483.927 71.2227 483.974 71.1128 484.069 71.0212C484.167 70.9297 484.283 70.8839 484.417 70.8839ZM484.905 74.8756H487.156C487.463 74.8756 487.753 74.8471 488.026 74.7902C488.299 74.7312 488.536 74.6528 488.737 74.5552C488.938 74.4555 489.112 74.3416 489.259 74.2134C489.406 74.0832 489.515 73.9459 489.588 73.8014C489.662 73.6549 489.7 73.5084 489.7 73.362C489.7 73.2155 489.662 73.07 489.588 72.9256C489.515 72.7791 489.406 72.6417 489.259 72.5136C489.112 72.3834 488.938 72.2684 488.737 72.1687C488.536 72.069 488.299 71.9907 488.026 71.9337C487.753 71.8747 487.463 71.8452 487.156 71.8452H484.905V74.8756Z" fill="#E4EBF2"/>
<path d="M493.384 76.5083H495.794L494.589 72.8889L493.384 76.5083ZM491.232 79.8988L494.08 71.2196C494.113 71.124 494.175 71.0436 494.266 70.9785C494.357 70.9134 494.465 70.8819 494.589 70.8839C494.713 70.8819 494.821 70.9134 494.912 70.9785C495.005 71.0436 495.067 71.123 495.098 71.2166L497.943 79.8988C497.966 79.9782 497.971 80.0534 497.958 80.1246C497.946 80.1938 497.917 80.2528 497.871 80.3017C497.826 80.3505 497.773 80.3922 497.713 80.4268C497.653 80.4614 497.587 80.4817 497.514 80.4878C497.444 80.4919 497.376 80.4868 497.309 80.4725C497.245 80.4563 497.185 80.4227 497.129 80.3718C497.075 80.321 497.035 80.2559 497.008 80.1765L496.114 77.4727H493.064L492.17 80.1735C492.145 80.2528 492.105 80.3189 492.049 80.3718C491.995 80.4247 491.935 80.4593 491.869 80.4756C491.804 80.4898 491.736 80.4949 491.664 80.4909C491.593 80.4868 491.527 80.4675 491.465 80.4329C491.405 80.3963 491.352 80.3535 491.307 80.3047C491.261 80.2559 491.231 80.1959 491.216 80.1246C491.204 80.0534 491.209 79.9782 491.232 79.8988Z" fill="#E4EBF2"/>
<path d="M498.985 71.3508C498.985 71.2227 499.032 71.1128 499.127 71.0212C499.225 70.9297 499.341 70.8839 499.475 70.8839C499.61 70.8839 499.725 70.9297 499.82 71.0212C499.915 71.1128 499.963 71.2227 499.963 71.3508V79.5387H505.248C505.381 79.5387 505.495 79.5865 505.59 79.6821C505.687 79.7757 505.736 79.8876 505.736 80.0178C505.736 80.1501 505.687 80.264 505.59 80.3596C505.495 80.4532 505.381 80.5 505.248 80.5H499.475C499.341 80.5 499.225 80.4542 499.127 80.3627C499.032 80.2711 498.985 80.1613 498.985 80.0331V71.3508Z" fill="#E4EBF2"/>
</svg>
