<svg width="367" height="100" viewBox="0 0 367 100" fill="none" xmlns="http://www.w3.org/2000/svg">
<path d="M281.4 37.8124L282.166 38.8732L291.478 50.943C291.711 51.2248 291.928 51.52 292.126 51.827C292.288 52.0863 292.343 52.3985 292.28 52.6976C292.216 52.9967 292.038 53.2594 291.784 53.43C291.558 53.6145 291.271 53.7082 290.979 53.693C290.687 53.6777 290.411 53.5546 290.205 53.3475C289.915 53.0416 289.644 52.7189 289.392 52.381C285.997 47.9609 282.603 43.5644 279.243 39.1207C279.028 38.8023 278.733 38.5463 278.387 38.3786C278.042 38.211 277.658 38.1376 277.275 38.166C273.998 38.2249 270.733 38.166 267.468 38.166H266.737C266.669 38.1607 266.601 38.1701 266.537 38.1937C266.473 38.2173 266.415 38.2545 266.367 38.3026C266.319 38.3508 266.282 38.4088 266.258 38.4727C266.235 38.5366 266.225 38.6049 266.231 38.6728C266.231 38.9439 266.231 39.215 266.231 39.4861V51.7445C266.248 52.0467 266.248 52.3498 266.231 52.6521C266.185 52.931 266.041 53.1844 265.825 53.3661C265.609 53.5478 265.334 53.6458 265.052 53.6422C264.764 53.6446 264.485 53.5417 264.268 53.3528C264.051 53.1639 263.911 52.9021 263.873 52.6167C263.855 52.3459 263.855 52.0742 263.873 51.8034V18.6115C263.861 18.4035 263.861 18.1949 263.873 17.9868C263.868 17.7094 263.961 17.4391 264.136 17.2235C264.31 17.0079 264.555 16.8608 264.828 16.8081C265.153 16.7353 265.485 16.7037 265.818 16.7138C270.085 16.7138 274.352 16.7138 278.619 16.7138C281.308 16.647 283.978 17.1826 286.433 18.2815C287.934 18.9213 289.244 19.9398 290.233 21.2372C291.223 22.5347 291.859 24.0668 292.079 25.6837C292.435 27.4944 292.252 29.3698 291.552 31.0774C290.852 32.7849 289.667 34.2496 288.142 35.29C286.333 36.5181 284.27 37.3237 282.107 37.6473L281.4 37.8124ZM266.266 19.1537C266.266 19.6134 266.266 19.967 266.266 20.3324V34.7596C266.224 34.9935 266.224 35.2329 266.266 35.4668C266.351 35.669 266.512 35.8298 266.714 35.9147C266.983 35.9563 267.258 35.9563 267.527 35.9147C270.827 35.9147 274.128 35.9147 277.416 35.9147C278.595 35.9147 279.892 35.9147 281.129 35.7379C283.005 35.5679 284.804 34.914 286.351 33.8402C287.531 33.0545 288.469 31.9559 289.06 30.6674C289.651 29.3788 289.872 27.9511 289.698 26.5441C289.612 25.1393 289.121 23.7895 288.285 22.6579C287.448 21.5263 286.301 20.6612 284.983 20.1674C283.375 19.4608 281.637 19.0956 279.88 19.0948C275.636 19.0948 271.405 19.0948 267.173 19.0948C266.926 19.1066 266.655 19.1301 266.266 19.1537Z" fill="#E4EBF2"/>
<path d="M179.679 34.512C179.877 39.5913 178.093 44.5487 174.705 48.3381C171.739 51.6384 167.633 53.6935 163.213 54.0901C159.955 54.4692 156.654 53.9855 153.642 52.6874C151.517 51.7848 149.593 50.4656 147.986 48.8076C146.379 47.1496 145.12 45.1864 144.283 43.034C143.129 40.368 142.584 37.4785 142.686 34.5752C142.787 31.672 143.535 28.8279 144.873 26.2494C146.149 23.5334 148.108 21.1948 150.558 19.4616C153.008 17.7284 155.866 16.6598 158.852 16.3602C161.206 16.0183 163.604 16.1434 165.909 16.7285C168.214 17.3136 170.381 18.3471 172.287 19.7701C174.193 21.1931 175.799 22.9776 177.015 25.0217C178.231 27.0658 179.032 29.3294 179.373 31.6832C179.585 32.7204 179.62 33.9109 179.679 34.512ZM145.344 35.2428C145.344 35.7379 145.344 36.4215 145.45 37.1287C145.532 37.8181 145.65 38.5027 145.804 39.1796C147.749 47.6308 155.174 52.9821 163.708 51.7091C165.918 51.421 168.034 50.6347 169.897 49.4097C171.759 48.1846 173.318 46.5527 174.458 44.637C175.723 42.6179 176.563 40.3616 176.926 38.0065C177.289 35.6514 177.167 33.247 176.568 30.9406C175.751 27.0467 173.488 23.6075 170.235 21.317C166.982 19.0266 162.982 18.0555 159.041 18.5997C155.243 19.0598 151.765 20.9529 149.316 23.892C146.669 27.0743 145.259 31.1045 145.344 35.2428Z" fill="#E4EBF2"/>
<path d="M304.62 36.174C304.332 41.1793 304.332 46.197 304.62 51.2023H326.509C326.811 51.1844 327.114 51.1844 327.416 51.2023C327.704 51.237 327.968 51.3764 328.16 51.5938C328.351 51.8112 328.456 52.0914 328.453 52.381C328.425 52.6513 328.303 52.9035 328.11 53.0947C327.917 53.2859 327.663 53.4043 327.393 53.43C327.122 53.43 326.85 53.43 326.568 53.43H303.618C302.275 53.5479 301.874 52.7346 301.909 51.6737C301.968 49.835 301.909 47.9844 301.909 46.1457V18.7647C301.909 17.1146 302.287 16.7256 303.925 16.7256H326.32C326.621 16.7207 326.922 16.7524 327.216 16.8199C327.475 16.8549 327.712 16.9856 327.88 17.1862C328.048 17.3868 328.135 17.6429 328.123 17.9043C328.129 18.1801 328.038 18.449 327.865 18.6644C327.693 18.8798 327.451 19.0279 327.181 19.083C326.879 19.1126 326.575 19.1126 326.273 19.083H304.538C304.475 19.4181 304.432 19.7566 304.408 20.0967V32.744C304.424 33.0914 304.46 33.4377 304.514 33.7812H323.916C324.277 33.7672 324.638 33.807 324.988 33.8991C325.219 33.9683 325.421 34.11 325.565 34.3032C325.709 34.4964 325.786 34.7309 325.786 34.9717C325.786 35.2126 325.709 35.447 325.565 35.6402C325.421 35.8335 325.219 35.9752 324.988 36.0443C324.638 36.1365 324.277 36.1762 323.916 36.1622H304.62V36.174Z" fill="#E4EBF2"/>
<path d="M350.978 33.0151C351.344 33.4748 351.615 33.8402 351.898 34.1938L365.618 51.0019C365.838 51.2519 366.043 51.5156 366.23 51.7916C366.327 51.9219 366.395 52.0707 366.432 52.2287C366.468 52.3866 366.471 52.5503 366.441 52.7096C366.411 52.8689 366.349 53.0203 366.258 53.1544C366.167 53.2885 366.049 53.4024 365.912 53.4889C365.668 53.6691 365.368 53.7562 365.065 53.7346C364.763 53.713 364.478 53.5841 364.262 53.3711C364.003 53.1118 363.791 52.8171 363.555 52.546C359.029 46.9826 354.503 41.4192 349.976 35.8557C349.741 35.5493 349.47 35.2664 349.151 34.901C348.868 35.1603 348.609 35.3607 348.385 35.5964C345.721 38.2721 343.069 40.9713 340.394 43.6469C340.187 43.8428 340.027 44.0816 339.923 44.3463C339.819 44.611 339.775 44.8953 339.792 45.1792C339.792 47.4187 339.792 49.6582 339.792 51.8977C339.81 52.1685 339.81 52.4402 339.792 52.711C339.755 52.9964 339.615 53.2582 339.397 53.4471C339.18 53.636 338.902 53.7389 338.614 53.7365C338.331 53.7401 338.057 53.6421 337.841 53.4604C337.624 53.2787 337.48 53.0253 337.435 52.7464C337.411 52.5033 337.411 52.2586 337.435 52.0156C337.435 40.818 337.435 29.6205 337.435 18.4229C337.417 18.1836 337.417 17.9433 337.435 17.7039C337.486 17.4026 337.64 17.128 337.869 16.9262C338.099 16.7245 338.391 16.6079 338.696 16.596C338.988 16.6171 339.264 16.7372 339.479 16.9366C339.693 17.1359 339.833 17.4025 339.875 17.6921C339.898 18.0572 339.898 18.4233 339.875 18.7883V39.6983C339.875 40.0754 339.875 40.4526 339.934 40.877L340.134 40.9595C340.346 40.7709 340.559 40.5941 340.759 40.3937L359.618 20.9689L363.024 17.4328C363.207 17.2264 363.408 17.037 363.626 16.8671C363.729 16.7663 363.853 16.6882 363.988 16.638C364.124 16.5877 364.268 16.5663 364.413 16.5752C364.557 16.5841 364.698 16.623 364.826 16.6895C364.954 16.756 365.067 16.8486 365.158 16.9614C365.376 17.1546 365.515 17.4218 365.547 17.7112C365.58 18.0007 365.504 18.2921 365.335 18.529C365.133 18.792 364.908 19.0365 364.663 19.2598L351.933 32.0839L350.978 33.0151Z" fill="#E4EBF2"/>
<path d="M254.939 52.2513C254.939 52.9821 254.703 53.43 254.302 53.5832C254.081 53.6881 253.833 53.7217 253.593 53.6795C253.352 53.6373 253.13 53.5212 252.958 53.3475C252.704 53.0471 252.497 52.7092 252.346 52.3456C251.073 49.5993 249.8 46.8647 248.586 44.0948C248.489 43.783 248.286 43.5147 248.013 43.3361C247.74 43.1576 247.413 43.0799 247.089 43.1165C240.464 43.1165 233.84 43.1165 227.216 43.1165C226.89 43.0805 226.562 43.1599 226.288 43.3408C226.015 43.5216 225.813 43.7926 225.719 44.1066C224.54 46.8529 223.267 49.5757 222.041 52.3574C221.908 52.664 221.75 52.9596 221.57 53.2414C221.399 53.473 221.152 53.6382 220.873 53.709C220.594 53.7799 220.299 53.7521 220.038 53.6304C219.794 53.5017 219.608 53.2852 219.519 53.0246C219.429 52.7641 219.442 52.4792 219.554 52.2277C219.674 51.8848 219.815 51.5501 219.979 51.2258C224.945 40.4291 229.911 29.6441 234.877 18.8708C235.101 18.3876 235.314 17.8807 235.585 17.4093C235.729 17.0873 235.963 16.8138 236.259 16.622C236.555 16.4301 236.9 16.328 237.252 16.328C237.605 16.328 237.95 16.4301 238.246 16.622C238.542 16.8138 238.776 17.0873 238.92 17.4093C239.392 18.2815 239.781 19.2009 240.193 20.1085L254.514 51.1551C254.703 51.6148 254.856 52.0391 254.939 52.2513ZM246.971 40.8062C246.829 40.4173 246.723 40.1108 246.594 39.8161L242.916 31.7303C241.179 27.9192 239.451 24.1199 237.73 20.3324C237.588 20.0259 237.553 19.6252 237.152 19.4838C236.551 20.297 227.581 40.0401 227.463 40.8062H246.971Z" fill="#E4EBF2"/>
<path d="M121.829 16.2777C125.626 16.183 129.351 17.3292 132.438 19.5427C132.707 19.6898 132.963 19.8594 133.204 20.0495C133.437 20.2487 133.59 20.5252 133.635 20.8284C133.681 21.1315 133.616 21.4409 133.451 21.6997C133.255 21.9524 132.975 22.1269 132.662 22.1917C132.349 22.2566 132.022 22.2075 131.742 22.0533C131.508 21.9109 131.284 21.7534 131.07 21.5818C128.888 19.9268 126.297 18.896 123.574 18.5997C121.322 18.2433 119.015 18.4747 116.879 19.2716C115.751 19.6478 114.739 20.3105 113.944 21.1948C113.148 22.0791 112.596 23.1547 112.341 24.3164C111.991 25.5854 112.067 26.934 112.557 28.1558C113.046 29.3777 113.923 30.4055 115.052 31.0821C116.661 32.0469 118.411 32.7548 120.238 33.1801C122.265 33.687 124.293 34.1231 126.308 34.6535C127.826 35.0695 129.29 35.6629 130.669 36.4215C136.563 39.5686 135.95 47.0297 132.591 50.4243C130.779 52.2366 128.423 53.4043 125.884 53.7482C122.965 54.2152 119.979 54.0462 117.131 53.2528C114.283 52.4595 111.64 51.0604 109.382 49.1514C109.166 48.9843 108.969 48.7946 108.793 48.5856C108.606 48.3813 108.502 48.1142 108.502 47.8371C108.502 47.56 108.606 47.293 108.793 47.0886C108.963 46.8719 109.203 46.7214 109.472 46.6632C109.741 46.6051 110.022 46.643 110.266 46.7704C110.549 46.9387 110.814 47.1362 111.056 47.3597C113.162 49.2486 115.706 50.5816 118.458 51.2376C121.252 51.9585 124.187 51.9342 126.968 51.1669C128.191 50.803 129.321 50.1798 130.281 49.3399C131.346 48.3822 132.092 47.12 132.417 45.7243C132.742 44.3286 132.629 42.8669 132.096 41.537C131.669 40.4925 130.927 39.6068 129.974 39.0028C128.433 38.0257 126.734 37.3237 124.953 36.9283C122.725 36.3508 120.486 35.8675 118.27 35.29C116.687 34.8713 115.174 34.2241 113.779 33.3687C112.766 32.8141 111.89 32.0389 111.217 31.1004C110.544 30.1619 110.09 29.0842 109.889 27.9467C109.5 26.2491 109.619 24.4745 110.231 22.8439C110.843 21.2133 111.921 19.7987 113.331 18.7765C115.582 17.0992 118.327 16.22 121.134 16.2777C121.334 16.2659 121.582 16.2777 121.829 16.2777Z" fill="#E4EBF2"/>
<path d="M189.297 34.9953V18.6587C189.297 18.364 189.297 18.0575 189.297 17.7511C189.331 17.4398 189.473 17.1503 189.7 16.9344C189.927 16.7185 190.223 16.5902 190.535 16.5724C190.839 16.5989 191.123 16.7317 191.339 16.9472C191.555 17.1628 191.687 17.4474 191.714 17.7511C191.731 18.0809 191.731 18.4114 191.714 18.7412V49.7407C191.714 51.438 191.714 51.2023 193.211 51.2023H211.822C212.093 51.1846 212.365 51.1846 212.636 51.2023C212.919 51.2423 213.178 51.384 213.364 51.6008C213.551 51.8177 213.652 52.095 213.649 52.381C213.638 52.6555 213.523 52.9156 213.329 53.1099C213.135 53.3042 212.875 53.4184 212.6 53.43C212.294 53.43 211.987 53.43 211.693 53.43C204.88 53.43 198.079 53.43 191.266 53.43C189.639 53.43 189.227 53.0882 189.239 51.3555C189.321 45.9807 189.297 40.4762 189.297 34.9953Z" fill="#E4EBF2"/>
<path d="M240.724 12.1052C239.804 12.1052 239.628 11.7987 239.899 11.2329C239.899 11.1151 240.028 11.0208 240.087 10.9147C241.077 9.44132 242.091 7.97975 243.046 6.47102C243.894 5.15089 244.932 5.19804 246.216 6.03491C246.676 6.34137 246.688 6.64783 246.358 7.10752C246.285 7.20617 246.202 7.29702 246.11 7.37861C244.684 8.75768 243.27 10.1485 241.808 11.504C241.475 11.7513 241.11 11.9534 240.724 12.1052Z" fill="#E4EBF2"/>
<path d="M127.31 79.5026V68.3758H134.241V69.7548H128.689V73.0905H132.85V74.505H128.689V78.1117H134.241V79.5026H127.31Z" fill="#E4EBF2"/>
<path d="M145.603 79.5026V74.6464C145.597 74.0606 145.362 73.5005 144.948 73.0863C144.533 72.672 143.973 72.4366 143.388 72.4305C142.8 72.4305 142.236 72.6639 141.821 73.0795C141.405 73.4951 141.172 74.0587 141.172 74.6464V79.5026H139.781V74.6464C139.833 73.727 140.236 72.8626 140.905 72.2303C141.575 71.598 142.461 71.2457 143.382 71.2457C144.303 71.2457 145.189 71.598 145.858 72.2303C146.528 72.8626 146.93 73.727 146.983 74.6464V79.5026H145.603Z" fill="#E4EBF2"/>
<path d="M159.217 78.3828C158.407 79.1769 157.317 79.6216 156.182 79.6216C155.047 79.6216 153.958 79.1769 153.147 78.3828C152.737 77.9937 152.414 77.5232 152.196 77.0015C151.979 76.4798 151.873 75.9185 151.886 75.3536C151.874 74.7864 151.979 74.2228 152.194 73.6977C152.409 73.1726 152.729 72.6972 153.135 72.3008C153.528 71.8919 154 71.5688 154.524 71.3517C155.047 71.1347 155.61 71.0284 156.176 71.0396C157.014 71.0316 157.835 71.2738 158.534 71.735C159.243 72.1829 159.798 72.8368 160.125 73.6091L154.231 77.4517C154.497 77.7094 154.81 77.9118 155.154 78.0474C155.498 78.183 155.866 78.2489 156.235 78.2414C156.615 78.251 156.992 78.1816 157.343 78.0375C157.694 77.8934 158.011 77.6779 158.274 77.4045C158.544 77.1377 158.758 76.8201 158.903 76.4701C159.049 76.12 159.124 75.7445 159.123 75.3654H160.514C160.512 75.9298 160.397 76.4881 160.174 77.0066C159.951 77.5252 159.626 77.9933 159.217 78.3828ZM156.176 72.4894C155.792 72.4817 155.409 72.5542 155.054 72.7023C154.699 72.8505 154.379 73.071 154.114 73.3498C153.843 73.62 153.629 73.9418 153.486 74.2962C153.342 74.6505 153.271 75.0302 153.277 75.4125C153.28 75.7328 153.331 76.0508 153.43 76.3555L158.145 73.2673C157.623 72.7415 156.917 72.441 156.176 72.4305V72.4894Z" fill="#E4EBF2"/>
<path d="M167.386 73.0905C167.178 73.2949 167.013 73.539 166.902 73.8083C166.79 74.0777 166.735 74.3667 166.737 74.6582V79.5144H165.382V74.6464C165.383 74.1734 165.48 73.7056 165.669 73.2718C165.858 72.838 166.133 72.4474 166.478 72.124C166.799 71.7802 167.188 71.5064 167.62 71.3198C168.052 71.1332 168.518 71.0378 168.989 71.0396V72.4305C168.69 72.4214 168.393 72.4755 168.117 72.5893C167.84 72.703 167.591 72.8738 167.386 73.0905Z" fill="#E4EBF2"/>
<path d="M180.516 81.6832C179.873 82.3465 179.028 82.7788 178.114 82.9131C177.2 83.0474 176.267 82.8761 175.46 82.4257C174.831 82.0878 174.293 81.6025 173.892 81.0113L175.071 80.2452C175.318 80.6482 175.665 80.9811 176.078 81.2122C176.49 81.4432 176.955 81.5648 177.428 81.5653C177.845 81.5805 178.259 81.4978 178.638 81.3238C179.016 81.1498 179.349 80.8894 179.609 80.5634C180.132 79.8925 180.395 79.0556 180.351 78.206C179.978 78.631 179.519 78.9734 179.006 79.2111C178.492 79.4489 177.935 79.5768 177.369 79.5868C176.803 79.5968 176.242 79.4886 175.72 79.2691C175.198 79.0496 174.728 78.7237 174.34 78.3121C173.565 77.5011 173.141 76.4166 173.161 75.2947C173.171 74.1576 173.627 73.0699 174.432 72.267C175.237 71.464 176.326 71.0104 177.463 71.0042C178.028 70.9939 178.589 71.1007 179.11 71.3178C179.631 71.5348 180.102 71.8575 180.493 72.2654C180.9 72.6571 181.223 73.1278 181.442 73.6487C181.661 74.1696 181.771 74.7297 181.766 75.2947V78.6304C181.779 79.1979 181.675 79.7621 181.46 80.2875C181.245 80.8129 180.924 81.2881 180.516 81.6832ZM180.41 75.33C180.41 74.5485 180.1 73.799 179.547 73.2464C178.994 72.6938 178.245 72.3833 177.463 72.3833C176.682 72.3833 175.932 72.6938 175.38 73.2464C174.827 73.799 174.517 74.5485 174.517 75.33C174.517 76.1116 174.827 76.8611 175.38 77.4137C175.932 77.9663 176.682 78.2768 177.463 78.2768C178.245 78.2768 178.994 77.9663 179.547 77.4137C180.1 76.8611 180.41 76.1116 180.41 75.33Z" fill="#E4EBF2"/>
<path d="M188.072 69.7666H187.423L188.767 68.3758H190.158L188.072 69.7666ZM187.423 79.5026V71.1693H188.802V79.5026H187.423Z" fill="#E4EBF2"/>
<path d="M201.226 79.5026V78.2414C200.852 78.6664 200.394 79.0087 199.88 79.2465C199.367 79.4842 198.809 79.6122 198.244 79.6222C197.678 79.6322 197.116 79.524 196.595 79.3045C196.073 79.085 195.603 78.759 195.215 78.3475C194.438 77.5371 194.014 76.4521 194.036 75.33C194.093 74.2295 194.571 73.1931 195.371 72.4344C196.17 71.6758 197.23 71.2529 198.332 71.2529C199.434 71.2529 200.494 71.6758 201.294 72.4344C202.093 73.1931 202.571 74.2295 202.628 75.33V79.5026H201.226ZM201.226 75.33C201.231 74.9492 201.157 74.5713 201.009 74.2204C200.861 73.8694 200.642 73.5529 200.365 73.2909C200.099 73.0138 199.778 72.7944 199.423 72.6464C199.069 72.4984 198.687 72.4249 198.303 72.4305C197.536 72.4396 196.804 72.7481 196.263 73.2899C195.721 73.8317 195.412 74.5639 195.403 75.33C195.406 76.0992 195.712 76.8361 196.255 77.3811C196.798 77.9261 197.534 78.2352 198.303 78.2414C198.686 78.2464 199.066 78.1738 199.421 78.028C199.775 77.8821 200.097 77.6661 200.365 77.3927C200.642 77.1262 200.862 76.8056 201.01 76.4508C201.158 76.0959 201.231 75.7145 201.226 75.33Z" fill="#E4EBF2"/>
<path d="M245.427 80.422L244.661 78.3357H239.156L238.39 80.422H236.928L240.971 69.3187H242.822L246.865 80.422H245.427ZM241.891 70.7567L239.628 76.9448H244.142L241.891 70.7567Z" fill="#E4EBF2"/>
<path d="M251.462 80.422V69.3187H252.841V80.422H251.462Z" fill="#E4EBF2"/>
<path d="M260.502 73.4795V80.422H259.111V73.4795H257.732V72.0886H259.111V69.3187H260.502V72.0886H261.893V73.4795H260.502Z" fill="#E4EBF2"/>
<path d="M273.468 79.3022C273.07 79.6916 272.598 79.9967 272.079 80.1992C271.561 80.4017 271.007 80.4975 270.45 80.4809C269.889 80.4969 269.329 80.401 268.805 80.1986C268.281 79.9962 267.803 79.6915 267.397 79.3022C266.99 78.9113 266.668 78.4405 266.451 77.9192C266.234 77.398 266.127 76.8375 266.136 76.273C266.127 75.706 266.233 75.1431 266.447 74.6183C266.662 74.0935 266.981 73.6178 267.386 73.2202C267.77 72.8072 268.235 72.4778 268.752 72.2527C269.269 72.0276 269.827 71.9116 270.391 71.9118C271.229 71.9024 272.05 72.1447 272.749 72.6073C273.464 73.051 274.024 73.7058 274.352 74.4814L268.458 78.3239C268.995 78.8422 269.716 79.1262 270.462 79.1136C270.843 79.1242 271.222 79.0552 271.576 78.9111C271.929 78.767 272.248 78.551 272.513 78.2768C272.784 78.0118 272.998 77.6943 273.142 77.3436C273.286 76.993 273.357 76.6166 273.35 76.2376H274.752C274.761 76.8094 274.651 77.3768 274.43 77.9042C274.209 78.4315 273.881 78.9075 273.468 79.3022ZM270.427 73.4088C270.043 73.3998 269.663 73.4718 269.309 73.62C268.956 73.7683 268.638 73.9895 268.376 74.2692C268.101 74.5372 267.884 74.8583 267.739 75.213C267.593 75.5677 267.521 75.9484 267.527 76.3319C267.534 76.6528 267.59 76.9707 267.692 77.2749L272.407 74.1867C271.872 73.6527 271.147 73.3519 270.391 73.3498L270.427 73.4088Z" fill="#E4EBF2"/>
<path d="M281.648 73.9981C281.438 74.2008 281.272 74.4446 281.16 74.7143C281.049 74.9841 280.994 75.2739 280.999 75.5658V80.422H279.609V75.5658C279.612 75.0943 279.71 74.6282 279.896 74.195C280.082 73.7618 280.353 73.3703 280.693 73.0434C281.017 72.6998 281.408 72.4263 281.842 72.2397C282.276 72.0532 282.743 71.9577 283.215 71.959V73.3498C282.924 73.3442 282.634 73.3989 282.364 73.5105C282.094 73.622 281.85 73.788 281.648 73.9981Z" fill="#E4EBF2"/>
<path d="M293.588 80.422V75.5658C293.593 75.2729 293.538 74.9821 293.424 74.7121C293.31 74.4421 293.141 74.1989 292.928 73.9981C292.617 73.6919 292.223 73.4842 291.795 73.4008C291.367 73.3175 290.924 73.3624 290.521 73.5297C290.119 73.6971 289.774 73.9795 289.532 74.3417C289.289 74.7039 289.158 75.1297 289.156 75.5658V80.422H287.765V75.5658C287.818 74.6464 288.22 73.7819 288.89 73.1496C289.559 72.5173 290.445 72.1651 291.366 72.1651C292.287 72.1651 293.173 72.5173 293.842 73.1496C294.512 73.7819 294.914 74.6464 294.967 75.5658V80.422H293.588Z" fill="#E4EBF2"/>
<path d="M307.084 80.422V79.1608C306.71 79.5858 306.252 79.9281 305.738 80.1659C305.225 80.4036 304.667 80.5316 304.102 80.5416C303.536 80.5516 302.974 80.4433 302.453 80.2238C301.931 80.0043 301.461 79.6784 301.073 79.2669C300.296 78.4565 299.872 77.3715 299.894 76.2494C299.952 75.1489 300.429 74.1124 301.229 73.3538C302.028 72.5952 303.088 72.1723 304.19 72.1723C305.292 72.1723 306.352 72.5952 307.152 73.3538C307.951 74.1124 308.429 75.1489 308.486 76.2494V80.422H307.084ZM307.084 76.2494C307.089 75.8685 307.015 75.4907 306.867 75.1398C306.719 74.7888 306.5 74.4723 306.223 74.2103C305.957 73.9332 305.636 73.7138 305.281 73.5658C304.927 73.4178 304.545 73.3443 304.161 73.3498C303.395 73.359 302.662 73.6674 302.121 74.2093C301.579 74.7511 301.27 75.4832 301.261 76.2494C301.264 77.0105 301.564 77.7405 302.096 78.2842C302.629 78.8279 303.353 79.1424 304.114 79.1608C304.497 79.1658 304.877 79.0932 305.232 78.9474C305.586 78.8015 305.908 78.5854 306.176 78.3121C306.462 78.0497 306.69 77.7309 306.846 77.3759C307.003 77.0209 307.083 76.6373 307.084 76.2494Z" fill="#E4EBF2"/>
<path d="M315.794 73.4795V80.422H314.404V73.4795H313.024V72.0886H314.404V69.3187H315.794V72.0886H317.185V73.4795H315.794Z" fill="#E4EBF2"/>
<path d="M322.077 70.7331V69.3187H323.456V70.7331H322.077ZM322.077 80.4573V72.0886H323.456V80.422L322.077 80.4573Z" fill="#E4EBF2"/>
<path d="M333.039 80.422H331.035L328.006 72.0886H329.479L332.037 79.0783L334.583 72.0886H336.056L333.039 80.422Z" fill="#E4EBF2"/>
<path d="M347.124 80.422V79.1608C346.751 79.5855 346.294 79.9276 345.782 80.1653C345.269 80.4029 344.712 80.5308 344.148 80.5408C343.583 80.5508 343.022 80.4426 342.501 80.2233C341.981 80.0039 341.512 79.6781 341.124 79.2669C340.738 78.8671 340.434 78.3945 340.232 77.8765C340.03 77.3585 339.932 76.8054 339.946 76.2494C339.946 75.1084 340.399 74.0141 341.206 73.2073C342.013 72.4005 343.107 71.9472 344.248 71.9472C345.389 71.9472 346.483 72.4005 347.29 73.2073C348.097 74.0141 348.55 75.1084 348.55 76.2494V80.422H347.124ZM347.124 76.2494C347.115 75.4772 346.801 74.7397 346.252 74.1969C345.703 73.6541 344.961 73.3498 344.189 73.3498C343.806 73.3452 343.427 73.4191 343.074 73.5672C342.721 73.7152 342.403 73.9341 342.138 74.2103C341.862 74.4723 341.642 74.7888 341.494 75.1398C341.346 75.4907 341.272 75.8685 341.278 76.2494C341.278 77.0216 341.584 77.7621 342.13 78.3081C342.676 78.854 343.417 79.1608 344.189 79.1608C344.961 79.1608 345.702 78.854 346.248 78.3081C346.794 77.7621 347.1 77.0216 347.1 76.2494H347.124Z" fill="#E4EBF2"/>
<path d="M212.93 73.2555C214.71 71.6879 216.113 70.4503 220.002 72.5837C221.396 73.4391 222.989 73.9145 224.623 73.9628C226.462 73.8221 228.176 72.9777 229.408 71.6054C229.612 71.4181 229.737 71.16 229.756 70.8839C229.776 70.6078 229.69 70.3345 229.514 70.1202C229.426 70.0161 229.318 69.9305 229.196 69.8687C229.075 69.8068 228.942 69.7698 228.806 69.76C228.67 69.7501 228.533 69.7675 228.404 69.8111C228.274 69.8548 228.155 69.9238 228.053 70.0141C226.273 71.5818 224.87 72.8194 220.981 70.686C215.842 67.8689 213.484 69.9552 211.551 71.629C211.342 71.813 211.214 72.0719 211.194 72.3498C211.174 72.6277 211.264 72.9022 211.445 73.1141C211.532 73.2179 211.639 73.3032 211.76 73.3649C211.881 73.4266 212.012 73.4635 212.148 73.4734C212.283 73.4833 212.418 73.466 212.547 73.4225C212.675 73.379 212.794 73.3102 212.895 73.2202L212.93 73.2555Z" fill="#E4EBF2"/>
<path d="M228.124 75.3182C226.344 76.8859 224.929 78.1235 221.051 75.9901C215.924 73.173 213.555 75.2475 211.622 76.9213C211.418 77.1085 211.293 77.3666 211.274 77.6428C211.254 77.9189 211.341 78.1921 211.516 78.4064C211.602 78.5111 211.708 78.5973 211.829 78.6601C211.949 78.7229 212.081 78.7609 212.216 78.7719C212.351 78.7829 212.487 78.7666 212.616 78.7241C212.745 78.6816 212.863 78.6136 212.966 78.5243C214.757 76.9566 216.16 75.7072 220.038 77.8406C221.428 78.6952 223.016 79.1744 224.646 79.2315C226.485 79.0908 228.199 78.2465 229.432 76.8741C229.641 76.6901 229.769 76.4312 229.789 76.1533C229.809 75.8754 229.719 75.6009 229.538 75.389C229.452 75.2837 229.345 75.1971 229.224 75.1345C229.104 75.0718 228.971 75.0344 228.836 75.0244C228.7 75.0145 228.564 75.0323 228.435 75.0767C228.307 75.1212 228.189 75.1913 228.088 75.2829L228.124 75.3182Z" fill="#E4EBF2"/>
<path d="M50.0118 100C40.1217 100.002 30.4531 97.0716 22.2289 91.5784C14.0046 86.0852 7.59414 78.2764 3.8083 69.1396C0.0224587 60.0028 -0.968701 49.9485 0.960184 40.2484C2.88907 30.5482 7.65135 21.638 14.6447 14.6447C21.638 7.65135 30.5482 2.88907 40.2484 0.960184C49.9485 -0.968701 60.0028 0.0224587 69.1396 3.8083C78.2764 7.59414 86.0852 14.0046 91.5784 22.2289C97.0716 30.4531 100.002 40.1217 100 50.0118C99.9844 63.2647 94.7128 75.9703 85.3416 85.3416C75.9703 94.7128 63.2647 99.9844 50.0118 100ZM50.0118 4.18437C40.9475 4.18204 32.0861 6.86779 24.5482 11.902C17.0104 16.9361 11.1347 24.0926 7.66437 32.4662C4.19399 40.8399 3.28477 50.0546 5.0517 58.9451C6.81863 67.8355 11.1823 76.0023 17.591 82.4125C23.9996 88.8228 32.1652 93.1886 41.0552 94.9578C49.9452 96.727 59.1601 95.8202 67.5347 92.3519C75.9092 88.8837 83.0672 83.0099 88.1033 75.4734C93.1394 67.9368 95.8274 59.0761 95.8274 50.0118C95.815 37.8635 90.9843 26.2161 82.3953 17.6249C73.8062 9.03359 62.1601 4.19997 50.0118 4.18437Z" fill="#E4EBF2"/>
<path d="M77.4241 79.2248L80.7116 75.6346L21.6514 21.5538L18.3639 25.144L77.4241 79.2248Z" fill="#E4EBF2"/>
<path d="M72.4659 58.0783L75.7534 54.4881L43.9457 25.3622L40.6582 28.9524L72.4659 58.0783Z" fill="#E4EBF2"/>
<path d="M31.2159 54.8383L34.8061 58.1258L44.8995 47.1031L41.3093 43.8156L31.2159 54.8383Z" fill="#E4EBF2"/>
</svg>
